<svg width="440" height="404" viewBox="0 0 440 404" fill="none" xmlns="http://www.w3.org/2000/svg">
<g clip-path="url(#clip0_2055_399)">
<path d="M558.322 244.326C555.594 275.504 541.859 305.633 522.266 330.551C521.447 331.594 520.618 332.626 519.779 333.649C517.892 335.95 515.957 338.208 513.972 340.423C511.544 343.152 509.045 345.817 506.476 348.42C504.384 350.563 502.244 352.659 500.054 354.71C498.365 356.309 496.656 357.877 494.928 359.414C474.135 378.007 450.249 393.35 425.639 406.768C377.61 432.945 324.967 452.775 270.21 455.663C215.46 458.544 158.304 443.027 118.153 406.073C64.0394 356.273 48.9369 273.21 70.9069 203.391C85.5195 156.942 115.344 114.922 155.935 87.4782C196.174 60.2731 246.938 48.0275 294.981 56.032C333.334 32.9666 383.541 32.5252 425.236 49.598C447.484 58.7098 467.45 72.2581 484.966 88.629C492.988 96.1419 500.494 104.176 507.434 112.679C508.143 113.54 508.845 114.408 509.54 115.284C512.451 118.924 515.267 122.64 517.987 126.43C521.893 131.865 525.601 137.421 529.111 143.097C530.077 144.66 531.035 146.231 531.971 147.816C532.6 148.88 533.236 149.951 533.858 151.029C533.872 151.051 533.882 151.076 533.887 151.102C543.622 168.044 551.579 186.123 555.726 205.02C556.457 208.363 557.071 211.722 557.547 215.109V215.116C557.964 217.989 558.278 220.877 558.49 223.779C558.99 230.621 558.934 237.492 558.322 244.326Z" fill="#111010"/>
<path opacity="0.3" d="M415.444 291.46L306.866 201.95L412.348 295.045C412.552 295.386 412.836 295.673 413.175 295.884C413.514 296.094 413.898 296.222 414.297 296.255C414.696 296.289 415.097 296.229 415.467 296.079C415.837 295.928 416.166 295.693 416.426 295.392C416.686 295.091 416.87 294.733 416.962 294.348C417.054 293.962 417.052 293.561 416.956 293.176C416.86 292.792 416.673 292.436 416.41 292.137C416.147 291.839 415.816 291.607 415.444 291.46Z" fill="#F0F0F0"/>
<path d="M166.444 245.911C202.393 245.911 231.536 217.072 231.536 181.498C231.536 145.924 202.393 117.086 166.444 117.086C130.496 117.086 101.353 145.924 101.353 181.498C101.353 217.072 130.496 245.911 166.444 245.911Z" fill="#3F3D56"/>
<path d="M224.222 177.156C224.223 184.855 222.691 192.478 219.714 199.591C216.737 206.703 212.373 213.166 206.872 218.61C201.371 224.053 194.84 228.371 187.653 231.317C180.465 234.263 172.761 235.779 164.982 235.778C158.048 235.775 151.167 234.575 144.65 232.232C134.459 228.558 125.482 222.188 118.697 213.816C111.911 205.443 107.577 195.389 106.165 184.747C104.754 174.106 106.32 163.285 110.693 153.463C115.065 143.641 122.077 135.195 130.965 129.043C139.852 122.892 150.275 119.271 161.098 118.575C171.921 117.879 182.729 120.135 192.347 125.096C201.964 130.058 210.021 137.536 215.642 146.715C221.262 155.894 224.23 166.423 224.222 177.156Z" fill="#1B1D1F"/>
<path d="M154.743 175.709C164.841 175.709 173.027 167.608 173.027 157.615C173.027 147.623 164.841 139.522 154.743 139.522C144.645 139.522 136.459 147.623 136.459 157.615C136.459 167.608 144.645 175.709 154.743 175.709Z" fill="#3F3D56"/>
<path d="M221.911 160.894C217.948 162.78 213.431 163.19 209.188 162.049C204.944 160.908 201.259 158.291 198.806 154.679C196.354 151.067 195.299 146.701 195.835 142.382C196.371 138.063 198.462 134.08 201.725 131.163C211.422 138.748 218.479 149.143 221.911 160.894Z" fill="#3F3D56"/>
<path d="M184.728 203.21C188.364 203.21 191.311 200.294 191.311 196.697C191.311 193.099 188.364 190.183 184.728 190.183C181.093 190.183 178.146 193.099 178.146 196.697C178.146 200.294 181.093 203.21 184.728 203.21Z" fill="#3F3D56"/>
<path d="M157.668 233.607C157.668 234.179 157.591 234.749 157.441 235.301C153.074 234.76 148.783 233.731 144.65 232.232C144.993 230.661 145.912 229.27 147.229 228.328C148.545 227.386 150.168 226.96 151.784 227.13C153.399 227.301 154.894 228.057 155.98 229.253C157.067 230.448 157.668 231.999 157.668 233.607Z" fill="#3F3D56"/>
<path d="M118.906 174.261C118.906 177.566 117.636 180.747 115.355 183.16C113.074 185.573 109.951 187.039 106.619 187.259C105.111 178.656 105.551 169.829 107.906 161.415C110.979 161.922 113.771 163.491 115.785 165.843C117.799 168.195 118.905 171.178 118.906 174.261Z" fill="#3F3D56"/>
<path d="M418.559 88.3762C419.433 88.3762 420.141 87.6753 420.141 86.8107C420.141 85.9461 419.433 85.2452 418.559 85.2452C417.685 85.2452 416.977 85.9461 416.977 86.8107C416.977 87.6753 417.685 88.3762 418.559 88.3762Z" fill="#F0F0F0"/>
<path d="M164.777 395.239C165.651 395.239 166.359 394.538 166.359 393.674C166.359 392.809 165.651 392.108 164.777 392.108C163.903 392.108 163.195 392.809 163.195 393.674C163.195 394.538 163.903 395.239 164.777 395.239Z" fill="#F0F0F0"/>
<path d="M427.54 241.551C428.413 241.551 429.122 240.85 429.122 239.986C429.122 239.121 428.413 238.42 427.54 238.42C426.666 238.42 425.958 239.121 425.958 239.986C425.958 240.85 426.666 241.551 427.54 241.551Z" fill="#F0F0F0"/>
<path d="M223.399 256.336C224.894 256.336 226.106 255.136 226.106 253.656C226.106 252.177 224.894 250.977 223.399 250.977C221.903 250.977 220.691 252.177 220.691 253.656C220.691 255.136 221.903 256.336 223.399 256.336Z" fill="#FFEB62"/>
<path d="M125.396 314.076C132.458 314.076 138.183 308.411 138.183 301.423C138.183 294.435 132.458 288.77 125.396 288.77C118.335 288.77 112.61 294.435 112.61 301.423C112.61 308.411 118.335 314.076 125.396 314.076Z" fill="#FFEB62"/>
<path d="M195.494 317.076C196.368 317.076 197.076 316.375 197.076 315.511C197.076 314.646 196.368 313.945 195.494 313.945C194.62 313.945 193.912 314.646 193.912 315.511C193.912 316.375 194.62 317.076 195.494 317.076Z" fill="#F0F0F0"/>
<path d="M356.393 72.4541C357.267 72.4541 357.975 71.7532 357.975 70.8886C357.975 70.024 357.267 69.3231 356.393 69.3231C355.52 69.3231 354.811 70.024 354.811 70.8886C354.811 71.7532 355.52 72.4541 356.393 72.4541Z" fill="#F0F0F0"/>
<path d="M262.048 406.095C262.922 406.095 263.63 405.394 263.63 404.53C263.63 403.665 262.922 402.964 262.048 402.964C261.174 402.964 260.466 403.665 260.466 404.53C260.466 405.394 261.174 406.095 262.048 406.095Z" fill="#F0F0F0"/>
<path d="M238.644 86.9288C239.518 86.9288 240.226 86.2279 240.226 85.3633C240.226 84.4987 239.518 83.7978 238.644 83.7978C237.771 83.7978 237.062 84.4987 237.062 85.3633C237.062 86.2279 237.771 86.9288 238.644 86.9288Z" fill="#F0F0F0"/>
<path d="M279.601 162.921C280.474 162.921 281.183 162.22 281.183 161.355C281.183 160.491 280.474 159.79 279.601 159.79C278.727 159.79 278.019 160.491 278.019 161.355C278.019 162.22 278.727 162.921 279.601 162.921Z" fill="#F0F0F0"/>
<path d="M216.908 349.388C217.782 349.388 218.49 348.687 218.49 347.822C218.49 346.957 217.782 346.257 216.908 346.257C216.034 346.257 215.326 346.957 215.326 347.822C215.326 348.687 216.034 349.388 216.908 349.388Z" fill="#F0F0F0"/>
<path d="M401.942 359.52C402.816 359.52 403.524 358.819 403.524 357.954C403.524 357.09 402.816 356.389 401.942 356.389C401.068 356.389 400.36 357.09 400.36 357.954C400.36 358.819 401.068 359.52 401.942 359.52Z" fill="#F0F0F0"/>
<path d="M320.03 268.329C320.903 268.329 321.612 267.628 321.612 266.764C321.612 265.899 320.903 265.198 320.03 265.198C319.156 265.198 318.448 265.899 318.448 266.764C318.448 267.628 319.156 268.329 320.03 268.329Z" fill="#F0F0F0"/>
<path d="M361.717 162.664C362.591 162.664 363.299 161.963 363.299 161.099C363.299 160.234 362.591 159.533 361.717 159.533C360.843 159.533 360.135 160.234 360.135 161.099C360.135 161.963 360.843 162.664 361.717 162.664Z" fill="#F0F0F0"/>
<path d="M437.508 214.908C439.241 214.908 440.645 213.518 440.645 211.804C440.645 210.09 439.241 208.7 437.508 208.7C435.776 208.7 434.372 210.09 434.372 211.804C434.372 213.518 435.776 214.908 437.508 214.908Z" fill="#FF6584"/>
<path d="M310.252 112.138C311.984 112.138 313.388 110.748 313.388 109.034C313.388 107.32 311.984 105.93 310.252 105.93C308.519 105.93 307.115 107.32 307.115 109.034C307.115 110.748 308.519 112.138 310.252 112.138Z" fill="#FF6584"/>
<path d="M310.252 325.639C311.984 325.639 313.388 324.25 313.388 322.535C313.388 320.821 311.984 319.431 310.252 319.431C308.519 319.431 307.115 320.821 307.115 322.535C307.115 324.25 308.519 325.639 310.252 325.639Z" fill="#FF6584"/>
<path d="M525.593 385.7C516.149 385.7 505.799 385.347 494.542 384.641C436.315 380.982 360.894 368.261 282.172 348.822C203.45 329.382 130.832 305.547 77.6945 281.707C51.8098 270.093 31.9435 259.1 18.648 249.032C4.57142 238.373 -1.58586 229.083 0.346443 221.419C4.11148 206.489 37.4491 203.223 64.7529 203.112L64.7622 205.283C27.2668 205.436 5.14638 211.353 2.47556 221.945C-0.926622 235.436 26.8201 256.497 78.6006 279.729C131.621 303.517 204.106 327.307 282.704 346.715C361.301 366.123 436.583 378.823 494.681 382.474C551.419 386.04 585.913 380.348 589.315 366.857C592.139 355.656 573.519 339.156 536.884 320.394L537.893 318.466C564.512 332.099 595.411 351.651 591.444 367.383C589.511 375.046 579.665 380.385 562.178 383.249C552.21 384.882 539.967 385.7 525.593 385.7Z" fill="#FFEB62"/>
<path d="M175.573 412.062C149.537 412.063 125.333 411.178 103.664 409.395C75.3412 407.062 52.8973 403.313 36.9566 398.252C20.0793 392.892 11.1255 386.189 10.3438 378.328C8.82033 363.016 39.1111 348.855 64.7901 339.672L65.5357 341.714C30.2719 354.324 11.4465 367.252 12.5271 378.116C13.9034 391.954 47.1878 402.565 103.846 407.23C161.861 412.008 238.21 410.315 318.827 402.461C399.445 394.61 474.662 381.541 530.623 365.662C585.274 350.156 615.83 333.326 614.454 319.489C613.311 308.001 590.17 298.651 549.295 293.16L549.59 291.009C579.291 294.998 615.032 303.14 616.637 319.276C617.419 327.137 609.957 335.439 594.46 343.951C579.822 351.991 558.548 359.998 531.228 367.75C475.143 383.663 399.788 396.758 319.042 404.622C268.389 409.556 219.398 412.062 175.573 412.062Z" fill="#FFEB62"/>
<path d="M242.414 25.3061C249.476 25.3061 255.2 19.6412 255.2 12.6531C255.2 5.66497 249.476 0 242.414 0C235.352 0 229.628 5.66497 229.628 12.6531C229.628 19.6412 235.352 25.3061 242.414 25.3061Z" fill="#3F3D56"/>
<path d="M14.2297 326.379C21.2915 326.379 27.0161 320.714 27.0161 313.726C27.0161 306.738 21.2915 301.073 14.2297 301.073C7.168 301.073 1.44333 306.738 1.44333 313.726C1.44333 320.714 7.168 326.379 14.2297 326.379Z" fill="#3F3D56"/>
<path d="M93.2166 86.2584C97.5395 86.2584 101.044 82.7906 101.044 78.5128C101.044 74.235 97.5395 70.7672 93.2166 70.7672C88.8937 70.7672 85.3893 74.235 85.3893 78.5128C85.3893 82.7906 88.8937 86.2584 93.2166 86.2584Z" fill="#FF6584"/>
<path d="M56.6486 380.094C60.9715 380.094 64.4759 376.626 64.4759 372.349C64.4759 368.071 60.9715 364.603 56.6486 364.603C52.3257 364.603 48.8214 368.071 48.8214 372.349C48.8214 376.626 52.3257 380.094 56.6486 380.094Z" fill="#FF6584"/>
</g>
<defs>
<clipPath id="clip0_2055_399">
<rect width="440" height="404" fill="white"/>
</clipPath>
</defs>
</svg>
