<svg width="307" height="250" viewBox="0 0 307 250" fill="none" xmlns="http://www.w3.org/2000/svg">
<g clip-path="url(#clip0_1_358)">
<path d="M418.295 175.207C416.252 197.566 405.961 219.171 391.282 237.04C390.669 237.787 390.048 238.528 389.419 239.261C388.006 240.912 386.555 242.531 385.069 244.119C383.25 246.076 381.377 247.987 379.452 249.854C377.885 251.39 376.282 252.894 374.641 254.364C373.376 255.511 372.095 256.636 370.8 257.738C355.223 271.07 337.327 282.073 318.889 291.695C282.906 310.467 243.466 324.688 202.442 326.758C161.423 328.824 118.602 317.697 88.5202 291.197C47.9784 255.485 36.6636 195.92 53.1236 145.853C64.0713 112.544 86.4161 82.4113 116.827 62.7311C146.974 43.2222 185.006 34.4408 221 40.1809C249.734 23.6406 287.35 23.324 318.588 35.567C335.256 42.1012 350.214 51.8167 363.337 63.5563C369.347 68.9439 374.971 74.7054 380.17 80.8025C380.702 81.4201 381.228 82.0429 381.748 82.6709C383.929 85.2814 386.039 87.9455 388.077 90.6633C391.003 94.561 393.781 98.5451 396.411 102.616C397.134 103.737 397.852 104.863 398.553 106C399.025 106.763 399.501 107.531 399.967 108.304C399.978 108.32 399.985 108.337 399.989 108.356C407.282 120.505 413.244 133.47 416.35 147.021C416.898 149.419 417.359 151.827 417.715 154.256V154.261C418.027 156.321 418.263 158.392 418.422 160.473C418.796 165.38 418.754 170.307 418.295 175.207Z" fill="#111010"/>
<path opacity="0.3" d="M311.251 209.007L229.904 144.819L308.932 211.578C309.085 211.823 309.297 212.029 309.551 212.18C309.805 212.331 310.093 212.422 310.392 212.446C310.691 212.471 310.991 212.427 311.268 212.319C311.546 212.212 311.792 212.043 311.987 211.827C312.182 211.611 312.319 211.355 312.388 211.078C312.457 210.802 312.456 210.514 312.384 210.238C312.312 209.963 312.172 209.707 311.975 209.493C311.778 209.279 311.53 209.113 311.251 209.007Z" fill="#F0F0F0"/>
<path d="M124.7 176.344C151.633 176.344 173.467 155.664 173.467 130.154C173.467 104.643 151.633 83.9631 124.7 83.9631C97.7675 83.9631 75.9341 104.643 75.9341 130.154C75.9341 155.664 97.7675 176.344 124.7 176.344Z" fill="#3F3D56"/>
<path d="M167.987 127.04C167.988 132.56 166.84 138.027 164.61 143.127C162.38 148.228 159.11 152.862 154.989 156.766C150.868 160.67 145.975 163.766 140.59 165.879C135.205 167.991 129.433 169.078 123.605 169.078C118.41 169.075 113.255 168.215 108.372 166.535C100.737 163.9 94.0116 159.332 88.9278 153.328C83.844 147.324 80.5966 140.114 79.5392 132.483C78.4819 124.852 79.655 117.093 82.931 110.049C86.207 103.006 91.4603 96.949 98.1188 92.5377C104.777 88.1264 112.586 85.5299 120.695 85.0308C128.803 84.5317 136.901 86.1493 144.106 89.7073C151.312 93.2654 157.348 98.6275 161.559 105.21C165.77 111.793 167.993 119.343 167.987 127.04Z" fill="#1B1D1F"/>
<path d="M115.933 126.002C123.499 126.002 129.632 120.193 129.632 113.027C129.632 105.861 123.499 100.052 115.933 100.052C108.368 100.052 102.235 105.861 102.235 113.027C102.235 120.193 108.368 126.002 115.933 126.002Z" fill="#3F3D56"/>
<path d="M166.256 115.378C163.287 116.731 159.903 117.025 156.724 116.206C153.545 115.388 150.783 113.511 148.946 110.921C147.109 108.331 146.318 105.2 146.72 102.103C147.122 99.0059 148.688 96.1495 151.133 94.0575C158.397 99.4971 163.685 106.951 166.256 115.378Z" fill="#3F3D56"/>
<path d="M138.399 145.723C141.122 145.723 143.33 143.632 143.33 141.052C143.33 138.473 141.122 136.381 138.399 136.381C135.675 136.381 133.467 138.473 133.467 141.052C133.467 143.632 135.675 145.723 138.399 145.723Z" fill="#3F3D56"/>
<path d="M118.125 167.521C118.125 167.931 118.068 168.339 117.955 168.736C114.683 168.348 111.468 167.61 108.372 166.535C108.629 165.408 109.317 164.411 110.304 163.735C111.29 163.06 112.506 162.754 113.716 162.876C114.927 162.999 116.047 163.541 116.861 164.398C117.675 165.256 118.125 166.368 118.125 167.521Z" fill="#3F3D56"/>
<path d="M89.0846 124.964C89.0843 127.333 88.1334 129.614 86.4242 131.345C84.7151 133.076 82.3756 134.126 79.8792 134.285C78.7493 128.115 79.0787 121.786 80.8436 115.751C83.146 116.115 85.2376 117.24 86.7465 118.927C88.2554 120.614 89.0839 122.753 89.0846 124.964Z" fill="#3F3D56"/>
<path d="M167.371 183.82C168.491 183.82 169.399 182.96 169.399 181.898C169.399 180.837 168.491 179.977 167.371 179.977C166.25 179.977 165.342 180.837 165.342 181.898C165.342 182.96 166.25 183.82 167.371 183.82Z" fill="#FFEB62"/>
<path d="M93.9472 225.225C99.2378 225.225 103.527 221.163 103.527 216.152C103.527 211.141 99.2378 207.078 93.9472 207.078C88.6565 207.078 84.3676 211.141 84.3676 216.152C84.3676 221.163 88.6565 225.225 93.9472 225.225Z" fill="#FFEB62"/>
<path d="M146.465 227.377C147.119 227.377 147.65 226.874 147.65 226.254C147.65 225.634 147.119 225.132 146.465 225.132C145.81 225.132 145.279 225.634 145.279 226.254C145.279 226.874 145.81 227.377 146.465 227.377Z" fill="#F0F0F0"/>
<path d="M267.01 51.9573C267.665 51.9573 268.196 51.4547 268.196 50.8347C268.196 50.2146 267.665 49.712 267.01 49.712C266.356 49.712 265.825 50.2146 265.825 50.8347C265.825 51.4547 266.356 51.9573 267.01 51.9573Z" fill="#F0F0F0"/>
<path d="M178.793 62.337C179.447 62.337 179.978 61.8344 179.978 61.2144C179.978 60.5944 179.447 60.0918 178.793 60.0918C178.138 60.0918 177.608 60.5944 177.608 61.2144C177.608 61.8344 178.138 62.337 178.793 62.337Z" fill="#F0F0F0"/>
<path d="M209.477 116.831C210.132 116.831 210.662 116.329 210.662 115.709C210.662 115.089 210.132 114.586 209.477 114.586C208.823 114.586 208.292 115.089 208.292 115.709C208.292 116.329 208.823 116.831 209.477 116.831Z" fill="#F0F0F0"/>
<path d="M162.508 250.548C163.162 250.548 163.693 250.045 163.693 249.425C163.693 248.805 163.162 248.302 162.508 248.302C161.853 248.302 161.322 248.805 161.322 249.425C161.322 250.045 161.853 250.548 162.508 250.548Z" fill="#F0F0F0"/>
<path d="M239.767 192.42C240.421 192.42 240.952 191.918 240.952 191.298C240.952 190.678 240.421 190.175 239.767 190.175C239.112 190.175 238.581 190.678 238.581 191.298C238.581 191.918 239.112 192.42 239.767 192.42Z" fill="#F0F0F0"/>
<path d="M270.999 116.647C271.654 116.647 272.184 116.145 272.184 115.525C272.184 114.905 271.654 114.402 270.999 114.402C270.344 114.402 269.814 114.905 269.814 115.525C269.814 116.145 270.344 116.647 270.999 116.647Z" fill="#F0F0F0"/>
<path d="M232.441 80.4147C233.739 80.4147 234.791 79.4181 234.791 78.1888C234.791 76.9595 233.739 75.9629 232.441 75.9629C231.143 75.9629 230.091 76.9595 230.091 78.1888C230.091 79.4181 231.143 80.4147 232.441 80.4147Z" fill="#FF6584"/>
<path d="M232.441 233.518C233.739 233.518 234.791 232.521 234.791 231.292C234.791 230.062 233.739 229.066 232.441 229.066C231.143 229.066 230.091 230.062 230.091 231.292C230.091 232.521 231.143 233.518 232.441 233.518Z" fill="#FF6584"/>
<path d="M393.775 276.588C386.7 276.588 378.945 276.334 370.511 275.828C326.888 273.204 270.383 264.082 211.404 250.142C152.425 236.202 98.0193 219.109 58.2089 202.013C38.816 193.685 23.9321 185.802 13.9711 178.582C3.42491 170.939 -1.18813 164.277 0.259552 158.781C3.08033 148.075 28.0569 145.732 48.513 145.653L48.5199 147.21C20.4283 147.319 3.85567 151.562 1.85469 159.158C-0.69423 168.832 20.0936 183.935 58.8876 200.595C98.6106 217.654 152.916 234.713 211.802 248.631C270.687 262.549 327.088 271.656 370.616 274.274C413.124 276.831 438.967 272.749 441.515 263.075C443.631 255.043 429.681 243.21 402.234 229.757L402.99 228.374C422.933 238.15 446.082 252.171 443.111 263.452C441.663 268.948 434.286 272.776 421.185 274.83C413.717 276.001 404.544 276.588 393.775 276.588Z" fill="#FFEB62"/>
<path d="M131.54 295.492C112.034 295.492 93.8996 294.858 77.6654 293.579C56.4457 291.906 39.6307 289.218 27.6879 285.588C15.0434 281.745 8.3352 276.938 7.74955 271.301C6.6082 260.32 29.3021 250.166 48.5408 243.58L49.0994 245.045C22.6797 254.088 8.57575 263.358 9.38533 271.149C10.4165 281.072 35.3532 288.682 77.8016 292.027C121.267 295.453 178.467 294.239 238.866 288.607C299.265 282.977 355.618 273.605 397.543 262.218C438.488 251.099 461.381 239.03 460.349 229.107C459.493 220.869 442.156 214.164 411.533 210.227L411.754 208.684C434.005 211.545 460.783 217.383 461.985 228.955C462.571 234.592 456.981 240.545 445.37 246.649C434.403 252.415 418.465 258.157 397.997 263.715C355.978 275.127 299.522 284.517 239.027 290.157C201.077 293.695 164.373 295.492 131.54 295.492Z" fill="#FFEB62"/>
<path d="M181.617 18.1472C186.908 18.1472 191.197 14.0848 191.197 9.07358C191.197 4.06238 186.908 0 181.617 0C176.326 0 172.037 4.06238 172.037 9.07358C172.037 14.0848 176.326 18.1472 181.617 18.1472Z" fill="#3F3D56"/>
<path d="M10.6609 234.048C15.9516 234.048 20.2405 229.986 20.2405 224.975C20.2405 219.964 15.9516 215.901 10.6609 215.901C5.37027 215.901 1.08134 219.964 1.08134 224.975C1.08134 229.986 5.37027 234.048 10.6609 234.048Z" fill="#3F3D56"/>
<path d="M69.838 61.8564C73.0767 61.8564 75.7022 59.3696 75.7022 56.302C75.7022 53.2344 73.0767 50.7476 69.838 50.7476C66.5993 50.7476 63.9738 53.2344 63.9738 56.302C63.9738 59.3696 66.5993 61.8564 69.838 61.8564Z" fill="#FF6584"/>
</g>
<defs>
<clipPath id="clip0_1_358">
<rect width="307" height="250" fill="white"/>
</clipPath>
</defs>
</svg>
