<svg width="80" height="80" viewBox="0 0 80 80" fill="none" xmlns="http://www.w3.org/2000/svg">
<rect width="80" height="80" rx="40" fill="#111010"/>
<path d="M54.0115 37.2111C53.071 36.5115 52.0845 36.1832 50.9509 36.5238C50.5894 36.6312 50.4363 36.8582 50.4026 37.2724C50.2279 39.5982 50.0778 41.9301 49.7806 44.2404C49.4681 46.6858 48.3009 48.8152 46.9897 50.8617C46.5148 51.6042 45.9848 52.313 45.4977 53.0494C45.372 53.2396 45.2924 53.4697 45.225 53.6907C44.9615 54.5436 44.7777 55.4303 44.4376 56.2496C43.7177 57.977 42.4218 59.2043 40.8195 60.1278C40.0229 60.5881 39.2325 60.585 38.439 60.1401C36.319 58.9527 34.8423 57.2468 34.2112 54.8658C34.0825 54.381 34.0274 53.8748 33.9232 53.3838C33.9048 53.2856 33.8313 53.1967 33.77 53.1138C32.7253 51.6902 31.7204 50.2389 30.8841 48.6771C29.7474 46.56 29.196 44.2987 29.0673 41.9086C28.9877 40.4143 28.8559 38.9232 28.7395 37.432C28.7211 37.1865 28.7334 36.8398 28.5863 36.7263C28.3351 36.533 27.9767 36.4164 27.6488 36.3857C26.7114 36.2998 25.9056 36.6281 25.1704 37.2602C25.2316 37.3031 25.2561 37.3338 25.2868 37.34C26.6807 37.5363 27.8173 38.8771 28.0532 40.5831C28.4025 43.1082 26.4326 45.5997 23.8009 45.9863C21.8065 46.2808 20.2042 45.5015 18.9021 44.0502C17.5357 42.5284 16.9016 40.6843 16.7055 38.6808C16.1602 33.2009 19.7661 28.4451 24.8058 26.7453C27.1832 25.9445 29.5973 25.7941 32.0268 26.509C33.7424 27.0153 35.1303 28.0063 36.1627 29.4791C36.6989 30.24 37.235 31.0009 37.7742 31.7588C37.8416 31.8539 37.9121 31.9429 38.0132 32.0718C38.4084 31.7373 38.7852 31.4244 39.1559 31.1022C39.5726 30.7432 39.7043 30.7401 40.1118 31.1175C40.4549 31.4336 40.798 31.7527 41.1718 32.0994C41.279 31.9552 41.3587 31.857 41.4291 31.7557C41.9745 30.9733 42.5167 30.1878 43.0651 29.4085C44.3518 27.5737 46.1625 26.5336 48.3254 26.2329C52.4307 25.6622 56.0764 26.733 59.088 29.657C62.3171 32.7928 63.3618 37.5731 61.7289 41.6386C61.015 43.412 59.9152 44.8541 58.1107 45.6457C55.1696 46.9344 51.7077 45.0934 51.1317 41.93C50.8315 40.2732 51.5545 38.5458 52.9331 37.6989C53.2517 37.5026 53.6133 37.389 54.0115 37.2111ZM44.0026 53.6784C44.2048 53.3071 44.3825 52.9359 44.6 52.5891C44.7256 52.3928 44.7164 52.2455 44.6153 52.043C43.8709 50.5242 43.2734 48.9564 42.9487 47.2903C42.6423 45.7193 42.6485 44.1668 43.3347 42.6848C44.0945 41.0433 45.5222 40.31 47.3358 40.488C47.6269 40.5156 47.823 40.6813 47.8291 40.9912C47.8383 41.4391 47.8444 41.8871 47.8107 42.332C47.7586 43.0193 47.5135 43.6391 47.0295 44.1453C46.187 45.0229 45.1453 45.118 43.8678 44.3969C43.6074 46.8791 44.4039 49.0791 45.4211 51.2422C45.8163 50.7237 46.1594 50.2051 46.4872 49.6774C47.6085 47.8732 48.5276 45.9771 48.7911 43.8416C49.0362 41.8656 49.1955 39.8805 49.4069 37.9014C49.4375 37.6161 49.2721 37.5731 49.0729 37.5087C45.706 36.4256 42.6546 34.7687 39.9831 32.4369C39.5848 32.0902 39.5817 32.0902 39.1712 32.443C36.4967 34.7197 33.4943 36.4225 30.1488 37.5087C29.8669 37.6008 29.7842 37.7357 29.8087 38.018C29.9006 39.0275 29.9558 40.04 30.0599 41.0464C30.1886 42.286 30.2713 43.5409 30.5134 44.759C30.9361 46.9006 32.0329 48.7508 33.2308 50.5396C33.3901 50.7819 33.5647 51.0121 33.7363 51.2606C34.7473 50.0149 35.6848 45.6334 35.2375 44.4368C34.9495 44.5749 34.6738 44.7682 34.3674 44.851C33.1205 45.1855 31.7327 44.3018 31.4294 42.9088C31.2854 42.243 31.3405 41.5312 31.3252 40.8408C31.3191 40.5892 31.5152 40.5186 31.7327 40.488C33.7332 40.2118 35.4152 41.2826 36.0402 43.2156C36.4231 44.3969 36.463 45.5966 36.2945 46.8147C36.0402 48.6556 35.4213 50.3769 34.6186 52.0399C34.5543 52.1719 34.5084 52.3682 34.5604 52.4879C34.732 52.8929 34.9556 53.2826 35.1793 53.7152C36.7356 52.7641 38.2307 52.7978 39.5787 54.1724C40.942 52.8316 42.4218 52.7487 44.0026 53.6784ZM18.3047 34.2287C17.7379 35.7076 17.5296 37.343 17.7686 39.0152C18.0504 40.9666 18.8378 42.6787 20.3635 43.9704C22.4253 45.7132 25.2531 45.1947 26.5766 42.8628C27.3425 41.5158 27.1556 39.9019 26.114 38.8495C25.7892 38.5212 25.4154 38.2972 24.9528 38.2328C24.285 38.1438 23.8285 38.6194 24.0245 39.2637C24.1073 39.5399 24.337 39.816 24.5729 39.9909C25.3143 40.5371 25.5196 41.2244 25.1213 42.0528C24.6649 43.0101 23.5099 43.5041 22.3916 43.1911C21.2029 42.8567 20.5075 41.9976 20.0939 40.8838C19.5302 39.3742 19.6343 37.883 20.2593 36.4103C20.3053 36.3029 20.3267 36.1034 20.2655 36.0451C19.6221 35.4284 18.9603 34.8301 18.3047 34.2287ZM60.7883 34.0232C60.1449 34.7135 59.5659 35.3456 58.9716 35.9623C58.8123 36.1249 58.7969 36.2415 58.8919 36.4471C59.4618 37.6775 59.5935 38.9539 59.2718 40.2732C58.9685 41.5158 58.365 42.5468 57.1487 43.1052C56.1683 43.5532 54.9858 43.2893 54.3148 42.5007C53.552 41.6048 53.8798 40.3407 54.6794 39.9694C54.7437 39.9387 54.7989 39.8927 54.854 39.8498C55.2155 39.5675 55.335 39.0766 55.1481 38.6746C54.9888 38.3341 54.5998 38.1561 54.1586 38.2543C53.9564 38.2972 53.7481 38.3739 53.5734 38.4813C52.8045 38.9569 52.3909 39.6872 52.2224 40.5493C51.7383 43.0039 54.2076 45.4371 56.6983 44.9676C58.1474 44.6945 59.2381 43.8753 60.0224 42.6572C61.4317 40.4757 61.7626 38.0917 61.2325 35.5726C61.1192 35.0602 60.9446 34.5663 60.7883 34.0232ZM47.2378 35.7168C47.8934 35.9899 48.451 36.2292 49.0208 36.4471C49.0882 36.4747 49.22 36.4133 49.2874 36.352C50.3689 35.3486 51.6341 35.14 52.9975 35.5542C54.4741 36.0022 55.6138 36.8859 56.1561 38.3924C56.5084 39.3681 56.1101 40.4512 55.2676 40.9543C54.8969 41.1753 54.8326 41.3594 55.1022 41.6999C55.2584 41.8994 55.4974 42.0835 55.7364 42.1663C56.2694 42.3565 56.7566 42.1786 57.1793 41.8288C58.0188 41.1354 58.365 40.1934 58.3834 39.1441C58.417 37.0239 57.4673 35.4008 55.7088 34.2717C53.362 32.7621 50.3413 33.0505 48.065 34.9498C47.7954 35.1768 47.5503 35.4254 47.2378 35.7168ZM31.9502 35.7598C31.6132 35.453 31.362 35.1952 31.0832 34.9743C28.9294 33.2807 26.5858 32.7713 24.0307 33.9587C21.7544 35.0173 20.434 37.4749 20.869 39.8007C21.0467 40.7518 21.4603 41.5956 22.3855 42.062C23.0472 42.3964 23.7703 42.2307 24.1103 41.6784C24.334 41.3195 24.2819 41.0985 23.9296 40.893C23.1453 40.4327 22.8144 39.7056 22.9584 38.8004C23.1146 37.8217 23.6906 37.1068 24.4136 36.4931C26.2457 34.9344 28.6568 35.0387 29.9129 36.3458C29.9619 36.3949 30.0691 36.4502 30.1243 36.4287C30.7064 36.2292 31.2823 36.0083 31.9502 35.7598ZM37.1278 32.7498C37.1063 32.6793 37.1063 32.6394 37.0879 32.6148C36.2822 31.5133 35.5102 30.3842 34.6523 29.3257C34.0243 28.5494 33.1787 28.0278 32.2014 27.6443C31.2731 29.3778 30.354 31.096 29.4441 32.7989C29.484 32.848 29.4962 32.8756 29.5146 32.8818C30.7799 33.3758 31.8399 34.152 32.7467 35.1523C32.8019 35.2137 32.9673 35.2505 33.0409 35.2167C34.4808 34.5325 35.8349 33.7071 37.1278 32.7498ZM41.9836 32.6517C42.0541 32.7529 42.0664 32.7897 42.0939 32.8081C43.4205 33.609 44.7471 34.4128 46.0828 35.1983C46.1563 35.2413 46.3585 35.1891 46.4229 35.1155C47.2409 34.1582 48.2396 33.4525 49.3885 32.9493C49.4804 32.9094 49.5662 32.8542 49.6428 32.8112C49.6336 32.7529 49.6366 32.7284 49.6244 32.7069C48.7819 31.1022 47.9394 29.5006 47.103 27.8928C46.9988 27.6964 46.864 27.6719 46.7047 27.7762C46.0491 28.2027 45.274 28.5279 44.7685 29.0925C43.7575 30.2155 42.8935 31.4734 41.9836 32.6517ZM52.6329 32.2559C54.9398 32.443 56.7933 33.3942 58.2424 35.1247C58.9134 34.4589 59.569 33.8207 60.2001 33.161C60.2644 33.0965 60.2369 32.8756 60.1756 32.7713C58.898 30.5499 57.0476 28.9728 54.6947 27.991C54.1371 27.7609 53.5489 27.6013 52.9025 27.3865C52.8106 29.0618 52.7217 30.642 52.6329 32.2559ZM26.2549 27.4755C26.1477 27.4847 26.0986 27.4817 26.0557 27.4939C22.9461 28.2917 20.5902 30.0866 18.9511 32.845C18.847 33.0198 18.8868 33.1426 19.0185 33.2806C19.5516 33.8299 20.0755 34.3852 20.6055 34.9375C20.6882 35.0234 20.7955 35.094 20.8812 35.1646C20.9364 35.1247 20.9609 35.1155 20.9732 35.0971C22.3426 33.431 24.0828 32.4676 26.2518 32.3326C26.4938 32.3172 26.5367 32.1945 26.5214 31.9859C26.454 30.9396 26.3958 29.8933 26.3315 28.847C26.307 28.3929 26.2825 27.9511 26.2549 27.4755ZM48.0435 27.3313C48.1263 27.5001 48.1814 27.6289 48.2457 27.7517C48.9565 29.1447 49.6673 30.5376 50.378 31.9276C50.666 32.489 50.663 32.4768 51.291 32.3847C51.5238 32.3479 51.5943 32.2559 51.6035 32.0257C51.6648 30.6512 51.7444 29.2766 51.8149 27.902C51.8517 27.1963 51.8455 27.184 51.1378 27.1288C50.1176 27.0552 49.1005 27.0797 48.0435 27.3313ZM27.5814 32.3356C27.7285 32.3602 27.8572 32.3694 27.9797 32.4062C28.3106 32.5105 28.4975 32.4123 28.6598 32.081C29.1316 31.1206 29.6433 30.1786 30.1396 29.2306C30.4674 28.6077 30.7921 27.9848 31.1322 27.3313C29.8271 27.0368 28.5618 26.9999 27.272 27.2331C27.3792 28.9483 27.4803 30.6358 27.5814 32.3356ZM37.1155 57.2406C37.1278 57.2713 37.14 57.302 37.1523 57.3296C37.5475 57.167 37.9795 57.0657 38.3257 56.8325C39.4316 56.0839 39.3121 54.8627 38.0989 54.289C37.1339 53.8318 36.1382 54.246 35.4183 54.8167C35.3509 54.8689 35.3172 55.0438 35.3509 55.1235C35.5868 55.6574 35.8165 56.1974 36.1045 56.7037C36.3159 57.0688 36.6774 57.2529 37.1155 57.2406ZM41.9224 54.0987C41.4506 54.1049 40.9144 54.3381 40.4825 54.7952C40.0995 55.2002 40.0566 55.7924 40.3538 56.2649C40.651 56.7374 41.0799 57.0289 41.6068 57.1793C42.2533 57.3634 42.8262 57.1701 43.157 56.584C43.4205 56.1146 43.6074 55.6022 43.8035 55.102C43.8402 55.0131 43.7973 54.8259 43.7238 54.7707C43.2367 54.3964 42.7159 54.1079 41.9224 54.0987ZM37.5843 58.1764C37.6884 58.3022 37.7466 58.4035 37.8355 58.4649C38.2521 58.7441 38.6718 59.0233 39.1038 59.281C39.2478 59.3669 39.4439 59.4406 39.6032 59.4221C40.4334 59.3148 41.037 58.8116 41.6558 58.201C40.8072 58.0292 40.1547 57.664 39.6124 57.0596C39.0793 57.6456 38.4421 58.0138 37.5843 58.1764ZM32.6579 41.4882C32.5966 41.522 32.3761 41.568 32.3485 41.6693C32.1493 42.3688 32.6548 43.409 33.3197 43.7403C33.7547 43.9582 34.2571 43.8815 34.637 43.5624C34.8607 43.3721 34.9128 43.1635 34.778 42.9057C34.349 42.0835 33.6812 41.6079 32.6579 41.4882ZM46.4014 41.5895C45.5314 41.6202 44.6276 42.2491 44.358 43.0254C44.3151 43.1481 44.3702 43.3537 44.456 43.4642C44.7593 43.86 45.3567 43.9674 45.8316 43.7311C46.5424 43.3752 46.7415 42.737 46.7844 42.0068C46.7997 41.6999 46.7139 41.5158 46.4014 41.5895Z" fill="#FFEB61"/>
<path d="M58.5531 24.5612C58.5531 24.4568 58.5531 24.3495 58.5531 24.2421C58.55 23.6775 58.4305 23.5057 57.8913 23.3523C57.8086 23.3308 57.6952 23.3799 57.6095 23.4259C57.1714 23.656 56.7424 23.8984 56.3043 24.1255C56.0347 24.2666 55.7927 24.2237 55.6487 23.9383C55.5109 23.6622 55.5905 23.4382 55.8601 23.2817C56.2584 23.0547 56.6505 22.8123 57.0519 22.5975C57.2081 22.5116 57.2755 22.4257 57.2357 22.2385C57.2051 22.0912 57.1836 21.9225 57.2296 21.7875C57.3552 21.4009 57.1714 21.2321 56.8527 21.091C56.5433 20.9529 56.24 20.7933 55.952 20.6123C55.6365 20.416 55.5568 20.1214 55.7284 19.8637C55.9183 19.5661 56.1757 19.609 56.4391 19.7532C56.8221 19.9649 57.205 20.1705 57.5727 20.3976C57.7412 20.5019 57.8791 20.5694 58.0261 20.3853C58.0414 20.3669 58.0629 20.3485 58.0813 20.3454C58.6174 20.2441 58.5868 19.8483 58.5684 19.4433C58.5561 19.1488 58.5622 18.8542 58.5837 18.5597C58.6021 18.2927 58.7491 18.1148 59.0249 18.0933C59.2883 18.0718 59.5487 18.3173 59.561 18.5965C59.5763 19.0322 59.5763 19.4679 59.5671 19.9036C59.561 20.0815 59.6529 20.1367 59.7908 20.238C60.2013 20.5387 60.526 20.419 60.8876 20.1613C61.1541 19.9711 61.4605 19.8391 61.7515 19.6888C61.9752 19.5722 62.1865 19.5814 62.3305 19.8207C62.4776 20.0692 62.5174 20.33 62.2509 20.5111C61.8894 20.7535 61.5095 20.9682 61.1235 21.1646C60.8906 21.2843 60.765 21.4009 60.8692 21.6801C60.9121 21.7967 60.9304 21.9501 60.8906 22.0636C60.7711 22.395 60.958 22.5208 61.2092 22.6496C61.5524 22.8276 61.8863 23.027 62.2111 23.2418C62.496 23.429 62.5634 23.7113 62.4102 23.9721C62.2325 24.2727 61.9782 24.2697 61.7117 24.1224C61.3287 23.9138 60.9519 23.699 60.5843 23.4658C60.4066 23.3523 60.284 23.386 60.0849 23.4443C59.5365 23.6069 59.5028 23.9813 59.5365 24.4415C59.5549 24.733 59.5334 25.0306 59.5181 25.3252C59.5028 25.6228 59.3496 25.8283 59.0371 25.8191C58.7307 25.813 58.5745 25.6136 58.5592 25.3129C58.5439 25.0552 58.5531 24.8066 58.5531 24.5612ZM59.8061 21.9593C59.8153 21.5205 59.4783 21.1677 59.0463 21.1615C58.645 21.1554 58.3018 21.5052 58.2926 21.9286C58.2835 22.3244 58.6113 22.6404 59.0432 22.6527C59.4875 22.6681 59.8 22.3858 59.8061 21.9593Z" fill="#FFEB61"/>
<path d="M18.4122 24.8065C18.4122 24.7114 18.4 24.6163 18.4153 24.5242C18.4857 24.0732 18.3509 23.7756 17.8822 23.6191C17.6831 23.5516 17.5575 23.5301 17.3767 23.6528C17.006 23.9014 16.6139 24.1223 16.2248 24.3371C15.9705 24.4782 15.7193 24.4751 15.56 24.1806C15.4098 23.9014 15.4589 23.6436 15.7285 23.4718C16.0838 23.2448 16.4668 23.0545 16.8161 22.8152C16.9355 22.7324 16.9846 22.5483 17.052 22.4041C17.0734 22.355 17.0397 22.2813 17.0581 22.2292C17.2419 21.6769 16.9631 21.3977 16.4882 21.2013C16.2493 21.1031 16.0348 20.9559 15.8112 20.8208C15.5538 20.6644 15.4589 20.3453 15.5875 20.0967C15.7162 19.8513 15.995 19.7776 16.2891 19.9403C16.6721 20.1489 17.0489 20.3667 17.4165 20.5969C17.5881 20.7043 17.726 20.7349 17.8914 20.5999C17.971 20.5355 18.0752 20.4895 18.1763 20.468C18.3632 20.425 18.4122 20.3177 18.4061 20.1366C18.3938 19.7224 18.3969 19.3113 18.403 18.9001C18.4091 18.5411 18.5899 18.3171 18.8687 18.3018C19.1567 18.2865 19.3619 18.5166 19.3773 18.897C19.3926 19.2959 19.3895 19.6979 19.3987 20.0998C19.4048 20.4527 20.0053 20.784 20.3209 20.6122C20.7345 20.3852 21.1358 20.1397 21.5586 19.9372C21.9415 19.7562 22.2479 19.9188 22.3061 20.29C22.3429 20.5294 22.2479 20.6981 22.0365 20.8116C21.6444 21.0234 21.2553 21.2473 20.8601 21.459C20.6854 21.5542 20.5782 21.6523 20.6732 21.8763C20.713 21.9684 20.7283 22.0972 20.6946 22.1862C20.5384 22.628 20.7774 22.8121 21.1358 22.9778C21.4667 23.1282 21.7761 23.3245 22.0825 23.527C22.3704 23.7173 22.4317 23.9996 22.2724 24.2573C22.0947 24.5457 21.8435 24.512 21.5953 24.3739C21.1818 24.1468 20.7804 23.9044 20.3699 23.6712C20.0298 23.4749 19.4048 23.8216 19.3956 24.2143C19.3865 24.65 19.3895 25.0857 19.3803 25.5214C19.3742 25.8436 19.1781 26.0583 18.8932 26.0491C18.5777 26.0399 18.4306 25.8436 18.4153 25.546C18.403 25.3005 18.4122 25.052 18.4122 24.8034C18.4183 24.8065 18.4153 24.8065 18.4122 24.8065ZM18.9085 22.8827C19.365 22.8735 19.6622 22.5698 19.6499 22.1249C19.6377 21.7106 19.2792 21.3793 18.8595 21.3946C18.4428 21.41 18.1518 21.7505 18.161 22.2046C18.1671 22.5882 18.498 22.8889 18.9085 22.8827Z" fill="#FFEB61"/>
<path d="M25.5504 52.448C25.9211 51.7883 26.4021 51.3127 27.0546 51.0427C27.2446 50.966 27.4743 50.8985 27.6674 50.9353C27.8267 50.966 28.0381 51.1317 28.0809 51.279C28.1208 51.4232 27.9921 51.6287 27.8971 51.7852C27.8512 51.8619 27.7194 51.8895 27.6245 51.9356C26.7483 52.3467 26.157 52.988 26.1478 53.9944C26.1386 55.0008 26.785 55.5899 27.6 56.0378C27.7317 56.1084 27.9155 56.1698 27.9645 56.2833C28.0319 56.4367 28.0595 56.6822 27.9798 56.8049C27.9002 56.9276 27.6582 57.0197 27.5019 57.0013C26.7513 56.9184 26.2091 56.4827 25.7863 55.8814C25.7189 55.7862 25.6607 55.685 25.5963 55.5837C25.5902 55.5745 25.5779 55.5684 25.5351 55.5408C25.4033 55.7126 25.2777 55.8936 25.1368 56.0624C24.7079 56.5717 24.2116 56.9675 23.513 57.0227C23.2741 57.0411 23.0474 56.9491 23.0382 56.7098C23.0321 56.5195 23.1577 56.314 23.2618 56.136C23.3047 56.0593 23.4548 56.0532 23.5376 55.9949C23.8317 55.7832 24.1625 55.5991 24.4015 55.3383C25.2869 54.3595 25.0663 52.942 23.9389 52.1933C23.7826 52.089 23.6141 51.9939 23.4395 51.9356C23.1209 51.8312 23.0075 51.6226 23.0719 51.3127C23.124 51.0611 23.4028 50.9077 23.7244 50.9722C24.3831 51.1041 24.861 51.5121 25.2593 52.0307C25.3451 52.1503 25.4309 52.2762 25.5504 52.448Z" fill="#FFEB61"/>
<path d="M53.696 52.3958C54.033 52.049 54.3332 51.687 54.6917 51.3924C54.9306 51.1961 55.2309 51.058 55.528 50.9537C55.8528 50.8402 56.1346 50.9874 56.2235 51.2605C56.3307 51.5888 56.1592 51.7668 55.8804 51.8956C55.1267 52.2454 54.5599 52.7732 54.4129 53.6292C54.2444 54.6141 54.7897 55.5223 55.7976 56.0132C55.9416 56.0838 56.1316 56.1574 56.1898 56.2832C56.2603 56.4336 56.2756 56.6913 56.1929 56.8079C56.0979 56.9337 55.8467 57.0288 55.6812 57.0012C54.9521 56.8938 54.419 56.4612 54.0085 55.8659C53.9258 55.7432 53.8522 55.6113 53.8216 55.5653C53.3712 55.9795 52.9515 56.3968 52.492 56.765C52.302 56.9184 52.0202 56.9767 51.7751 57.035C51.5208 57.0963 51.3094 57.0012 51.2267 56.722C51.1501 56.4581 51.2359 56.271 51.4748 56.1298C51.7812 55.9549 52.1059 55.7985 52.3664 55.5714C53.4999 54.5896 53.4049 53.0554 52.1672 52.1994C51.9834 52.0736 51.7781 51.9785 51.579 51.8772C51.3186 51.7422 51.1777 51.5305 51.2696 51.2421C51.3676 50.9322 51.6341 50.8923 51.9068 50.9567C52.6053 51.1224 53.1323 51.5397 53.5275 52.1288C53.5888 52.227 53.647 52.3282 53.696 52.3958Z" fill="#FFEB61"/>
<path d="M39.7045 21.8544C38.4944 21.8176 37.6304 21.3206 37.128 20.2712C37.0545 20.1147 37.0024 19.9368 36.9962 19.765C36.9901 19.5256 37.1004 19.3231 37.3578 19.2648C37.6059 19.2096 37.7989 19.3017 37.9184 19.5256C37.9797 19.6392 38.0287 19.7588 38.0869 19.8754C38.4086 20.5228 38.9478 20.845 39.6555 20.8143C40.3601 20.7867 40.8779 20.4277 41.1628 19.7742C41.2884 19.4827 41.4048 19.2004 41.8031 19.2434C42.0513 19.271 42.2106 19.3968 42.2075 19.6453C42.2044 19.8417 42.1799 20.0534 42.0972 20.2283C41.604 21.2623 40.7676 21.7808 39.7045 21.8544Z" fill="#FFEB61"/>
<path d="M13.7125 35.3701C13.6604 35.7014 13.6543 36.0696 13.1917 36.0819C12.8823 36.088 12.7413 35.904 12.6678 35.4038C12.3461 35.3148 11.9632 35.2381 12.003 34.7871C12.0336 34.4373 12.3216 34.3238 12.6678 34.3054C12.6923 34.2041 12.7168 34.1059 12.7413 34.0078C12.8087 33.7623 12.9619 33.6212 13.2193 33.6212C13.4766 33.6212 13.6083 33.7961 13.642 34.017C13.6727 34.2256 13.7401 34.3146 13.9637 34.3453C14.2211 34.379 14.4386 34.5232 14.4263 34.83C14.4171 35.1215 14.2272 35.2657 13.9545 35.321C13.8779 35.3363 13.7983 35.3547 13.7125 35.3701Z" fill="#FFEB61"/>
<path d="M29.104 17.9363C28.8559 17.9117 28.7027 17.7737 28.6108 17.519C28.5679 17.3993 28.4515 17.2797 28.3351 17.2245C28.1022 17.1109 27.8663 17.0005 27.8908 16.7029C27.9123 16.4236 28.1237 16.2978 28.378 16.2119C28.4821 16.1782 28.6016 16.0585 28.6261 15.9603C28.6904 15.6842 28.8161 15.5032 29.1132 15.5001C29.3981 15.497 29.5146 15.6658 29.5789 15.9297C29.6065 16.0401 29.7474 16.1721 29.8638 16.2027C30.1395 16.2825 30.3601 16.4052 30.3601 16.7121C30.3571 17.0281 30.1212 17.1293 29.8454 17.1938C29.7474 17.2153 29.6432 17.3503 29.6065 17.4576C29.5207 17.7062 29.4257 17.921 29.104 17.9363Z" fill="#FFEB61"/>
<path d="M66.542 42.1876C66.5236 42.3226 66.5114 42.43 66.4899 42.5313C66.4409 42.7767 66.2969 42.9455 66.0365 42.9424C65.7761 42.9394 65.5647 42.8013 65.5371 42.5344C65.5126 42.292 65.3993 42.2214 65.1971 42.1263C65.0439 42.0557 64.8999 41.8348 64.8662 41.6599C64.8172 41.4083 65.0133 41.2702 65.2553 41.1997C65.3533 41.169 65.4789 41.0769 65.5065 40.9879C65.5862 40.721 65.675 40.4848 66.0059 40.4878C66.3551 40.4909 66.4961 40.7149 66.5328 41.034C66.539 41.0677 66.5573 41.0984 66.5696 41.1291C67.0812 41.2426 67.2436 41.3838 67.2222 41.709C67.2007 42.1201 66.8913 42.1662 66.542 42.1876Z" fill="#FFEB61"/>
<path d="M51.9958 20.4554C51.9989 20.7653 51.7568 21.0169 51.4474 21.0261C51.1135 21.0383 50.8285 20.7683 50.8347 20.44C50.8408 20.1148 51.092 19.8693 51.4229 19.8693C51.7446 19.8693 51.9927 20.1209 51.9958 20.4554Z" fill="#FFEB61"/>
<path d="M18.9176 48.3304C18.6021 48.3334 18.3447 48.0757 18.3386 47.7505C18.3325 47.4375 18.5684 47.1982 18.887 47.1921C19.2087 47.1859 19.4905 47.4467 19.4967 47.7474C19.5059 48.0604 19.2393 48.3273 18.9176 48.3304Z" fill="#FFEB61"/>
<path d="M43.794 63.2329C43.7909 63.5642 43.5366 63.8128 43.2057 63.8005C42.8994 63.7913 42.6543 63.5397 42.6451 63.2329C42.639 62.9322 42.9239 62.6284 43.218 62.6315C43.5182 62.6284 43.797 62.926 43.794 63.2329Z" fill="#FFEB61"/>
<path d="M16.788 55.6512C16.4786 55.6604 16.2182 55.4242 16.1998 55.1143C16.1814 54.786 16.4234 54.5221 16.7543 54.5098C17.0668 54.5006 17.3425 54.7645 17.3456 55.0836C17.3517 55.3873 17.1005 55.642 16.788 55.6512Z" fill="#FFEB61"/>
<path d="M63.2331 50.3155C62.8961 50.3094 62.6602 50.0639 62.6725 49.7295C62.6847 49.4196 62.9298 49.1772 63.2393 49.1803C63.5548 49.1833 63.7999 49.4411 63.7968 49.7786C63.7938 50.0977 63.5609 50.3217 63.2331 50.3155Z" fill="#FFEB61"/>
<path d="M28.1851 21.9434C28.1789 22.2656 27.9063 22.5479 27.6091 22.5387C27.3058 22.5295 27.0607 22.2687 27.0607 21.9618C27.0607 21.6305 27.3181 21.3635 27.6305 21.3727C27.9338 21.385 28.1912 21.6489 28.1851 21.9434Z" fill="#FFEB61"/>
<path d="M30.4977 58.879C30.7948 58.8759 31.0369 59.1429 31.0307 59.4589C31.0246 59.7688 30.7979 59.9897 30.4915 59.9866C30.1882 59.9805 29.9278 59.7258 29.9217 59.4282C29.9186 59.1306 30.1821 58.879 30.4977 58.879Z" fill="#FFEB61"/>
</svg>
