<svg width="80" height="80" viewBox="0 0 80 80" fill="none" xmlns="http://www.w3.org/2000/svg">
<rect width="80" height="80" rx="40" fill="#111010"/>
<path d="M60.5639 24.8033C60.5639 24.6902 60.5639 24.5771 60.5639 24.4612C60.561 23.8562 60.4329 23.6696 59.8463 23.5056C59.758 23.4801 59.6327 23.5367 59.5387 23.5847C59.0632 23.8307 58.599 24.0908 58.1235 24.3368C57.8302 24.4895 57.5682 24.4414 57.4144 24.1361C57.2664 23.842 57.3489 23.5989 57.6451 23.4321C58.0779 23.1861 58.5022 22.9288 58.9379 22.6969C59.1088 22.6036 59.1799 22.5103 59.1372 22.3124C59.1031 22.1541 59.0803 21.9703 59.1287 21.8261C59.2654 21.4133 59.0632 21.2295 58.7215 21.0768C58.3826 20.9298 58.0552 20.7545 57.7448 20.5623C57.4031 20.3502 57.3176 20.0364 57.4999 19.7565C57.7077 19.4398 57.984 19.4822 58.2687 19.6377C58.6816 19.8639 59.0974 20.0873 59.4989 20.3304C59.6811 20.4407 59.8292 20.517 59.9915 20.3191C60.0057 20.2993 60.0314 20.2795 60.0513 20.2739C60.6322 20.1636 60.598 19.7395 60.5809 19.3041C60.5667 18.9874 60.5753 18.6707 60.598 18.3569C60.618 18.0713 60.7774 17.8791 61.0764 17.8565C61.364 17.8338 61.6459 18.0968 61.6573 18.3965C61.6744 18.863 61.6744 19.3324 61.663 19.8017C61.6573 19.994 61.757 20.0533 61.9051 20.1608C62.3493 20.4859 62.7024 20.3559 63.0925 20.076C63.3801 19.8724 63.7133 19.7282 64.0294 19.5699C64.2743 19.4454 64.5021 19.4539 64.6587 19.7112C64.8181 19.977 64.8609 20.2597 64.5732 20.452C64.1831 20.7121 63.7702 20.944 63.3516 21.156C63.1011 21.2832 62.9644 21.4105 63.0754 21.7102C63.1238 21.8346 63.1409 21.9986 63.0982 22.1201C62.9701 22.4764 63.1694 22.6121 63.4428 22.7507C63.8158 22.9429 64.1774 23.155 64.5277 23.3868C64.8381 23.5876 64.9093 23.8929 64.7441 24.1728C64.5505 24.498 64.2743 24.4895 63.9866 24.334C63.5737 24.1106 63.1637 23.8788 62.765 23.6271C62.5714 23.5056 62.4404 23.5423 62.2268 23.6017C61.6289 23.777 61.5975 24.1785 61.6289 24.6733C61.6516 24.9871 61.626 25.3066 61.6061 25.6204C61.589 25.9428 61.4238 26.1605 61.085 26.152C60.7518 26.1435 60.5809 25.9315 60.5667 25.6091C60.5553 25.3349 60.5639 25.0691 60.5639 24.8033C60.5696 24.8033 60.5696 24.8033 60.5639 24.8033ZM61.925 22.0071C61.9335 21.5349 61.5719 21.156 61.1021 21.1475C60.6664 21.1419 60.2962 21.5151 60.2848 21.9731C60.2763 22.3972 60.6322 22.7393 61.0992 22.7535C61.5805 22.7676 61.9165 22.4623 61.925 22.0071Z" fill="#FFEB61"/>
<path d="M17.517 24.8288C17.517 24.727 17.5027 24.6252 17.5198 24.5263C17.5967 24.0428 17.4486 23.7204 16.9418 23.5508C16.7254 23.4801 16.5915 23.4547 16.3922 23.5847C15.9907 23.8505 15.5664 24.0908 15.145 24.3199C14.8687 24.4725 14.5982 24.4669 14.4245 24.153C14.2622 23.8533 14.3135 23.5762 14.6068 23.3896C14.994 23.1437 15.4069 22.9429 15.7857 22.6828C15.9138 22.5951 15.9679 22.3972 16.0419 22.2417C16.0676 22.1908 16.0277 22.1117 16.0476 22.0551C16.247 21.4614 15.9451 21.1588 15.4297 20.9496C15.1734 20.845 14.9371 20.6838 14.6979 20.5396C14.4188 20.3728 14.3163 20.0279 14.4558 19.7593C14.5954 19.4935 14.8972 19.4143 15.2161 19.5896C15.629 19.813 16.0391 20.0477 16.4378 20.2965C16.6257 20.4124 16.7709 20.4435 16.9532 20.2993C17.0386 20.2286 17.1525 20.1806 17.2635 20.1579C17.4657 20.1127 17.5198 19.9968 17.5141 19.8045C17.5027 19.3606 17.5056 18.9196 17.5113 18.4757C17.517 18.0911 17.7135 17.848 18.0153 17.8338C18.3285 17.8197 18.5507 18.0629 18.5677 18.4728C18.5848 18.9026 18.5791 19.3352 18.5905 19.7649C18.5991 20.1438 19.2512 20.5001 19.5929 20.3135C20.0399 20.0703 20.4756 19.8045 20.9341 19.5868C21.347 19.3917 21.683 19.567 21.7456 19.9657C21.7855 20.2201 21.6801 20.4039 21.4523 20.5283C21.0252 20.7573 20.6066 20.9977 20.1795 21.2239C19.9887 21.3257 19.8719 21.4331 19.9773 21.6706C20.02 21.7696 20.0371 21.9053 20.0029 22.0071C19.8349 22.4821 20.0912 22.6828 20.4813 22.8581C20.8401 23.0193 21.1761 23.2313 21.5064 23.4462C21.8168 23.6498 21.8852 23.9551 21.7115 24.2322C21.5178 24.5404 21.2473 24.5065 20.9768 24.3566C20.5297 24.1135 20.0912 23.8533 19.6498 23.6017C19.2796 23.3925 18.6048 23.7629 18.5934 24.1841C18.582 24.6507 18.5877 25.12 18.5791 25.5894C18.5734 25.9343 18.3627 26.1661 18.0495 26.1576C17.7049 26.1492 17.5483 25.9371 17.5312 25.6176C17.5198 25.3518 17.5284 25.0861 17.5284 24.8203C17.5255 24.8288 17.5227 24.8288 17.517 24.8288ZM18.0552 22.762C18.5507 22.7535 18.8724 22.4255 18.8582 21.9477C18.8468 21.5038 18.4567 21.1475 18.0011 21.1617C17.5512 21.1758 17.2322 21.5434 17.2436 22.0353C17.2522 22.4453 17.6138 22.7676 18.0552 22.762Z" fill="#FFEB61"/>
<path d="M20.8433 53.8179C20.7664 53.0093 20.9031 52.294 21.3217 51.6578C21.4441 51.474 21.6093 51.2733 21.8001 51.1885C21.9624 51.1178 22.2528 51.1348 22.3781 51.2394C22.5006 51.344 22.512 51.6041 22.5262 51.7992C22.5319 51.8953 22.4322 51.9999 22.3753 52.0989C21.8456 52.998 21.7146 53.9254 22.324 54.8217C22.9334 55.7179 23.8759 55.8424 24.8783 55.7406C25.0406 55.7236 25.2399 55.6642 25.3567 55.7349C25.5104 55.831 25.687 56.029 25.6898 56.1901C25.6955 56.3456 25.5332 56.5775 25.3852 56.6566C24.6647 57.0412 23.9101 56.9874 23.164 56.716C23.0444 56.6736 22.9305 56.6199 22.8109 56.5718C22.7996 56.5662 22.7853 56.5718 22.7312 56.5718C22.7198 56.8065 22.7198 57.0412 22.697 57.2758C22.6287 57.9883 22.4294 58.6443 21.8399 59.1165C21.6377 59.2776 21.3786 59.3342 21.2248 59.1306C21.1024 58.9666 21.0882 58.7065 21.0711 58.486C21.0625 58.3926 21.1935 58.2965 21.2305 58.1919C21.3644 57.8243 21.5438 57.4624 21.595 57.0836C21.783 55.6755 20.7151 54.5559 19.2486 54.5842C19.0464 54.5898 18.8357 54.604 18.6449 54.6605C18.2975 54.7623 18.0669 54.6464 17.933 54.3354C17.8248 54.0809 17.9786 53.7755 18.3061 53.637C18.9753 53.3514 19.653 53.4193 20.325 53.6342C20.4788 53.6794 20.6297 53.7388 20.8433 53.8179Z" fill="#FFEB61"/>
<path d="M62.9246 41.7676C63.4086 41.5669 63.8614 41.335 64.3398 41.1937C64.6616 41.0975 65.0204 41.0891 65.3592 41.1117C65.7323 41.1343 65.9487 41.4001 65.9231 41.7083C65.8917 42.0758 65.644 42.1833 65.3137 42.1946C64.4138 42.2257 63.6251 42.5084 63.1182 43.2916C62.5316 44.1964 62.6939 45.3245 63.4941 46.2349C63.608 46.365 63.7674 46.5205 63.7703 46.6675C63.776 46.8456 63.6849 47.1086 63.551 47.1877C63.403 47.2726 63.1125 47.2612 62.9587 47.1651C62.2753 46.7523 61.9279 46.0992 61.7684 45.3415C61.7371 45.1859 61.7172 45.0248 61.7086 44.9654C61.085 45.1859 60.4899 45.4234 59.872 45.5959C59.6157 45.6666 59.3138 45.6072 59.0405 45.562C58.7586 45.5139 58.5905 45.333 58.6247 45.022C58.6589 44.7279 58.8241 44.5781 59.1231 44.5413C59.5018 44.4961 59.8919 44.4763 60.2507 44.3632C61.7969 43.8684 62.3493 42.3105 61.4751 40.942C61.347 40.7385 61.179 40.5603 61.0252 40.3766C60.8202 40.1306 60.7718 39.8648 60.9825 39.616C61.2103 39.3502 61.4951 39.4209 61.74 39.6019C62.3664 40.0599 62.7167 40.6904 62.8619 41.4397C62.8904 41.5584 62.9103 41.68 62.9246 41.7676Z" fill="#FFEB61"/>
<path d="M39.7595 25.0239C38.4467 24.9843 37.5127 24.4499 36.9631 23.3218C36.8834 23.155 36.8264 22.9599 36.8208 22.7761C36.8122 22.5188 36.9318 22.3011 37.2109 22.2417C37.4785 22.1824 37.6893 22.2813 37.8174 22.5245C37.8829 22.6461 37.937 22.7761 37.9996 22.9005C38.3499 23.5961 38.9308 23.941 39.6996 23.9099C40.4628 23.8788 41.0266 23.4971 41.3342 22.7903C41.4708 22.4792 41.5961 22.1739 42.029 22.2191C42.2966 22.2502 42.4703 22.3831 42.4675 22.6517C42.4646 22.8609 42.4362 23.09 42.3479 23.2766C41.8211 24.3877 40.9127 24.9447 39.7595 25.0239Z" fill="#FFEB61"/>
<path d="M26.3391 45.1859C26.2822 45.5422 26.2736 45.938 25.7753 45.9521C25.4422 45.9606 25.2884 45.7599 25.2058 45.2255C24.8584 45.1294 24.4427 45.0474 24.4854 44.5639C24.5195 44.1879 24.8328 44.0663 25.2058 44.0465C25.2343 43.9391 25.2571 43.8316 25.2855 43.7242C25.3567 43.4612 25.5219 43.3085 25.8038 43.3085C26.0857 43.3085 26.2252 43.4952 26.2623 43.7355C26.2964 43.9588 26.3676 44.0578 26.6097 44.0861C26.8887 44.1228 27.1251 44.2783 27.1137 44.6063C27.1023 44.9173 26.8973 45.0728 26.604 45.1322C26.5214 45.1492 26.4331 45.1661 26.3391 45.1859Z" fill="#FFEB61"/>
<path d="M28.2668 20.811C27.9991 20.7856 27.8311 20.6358 27.7343 20.3643C27.6887 20.2371 27.5606 20.107 27.4353 20.0477C27.1819 19.9261 26.9284 19.8073 26.954 19.4878C26.9768 19.1853 27.2075 19.0524 27.4837 18.9619C27.5947 18.9252 27.7257 18.798 27.7514 18.6905C27.8226 18.3965 27.9564 18.1985 28.281 18.1957C28.5914 18.1929 28.7167 18.3739 28.785 18.6594C28.8135 18.7782 28.9673 18.9195 29.0926 18.9535C29.3916 19.0383 29.6308 19.1712 29.6308 19.502C29.6279 19.8441 29.3745 19.9487 29.0726 20.0194C28.9673 20.0448 28.8562 20.189 28.8164 20.3021C28.7224 20.5651 28.6142 20.7969 28.2668 20.811Z" fill="#FFEB61"/>
<path d="M54.2338 50.0179C54.211 50.1649 54.1996 50.278 54.1769 50.3883C54.1228 50.6541 53.9661 50.8322 53.6842 50.8294C53.3995 50.8265 53.1745 50.6767 53.1432 50.3911C53.1147 50.131 52.9951 50.0547 52.773 49.9529C52.6078 49.8765 52.4512 49.639 52.4142 49.4524C52.363 49.181 52.5737 49.034 52.8357 48.9576C52.941 48.9265 53.0805 48.8276 53.109 48.7314C53.1945 48.443 53.2941 48.1914 53.6501 48.1942C54.0288 48.1971 54.1797 48.4402 54.2224 48.7795C54.2281 48.8163 54.2481 48.8502 54.2623 48.8813C54.8176 49.0029 54.9913 49.1555 54.9713 49.5033C54.9457 49.95 54.6097 49.9981 54.2338 50.0179Z" fill="#FFEB61"/>
<path d="M53.0862 23.5197C53.0891 23.8505 52.8271 24.1219 52.4939 24.136C52.1294 24.1474 51.8219 23.8561 51.8276 23.5084C51.8333 23.1606 52.1095 22.892 52.4655 22.892C52.8129 22.8892 53.0834 23.1634 53.0862 23.5197Z" fill="#FFEB61"/>
<path d="M16.9905 42.8364C16.6459 42.8392 16.3697 42.5621 16.3612 42.2115C16.3555 41.8751 16.6118 41.6178 16.9592 41.6121C17.3066 41.6065 17.6141 41.8864 17.6198 42.2115C17.6255 42.5452 17.3379 42.8307 16.9905 42.8364Z" fill="#FFEB61"/>
<path d="M55.8853 57.5105C55.8825 57.8667 55.6062 58.1325 55.2503 58.1212C54.92 58.1099 54.6495 57.8385 54.6438 57.5105C54.6352 57.1853 54.9485 56.863 55.2645 56.863C55.5835 56.863 55.8853 57.1797 55.8853 57.5105Z" fill="#FFEB61"/>
<path d="M15.5894 33.1328C15.2505 33.1441 14.9715 32.8896 14.9515 32.556C14.9316 32.2026 15.1936 31.9198 15.5524 31.9057C15.8912 31.8944 16.1874 32.18 16.1931 32.5221C16.2016 32.8472 15.9283 33.1215 15.5894 33.1328Z" fill="#FFEB61"/>
<path d="M63.1808 33.2798C62.8163 33.2742 62.56 33.0084 62.5714 32.6521C62.5828 32.3157 62.8533 32.0584 63.1865 32.0584C63.5311 32.0612 63.7959 32.3411 63.793 32.7002C63.7902 33.0451 63.5368 33.2855 63.1808 33.2798Z" fill="#FFEB61"/>
<path d="M27.2699 25.12C27.2613 25.4678 26.9652 25.7703 26.6463 25.759C26.3188 25.7477 26.0511 25.4706 26.0511 25.1398C26.0511 24.7835 26.3302 24.498 26.6662 24.5093C26.9965 24.5178 27.2784 24.8033 27.2699 25.12Z" fill="#FFEB61"/>
<path d="M30.5676 58.7093C30.8922 58.7065 31.1542 58.992 31.1457 59.3341C31.1371 59.6706 30.8951 59.9053 30.5591 59.8996C30.2316 59.894 29.9468 59.6169 29.944 59.2974C29.9411 58.9807 30.2259 58.7121 30.5676 58.7093Z" fill="#FFEB61"/>
<path d="M48.9003 59.7894C48.6326 59.7639 48.4646 59.6141 48.3678 59.3426C48.3222 59.2154 48.1941 59.0854 48.0688 59.026C47.8154 58.9044 47.5619 58.7857 47.5876 58.4662C47.6103 58.1636 47.841 58.0307 48.1172 57.9403C48.2283 57.9035 48.3593 57.7763 48.3849 57.6688C48.4561 57.3748 48.5899 57.1769 48.9145 57.174C49.2249 57.1712 49.3502 57.3522 49.4186 57.6377C49.447 57.7565 49.6008 57.8979 49.7261 57.9318C50.0251 58.0166 50.2643 58.1495 50.2643 58.4803C50.2614 58.8224 50.008 58.927 49.7062 58.9977C49.6008 59.0232 49.4898 59.1673 49.4499 59.2804C49.3531 59.5434 49.2477 59.7752 48.9003 59.7894Z" fill="#FFEB61"/>
<path d="M44.74 58.4435C44.3955 58.4463 44.1193 58.1693 44.1107 57.8187C44.105 57.4822 44.3613 57.2249 44.7087 57.2193C45.0561 57.2136 45.3636 57.4935 45.3693 57.8187C45.3779 58.1523 45.0874 58.4407 44.74 58.4435Z" fill="#FFEB61"/>
<path d="M39.0791 60.2417C37.7664 60.2757 36.8324 60.7252 36.2828 61.678C36.2031 61.8194 36.1461 61.9834 36.1404 62.1389C36.1319 62.3566 36.2515 62.5404 36.5306 62.5913C36.7982 62.6422 37.009 62.5574 37.1371 62.3538C37.2026 62.2492 37.2567 62.1417 37.3193 62.0343C37.6696 61.449 38.2505 61.155 39.0193 61.1804C39.7825 61.2059 40.3463 61.5282 40.6539 62.1248C40.7905 62.3877 40.9158 62.6478 41.3487 62.6082C41.6163 62.5828 41.79 62.4697 41.7872 62.2435C41.7843 62.0654 41.7559 61.8731 41.6676 61.7148C41.1379 60.7789 40.2296 60.3096 39.0791 60.2417Z" fill="#FFEB61"/>
<path d="M34.2326 30.2234C34.3607 30.0849 34.4831 29.9464 34.6113 29.8163C35.8756 28.5609 37.3763 28.1227 39.0934 28.6514C39.6999 28.838 40.2381 28.8267 40.8389 28.6429C42.5332 28.1227 44.0168 28.5525 45.2812 29.7626C45.4292 29.9039 45.5517 30.0764 45.7111 30.263C45.8678 30.099 45.9731 29.9944 46.0728 29.887C47.7472 28.0746 49.8116 27.0822 52.3004 27.1303C55.2818 27.1897 58.3942 29.2367 58.8157 32.8218C59.0036 34.4249 58.605 35.9319 57.8817 37.3626C57.3691 38.3748 56.7199 39.2824 55.8827 40.0543C55.4869 40.419 55.222 40.4897 54.9544 40.3229C54.6924 40.1589 54.6411 39.879 54.8177 39.3757C55.1993 38.2787 55.3844 37.1562 55.1708 36.0054C54.9715 34.9367 54.4703 34.0348 53.5192 33.441C52.3545 32.7172 51.1557 33.1159 50.6631 34.3882C50.478 34.8632 50.3498 35.3608 50.1961 35.8499C50.1733 35.9234 50.1477 35.9941 50.122 36.0648C49.5753 37.5803 48.6869 38.0185 47.1264 37.5888C46.5825 37.4389 46.013 37.2891 45.4606 37.306C45.0306 37.3202 44.592 37.5605 44.182 37.7528C43.7976 37.9337 43.6438 37.962 43.4929 37.7358C43.3106 37.4644 43.3704 37.2156 43.7292 37.0063C44.7686 36.3984 45.8621 36.2514 47.0125 36.6671C47.4482 36.8254 47.8753 36.9865 48.3537 36.8734C48.6954 36.7915 48.983 36.6218 49.1083 36.3051C49.2763 35.8839 49.3959 35.4428 49.5155 35.0017C49.5354 34.9339 49.4586 34.784 49.3931 34.7557C47.8297 34.1309 46.6622 33.0056 45.5773 31.7785C45.5716 31.77 45.5574 31.7672 45.509 31.7446C45.21 32.0132 44.8996 32.2959 44.5835 32.573C43.584 33.4608 42.5646 34.309 41.3116 34.8434C40.3976 35.2336 39.512 35.2279 38.6064 34.8321C37.3934 34.3005 36.4024 33.4608 35.4143 32.6126C35.0697 32.3157 34.7423 31.9962 34.4006 31.6852C34.0275 32.0952 33.6858 32.508 33.3042 32.8784C32.4841 33.6757 31.5843 34.3656 30.4965 34.7755C30.431 34.801 30.3485 34.9508 30.3684 35.0102C30.5165 35.4626 30.6418 35.9319 30.8639 36.3504C31.1515 36.8932 31.6811 37.0601 32.3446 36.8904C32.7148 36.7943 33.0736 36.6529 33.4438 36.5568C34.355 36.3278 35.2292 36.4635 36.0579 36.8819C36.2002 36.9554 36.3739 37.0544 36.428 37.1873C36.4935 37.3428 36.4964 37.569 36.428 37.7217C36.3398 37.9252 36.1148 37.8941 35.9354 37.8121C35.6592 37.6877 35.3944 37.5209 35.1096 37.4191C34.5572 37.2184 33.9962 37.2156 33.4352 37.405C33.0821 37.5237 32.7262 37.634 32.3645 37.7217C31.479 37.9365 30.5905 37.6142 30.1662 36.8141C29.8473 36.2062 29.6764 35.5163 29.4344 34.8688C29.3091 34.5352 29.2066 34.1818 29.0186 33.8821C28.5004 33.0423 27.5407 32.8275 26.601 33.3223C25.3851 33.9641 24.8412 35.0413 24.6875 36.3419C24.5679 37.3626 24.7046 38.3606 25.0548 39.3304C25.1089 39.4831 25.1602 39.6443 25.1716 39.8026C25.2114 40.2324 24.8498 40.5038 24.4426 40.3426C24.3144 40.2918 24.1835 40.2154 24.0838 40.1165C22.1987 38.2928 21.0625 36.1157 21.0255 33.4693C20.9885 30.6617 22.9476 28.1934 25.7696 27.4441C28.7111 26.6666 31.2341 27.5148 33.4409 29.4883C33.7058 29.7202 33.9535 29.9633 34.2326 30.2234ZM45.153 30.8766C44.1193 29.559 42.7667 28.9766 41.417 29.3696C40.4203 29.658 39.5148 29.658 38.5182 29.3752C37.1115 28.9794 35.5709 29.6665 34.8419 30.854C34.8562 30.8794 34.8647 30.9133 34.8875 30.9359C36.0835 32.1432 37.3563 33.2516 38.8912 34.0291C39.6259 34.3995 40.3321 34.3967 41.0639 34.0404C42.6386 33.2629 43.8915 32.081 45.153 30.8766ZM56.0678 38.3211C56.0991 38.2843 56.1361 38.2476 56.1589 38.2051C56.6743 37.1618 56.8793 36.0648 56.7398 34.9084C56.6344 34.0319 56.4066 33.2007 55.8001 32.5165C55.0142 31.6258 53.8097 31.3912 52.8643 31.9566C52.756 32.0217 52.6678 32.1206 52.5254 32.245C54.0033 32.491 54.98 33.2714 55.5865 34.5239C56.1703 35.7312 56.2529 37.0007 56.0678 38.3211ZM27.4211 32.163C27.2959 32.0867 27.2161 32.0301 27.1335 31.9877C25.9176 31.3685 24.6533 31.6598 23.9044 32.7964C22.9761 34.2072 22.9675 35.7481 23.4089 37.3173C23.5086 37.6736 23.6823 38.0129 23.819 38.3607C23.594 35.4795 24.0724 33.048 27.4211 32.163ZM27.4012 28.6203C27.4183 27.9842 27.3955 27.9417 26.9428 28.0435C26.359 28.1764 25.7866 28.3602 25.2143 28.5298C25.0064 28.592 24.9552 28.7023 25.052 28.92C25.2655 29.4063 25.4563 29.9039 25.6272 30.4072C25.7753 30.8426 26.0543 30.9246 26.416 30.6136C27.0766 30.0481 27.3585 29.3074 27.4012 28.6203ZM54.9772 28.6656C54.2966 28.2584 53.5163 28.0718 52.7048 27.9983C52.6535 27.9926 52.5396 28.1057 52.5368 28.1651C52.5112 29.1292 52.8529 29.9548 53.5505 30.6221C53.7584 30.8229 54.1571 30.7437 54.251 30.5062C54.4959 29.904 54.7294 29.2989 54.9772 28.6656ZM47.5336 29.7032C48.086 30.8794 48.9175 31.77 50.048 32.3836C50.5435 32.6522 50.5435 32.6493 50.9507 32.2789C51.3009 31.9566 51.3066 31.9029 50.8909 31.688C49.8173 31.131 48.909 30.3761 48.1373 29.4544C48.1003 29.4092 48.0405 29.3781 47.9835 29.33C47.8269 29.46 47.6845 29.576 47.5336 29.7032ZM28.7253 31.9199C28.7083 31.9651 28.6912 32.0104 28.6712 32.0556C28.8022 32.1517 28.9702 32.2252 29.0614 32.3496C29.2607 32.6267 29.4686 32.6041 29.7334 32.4627C30.7756 31.9142 31.6042 31.1508 32.1766 30.1245C32.4186 29.6891 32.356 29.559 31.8377 29.3837C31.0119 30.4694 29.9042 31.2356 28.7253 31.9199ZM50.1192 33.3534C48.647 32.7087 47.5905 31.6541 46.8103 30.297C46.7306 30.3592 46.6793 30.3846 46.6451 30.4214C46.5199 30.5571 46.3775 30.6871 46.2863 30.8426C46.2351 30.9303 46.218 31.1028 46.2693 31.1791C47.1121 32.3694 48.2085 33.2685 49.5411 33.8708C49.6152 33.9047 49.7718 33.8566 49.8316 33.7916C49.9455 33.6813 50.011 33.5258 50.1192 33.3534ZM33.1277 30.2376C32.3532 31.7163 31.2312 32.7115 29.8046 33.3986C29.8558 33.4834 29.9042 33.5428 29.9299 33.6135C30.0637 33.9697 30.2659 33.9641 30.5848 33.8057C31.8491 33.1781 32.8372 32.2422 33.6972 31.1537C33.7428 31.0943 33.7428 30.9388 33.6972 30.8794C33.5349 30.6645 33.3413 30.4723 33.1277 30.2376ZM51.8818 31.5156C52.1808 31.3403 52.4485 31.1819 52.7304 31.0151C51.9302 30.1499 51.674 29.1264 51.6768 27.9926C51.3892 28.0181 51.1329 28.0181 50.8937 28.0718C50.8112 28.0888 50.7001 28.2358 50.7001 28.3234C50.6972 28.6147 50.7257 28.9087 50.7627 29.1999C50.8681 30.0906 51.2297 30.8624 51.8818 31.5156ZM27.219 31.0745C27.4325 31.2017 27.6262 31.3035 27.7999 31.4307C27.9679 31.5551 28.0647 31.5353 28.2071 31.377C29.0129 30.4949 29.1923 29.4148 29.2151 28.2839C29.2151 28.2188 29.1382 28.1086 29.087 28.1001C28.8335 28.0605 28.5744 28.0492 28.2925 28.0237C28.2583 29.166 28.0106 30.1952 27.219 31.0745ZM22.5176 33.5852C22.8451 33.0169 23.1555 32.474 23.463 31.9284C23.4886 31.8803 23.5029 31.787 23.4773 31.7559C23.201 31.442 22.9134 31.1395 22.6287 30.8342C22.5888 30.8398 22.5518 30.8426 22.5119 30.8483C22.3382 31.3459 22.1617 31.8435 21.9908 32.344C21.7943 32.9123 21.9595 33.3307 22.5176 33.5852C22.5404 33.5909 22.529 33.588 22.5176 33.5852ZM57.2894 30.8313C56.9961 31.1395 56.7284 31.4109 56.4778 31.6937C56.4351 31.7418 56.4237 31.8633 56.4551 31.9199C56.7654 32.4627 57.0872 33.0028 57.4204 33.5626C57.5969 33.3618 58.0013 33.3279 57.9785 32.9123C57.9329 32.1828 57.6994 31.5099 57.2894 30.8313ZM24.2176 29.0897C23.8474 29.412 23.5342 29.6749 23.2381 29.9577C23.1897 30.0029 23.1953 30.1726 23.2438 30.2319C23.5342 30.5938 23.8446 30.9388 24.1521 31.295C24.434 31.1565 24.6932 31.0292 24.9665 30.8935C24.7245 30.3139 24.4938 29.7569 24.2176 29.0897ZM55.746 29.0897C55.5438 29.5336 55.3673 29.8926 55.2164 30.2602C54.9458 30.9048 54.9487 30.9105 55.6008 31.1819C55.6834 31.2159 55.8457 31.1961 55.9026 31.1339C56.1674 30.8596 56.4152 30.5684 56.6458 30.263C56.6999 30.1923 56.717 30.0086 56.6658 29.9548C56.3896 29.6693 56.0906 29.4092 55.746 29.0897ZM30.1178 28.3687C29.9954 29.0444 29.8843 29.658 29.7732 30.2743C29.7932 30.2913 29.8103 30.3111 29.8302 30.3281C30.2744 29.8587 30.7186 29.3894 31.2227 28.8578C30.7927 28.6712 30.4624 28.5242 30.1178 28.3687ZM49.7803 28.3828C49.413 28.5411 49.0912 28.6769 48.6669 28.8578C49.1766 29.3781 49.6266 29.8389 50.0736 30.297C50.0993 30.2743 50.122 30.2517 50.1448 30.2291C50.0309 29.641 49.9142 29.0529 49.7803 28.3828ZM57.5941 35.7425C57.6197 35.7453 57.6482 35.7481 57.6738 35.7538C57.7963 35.2392 57.9187 34.7218 58.0411 34.2072C58.007 34.1846 57.97 34.162 57.9358 34.1394C57.7906 34.2412 57.5229 34.3373 57.52 34.4447C57.5001 34.8745 57.5628 35.3099 57.5941 35.7425ZM21.8513 34.1337C21.9851 34.7077 22.099 35.1996 22.2129 35.6916C22.2499 35.6859 22.287 35.6775 22.324 35.6718C22.324 35.3862 22.267 35.0865 22.3382 34.8208C22.4379 34.4391 22.2727 34.2892 21.8513 34.1337Z" fill="#FFEB61"/>
<path d="M32.7373 39.6613C32.4411 39.6839 32.2048 39.5849 32.1678 39.2909C32.1507 39.1467 32.219 38.9035 32.3244 38.8498C32.9024 38.5416 33.4976 38.2476 34.1839 38.2702C35.0865 38.2956 35.7927 38.7735 36.0376 39.6641C36.2056 40.272 36.5075 40.631 37.0571 40.9619C38.2046 41.6461 38.7542 42.7968 39.019 44.0522C39.1757 44.7901 39.1842 45.562 39.2355 46.3197C39.2582 46.6562 39.0134 46.7976 38.7257 46.9135C38.2303 47.1086 37.712 47.2782 37.2678 47.5638C36.4705 48.0784 36.0319 48.8559 36.086 49.8031C36.1259 50.5325 36.2939 51.2592 36.4505 51.9802C36.536 52.3873 36.8463 52.6531 37.2365 52.7973C37.8259 53.015 38.4182 53.0235 38.9963 52.7577C39.486 52.5343 39.6028 52.2544 39.3351 51.7964C39.0845 51.3694 38.7884 50.9595 38.4638 50.5834C38.2274 50.312 37.9028 50.2244 37.5412 50.4251C37.2849 50.5693 37.0713 50.4732 36.9375 50.2243C36.7951 49.9614 36.9318 49.7691 37.1539 49.6589C37.6864 49.3959 38.2217 49.4638 38.7286 49.7324C39.1671 49.9642 39.4661 50.3403 39.7025 50.7672C39.768 50.8888 39.8363 51.0104 39.916 51.1546C40.0812 50.8803 40.2093 50.6287 40.3745 50.3997C40.9013 49.6589 41.767 49.3055 42.513 49.526C42.6526 49.5656 42.832 49.6447 42.8889 49.7578C42.9629 49.8992 43 50.1424 42.9231 50.2555C42.849 50.3685 42.57 50.4647 42.4561 50.411C41.8951 50.148 41.5107 50.394 41.2031 50.804C40.9326 51.1687 40.7219 51.5758 40.4912 51.9717C40.3773 52.1696 40.44 52.3421 40.5938 52.5032C41.4139 53.3543 43.205 52.9782 43.5268 51.8586C43.6891 51.2988 43.7973 50.7078 43.8201 50.1282C43.8856 48.5732 42.8747 47.3008 41.3256 46.9078C40.7447 46.7608 40.6336 46.6251 40.6963 46.0427C40.7845 45.2255 40.8472 44.3971 41.0152 43.5913C41.1804 42.8166 41.5762 42.1154 42.14 41.5528C42.4874 41.2078 42.9202 40.9336 43.3531 40.6876C43.5581 40.5717 43.6691 40.4671 43.7062 40.2437C43.746 40.009 43.8058 39.7743 43.8913 39.551C44.2814 38.5246 45.2211 38.0468 46.3345 38.3239C46.6933 38.4115 47.0378 38.5642 47.3767 38.7141C47.6159 38.8215 47.8779 38.9657 47.7782 39.2965C47.6871 39.6019 47.4308 39.6584 47.1717 39.6104C47.035 39.9694 46.941 40.3285 46.7673 40.648C46.2377 41.6376 45.1584 41.9458 44.1532 41.4368C44.0536 41.386 43.8969 41.3831 43.7944 41.4227C43.2477 41.6291 42.8206 41.9854 42.4817 42.4688C41.7356 43.5376 41.5192 44.7392 41.5705 46.0087C41.5733 46.0935 41.6787 46.2236 41.7613 46.2434C43.4527 46.676 44.6117 48.0869 44.68 49.837C44.6943 50.213 44.6829 50.5919 44.6829 50.9906C44.7199 50.968 44.7712 50.951 44.8025 50.9171C46.8954 48.4883 48.7179 45.8871 49.9594 42.9212C50.4919 41.6517 50.4919 40.3087 50.4207 38.9657C50.4151 38.847 50.4008 38.7254 50.4065 38.6066C50.4236 38.2447 50.6599 38.044 51.0273 38.0412C51.1867 38.0412 51.3661 38.0327 51.5028 37.962C52.2631 37.552 52.9494 37.0629 53.3281 36.2458C53.479 35.9178 53.7723 35.7877 54.0115 35.9206C54.2707 36.0676 54.3333 36.3956 54.1368 36.6897C53.4677 37.6934 52.6476 38.5162 51.443 38.8668C51.1754 38.9431 51.275 39.1438 51.2893 39.2965C51.4231 40.7809 51.2038 42.2144 50.603 43.5715C50.2129 44.4565 49.7829 45.3302 49.2931 46.1642C47.6358 48.9831 45.6511 51.5476 43.1566 53.6964C42.7038 54.0866 42.2055 54.4372 41.6901 54.7369C40.4713 55.4494 39.2412 55.3843 38.0452 54.6633C36.9289 53.9904 35.9921 53.0998 35.1036 52.1639C32.8968 49.837 31.0145 47.2782 29.6277 44.3773C28.8361 42.7205 28.446 40.9929 28.6112 39.1523C28.6197 39.0618 28.5286 38.9007 28.446 38.8724C27.3611 38.4851 26.5381 37.7782 25.906 36.8395C25.8177 36.7066 25.681 36.5766 25.6639 36.4324C25.6383 36.2062 25.6781 35.9574 25.9629 35.881C26.2505 35.8047 26.4669 35.9461 26.5751 36.1977C26.9254 37.0035 27.5746 37.5011 28.3207 37.897C28.4659 37.9733 28.651 38.0072 28.819 38.0129C29.2917 38.027 29.5195 38.2476 29.5081 38.7282C29.4939 39.3248 29.4512 39.9242 29.4683 40.5208C29.5024 41.8779 29.9666 43.1191 30.5617 44.3208C31.7179 46.6619 33.2157 48.7739 34.9385 50.7389C35.0239 50.8351 35.0581 50.9736 35.1179 51.0924C35.1748 51.0499 35.2346 51.0075 35.2916 50.9651C35.2773 50.8549 35.2688 50.7446 35.2517 50.6372C34.9328 48.5703 36.0633 46.823 38.0907 46.2377C38.1932 46.2095 38.3385 46.0935 38.3413 46.0144C38.3926 44.5215 38.1021 43.122 37.0201 42.008C36.7638 41.7422 36.3879 41.5895 36.0576 41.4029C35.9892 41.3662 35.8582 41.3746 35.7842 41.4142C34.7334 41.9938 33.4293 41.6348 32.8825 40.0995C32.8284 39.961 32.7857 39.8168 32.7373 39.6613ZM38.3185 53.8066C39.0988 54.5955 40.9696 54.5983 41.5876 53.8321C41.0949 53.6285 40.5909 53.4165 40.0812 53.2157C40.0129 53.1903 39.9132 53.2129 39.8363 53.2383C39.3266 53.4249 38.8226 53.6172 38.3185 53.8066ZM34.7505 40.8233C35.3229 40.8318 35.4624 40.6593 35.3087 40.1617C35.2631 40.0175 35.2118 39.8733 35.1492 39.7348C34.9299 39.2598 34.386 39.0053 33.8678 39.1184C33.6599 39.1636 33.5488 39.2598 33.6314 39.4831C33.7339 39.7687 33.8137 40.0627 33.9504 40.3313C34.1127 40.6593 34.4202 40.7979 34.7505 40.8233ZM45.8048 39.1156C45.1755 39.1184 44.831 39.4294 44.5861 40.2211C44.438 40.6932 44.5519 40.8403 45.0502 40.829C45.6624 40.8148 46.0497 40.4444 46.2377 39.6895C46.363 39.1749 46.3145 39.1127 45.8048 39.1156Z" fill="#FFEB61"/>
</svg>
