<svg width="80" height="80" viewBox="0 0 80 80" fill="none" xmlns="http://www.w3.org/2000/svg">
<rect width="80" height="80" rx="40" fill="#111010"/>
<path d="M60.5876 22.8741C60.5876 22.7581 60.5876 22.6422 60.5876 22.5232C60.5846 21.9018 60.4508 21.7115 59.8395 21.542C59.7483 21.5182 59.6175 21.5717 59.5202 21.6223C59.0245 21.875 58.541 22.1426 58.0483 22.3954C57.7442 22.55 57.4705 22.5054 57.3094 22.1902C57.1543 21.8869 57.2425 21.6372 57.5496 21.4677C57.9997 21.2149 58.4406 20.9503 58.8968 20.7124C59.0732 20.6173 59.1492 20.5221 59.1066 20.3169C59.0701 20.1564 59.0488 19.9661 59.0975 19.8174C59.2404 19.3922 59.0306 19.2049 58.6717 19.0502C58.322 18.8986 57.9784 18.7202 57.653 18.521C57.2972 18.3039 57.209 17.9798 57.4006 17.6944C57.6165 17.3673 57.9054 17.4148 58.2034 17.5724C58.6353 17.8044 59.0671 18.0333 59.4837 18.2831C59.6722 18.3961 59.8273 18.4734 59.9976 18.2712C60.0128 18.2504 60.0402 18.2296 60.0615 18.2266C60.6667 18.1136 60.6332 17.6765 60.6119 17.2305C60.5967 16.9064 60.6058 16.5823 60.6302 16.2582C60.6515 15.9638 60.8187 15.7676 61.1289 15.7438C61.4269 15.72 61.7219 15.9906 61.7341 16.2968C61.7523 16.7756 61.7523 17.2573 61.7402 17.736C61.7341 17.9322 61.8375 17.9947 61.9926 18.1047C62.4548 18.4377 62.8228 18.3039 63.2303 18.0185C63.5313 17.8073 63.878 17.6616 64.2064 17.4981C64.4588 17.3702 64.6991 17.3792 64.8603 17.6438C65.0275 17.9174 65.0701 18.2058 64.769 18.405C64.3615 18.6696 63.9327 18.9075 63.4948 19.1276C63.2333 19.2584 63.0904 19.3892 63.209 19.6955C63.2576 19.8233 63.2789 19.9928 63.2333 20.1177C63.0995 20.4835 63.3093 20.6202 63.5921 20.7659C63.9814 20.9622 64.3585 21.1822 64.7234 21.4171C65.0458 21.6223 65.1218 21.9345 64.9484 22.2229C64.7477 22.556 64.4588 22.55 64.1578 22.3865C63.7259 22.1575 63.3002 21.9196 62.8836 21.6639C62.6829 21.539 62.546 21.5747 62.321 21.6401C61.7006 21.8185 61.6641 22.2318 61.7006 22.7403C61.7219 23.0614 61.6976 23.3885 61.6793 23.7126C61.6611 24.0427 61.4908 24.2657 61.135 24.2568C60.7883 24.2478 60.6119 24.0308 60.5967 23.6978C60.5815 23.4212 60.5906 23.1477 60.5876 22.8741C60.5937 22.8741 60.5906 22.8741 60.5876 22.8741ZM62.0078 20.0047C62.0169 19.5201 61.6398 19.1305 61.1502 19.1246C60.694 19.1186 60.3109 19.5022 60.2987 19.969C60.2896 20.4032 60.6606 20.754 61.1471 20.7689C61.6459 20.7867 61.9956 20.4745 62.0078 20.0047Z" fill="#FFEB61"/>
<path d="M15.3128 27.5067C15.3128 27.4027 15.2976 27.2956 15.3158 27.1975C15.3949 26.7009 15.2428 26.3709 14.7167 26.1984C14.4917 26.1241 14.3518 26.1003 14.145 26.2341C13.7254 26.5077 13.2844 26.7515 12.8465 26.9894C12.5607 27.144 12.2748 27.141 12.0954 26.8169C11.9251 26.5077 11.9798 26.2252 12.2839 26.0349C12.6853 25.7821 13.1172 25.577 13.5095 25.3123C13.6433 25.2231 13.701 25.018 13.7771 24.8604C13.8014 24.8068 13.7619 24.7266 13.7831 24.6671C13.9899 24.0575 13.6767 23.7483 13.1385 23.5342C12.8708 23.4272 12.6245 23.2636 12.3752 23.1149C12.0832 22.9425 11.9768 22.5916 12.1227 22.3151C12.2687 22.0445 12.5819 21.9612 12.9134 22.1426C13.3452 22.3716 13.771 22.6124 14.1876 22.8681C14.3822 22.9871 14.5373 23.0198 14.7228 22.8711C14.811 22.7998 14.9327 22.7492 15.0452 22.7254C15.255 22.6778 15.3097 22.5589 15.3067 22.3627C15.2945 21.9077 15.2976 21.4528 15.3037 20.9978C15.3097 20.6024 15.5135 20.3556 15.8298 20.3407C16.1552 20.3258 16.3863 20.5786 16.4045 20.9978C16.4228 21.4379 16.4167 21.881 16.4288 22.324C16.438 22.7135 17.1161 23.0793 17.4719 22.889C17.9372 22.6392 18.3934 22.3686 18.8708 22.1456C19.3026 21.9464 19.6493 22.1248 19.7162 22.5351C19.7588 22.7968 19.6493 22.9841 19.4121 23.112C18.9681 23.3469 18.5302 23.5937 18.0862 23.8256C17.8885 23.9297 17.7669 24.0397 17.8764 24.2835C17.922 24.3846 17.9372 24.5273 17.9007 24.6255C17.7243 25.1131 17.9919 25.3153 18.3994 25.4997C18.7735 25.6662 19.1232 25.8832 19.4668 26.1033C19.7922 26.3144 19.8622 26.6236 19.6828 26.9091C19.482 27.2272 19.1992 27.1886 18.9195 27.0369C18.4542 26.7872 17.998 26.5195 17.5358 26.2638C17.1526 26.0468 16.4441 26.4274 16.4349 26.8615C16.4228 27.3402 16.4288 27.8249 16.4197 28.3036C16.4136 28.6575 16.1916 28.8953 15.8693 28.8864C15.5105 28.8775 15.3462 28.6604 15.331 28.3334C15.3189 28.0628 15.328 27.7892 15.328 27.5157C15.3189 27.5067 15.3158 27.5067 15.3128 27.5067ZM15.8723 25.3837C16.3863 25.3748 16.7238 25.0388 16.7086 24.5482C16.6965 24.0932 16.289 23.7275 15.8146 23.7423C15.3462 23.7572 15.0148 24.1348 15.0239 24.6374C15.0361 25.0596 15.4101 25.3926 15.8723 25.3837Z" fill="#FFEB61"/>
<path d="M64.1152 31.0838C64.5227 30.3523 65.0579 29.8171 65.7908 29.5109C66.0036 29.4217 66.2621 29.3443 66.4811 29.38C66.6635 29.4127 66.9038 29.5911 66.9524 29.7517C67.0011 29.9093 66.8551 30.1383 66.7548 30.3137C66.7031 30.3999 66.5571 30.4326 66.4476 30.4832C65.4654 30.95 64.8085 31.6666 64.8146 32.7757C64.8207 33.8878 65.5627 34.5271 66.4902 35.0058C66.6392 35.0831 66.849 35.1485 66.9068 35.2734C66.9859 35.4429 67.0193 35.7105 66.9312 35.8503C66.843 35.987 66.5693 36.0911 66.3929 36.0762C65.5444 35.996 64.9241 35.5232 64.4375 34.869C64.3584 34.7649 64.2915 34.652 64.2155 34.5449C64.2094 34.536 64.1942 34.53 64.1456 34.5003C63.9996 34.6936 63.8597 34.8958 63.7046 35.0831C63.2302 35.651 62.6737 36.0971 61.8891 36.1684C61.6215 36.1922 61.363 36.0941 61.3478 35.8324C61.3357 35.6243 61.4755 35.3923 61.5911 35.1961C61.6398 35.1128 61.807 35.1039 61.9013 35.0355C62.2297 34.7977 62.5977 34.5895 62.8653 34.2951C63.8506 33.2039 63.5769 31.6428 62.2905 30.837C62.1142 30.727 61.9226 30.62 61.7219 30.5605C61.36 30.4505 61.2292 30.2215 61.2961 29.8796C61.3509 29.6001 61.6641 29.4276 62.026 29.496C62.771 29.6328 63.3184 30.0728 63.7746 30.6378C63.881 30.7567 63.9753 30.8935 64.1152 31.0838Z" fill="#FFEB61"/>
<path d="M18.9346 61.2019C18.9894 61.7342 19.0836 62.2427 19.0806 62.7541C19.0776 63.096 18.9772 63.4499 18.8525 63.771C18.7157 64.1278 18.3842 64.2616 18.0831 64.1427C17.7213 64 17.6909 63.7294 17.779 63.4023C18.0223 62.5162 17.9767 61.6628 17.3442 60.9343C16.6143 60.0928 15.4314 59.9115 14.2788 60.417C14.1116 60.4883 13.9108 60.5983 13.7588 60.5597C13.5794 60.5121 13.3422 60.3426 13.3057 60.191C13.2662 60.0185 13.3665 59.742 13.5064 59.6201C14.1268 59.0789 14.8901 58.9362 15.699 59.0075C15.8662 59.0224 16.0335 59.0551 16.0943 59.064C16.0639 58.3891 16.0031 57.7379 16.0213 57.0867C16.0274 56.8161 16.1795 56.5396 16.3072 56.2898C16.441 56.0311 16.6751 55.9181 16.9732 56.049C17.259 56.1709 17.3594 56.376 17.3016 56.6763C17.2317 57.0599 17.1313 57.4465 17.1374 57.8271C17.1648 59.4833 18.5606 60.4853 20.1967 60.0453C20.4399 59.9799 20.668 59.8728 20.9022 59.7777C21.2093 59.6528 21.4952 59.6855 21.6776 59.965C21.8753 60.2653 21.7141 60.524 21.4617 60.7084C20.811 61.1811 20.072 61.3328 19.2752 61.2495C19.1566 61.2317 19.0289 61.2138 18.9346 61.2019Z" fill="#FFEB61"/>
<path d="M40.2281 66.7861C38.9052 67.134 37.8135 66.8872 36.9225 65.9416C36.7917 65.8018 36.6762 65.6294 36.6123 65.448C36.5272 65.1982 36.5789 64.9485 36.8373 64.8057C37.0867 64.666 37.327 64.7046 37.5277 64.9039C37.6311 65.005 37.7223 65.115 37.8226 65.222C38.3822 65.8019 39.0695 65.9684 39.8236 65.7126C40.5748 65.4569 41.0188 64.9158 41.113 64.1308C41.1556 63.7829 41.186 63.4469 41.6331 63.3636C41.9098 63.3131 42.1227 63.3933 42.2017 63.658C42.2625 63.8661 42.3051 64.0981 42.2747 64.3062C42.0892 65.5521 41.3533 66.3668 40.2281 66.7861Z" fill="#FFEB61"/>
<path d="M15.1109 34.1306C15.0532 34.4961 15.044 34.9033 14.5243 34.9151C14.1748 34.9241 14.0167 34.719 13.9316 34.1692C13.57 34.0711 13.1353 33.9879 13.1809 33.4916C13.2174 33.1083 13.5426 32.9805 13.9316 32.9597C13.959 32.8497 13.9863 32.7398 14.0167 32.6298C14.0927 32.3624 14.266 32.2048 14.5577 32.2019C14.8495 32.2019 14.9985 32.395 15.0349 32.6387C15.0714 32.8676 15.1474 32.9686 15.3966 32.9983C15.6884 33.034 15.9346 33.1945 15.9194 33.5303C15.9072 33.8512 15.6945 34.0087 15.3875 34.0711C15.2993 34.0919 15.2112 34.1098 15.1109 34.1306Z" fill="#FFEB61"/>
<path d="M39.9624 48.7357C39.6828 48.7089 39.5096 48.5574 39.4062 48.278C39.3576 48.1473 39.2239 48.0135 39.0962 47.9541C38.8318 47.8293 38.5674 47.7074 38.5947 47.3805C38.619 47.0715 38.8592 46.9348 39.1449 46.8397C39.2603 46.804 39.3971 46.6733 39.4245 46.5603C39.4974 46.2572 39.6372 46.0581 39.9746 46.0551C40.2968 46.0521 40.4305 46.2364 40.5004 46.5306C40.5308 46.6525 40.6919 46.7951 40.8226 46.8308C41.1356 46.9169 41.3849 47.0536 41.3818 47.3924C41.3788 47.7431 41.1144 47.8501 40.8013 47.9214C40.6919 47.9452 40.5733 48.0938 40.5338 48.2127C40.4335 48.4831 40.3241 48.7208 39.9624 48.7357Z" fill="#FFEB61"/>
<path d="M27.5637 44.2551C27.5425 44.4067 27.5273 44.5226 27.506 44.6355C27.4482 44.906 27.2872 45.0902 26.9923 45.0902C26.6975 45.0873 26.4605 44.9327 26.4301 44.6415C26.4027 44.377 26.2751 44.2968 26.0471 44.1927C25.8739 44.1125 25.7128 43.8718 25.6733 43.6786C25.6186 43.3993 25.8404 43.2507 26.114 43.1704C26.2264 43.1377 26.3662 43.0367 26.3997 42.9386C26.4878 42.6444 26.5911 42.3859 26.9619 42.3888C27.3571 42.3918 27.5151 42.6415 27.5577 42.9892C27.5637 43.0248 27.585 43.0605 27.6002 43.0932C28.1777 43.218 28.3601 43.3725 28.3388 43.7321C28.3053 44.1838 27.9558 44.2314 27.5637 44.2551Z" fill="#FFEB61"/>
<path d="M56.8768 31.9101C56.8798 32.2518 56.6063 32.5282 56.2598 32.5401C55.8829 32.552 55.5607 32.2548 55.5668 31.8952C55.5729 31.5386 55.8586 31.2652 56.2294 31.2652C56.5941 31.2652 56.8737 31.5445 56.8768 31.9101Z" fill="#FFEB61"/>
<path d="M13.506 41.2523C13.1474 41.2553 12.8587 40.97 12.8526 40.6134C12.8465 40.2657 13.114 40.0041 13.4726 39.9982C13.8343 39.9923 14.1534 40.2776 14.1625 40.6134C14.1686 40.9581 13.8677 41.2493 13.506 41.2523Z" fill="#FFEB61"/>
<path d="M38.2809 14.0396C38.2779 14.4052 37.9892 14.6786 37.6184 14.6667C37.2749 14.6548 36.9953 14.3784 36.9862 14.0396C36.9771 13.7068 37.3023 13.3739 37.6336 13.3769C37.9679 13.3739 38.284 13.6979 38.2809 14.0396Z" fill="#FFEB61"/>
<path d="M38.0012 31.9276C37.6516 31.9394 37.3568 31.6779 37.3386 31.3362C37.3173 30.9736 37.5909 30.6824 37.9647 30.6705C38.3203 30.6586 38.6273 30.9498 38.6303 31.3035C38.6364 31.6363 38.3537 31.9157 38.0012 31.9276Z" fill="#FFEB61"/>
<path d="M28.267 64.8794C27.887 64.8734 27.6196 64.6 27.6348 64.2345C27.6469 63.8928 27.9265 63.6253 28.2761 63.6283C28.6347 63.6312 28.9083 63.9165 28.9052 64.285C28.9022 64.6387 28.6378 64.8853 28.267 64.8794Z" fill="#FFEB61"/>
<path d="M33.6708 34.2234C33.6617 34.5801 33.3547 34.8891 33.0204 34.8802C32.68 34.8683 32.4004 34.583 32.4004 34.2442C32.4004 33.8787 32.6922 33.5875 33.0417 33.5964C33.3882 33.6053 33.68 33.8965 33.6708 34.2234Z" fill="#FFEB61"/>
<path d="M16.8391 47.1583C17.1764 47.1553 17.45 47.4496 17.4408 47.7973C17.4317 48.139 17.1795 48.3827 16.8299 48.3797C16.4895 48.3738 16.1917 48.0915 16.1886 47.7646C16.1886 47.4347 16.4834 47.1583 16.8391 47.1583Z" fill="#FFEB61"/>
<path d="M27.4558 13.3799C28.7543 12.9606 29.8613 13.1479 30.804 14.0429C30.9439 14.1738 31.0685 14.3433 31.1415 14.5187C31.2419 14.7655 31.2024 15.0153 30.953 15.1729C30.7127 15.3245 30.4725 15.3007 30.2566 15.1134C30.1471 15.0182 30.0498 14.9112 29.9434 14.8131C29.3504 14.266 28.657 14.1351 27.915 14.4325C27.1791 14.7268 26.7655 15.2948 26.7168 16.0827C26.6955 16.4306 26.6834 16.7696 26.2424 16.8766C25.9687 16.9421 25.7528 16.8737 25.6585 16.615C25.5856 16.4098 25.5308 16.1809 25.5491 15.9697C25.6677 14.712 26.3549 13.8586 27.4558 13.3799Z" fill="#FFEB61"/>
<path d="M62.6664 47.2553C62.6086 47.6209 62.5995 48.028 62.0798 48.0399C61.7303 48.0488 61.5722 47.8438 61.4871 47.294C61.1254 47.1959 60.6908 47.1127 60.7364 46.6164C60.7729 46.233 61.0981 46.1052 61.4871 46.0844C61.5145 45.9745 61.5418 45.8645 61.5722 45.7546C61.6482 45.4871 61.8214 45.3296 62.1132 45.3266C62.405 45.3266 62.5539 45.5198 62.5904 45.7635C62.6269 45.9923 62.7029 46.0934 62.9521 46.1231C63.2439 46.1587 63.49 46.3192 63.4749 46.655C63.4627 46.976 63.2499 47.1335 62.943 47.1959C62.8548 47.2167 62.7667 47.2375 62.6664 47.2553Z" fill="#FFEB61"/>
<path d="M50.5875 16.486C50.5297 16.8516 50.5206 17.2587 50.0009 17.2706C49.6513 17.2795 49.4933 17.0744 49.4082 16.5246C49.0465 16.4266 48.6119 16.3434 48.6575 15.8471C48.694 15.4637 49.0192 15.3359 49.4082 15.3151C49.4356 15.2052 49.4629 15.0952 49.4933 14.9853C49.5693 14.7178 49.7425 14.5603 50.0343 14.5573C50.3261 14.5573 50.475 14.7505 50.5115 14.9942C50.548 15.223 50.6239 15.324 50.8732 15.3538C51.1649 15.3894 51.4111 15.5499 51.3959 15.8857C51.3838 16.2067 51.171 16.3642 50.864 16.4266C50.7759 16.4474 50.6847 16.4652 50.5875 16.486Z" fill="#FFEB61"/>
<path d="M52.0172 63.0741C51.9594 63.4397 51.9503 63.8468 51.4306 63.8587C51.0811 63.8676 50.923 63.6625 50.8379 63.1128C50.4762 63.0147 50.0416 62.9315 50.0872 62.4352C50.1237 62.0518 50.4489 61.924 50.8379 61.9032C50.8653 61.7933 50.8926 61.6833 50.923 61.5734C50.999 61.3059 51.1722 61.1484 51.464 61.1454C51.7558 61.1454 51.9047 61.3386 51.9412 61.5823C51.9777 61.8111 52.0537 61.9122 52.3029 61.9419C52.5947 61.9775 52.8408 62.138 52.8257 62.4738C52.8135 62.7948 52.6007 62.9523 52.2938 63.0147C52.2087 63.0355 52.1175 63.0533 52.0172 63.0741Z" fill="#FFEB61"/>
<path d="M57.3547 54.7548C57.0052 54.7667 56.7103 54.5051 56.6921 54.1634C56.6708 53.8008 56.9444 53.5096 57.3182 53.4977C57.6738 53.4858 57.9808 53.777 57.9838 54.1307C57.9899 54.4635 57.7072 54.7429 57.3547 54.7548Z" fill="#FFEB61"/>
<path d="M52.3616 27.3283C52.7965 28.4701 52.8482 29.5911 52.5806 30.7151C52.4772 31.1403 52.2856 31.5506 52.0971 31.9461C51.9237 32.3118 51.793 32.3356 51.4341 32.1275C50.093 31.3544 49.0135 30.3523 48.4174 28.8151C48.3566 28.9994 48.3049 29.1213 48.2715 29.2492C47.9369 30.5337 47.2345 31.6131 46.3434 32.5884C46.1427 32.8084 45.9724 32.7519 45.7778 32.5913C44.7256 31.7201 44.1052 30.5962 44.0201 29.273C43.9593 28.2917 44.1113 27.2986 44.1752 26.3114C44.1813 26.2311 44.1995 26.1508 44.2238 26.0022C43.5305 25.9427 42.8523 25.8416 42.1772 25.8357C39.3764 25.8059 36.9162 26.7544 34.8149 28.5237C32.893 30.1412 31.3329 32.0442 30.5179 34.4527C30.3628 34.9166 30.153 35.3656 29.9492 35.8116C29.858 36.0108 29.8641 36.1476 30.0283 36.3171C30.4206 36.7244 30.8129 37.1437 31.1565 37.5897C31.9229 38.5829 32.8747 39.35 33.9786 39.9506C34.0303 39.9804 34.085 40.0071 34.1367 40.0428C34.6416 40.3818 34.6172 40.9527 34.0638 41.1965C33.1241 41.6069 32.1418 41.7228 31.1261 41.5087C29.9675 41.2649 28.9457 40.7416 27.9787 40.0963C27.7597 39.9506 27.6563 39.9715 27.4708 40.1588C25.6006 42.0588 23.3715 43.3196 20.6832 43.718C19.8743 43.8369 19.4486 43.3523 19.6401 42.5703C19.9017 41.5028 20.1784 40.4353 20.4399 39.3649C20.4703 39.243 20.4703 39.1062 20.4491 38.9813C20.3578 38.4372 20.4278 37.9406 20.6498 37.4143C20.9174 36.778 21.0329 36.0822 21.2154 35.4131C21.8571 33.0433 22.4987 30.6764 23.1373 28.3066C23.2042 28.0598 23.3532 27.8606 23.6056 27.8784C23.8124 27.8903 24.0344 28.0033 24.2047 28.1312C24.3264 28.2233 24.372 28.4136 24.4906 28.6277C24.5423 28.4582 24.5879 28.3452 24.6153 28.2293C25.1657 25.8713 26.2574 23.7869 27.8935 21.9731C28.1125 21.7293 28.3375 21.4974 28.7024 21.6461C29.0673 21.7947 29.0491 22.1307 29.0521 22.4429C29.0552 22.5589 29.0309 22.6778 29.0156 22.8503C29.1342 22.767 29.2164 22.7224 29.2802 22.66C31.8651 20.201 35.0126 18.8897 38.531 18.3485C40.3405 18.069 42.159 18.0512 43.9806 18.2623C44.2755 18.2979 44.4215 18.4585 44.4763 18.7083C44.5371 18.9789 44.461 19.1989 44.1691 19.3238C44.014 19.3892 43.8772 19.4992 43.7312 19.5914C43.7403 19.6211 43.7525 19.6509 43.7616 19.6806C44.2573 19.7817 44.756 19.8709 45.2487 19.9839C48.7915 20.8194 51.9663 22.3894 54.8127 24.5987C56.0656 25.574 57.2729 26.6088 58.4954 27.6197C58.5714 27.6822 58.6383 27.7535 58.7052 27.8189C58.906 28.0211 58.9698 28.256 58.8238 28.5058C58.6748 28.7645 58.4346 28.7913 58.1548 28.7229C56.5917 28.3304 55.0256 27.9468 53.4595 27.5662C53.1128 27.48 52.757 27.4146 52.3616 27.3283ZM22.5839 34.31C22.6721 34.3041 22.7085 34.31 22.739 34.2981C23.7242 33.8521 24.7612 33.7569 25.8226 33.8818C26.0902 33.9145 26.2057 33.8432 26.3 33.5934C27.0299 31.6488 27.8266 29.7339 29.0734 28.036C31.0683 25.3212 33.6198 23.3766 36.9892 22.5767C39.6167 21.9523 42.2502 22.0445 44.8838 22.5708C47.6937 23.1328 50.4032 24.0278 53.1067 24.9347C53.2314 24.9763 53.3591 25.0061 53.4838 25.0388C53.499 25.0031 53.5142 24.9674 53.5324 24.9347C53.052 24.6136 52.5806 24.2805 52.091 23.9713C49.5578 22.3597 46.8148 21.2684 43.8316 20.7719C43.2203 20.6708 42.5908 20.644 41.9735 20.5845C41.6603 20.5548 41.3774 20.4686 41.3653 20.0969C41.3531 19.7639 41.5751 19.6063 41.8823 19.5468C41.9309 19.5379 41.9887 19.5438 42.0252 19.5171C42.1195 19.4487 42.2046 19.3654 42.3779 19.2167C42.0647 19.19 41.8701 19.1454 41.6815 19.1602C40.5138 19.2465 39.3278 19.2495 38.1783 19.4576C35.4322 19.9482 32.893 20.9473 30.7521 22.7581C30.1256 23.2874 29.5904 23.9178 29.0187 24.5065C28.6994 24.8395 28.377 24.8336 28.1277 24.4411C28.0364 24.2984 28.0182 24.1081 27.9817 23.9356C27.9634 23.8405 27.9787 23.7423 27.9787 23.6056C27.8935 23.6621 27.857 23.674 27.8357 23.7007C27.7779 23.7632 27.7293 23.8315 27.6806 23.8999C26.8139 25.1309 26.1632 26.463 25.7587 27.9081C25.5215 28.7615 25.3147 29.6209 25.0927 30.4802C25.0319 30.7121 24.9315 30.9203 24.6396 30.9173C24.3568 30.9113 24.147 30.7894 24.0648 30.5069C24.0284 30.3791 24.0101 30.2483 23.9736 30.1234C23.9493 30.0431 23.9067 29.9688 23.8702 29.8885C23.8398 29.8914 23.8124 29.8944 23.782 29.8944C23.3897 31.3455 22.9914 32.8054 22.5839 34.31ZM54.8492 25.9605C54.5603 26.4155 54.1954 26.3857 53.7757 26.249C51.9146 25.6275 50.0535 24.9852 48.1742 24.4203C45.4768 23.6056 42.7307 23.0317 39.8782 23.1714C37.0044 23.3112 34.4591 24.2716 32.2726 26.1003C29.7029 28.2471 28.2645 31.0897 27.1697 34.1316C27.8023 34.5152 28.4287 34.8928 29.0825 35.2853C29.2437 34.866 29.411 34.4468 29.5691 34.0216C30.6517 31.1373 32.5007 28.8121 35.0369 27.031C37.2812 25.455 39.8052 24.6671 42.5939 24.8812C44.0931 24.9942 45.6014 25.0982 47.0794 25.3421C49.5821 25.7554 52.0728 26.2728 54.5634 26.7604C55.1746 26.8793 55.7737 27.0667 56.3789 27.2213C55.9987 26.8437 55.5912 26.5255 55.1807 26.2073C55.0925 26.13 54.9952 26.0646 54.8492 25.9605ZM22.1399 36.2963C23.7547 36.0524 24.6791 36.4033 25.2417 37.4529C25.7009 38.3093 25.5154 39.46 24.8099 40.1855C24.4359 40.5691 23.9797 40.801 23.4475 40.914C22.6295 41.0895 21.9452 40.7862 21.2732 40.3372C21.0877 41.143 20.9143 41.9101 20.7349 42.6892C20.8444 42.6892 20.8809 42.6951 20.9174 42.6862C24.5088 41.8596 27.0116 39.7306 28.6173 36.5282C28.7146 36.3379 28.669 36.213 28.4865 36.1149C27.8905 35.7908 27.3218 35.3983 26.6923 35.1485C25.3299 34.6073 23.9858 34.7411 22.7146 35.4696C22.4105 35.651 22.1277 35.8562 22.1399 36.2963ZM47.8153 26.4512C47.0094 26.3411 46.237 26.2311 45.4646 26.1419C45.3946 26.133 45.2487 26.2549 45.2396 26.3263C45.1544 27.2391 45.0176 28.1549 45.0358 29.0708C45.051 29.9152 45.422 30.6824 45.9603 31.4079C47.1736 29.9688 47.6633 28.3155 47.8153 26.4512ZM51.4341 30.834C51.4858 30.6764 51.5314 30.5575 51.5649 30.4356C51.8599 29.383 51.6592 28.3512 51.4007 27.3283C51.3764 27.2361 51.2334 27.1351 51.124 27.1083C50.7012 26.9983 50.2694 26.912 49.8406 26.8258C49.494 26.7574 49.1442 26.7039 48.758 26.6355C49.1412 28.378 49.792 29.8706 51.4341 30.834ZM24.4176 38.5591C24.4085 37.7533 23.7881 37.1586 22.9701 37.1675C22.1429 37.1734 21.48 37.8127 21.4921 38.5829C21.5043 39.35 22.1429 39.9655 22.9245 39.9625C23.7547 39.9625 24.4298 39.3292 24.4176 38.5591ZM32.7227 40.4561C32.1297 39.9477 31.5093 39.4838 30.9741 38.9367C30.4388 38.3896 29.9918 37.7622 29.4809 37.1407C29.0521 37.8484 28.6811 38.4609 28.301 39.0883C29.6695 39.9804 31.0014 40.8605 32.7227 40.4561Z" fill="#FFEB61"/>
<path d="M24.7064 51.22C24.3415 50.2239 24.2502 49.2546 24.4631 48.3001C24.5969 47.7054 24.8949 47.1434 25.1321 46.5696C25.2234 46.3525 25.3724 46.3257 25.5974 46.4447C26.9872 47.1732 28.1124 48.1395 28.6932 49.6173C28.6993 49.6382 28.7236 49.653 28.7783 49.7065C28.8148 49.5608 28.8422 49.4389 28.8757 49.323C29.2102 48.0741 29.8457 46.9799 30.679 45.9868C30.8767 45.7489 31.0409 45.8173 31.2325 45.9719C32.2725 46.8134 32.8989 47.9076 33.0175 49.2011C33.1057 50.1437 32.975 51.1041 32.9385 52.0585C32.9324 52.1745 32.9111 52.2905 32.8929 52.4064C34.608 52.5878 36.2715 52.6235 37.9319 52.1448C41.1432 51.2171 43.4817 49.2189 45.3246 46.5666C46.1001 45.4515 46.4711 44.17 47.0033 42.9509C47.204 42.49 47.2131 42.1867 46.7873 41.821C46.3069 41.4076 45.9267 40.8784 45.5132 40.3907C44.8806 39.6414 44.1082 39.0646 43.2354 38.6096C43.1168 38.5472 42.9952 38.4907 42.8827 38.4193C42.4143 38.119 42.4417 37.5689 42.9496 37.34C44.0869 36.8315 45.2516 36.662 46.4832 37.0069C47.4898 37.2894 48.3748 37.786 49.1958 38.3926C49.427 38.562 49.5456 38.5323 49.7341 38.3361C51.4645 36.5579 53.5567 35.3775 55.9895 34.7739C56.1659 34.7293 56.3484 34.6936 56.5308 34.6728C57.2576 34.5895 57.6925 35.0444 57.5252 35.7432C57.285 36.7423 57.0143 37.7384 56.7498 38.7315C56.6464 39.124 56.5399 39.4957 56.6555 39.9179C56.7194 40.1528 56.6373 40.4413 56.5703 40.691C56.2815 41.7882 55.9621 42.8795 55.6732 43.9737C55.1259 46.0433 54.5967 48.1187 54.0341 50.1882C53.9855 50.3726 53.7969 50.5897 53.6205 50.661C53.3529 50.7681 53.0975 50.6135 52.9272 50.3786C52.8299 50.2447 52.7508 50.099 52.62 49.8879C52.5653 50.0723 52.5227 50.1883 52.4984 50.3072C51.9601 52.68 50.8958 54.7882 49.2263 56.599C49.1441 56.6882 49.0651 56.7804 48.9678 56.8518C48.5755 57.1342 48.098 56.9469 48.0342 56.4712C48.0007 56.2273 48.0281 55.9776 48.0281 55.6921C47.9399 55.7516 47.8395 55.8051 47.7605 55.8824C45.7321 57.8806 43.2354 59.0194 40.4863 59.7092C38.3454 60.2474 36.1741 60.4199 33.9724 60.2801C33.6805 60.2623 33.3886 60.2237 33.0966 60.1939C32.7986 60.1642 32.5918 60.0274 32.5371 59.7182C32.4823 59.406 32.6526 59.2186 32.9142 59.0908C33.0844 59.0075 33.2608 58.9332 33.4311 58.7786C32.9628 58.6894 32.4914 58.6061 32.0231 58.508C28.8422 57.8419 25.935 56.5604 23.341 54.6544C21.7201 53.462 20.1905 52.1507 18.6274 50.887C18.2959 50.6194 18.2381 50.3429 18.4084 50.0753C18.5726 49.8136 18.8007 49.8076 19.0775 49.876C20.8078 50.3012 22.5412 50.7145 24.2746 51.1279C24.3932 51.1606 24.5118 51.1814 24.7064 51.22ZM54.5724 44.1908C53.4898 44.6606 52.465 44.8122 51.4006 44.6547C50.9019 44.5803 50.9049 44.5744 50.7437 45.0501C50.0929 46.9412 49.2719 48.7491 48.0767 50.3815C45.9571 53.2717 43.2111 55.261 39.6044 56.0162C37.0804 56.5425 34.5715 56.3641 32.0657 55.8735C29.4322 55.3561 26.8959 54.5235 24.3719 53.6464C24.1043 53.5512 23.8275 53.4918 23.5508 53.4144C23.5386 53.4412 23.5234 53.468 23.5143 53.4947C23.6116 53.575 23.7029 53.6672 23.8093 53.7326C24.7064 54.2946 25.5731 54.9042 26.5067 55.4007C29.2163 56.8339 32.0687 57.8122 35.1888 57.8925C35.5021 57.9014 35.7393 58.0114 35.7697 58.3623C35.8001 58.7072 35.5933 58.8559 35.2892 58.9332C35.128 58.9748 34.9729 59.0372 34.8118 59.0908C34.8178 59.1473 34.8209 59.2038 34.827 59.2603C35.2162 59.287 35.6085 59.3614 35.9917 59.3286C37.0013 59.2424 38.017 59.1681 39.0114 58.9867C41.7301 58.4872 44.2633 57.5446 46.3829 55.7367C47.0002 55.2104 47.5567 54.6187 48.1406 54.0567C48.393 53.8099 48.5876 53.7891 48.8096 54.0597C48.9374 54.2173 48.9921 54.4403 49.059 54.6425C49.0955 54.7614 49.0894 54.8923 49.1168 55.1301C49.3266 54.8714 49.506 54.7079 49.6125 54.5057C50.1021 53.5601 50.6647 52.6354 51.0296 51.6423C51.4371 50.5213 51.6652 49.3378 51.9632 48.1782C52.021 47.9582 52.0787 47.756 52.3494 47.7173C52.6383 47.6757 52.8603 47.7798 52.988 48.0325C53.0701 48.1901 53.1096 48.3685 53.1705 48.538C53.2009 48.6183 53.2343 48.6985 53.2647 48.7759C53.3104 48.7818 53.356 48.7818 53.4016 48.7878C53.7787 47.2832 54.1649 45.7756 54.5724 44.1908ZM48.0311 43.162C47.9977 43.2066 47.9733 43.2214 47.9673 43.2452C47.3408 45.5467 46.1548 47.5478 44.5127 49.2903C41.8852 52.0764 38.6739 53.6137 34.7449 53.5393C31.047 53.468 27.422 52.8881 23.8306 52.0585C22.8179 51.8236 21.8053 51.5917 20.7926 51.3568C20.7835 51.3747 20.7713 51.3925 20.7622 51.4133C21.2822 51.8147 21.8022 52.2191 22.3618 52.6532C22.6415 52.0199 23.0703 52.1269 23.5721 52.2935C25.7373 53.0011 27.8964 53.7415 30.0921 54.36C32.5644 55.0588 35.0854 55.5345 37.6916 55.2758C39.5375 55.0915 41.3044 54.6484 42.91 53.7177C45.3733 52.2935 47.1401 50.2239 48.4447 47.7768C49.0408 46.6588 49.4908 45.4664 49.9956 44.3276C49.2932 43.9053 48.6697 43.5396 48.0311 43.162ZM54.9647 42.3591C53.5749 42.6624 52.5136 42.3116 51.9145 41.363C51.3702 40.4978 51.3884 39.4095 52.0392 38.681C53.1431 37.4381 54.4173 37.4351 55.7918 38.339C56.023 37.4708 56.2389 36.6471 56.4609 35.8116C56.3636 35.8027 56.3271 35.7938 56.2936 35.7967C56.2206 35.8057 56.1507 35.8235 56.0807 35.8413C52.6353 36.7066 50.1933 38.7851 48.5542 41.821C48.5025 41.9191 48.5329 42.1421 48.612 42.2075C50.245 43.602 52.1821 44.2176 54.323 43.1768C54.6727 43.0044 54.9312 42.7933 54.9647 42.3591ZM31.8498 52.3678C32.1904 50.5272 32.2907 48.7818 31.0804 47.1821C30.0069 48.6391 29.496 50.2537 29.3196 52.0199C30.1742 52.1359 31.0013 52.2518 31.8498 52.3678ZM28.3344 51.9099C28.2644 50.2447 26.8108 48.0355 25.6491 47.7857C25.6187 47.8719 25.5822 47.9582 25.5579 48.0503C25.3085 48.9632 25.3572 49.8612 25.5913 50.777C25.7099 51.2438 25.8985 51.4787 26.4094 51.5352C27.045 51.6066 27.6714 51.7761 28.3344 51.9099ZM54.1345 38.7345C53.3043 38.7286 52.6018 39.347 52.5836 40.0993C52.5683 40.8605 53.2161 41.4701 54.0554 41.479C54.916 41.4879 55.579 40.8724 55.5759 40.0607C55.5759 39.3292 54.9404 38.7434 54.1345 38.7345ZM44.3515 38.0863C45.7747 38.8297 46.5745 40.1707 47.6327 41.2828C48.0646 40.6226 48.466 40.0042 48.8674 39.3887C47.5172 38.3926 46.1244 37.6284 44.3515 38.0863Z" fill="#FFEB61"/>
</svg>
