<svg width="80" height="80" viewBox="0 0 80 80" fill="none" xmlns="http://www.w3.org/2000/svg">
<rect width="80" height="80" rx="40" fill="#111010"/>
<path d="M62.436 26.6514C62.436 26.5247 62.436 26.3979 62.436 26.2712C62.4329 25.5974 62.2907 25.3934 61.6447 25.2079C61.5458 25.1801 61.4098 25.242 61.3078 25.2945C60.7855 25.5696 60.2724 25.857 59.7469 26.1321C59.4255 26.3021 59.135 26.2496 58.965 25.9065C58.8011 25.5788 58.8939 25.31 59.2184 25.1245C59.6944 24.8525 60.1642 24.5651 60.6433 24.3054C60.8318 24.2034 60.9091 24.0983 60.8627 23.8758C60.8257 23.6996 60.8009 23.4987 60.8535 23.3349C61.0049 22.8743 60.7824 22.6735 60.4022 22.5035C60.0313 22.3396 59.6697 22.148 59.3235 21.9316C58.9464 21.6967 58.8537 21.3475 59.0546 21.0353C59.2833 20.6829 59.5893 20.7324 59.9015 20.9024C60.3558 21.1527 60.8164 21.4 61.2584 21.672C61.4593 21.7956 61.6231 21.8791 61.8024 21.6596C61.8178 21.638 61.8456 21.6164 61.8704 21.6102C62.5102 21.4897 62.4762 21.0168 62.4545 20.5315C62.4391 20.1822 62.4484 19.8268 62.4731 19.4775C62.4947 19.1592 62.6709 18.9459 62.9985 18.9211C63.3138 18.8964 63.626 19.187 63.6383 19.5208C63.6569 20.04 63.6569 20.5624 63.6445 21.0817C63.6383 21.2949 63.7465 21.3598 63.9103 21.4804C64.3987 21.8389 64.7881 21.6967 65.2208 21.3877C65.5392 21.162 65.9039 21.0013 66.2563 20.8251C66.5252 20.686 66.7786 20.6953 66.9486 20.9828C67.1248 21.2795 67.1743 21.5917 66.8528 21.8049C66.4201 22.0924 65.9688 22.3489 65.5052 22.5869C65.227 22.7291 65.0787 22.8682 65.2023 23.202C65.2548 23.3411 65.2734 23.5234 65.227 23.6563C65.0849 24.0551 65.3074 24.2003 65.6072 24.358C66.0183 24.5712 66.417 24.8092 66.8065 25.0627C67.1495 25.2883 67.2268 25.6221 67.0444 25.9343C66.8312 26.2928 66.5252 26.2866 66.2068 26.1136C65.7525 25.8632 65.2981 25.6067 64.8592 25.3285C64.6459 25.1925 64.5007 25.2327 64.2627 25.3007C63.6043 25.4954 63.5672 25.9405 63.6043 26.4907C63.6291 26.8399 63.6012 27.1954 63.5796 27.5446C63.5611 27.9001 63.3787 28.1443 63.0047 28.135C62.6369 28.1257 62.4483 27.8908 62.4329 27.5292C62.4205 27.2355 62.4298 26.9388 62.4298 26.6452C62.4422 26.6514 62.4391 26.6514 62.436 26.6514ZM63.9381 23.542C63.9474 23.0165 63.5487 22.5962 63.0294 22.5869C62.5473 22.5807 62.1393 22.9949 62.13 23.5018C62.1207 23.9716 62.5133 24.3518 63.0294 24.3672C63.5549 24.3889 63.9258 24.052 63.9381 23.542Z" fill="#FFEB61"/>
<path d="M26.2578 22.4615C26.2578 22.3472 26.2423 22.2359 26.2609 22.1247C26.3443 21.5868 26.1836 21.2283 25.6241 21.0429C25.3861 20.9625 25.2378 20.9378 25.0183 21.0799C24.5733 21.3767 24.1065 21.6394 23.6429 21.899C23.34 22.069 23.0371 22.0628 22.8486 21.7136C22.6693 21.3798 22.728 21.0738 23.0495 20.8667C23.476 20.5947 23.9334 20.369 24.3476 20.0816C24.4898 19.9827 24.5485 19.7632 24.6289 19.5932C24.6567 19.5345 24.6134 19.448 24.6351 19.383C24.8545 18.7216 24.5207 18.3878 23.952 18.156C23.6676 18.0416 23.408 17.8624 23.1453 17.7016C22.8362 17.5162 22.7249 17.136 22.8795 16.8362C23.034 16.5426 23.3678 16.4529 23.7171 16.6477C24.1714 16.898 24.6258 17.1576 25.0647 17.4327C25.2687 17.5625 25.4325 17.5965 25.6303 17.4358C25.7231 17.3585 25.8498 17.306 25.9734 17.2782C26.199 17.2287 26.2547 17.0989 26.2485 16.8856C26.2361 16.3911 26.2392 15.8997 26.2454 15.4082C26.2516 14.9786 26.471 14.7128 26.8018 14.6942C27.1479 14.6788 27.3921 14.9508 27.4107 15.4051C27.4292 15.8842 27.423 16.3633 27.4354 16.8424C27.4447 17.2627 28.1617 17.6615 28.5388 17.4544C29.0334 17.1824 29.5124 16.8887 30.0193 16.6477C30.4737 16.4313 30.8446 16.626 30.9157 17.0711C30.962 17.3555 30.8446 17.5595 30.5942 17.6955C30.1244 17.9489 29.6608 18.2178 29.1879 18.4682C28.9777 18.5825 28.851 18.7 28.9623 18.9658C29.0086 19.074 29.0272 19.2285 28.9901 19.3367C28.8046 19.8652 29.089 20.0847 29.5186 20.2825C29.9142 20.4618 30.2852 20.6967 30.6499 20.9378C30.993 21.1634 31.0702 21.5034 30.8755 21.8125C30.6622 22.1556 30.3655 22.1154 30.0657 21.9515C29.5712 21.6796 29.089 21.3921 28.6006 21.1139C28.1926 20.879 27.4447 21.2932 27.4354 21.763C27.423 22.2823 27.4292 22.8046 27.4199 23.3239C27.4137 23.7072 27.1788 23.9637 26.8358 23.9544C26.4587 23.9452 26.2825 23.7103 26.264 23.3548C26.2516 23.0612 26.2609 22.7645 26.2609 22.4677C26.267 22.4616 26.264 22.4615 26.2578 22.4615ZM26.8512 20.1619C27.3952 20.1527 27.7537 19.788 27.7383 19.2563C27.7259 18.7618 27.2932 18.3662 26.7925 18.3816C26.2949 18.3971 25.9456 18.8051 25.9549 19.3491C25.9672 19.8127 26.3629 20.1712 26.8512 20.1619Z" fill="#FFEB61"/>
<path d="M17.1049 49.5249C16.4125 48.9438 15.9613 48.2731 15.7944 47.4447C15.7449 47.2036 15.7171 46.9193 15.8036 46.7029C15.8747 46.5206 16.1158 46.3104 16.2982 46.2949C16.4743 46.2795 16.6876 46.4773 16.8514 46.6226C16.9318 46.6936 16.9349 46.8544 16.9658 46.978C17.2532 48.1 17.8714 48.9345 19.049 49.1725C20.2297 49.4105 21.0643 48.78 21.7721 47.9207C21.8864 47.7847 21.9977 47.5807 22.143 47.5467C22.3377 47.5003 22.6313 47.5251 22.7611 47.6487C22.8879 47.7693 22.9404 48.0752 22.8848 48.2545C22.6159 49.1169 21.9853 49.6578 21.1848 50.0225C21.0581 50.0812 20.9252 50.1276 20.7954 50.1801C20.783 50.1863 20.7737 50.1987 20.7335 50.2419C20.9066 50.4336 21.089 50.6221 21.2559 50.8261C21.7597 51.4443 22.1121 52.115 22.0193 52.9464C21.9884 53.2308 21.8277 53.4781 21.5464 53.4348C21.3208 53.4008 21.1075 53.2061 20.9221 53.0423C20.8417 52.9743 20.8695 52.7981 20.817 52.6837C20.6346 52.2912 20.4955 51.8646 20.239 51.5215C19.2901 50.2636 17.5778 50.2049 16.4465 51.3639C16.292 51.5247 16.1405 51.6977 16.0324 51.8925C15.8376 52.2417 15.5687 52.3314 15.2195 52.1861C14.9351 52.0686 14.8207 51.707 14.966 51.3454C15.2689 50.6005 15.8531 50.1307 16.5485 49.7783C16.7123 49.698 16.8762 49.63 17.1049 49.5249Z" fill="#FFEB61"/>
<path d="M58.9279 50.3644C59.5028 50.4262 60.0653 50.4448 60.6031 50.5622C60.9648 50.6395 61.3171 50.8218 61.6324 51.0258C61.9786 51.2484 62.0497 51.6224 61.858 51.9067C61.6293 52.2498 61.3326 52.2189 61.008 52.0551C60.1241 51.6038 59.2092 51.4586 58.2974 51.95C57.2434 52.5156 56.7952 53.6994 57.0765 55.01C57.1167 55.1985 57.1878 55.4303 57.1136 55.5787C57.0239 55.7548 56.7952 55.9619 56.6221 55.9681C56.4305 55.9712 56.1585 55.8043 56.0627 55.6312C55.6238 54.8678 55.6423 54.0456 55.8958 53.2203C55.9483 53.0503 56.0194 52.8865 56.041 52.8247C55.3209 52.7042 54.6162 52.6207 53.93 52.4569C53.6456 52.3889 53.386 52.1694 53.148 51.9809C52.9007 51.7831 52.8358 51.5173 53.0367 51.236C53.2284 50.9671 53.4695 50.9115 53.7755 51.0351C54.1649 51.1927 54.5543 51.3844 54.9592 51.4616C56.7179 51.8047 58.0903 50.5838 57.979 48.7881C57.9636 48.5223 57.8986 48.2595 57.8492 47.9968C57.7843 47.6506 57.8801 47.3632 58.217 47.2365C58.5786 47.1005 58.8166 47.323 58.9557 47.6259C59.3143 48.4048 59.3112 49.2084 59.0515 50.012C59.0114 50.1418 58.9619 50.2686 58.9279 50.3644Z" fill="#FFEB61"/>
<path d="M34.0092 27.7085C35.4402 27.9434 36.383 28.6635 36.8188 29.9833C36.8837 30.1781 36.9177 30.4006 36.896 30.6046C36.8682 30.889 36.7044 31.1115 36.3922 31.1393C36.0893 31.1671 35.8761 31.028 35.7679 30.7406C35.7153 30.5953 35.6752 30.447 35.6226 30.2986C35.3413 29.4826 34.7541 29.019 33.9103 28.9417C33.0727 28.8644 32.3989 29.2075 31.9599 29.9401C31.7652 30.2646 31.586 30.583 31.1161 30.4686C30.8256 30.3975 30.6587 30.2244 30.6989 29.9308C30.7329 29.699 30.7947 29.4517 30.9214 29.257C31.6632 28.1134 32.7388 27.6312 34.0092 27.7085Z" fill="#FFEB61"/>
<path d="M14.0467 31.2348C13.9849 31.6335 13.9756 32.0724 13.4255 32.0848C13.0576 32.0941 12.8877 31.8715 12.798 31.2781C12.4147 31.173 11.9542 31.0803 12.0037 30.5425C12.0408 30.1252 12.3869 29.9892 12.798 29.9676C12.8289 29.847 12.8567 29.7296 12.8877 29.6121C12.968 29.3216 13.1504 29.1516 13.4595 29.1485C13.7685 29.1485 13.9262 29.3587 13.9633 29.6214C14.0004 29.8687 14.0807 29.9768 14.3465 30.0108C14.6556 30.051 14.9153 30.2241 14.9029 30.5888C14.8905 30.935 14.6649 31.1081 14.3404 31.173C14.2445 31.1915 14.1487 31.2132 14.0467 31.2348Z" fill="#FFEB61"/>
<path d="M51.4416 29.7731C51.1449 29.7453 50.9625 29.5784 50.8513 29.2755C50.8018 29.1333 50.6596 28.9881 50.5205 28.9232C50.2424 28.7872 49.9611 28.6543 49.9889 28.3019C50.0136 27.9681 50.2671 27.8197 50.5731 27.7146C50.6967 27.6745 50.842 27.5323 50.8698 27.4148C50.9471 27.0872 51.0954 26.8708 51.454 26.8647C51.7971 26.8616 51.9361 27.0625 52.0103 27.3808C52.0412 27.5137 52.2112 27.6683 52.3503 27.7085C52.681 27.8012 52.9438 27.9495 52.9438 28.3173C52.9407 28.6944 52.6594 28.815 52.3287 28.8923C52.2143 28.9201 52.0876 29.0808 52.0443 29.2075C51.9423 29.5011 51.8249 29.7577 51.4416 29.7731Z" fill="#FFEB61"/>
<path d="M64.8097 36.9656C64.785 37.1294 64.7726 37.2561 64.7479 37.3766C64.6892 37.6703 64.5161 37.8712 64.2039 37.8681C63.8917 37.865 63.6414 37.6981 63.6074 37.3797C63.5765 37.0923 63.4436 37.0057 63.1994 36.8914C63.017 36.8048 62.8439 36.5421 62.8037 36.335C62.745 36.0352 62.9799 35.8714 63.2705 35.7848C63.3879 35.7478 63.5394 35.6396 63.5703 35.5345C63.663 35.213 63.7743 34.9349 64.1668 34.938C64.5872 34.941 64.751 35.2099 64.7974 35.5901C64.8035 35.6303 64.8252 35.6674 64.8406 35.7045C65.4526 35.8405 65.6442 36.0074 65.6226 36.3968C65.5948 36.8883 65.2239 36.9408 64.8097 36.9656Z" fill="#FFEB61"/>
<path d="M43.6159 32.7837C43.619 33.1515 43.3284 33.4544 42.9606 33.4668C42.5619 33.4792 42.2219 33.1577 42.2281 32.7683C42.2343 32.3819 42.5372 32.0852 42.9328 32.0852C43.313 32.0821 43.6128 32.3881 43.6159 32.7837Z" fill="#FFEB61"/>
<path d="M27.3114 59.8688C26.9343 59.8719 26.6252 59.5628 26.619 59.1765C26.6128 58.7994 26.8941 58.515 27.2774 58.5088C27.6606 58.5026 28.0006 58.8117 28.0068 59.1734C28.0161 59.5474 27.6977 59.8657 27.3114 59.8688Z" fill="#FFEB61"/>
<path d="M49.8563 54.4691C49.8532 54.8647 49.5472 55.1614 49.1546 55.1459C48.7899 55.1336 48.4932 54.8338 48.4839 54.4691C48.4747 54.1105 48.8177 53.7489 49.167 53.752C49.5225 53.7489 49.8563 54.1012 49.8563 54.4691Z" fill="#FFEB61"/>
<path d="M14.2384 41.3189C13.8675 41.3312 13.5554 41.0469 13.5337 40.679C13.5121 40.2865 13.8026 39.9713 14.1952 39.9558C14.5723 39.9434 14.8968 40.2587 14.903 40.642C14.9123 41.0036 14.6124 41.3065 14.2384 41.3189Z" fill="#FFEB61"/>
<path d="M65.1372 45.5581C64.7354 45.552 64.4541 45.2583 64.4665 44.8596C64.4788 44.4887 64.7756 44.1982 65.1434 44.2013C65.5205 44.2043 65.8141 44.5134 65.811 44.9152C65.811 45.2985 65.5328 45.5643 65.1372 45.5581Z" fill="#FFEB61"/>
<path d="M42.9217 26.1534C42.9125 26.5398 42.5879 26.8767 42.2325 26.8643C41.8708 26.852 41.5772 26.5429 41.5772 26.175C41.5772 25.7794 41.8863 25.4611 42.2572 25.4734C42.6219 25.4858 42.931 25.801 42.9217 26.1534Z" fill="#FFEB61"/>
<path d="M30.3437 53.4398C30.6991 53.4367 30.9897 53.755 30.9804 54.1321C30.9711 54.503 30.7022 54.7657 30.3344 54.7627C29.9728 54.7565 29.6606 54.4505 29.6544 54.095C29.6514 53.7396 29.9666 53.4398 30.3437 53.4398Z" fill="#FFEB61"/>
<path d="M52.8821 62.8607C51.8744 63.9054 50.7463 64.2701 49.411 63.8776C49.2132 63.8189 49.0123 63.72 48.8547 63.5871C48.6383 63.4016 48.5456 63.142 48.7032 62.8669C48.8516 62.6011 49.0896 62.5053 49.3863 62.5794C49.5347 62.6165 49.6799 62.6691 49.8314 62.7123C50.6628 62.9442 51.3799 62.7278 51.9208 62.0756C52.4617 61.4296 52.5606 60.6816 52.2113 59.9027C52.0568 59.5566 51.8961 59.2289 52.2577 58.9075C52.4833 58.7097 52.7182 58.6695 52.9377 58.8704C53.1077 59.028 53.2777 59.2228 53.3642 59.4329C53.8835 60.7033 53.6671 61.8593 52.8821 62.8607Z" fill="#FFEB61"/>
<path d="M42.9666 66.6347C42.9047 67.0334 42.8955 67.4723 42.3453 67.4847C41.9775 67.4939 41.8075 67.2714 41.7179 66.6779C41.3346 66.5729 40.8741 66.4801 40.9235 65.9423C40.9606 65.5251 41.3068 65.389 41.7179 65.3674C41.7488 65.2469 41.7766 65.1294 41.8075 65.012C41.8879 64.7214 42.0702 64.5514 42.3793 64.5483C42.6884 64.5483 42.846 64.7585 42.8831 65.0212C42.9202 65.2685 43.0006 65.3767 43.2664 65.4107C43.5755 65.4509 43.8351 65.6239 43.8227 65.9887C43.8104 66.3348 43.5847 66.5079 43.2602 66.5728C43.1675 66.5914 43.0716 66.6099 42.9666 66.6347Z" fill="#FFEB61"/>
<path d="M34.5875 63.312C34.5257 63.7107 34.5164 64.1496 33.9662 64.162C33.5984 64.1712 33.4284 63.9487 33.3388 63.3552C32.9555 63.2502 32.495 63.1574 32.5444 62.6196C32.5815 62.2024 32.9277 62.0663 33.3388 62.0447C33.3697 61.9242 33.3975 61.8067 33.4284 61.6893C33.5088 61.3987 33.6911 61.2287 34.0002 61.2256C34.3093 61.2256 34.4669 61.4358 34.504 61.6985C34.5411 61.9458 34.6215 62.054 34.8873 62.088C35.1964 62.1282 35.456 62.3013 35.4437 62.666C35.4313 63.0122 35.2057 63.1852 34.8811 63.2502C34.7884 63.2687 34.6926 63.2903 34.5875 63.312Z" fill="#FFEB61"/>
<path d="M51.9702 12.5751C52.2249 12.2601 52.6631 12.1901 52.9517 12.4183C53.2335 12.641 53.2512 13.0463 52.9946 13.3684C52.738 13.6904 52.2788 13.7861 52.0083 13.5727C51.7267 13.3545 51.7092 12.8978 51.9702 12.5751Z" fill="#FFEB61"/>
<path d="M54.6375 18.9768C54.3975 19.2739 53.9652 19.3229 53.6939 19.0874C53.4271 18.8557 53.417 18.4736 53.6699 18.17C53.9209 17.8734 54.3588 17.799 54.6247 18.0086C54.8885 18.2208 54.8944 18.6637 54.6375 18.9768Z" fill="#FFEB61"/>
<path d="M36.3216 21.4895C36.0702 21.1973 35.7534 20.9245 36.1192 20.4601C36.363 20.149 36.6427 20.1423 37.1406 20.4263C37.4792 20.1715 37.8612 19.845 38.2235 20.211C38.5054 20.4938 38.3696 20.8635 38.1055 21.218C38.1731 21.3164 38.2406 21.4105 38.3061 21.5071C38.4652 21.7494 38.4661 22.0035 38.2577 22.262C38.0471 22.5187 37.785 22.5227 37.5663 22.3948C37.359 22.2762 37.2246 22.2776 37.0184 22.4778C36.7782 22.7103 36.4739 22.8213 36.2138 22.5907C35.9673 22.3714 35.9937 22.0794 36.167 21.7707C36.2166 21.6825 36.2682 21.5917 36.3216 21.4895Z" fill="#FFEB61"/>
<path d="M44.4776 16.5378C44.2262 16.2456 43.9094 15.9728 44.2752 15.5084C44.519 15.1974 44.7987 15.1906 45.2967 15.4747C45.6352 15.2198 46.0173 14.8934 46.3795 15.2593C46.6614 15.5422 46.5257 15.9118 46.2615 16.2663C46.3292 16.3648 46.3967 16.4588 46.4621 16.5554C46.6212 16.7977 46.6221 17.0518 46.4138 17.3104C46.2031 17.5671 45.941 17.571 45.7223 17.4431C45.515 17.3246 45.3806 17.326 45.1744 17.5262C44.9342 17.7586 44.6299 17.8697 44.3698 17.6391C44.1234 17.4197 44.1497 17.1278 44.323 16.819C44.3726 16.7308 44.4219 16.6382 44.4776 16.5378Z" fill="#FFEB61"/>
<path d="M30.8599 41.9975C30.9217 41.7008 30.9928 41.4226 31.0299 41.1413C31.0391 41.0733 30.9464 40.9404 30.8784 40.925C30.4364 40.8106 29.9851 40.653 29.537 40.6344C28.4181 40.5881 27.2992 40.5695 26.2267 40.214C23.9178 39.4444 21.9953 38.1123 20.49 36.199C19.3464 34.7432 19.0404 33.136 19.6617 31.3649C20.2211 29.7639 21.1051 28.3699 22.2951 27.1707C22.428 27.0378 22.5702 26.8801 22.7958 26.9914C23.0122 27.0965 23.0462 27.2881 23.0276 27.5045C23.0153 27.6188 22.9998 27.7363 23.0029 27.8506C23.0153 28.3328 22.9905 28.8181 23.0524 29.291C23.2347 30.651 24.0476 31.572 25.2098 32.218C26.3441 32.8485 27.5774 32.9722 28.8477 32.9413C29.673 32.9227 30.5044 32.8455 31.3235 33.0309C32.9153 33.3956 34.0743 34.3538 34.9954 35.652C35.1067 35.8096 35.2118 35.9703 35.32 36.1279C35.3292 36.1434 35.3509 36.1496 35.388 36.1774C36.615 35.5932 37.9441 35.5932 39.2762 35.6025C40.3364 35.6087 41.3935 35.6056 42.4567 35.6056C43.3902 35.6056 44.302 35.7478 45.1767 36.0723C45.427 36.165 45.5538 36.1094 45.6867 35.893C46.2925 34.9194 47.0899 34.1374 48.0944 33.5718C48.9012 33.1174 49.7697 32.9166 50.6969 32.9258C51.6798 32.9351 52.6689 32.9845 53.6394 32.8764C55.256 32.694 56.5974 31.9677 57.4103 30.484C57.8708 29.6464 57.9512 28.7284 57.8646 27.7888C57.8523 27.6528 57.8059 27.5137 57.8337 27.3901C57.8646 27.2541 57.9326 27.0717 58.0377 27.0223C58.1428 26.9728 58.3623 27.0192 58.4488 27.1057C58.829 27.4983 59.2122 27.9001 59.5368 28.3359C60.4702 29.5939 61.1688 30.9662 61.416 32.5364C61.6324 33.9118 61.2244 35.1327 60.393 36.1836C58.5261 38.5419 56.1399 40.0873 53.1233 40.5448C52.6226 40.622 52.1033 40.6066 51.5933 40.6128C50.9628 40.6221 50.3539 40.7364 49.7388 40.9528C49.8037 41.2958 49.8655 41.6328 49.9304 41.9758C49.9582 41.9727 49.9922 41.982 50.0139 41.9666C51.0555 41.1475 52.2393 41.0331 53.4633 41.3577C54.5203 41.6358 55.5589 42.0037 56.5974 42.3498C57.0116 42.4889 57.1074 42.7547 56.8694 43.1133C56.0843 44.3032 55.2436 45.4531 54.2113 46.4483C52.8791 47.7279 51.2966 48.275 49.4668 48.1266C49.2319 48.1081 49.1113 48.1576 49.0279 48.4017C48.5457 49.7864 47.8163 51.0382 46.9632 52.2251C46.4285 52.9731 45.9339 53.7551 45.8319 54.6947C45.7578 55.3901 45.7176 56.101 45.7639 56.7996C45.8598 58.2615 45.3158 59.433 44.2711 60.4004C43.1924 61.3988 41.9375 62.0417 40.4384 62.0695C38.4232 62.1035 36.0679 60.5086 35.3663 58.6232C35.2056 58.1905 35.153 57.7052 35.1283 57.2416C35.0881 56.5708 35.116 55.894 35.1098 55.2202C35.0974 54.1384 34.6276 53.2296 34.0094 52.3858C33.0853 51.1217 32.2971 49.7833 31.75 48.3059C31.7191 48.2194 31.5769 48.1112 31.4966 48.1174C29.3206 48.3275 27.5403 47.5425 26.1308 45.9229C25.3983 45.0821 24.7461 44.1703 24.0631 43.2894C23.992 43.1998 23.9363 43.0916 23.8993 42.9866C23.8065 42.7238 23.8776 42.5229 24.1372 42.4178C25.4694 41.8831 26.817 41.3731 28.2574 41.234C29.163 41.1444 30.0222 41.3237 30.7424 41.9449C30.7702 41.9573 30.8073 41.9697 30.8599 41.9975ZM35.8609 55.9929C35.8979 56.0269 35.9319 56.0609 35.969 56.0949C36.0679 55.9527 36.1514 55.7981 36.2719 55.6745C38.0615 53.7953 39.0383 51.6255 38.5654 48.9828C38.2439 47.2025 37.4186 45.7003 35.9072 44.6402C35.1067 44.0807 34.2165 43.7345 33.2367 43.6202C32.8565 43.5769 32.6927 43.3853 32.7391 43.0886C32.7793 42.8382 32.94 42.7516 33.3047 42.8258C34.3 43.0329 35.2798 43.3111 36.1236 43.8922C38.689 45.6694 39.641 48.1977 39.3319 51.2175C39.1032 53.4645 37.9194 55.2541 36.2719 56.7192C35.7836 57.155 35.7403 57.5414 35.935 58.0699C35.9536 58.1225 35.9721 58.1781 35.9938 58.2337C36.4265 59.3897 37.2981 60.1377 38.3335 60.7281C38.5468 60.8486 38.7755 60.9413 39.0166 61.0526C39.0166 60.4839 39.0166 59.9615 39.0166 59.4484C38.9703 59.433 38.9517 59.4237 38.9332 59.4206C38.8961 59.4175 38.8559 59.4175 38.8188 59.4175C38.0863 59.4206 37.5485 59.0713 37.1683 58.4717C36.5625 57.5136 37.2054 56.169 38.3212 56.135C39.7182 56.0918 41.1153 56.101 42.5093 56.1289C43.3284 56.1443 44.0269 56.9448 43.9403 57.7454C43.8569 58.5212 43.3809 59.0188 42.67 59.2815C42.4073 59.3804 42.1136 59.399 41.82 59.4577C41.82 59.9646 41.82 60.4808 41.82 61.0742C42.2373 60.8486 42.6267 60.6693 42.9884 60.4406C43.9558 59.8255 44.6512 58.9972 44.9758 57.8721C45.1056 57.4208 45.05 57.0994 44.6698 56.7594C43.6343 55.8383 42.7565 54.7874 42.1724 53.5078C40.9855 50.9084 41.1802 48.3894 42.6422 45.9723C43.724 44.1796 45.393 43.2245 47.4206 42.8506C47.9183 42.7578 48.0821 42.8011 48.1377 43.07C48.1964 43.3667 48.011 43.5398 47.5536 43.6171C45.6279 43.9385 44.1227 44.8936 43.1491 46.609C42.364 47.9906 41.9529 49.4588 42.1909 51.066C42.4846 53.0535 43.5014 54.6391 44.914 56.0021C44.9294 56.0176 44.9634 56.0083 44.9541 56.0083C45.0191 55.4272 45.0469 54.8492 45.1551 54.2836C45.3498 53.2482 45.8876 52.3642 46.5027 51.5297C47.8039 49.7586 48.5983 47.7743 49.0155 45.6292C49.2752 44.2878 49.3802 42.9309 49.1206 41.5802C48.5643 38.6686 45.9061 36.4401 42.8802 36.3474C41.4646 36.3041 40.049 36.3288 38.6333 36.3165C37.3599 36.3072 36.1421 36.5174 35.0201 37.1541C33.1409 38.2235 31.9077 39.7783 31.6542 41.9511C31.3668 44.43 31.9015 46.7945 32.8844 49.0693C33.3418 50.1264 34.0125 51.0599 34.6647 52.0026C35.2087 52.7845 35.6352 53.6284 35.7712 54.5803C35.833 55.0502 35.833 55.5231 35.8609 55.9929ZM21.9366 28.6852C21.8902 28.7532 21.8593 28.7995 21.8222 28.8459C21.2133 29.6619 20.7559 30.552 20.3942 31.5071C19.7822 33.1329 20.1006 34.5547 21.1731 35.8745C22.2086 37.1448 23.4789 38.1061 24.9192 38.8603C26.0072 39.429 27.1539 39.8122 28.3872 39.8555C29.3762 39.8926 30.3684 39.8617 31.3018 40.2573C31.9633 38.6501 32.9987 37.4045 34.5194 36.5854C34.6616 36.5081 34.6678 36.4247 34.5812 36.3103C34.4236 36.1032 34.2752 35.89 34.1083 35.689C32.9802 34.3074 31.5646 33.5502 29.7379 33.6522C29.1722 33.6831 28.6004 33.68 28.0348 33.6707C27.1014 33.6583 26.1958 33.5007 25.3396 33.1113C23.9549 32.4807 22.9256 31.5133 22.4836 30.0081C22.4651 29.9432 22.4249 29.8844 22.394 29.8226C22.258 30.2522 22.1591 30.6726 22.122 31.0991C22.0386 32.116 22.0293 33.1267 22.7464 33.9767C22.8824 34.1374 22.8947 34.3383 22.7247 34.496C22.5516 34.6536 22.3476 34.6289 22.2086 34.4713C22.0324 34.2734 21.8655 34.0509 21.7542 33.8098C21.3122 32.8393 21.272 31.81 21.442 30.7808C21.5595 30.1008 21.7573 29.427 21.9366 28.6852ZM58.4859 29.8319C58.2603 30.3141 58.0965 30.7808 57.8368 31.1919C56.9559 32.6013 55.6176 33.3524 54.0103 33.5533C52.9471 33.6862 51.8591 33.6584 50.7804 33.6553C48.6415 33.6429 47.2692 34.8391 46.1379 36.505C47.7112 37.3797 48.8579 38.6068 49.4977 40.2388C49.8593 40.1491 50.1715 40.0286 50.493 39.9977C51.21 39.9266 51.9333 39.9142 52.6504 39.8493C54.4276 39.6917 55.9916 38.987 57.4288 37.967C58.489 37.2128 59.4379 36.3412 60.1148 35.213C60.597 34.4094 60.8751 33.5502 60.6959 32.5951C60.495 31.5226 60.1148 30.5211 59.5306 29.6001C59.339 29.2972 59.1226 29.0066 58.9186 28.7099C58.8939 28.7223 58.8723 28.7377 58.8475 28.7501C58.8815 28.8459 58.9186 28.9417 58.9526 29.0375C59.3606 30.2182 59.5677 31.4237 59.3761 32.6724C59.2833 33.2844 59.1133 33.8809 58.7146 34.3754C58.5292 34.6073 58.2881 34.6381 58.1119 34.4805C57.9234 34.3136 57.9543 34.0849 58.1243 33.8407C58.3004 33.5842 58.4704 33.3091 58.5632 33.0155C58.795 32.286 58.7548 31.5319 58.6528 30.7808C58.6188 30.4686 58.5446 30.1564 58.4859 29.8319ZM56.0998 43.0082C56.0009 42.9371 55.973 42.9062 55.939 42.8969C54.9531 42.6033 53.9794 42.2695 52.9811 42.0253C51.8777 41.7564 50.8979 42.0346 50.1313 42.9062C50.0479 43.002 49.9861 43.1473 49.9706 43.274C49.8686 44.1518 49.8006 45.0358 49.6801 45.9105C49.6121 46.3989 49.4668 46.8779 49.3524 47.3787C50.3817 47.4621 51.3553 47.3818 52.2702 46.915C52.9842 46.5503 53.5993 46.0558 54.1154 45.453C54.7954 44.6587 55.4352 43.8334 56.0998 43.0082ZM24.7492 42.968C25.5621 44.0838 26.3008 45.1131 27.2497 45.9754C27.9885 46.6492 28.8137 47.1685 29.8244 47.3045C30.3591 47.3756 30.9031 47.3817 31.4842 47.4219C31.4409 47.2303 31.4224 47.1314 31.3946 47.0294C31.0886 45.8734 30.9279 44.6927 30.8475 43.4996C30.8351 43.3173 30.8259 43.0978 30.7239 42.9649C30.3406 42.458 29.8306 42.1366 29.197 42.0068C28.4428 41.8522 27.7195 41.9975 27.0086 42.2107C26.2638 42.4271 25.5374 42.6991 24.7492 42.968ZM39.7337 61.3153C40.1324 61.3153 40.494 61.3122 40.8557 61.3153C41.0504 61.3184 41.1215 61.2319 41.1184 61.034C41.106 60.419 41.1153 59.8008 41.1153 59.1857C41.1153 58.6355 41.1833 58.5737 41.7335 58.6324C41.7922 58.6386 41.8478 58.6448 41.9066 58.651C42.2836 58.6974 42.6082 58.583 42.8864 58.3265C43.1831 58.0514 43.2789 57.7175 43.1553 57.3899C43.0285 57.0561 42.738 56.8614 42.3393 56.8614C41.0689 56.8583 39.7986 56.8645 38.5252 56.8645C38.1388 56.8645 37.8575 57.0345 37.7061 57.3899C37.5701 57.7083 37.6783 58.0421 37.9719 58.3234C38.3181 58.6541 38.7261 58.7004 39.1804 58.6324C39.6317 58.5675 39.7368 58.6757 39.7368 59.1208C39.7337 59.8224 39.7337 60.524 39.7337 61.3153Z" fill="#FFEB61" stroke="#FFEB61" stroke-width="0.4" stroke-miterlimit="10"/>
<path d="M36.3928 48.8499C35.4532 48.8004 34.7887 48.4944 34.3251 47.8144C34.2601 47.7217 34.1891 47.6043 34.1952 47.5023C34.2045 47.3755 34.2571 47.2025 34.3498 47.1437C34.4456 47.085 34.6156 47.1283 34.7454 47.1592C34.8072 47.1746 34.8567 47.2612 34.9 47.323C35.4285 48.0555 36.0528 48.2472 36.875 47.9257C37.1996 47.799 37.4066 47.8423 37.4994 48.0586C37.5921 48.2781 37.4808 48.5346 37.181 48.6459C36.8905 48.7541 36.5752 48.8035 36.3928 48.8499Z" fill="#FFEB61" stroke="#FFEB61" stroke-width="0.4" stroke-miterlimit="10"/>
<path d="M44.6357 48.8776C44.3205 48.8035 43.9929 48.7602 43.693 48.6427C43.5509 48.5871 43.4087 48.4078 43.3654 48.2564C43.2943 48.0029 43.5199 47.8113 43.7796 47.8669C43.8909 47.8917 43.999 47.938 44.1041 47.9813C44.7717 48.2471 45.461 48.0369 45.8814 47.4404C46.1348 47.0788 46.3017 47.0046 46.5181 47.1498C46.7314 47.292 46.7252 47.5609 46.5026 47.8917C46.1255 48.4542 45.3683 48.8375 44.6357 48.8776Z" fill="#FFEB61" stroke="#FFEB61" stroke-width="0.4" stroke-miterlimit="10"/>
<path d="M30.3223 34.5732C31.2464 34.567 32.3406 35.4263 32.5817 36.3474C32.6404 36.5699 32.6404 36.7739 32.3901 36.879C32.1892 36.9625 31.979 36.8574 31.8832 36.5792C31.7039 36.0816 31.3948 35.7076 30.9034 35.5128C30.7025 35.4325 30.4799 35.3892 30.2635 35.3738C29.9297 35.3521 29.7906 35.2718 29.7783 35.0214C29.7659 34.7679 29.9297 34.6072 30.2357 34.5763C30.2635 34.5763 30.2945 34.5763 30.3223 34.5732Z" fill="#FFEB61" stroke="#FFEB61" stroke-width="0.4" stroke-miterlimit="10"/>
<path d="M50.5609 35.3892C49.9149 35.3367 49.2597 35.8189 48.9877 36.5607C48.9166 36.7492 48.8424 36.9161 48.6044 36.9285C48.317 36.9409 48.15 36.8079 48.2335 36.5359C48.3355 36.196 48.4808 35.8467 48.6879 35.5592C49.0958 34.9843 49.6862 34.6722 50.3909 34.5949C50.4744 34.5856 50.564 34.5825 50.6475 34.5949C50.9535 34.632 51.1111 34.7865 51.0925 35.0183C51.074 35.2841 50.8854 35.4171 50.5609 35.3892Z" fill="#FFEB61" stroke="#FFEB61" stroke-width="0.4" stroke-miterlimit="10"/>
</svg>
