<svg width="80" height="80" viewBox="0 0 80 80" fill="none" xmlns="http://www.w3.org/2000/svg">
<rect width="80" height="80" rx="40" fill="#111010"/>
<path d="M63.3239 26.172C63.3239 26.0554 63.3239 25.9387 63.3239 25.8191C63.3209 25.1938 63.1881 25.0054 62.5842 24.8348C62.4936 24.8109 62.3637 24.8648 62.2671 24.9156C61.7779 25.1699 61.2978 25.4391 60.8057 25.6934C60.5037 25.849 60.232 25.8041 60.0719 25.487C59.9179 25.1818 60.0055 24.9336 60.3105 24.76C60.7574 24.5058 61.1952 24.2425 61.6451 24.0002C61.8202 23.9045 61.8957 23.8088 61.8504 23.6023C61.8142 23.4408 61.793 23.2523 61.8414 23.0998C61.9833 22.672 61.7749 22.4835 61.4186 22.328C61.0714 22.1754 60.7302 21.9959 60.4071 21.7955C60.0538 21.5771 59.9662 21.251 60.1565 20.9638C60.3709 20.6348 60.6577 20.6826 60.9506 20.8412C61.3764 21.0745 61.8051 21.3019 62.2218 21.5562C62.409 21.6698 62.563 21.7476 62.7291 21.5442C62.7442 21.5232 62.7714 21.5023 62.7925 21.4993C63.3904 21.3886 63.3572 20.9489 63.339 20.4972C63.3239 20.1741 63.333 19.845 63.3572 19.5189C63.3783 19.2228 63.5444 19.0253 63.8493 19.0014C64.1453 18.9775 64.4381 19.2497 64.4472 19.5578C64.4653 20.0395 64.4653 20.5241 64.4532 21.0057C64.4472 21.2032 64.5499 21.266 64.7038 21.3767C65.1628 21.7117 65.5252 21.5771 65.9328 21.2899C66.2317 21.0805 66.5729 20.9339 66.9021 20.7664C67.1527 20.6378 67.3912 20.6467 67.5512 20.913C67.7173 21.1882 67.7596 21.4784 67.4607 21.6758C67.056 21.9421 66.6333 22.1814 66.1985 22.3998C65.9388 22.5314 65.7969 22.663 65.9147 22.9681C65.963 23.0968 65.9841 23.2673 65.9388 23.39C65.806 23.7579 66.0143 23.8955 66.2951 24.0391C66.6786 24.2365 67.056 24.4579 67.4184 24.6942C67.7385 24.9007 67.8109 25.2148 67.6418 25.5049C67.4426 25.84 67.1557 25.834 66.8568 25.6695C66.431 25.4391 66.0053 25.1998 65.5946 24.9425C65.3953 24.8169 65.2594 24.8528 65.036 24.9186C64.42 25.0981 64.3838 25.5139 64.42 26.0255C64.4412 26.3486 64.417 26.6776 64.3989 27.0037C64.3808 27.3357 64.2117 27.5601 63.8584 27.5511C63.5142 27.5422 63.339 27.3238 63.3239 26.9917C63.3119 26.7195 63.3209 26.4443 63.3209 26.172C63.327 26.172 63.3269 26.172 63.3239 26.172ZM64.728 23.2852C64.7371 22.7976 64.3626 22.4087 63.8765 22.3998C63.4266 22.3938 63.0431 22.7797 63.0341 23.2493C63.025 23.6861 63.3934 24.0391 63.8765 24.0541C64.3717 24.072 64.719 23.7579 64.728 23.2852Z" fill="#FFEB61"/>
<path d="M16.4522 26.5759C16.4522 26.4712 16.4371 26.3665 16.4552 26.2648C16.5337 25.7652 16.3828 25.4331 15.8604 25.2596C15.6369 25.1848 15.498 25.1609 15.2927 25.2955C14.876 25.5707 14.4412 25.816 14.0034 26.0554C13.7195 26.2109 13.4387 26.2079 13.2606 25.8848C13.0915 25.5767 13.1489 25.2925 13.4478 25.0981C13.8464 24.8438 14.2751 24.6374 14.6647 24.3711C14.7975 24.2814 14.8549 24.075 14.9304 23.9164C14.9545 23.8626 14.9153 23.7818 14.9364 23.722C15.1417 23.1087 14.8307 22.7976 14.2993 22.5822C14.0336 22.4745 13.792 22.31 13.5444 22.1604C13.2545 21.9869 13.1519 21.6339 13.2938 21.3557C13.4387 21.0835 13.7497 20.9997 14.0789 21.1822C14.5046 21.4125 14.9304 21.6549 15.341 21.9121C15.5343 22.0318 15.6852 22.0647 15.8725 21.9151C15.96 21.8433 16.0778 21.7925 16.1925 21.7685C16.4009 21.7207 16.4552 21.601 16.4522 21.4036C16.4401 20.9459 16.4431 20.4912 16.4492 20.0335C16.4552 19.6356 16.6575 19.3873 16.9716 19.3723C17.2946 19.3574 17.5241 19.6087 17.5422 20.0305C17.5604 20.4732 17.5543 20.9189 17.5664 21.3617C17.5755 21.7506 18.2458 22.1215 18.5991 21.9301C19.0611 21.6788 19.511 21.4066 19.985 21.1822C20.4108 20.9818 20.758 21.1613 20.8245 21.5741C20.8667 21.8373 20.758 22.0258 20.5225 22.1544C20.0817 22.3908 19.6468 22.6391 19.206 22.8694C19.0097 22.9741 18.8889 23.0848 18.9976 23.3301C19.0429 23.4318 19.058 23.5724 19.0218 23.6741C18.8497 24.1647 19.1124 24.3682 19.517 24.5506C19.8884 24.7182 20.2356 24.9365 20.5769 25.1579C20.8999 25.3673 20.9694 25.6814 20.7882 25.9686C20.5889 26.2887 20.3081 26.2498 20.0303 26.0972C19.5683 25.846 19.1154 25.5797 18.6595 25.3194C18.279 25.1011 17.5785 25.484 17.5664 25.9207C17.5543 26.4024 17.5604 26.887 17.5513 27.3686C17.5453 27.7246 17.3248 27.9639 17.0048 27.955C16.6515 27.946 16.4854 27.7276 16.4703 27.3985C16.4582 27.1263 16.4673 26.8511 16.4673 26.5759C16.4582 26.5759 16.4552 26.5759 16.4522 26.5759ZM17.0078 24.4429C17.5181 24.434 17.8533 24.0959 17.8382 23.6023C17.8261 23.1446 17.4215 22.7767 16.9534 22.7916C16.4884 22.8066 16.1593 23.1865 16.1684 23.6921C16.1774 24.1198 16.5488 24.4519 17.0078 24.4429Z" fill="#FFEB61"/>
<path d="M19.0823 43.2086C18.4361 42.6672 18.0134 42.0479 17.8564 41.2761C17.8111 41.0517 17.7869 40.7885 17.8654 40.5851C17.9349 40.4175 18.1583 40.2201 18.3274 40.2081C18.4935 40.1962 18.6928 40.3787 18.8437 40.5133C18.9192 40.5791 18.9223 40.7287 18.9524 40.8423C19.2212 41.8834 19.8009 42.6582 20.9031 42.8796C22.0082 43.0979 22.7902 42.5146 23.4545 41.7188C23.5602 41.5902 23.6659 41.4018 23.8018 41.3718C23.986 41.33 24.2607 41.3509 24.3785 41.4646C24.4963 41.5753 24.5446 41.8595 24.4963 42.027C24.2457 42.8257 23.6538 43.3283 22.905 43.6663C22.7842 43.7202 22.6634 43.765 22.5396 43.8129C22.5306 43.8189 22.5215 43.8309 22.4792 43.8697C22.6423 44.0492 22.8144 44.2257 22.9684 44.4112C23.4394 44.9826 23.7686 45.6078 23.681 46.3796C23.6508 46.6429 23.5029 46.8732 23.2371 46.8313C23.0258 46.7984 22.8265 46.6189 22.6544 46.4664C22.5789 46.4035 22.6061 46.239 22.5547 46.1343C22.3856 45.7694 22.2528 45.3745 22.0142 45.0574C21.1265 43.8907 19.5231 43.8339 18.4633 44.9108C18.3184 45.0604 18.1764 45.2219 18.0738 45.4014C17.8926 45.7275 17.639 45.8082 17.3129 45.6736C17.0471 45.5629 16.9384 45.2279 17.0773 44.8929C17.3612 44.2018 17.9077 43.765 18.5599 43.439C18.7139 43.3702 18.8679 43.3044 19.0823 43.2086Z" fill="#FFEB61"/>
<path d="M58.1124 50.6246C58.6499 50.6815 59.1753 50.6994 59.6825 50.8071C60.0207 50.8789 60.3498 51.0494 60.6458 51.2379C60.9719 51.4443 61.0353 51.7913 60.8541 52.0546C60.6397 52.3717 60.3619 52.3447 60.057 52.1922C59.2296 51.7734 58.3721 51.6387 57.5175 52.0964C56.5302 52.623 56.1105 53.7208 56.3762 54.9384C56.4154 55.1119 56.4788 55.3303 56.4094 55.4649C56.3248 55.6294 56.1105 55.8209 55.9504 55.8239C55.7723 55.8269 55.5186 55.6713 55.425 55.5128C55.0144 54.8038 55.0295 54.0409 55.268 53.2781C55.3163 53.1195 55.3828 52.967 55.4039 52.9101C54.7305 52.7995 54.0693 52.7217 53.4261 52.5691C53.1604 52.5063 52.9158 52.3029 52.6924 52.1264C52.4629 51.9439 52.3995 51.6956 52.5897 51.4353C52.7679 51.187 52.9943 51.1332 53.2812 51.2499C53.6465 51.3964 54.0089 51.5729 54.3893 51.6477C56.038 51.9678 57.3213 50.834 57.2186 49.1678C57.2035 48.9225 57.1431 48.6772 57.0978 48.4348C57.0374 48.1118 57.128 47.8455 57.4421 47.7289C57.7833 47.6002 58.0037 47.8096 58.1335 48.0908C58.4687 48.8148 58.4687 49.5597 58.2241 50.3045C58.1879 50.4182 58.1426 50.5379 58.1124 50.6246Z" fill="#FFEB61"/>
<path d="M60.7758 41.3629C59.9877 42.4578 58.9912 42.9484 57.7019 42.7689C57.5117 42.742 57.3124 42.6792 57.1493 42.5775C56.9229 42.4369 56.8021 42.2125 56.9078 41.9373C57.0104 41.6741 57.2158 41.5544 57.4996 41.5813C57.6445 41.5963 57.7864 41.6232 57.9314 41.6411C58.7346 41.7428 59.3657 41.4437 59.7793 40.7736C60.19 40.1065 60.1809 39.4095 59.7491 38.7394C59.5589 38.4432 59.3626 38.162 59.6555 37.821C59.8367 37.6086 60.0511 37.5398 60.2806 37.6953C60.4617 37.818 60.6429 37.9736 60.7546 38.156C61.4069 39.2449 61.3676 40.3368 60.7758 41.3629Z" fill="#FFEB61"/>
<path d="M17.4365 36.7889C17.3791 37.1569 17.37 37.5667 16.8537 37.5787C16.5095 37.5876 16.3494 37.3812 16.2649 36.8308C15.9056 36.7321 15.4768 36.6483 15.5221 36.1487C15.5583 35.7628 15.8814 35.6372 16.2649 35.6132C16.2921 35.5026 16.3193 35.3919 16.3494 35.2812C16.4249 35.012 16.594 34.8534 16.8869 34.8534C17.1768 34.8534 17.3248 35.0479 17.361 35.2932C17.3972 35.5235 17.4727 35.6252 17.7203 35.6551C18.0102 35.691 18.2517 35.8526 18.2397 36.1906C18.2276 36.5137 18.0162 36.6722 17.7143 36.7351C17.6267 36.75 17.5361 36.768 17.4365 36.7889Z" fill="#FFEB61"/>
<path d="M34.059 38.3565C33.7812 38.3296 33.6091 38.177 33.5064 37.8958C33.4581 37.7642 33.3283 37.6296 33.1984 37.5698C32.9357 37.4441 32.676 37.3215 32.7002 36.9924C32.7244 36.6813 32.9629 36.5437 33.2467 36.4479C33.3615 36.412 33.4974 36.2804 33.5245 36.1667C33.597 35.8616 33.7359 35.6612 34.0711 35.6582C34.3911 35.6552 34.521 35.8407 34.5934 36.1368C34.6236 36.2595 34.7837 36.4031 34.9105 36.439C35.2215 36.5257 35.4661 36.6633 35.4661 37.0044C35.4631 37.3544 35.2004 37.4651 34.8893 37.5369C34.7806 37.5608 34.6629 37.7104 34.6236 37.827C34.527 38.1022 34.4183 38.3416 34.059 38.3565Z" fill="#FFEB61"/>
<path d="M63.9885 33.1184C63.9674 33.2709 63.9523 33.3876 63.9312 33.5013C63.8738 33.7735 63.7138 33.959 63.4239 33.956C63.131 33.953 62.8985 33.7975 62.8653 33.5043C62.8381 33.238 62.7113 33.1573 62.4848 33.0526C62.3127 32.9718 62.1527 32.7295 62.1134 32.535C62.0591 32.2538 62.2795 32.1043 62.5512 32.0235C62.663 31.9906 62.8019 31.8889 62.8351 31.7901C62.9226 31.494 63.0253 31.2337 63.3937 31.2367C63.7862 31.2397 63.9432 31.491 63.9855 31.841C63.9915 31.8769 64.0127 31.9128 64.0278 31.9457C64.6015 32.0713 64.7827 32.2269 64.7585 32.5859C64.7253 33.0466 64.378 33.0974 63.9885 33.1184Z" fill="#FFEB61"/>
<path d="M48.8424 37.8958C48.8454 38.2368 48.5736 38.518 48.2294 38.53C47.855 38.5419 47.5349 38.2428 47.541 37.8808C47.547 37.5218 47.8308 37.2466 48.1992 37.2466C48.5616 37.2466 48.8394 37.5278 48.8424 37.8958Z" fill="#FFEB61"/>
<path d="M24.7076 57.4184C24.3543 57.4214 24.0644 57.1342 24.0584 56.7752C24.0524 56.4282 24.3181 56.162 24.6744 56.156C25.0337 56.15 25.3507 56.4372 25.3598 56.7722C25.3658 57.1222 25.0669 57.4154 24.7076 57.4184Z" fill="#FFEB61"/>
<path d="M46.4633 58.8063C46.4603 59.1743 46.1734 59.4465 45.805 59.4346C45.4638 59.4226 45.186 59.1444 45.177 58.8063C45.1679 58.4713 45.491 58.1392 45.8171 58.1392C46.1523 58.1362 46.4633 58.4653 46.4633 58.8063Z" fill="#FFEB61"/>
<path d="M40.9616 30.2466C40.6143 30.2586 40.3245 29.9953 40.3033 29.6513C40.2822 29.2863 40.554 28.9932 40.9254 28.9812C41.2756 28.9692 41.5836 29.2624 41.5866 29.6184C41.5897 29.9534 41.3088 30.2346 40.9616 30.2466Z" fill="#FFEB61"/>
<path d="M51.6386 48.8118C51.2612 48.8058 50.9985 48.5306 51.0105 48.1627C51.0226 47.8186 51.3004 47.5494 51.6446 47.5524C51.9979 47.5554 52.2727 47.8426 52.2697 48.2135C52.2697 48.5725 52.01 48.8178 51.6386 48.8118Z" fill="#FFEB61"/>
<path d="M40.7563 21.8044C40.7472 22.1604 40.4423 22.4745 40.1101 22.4626C39.7719 22.4506 39.4941 22.1634 39.4941 21.8224C39.4941 21.4544 39.784 21.1613 40.1313 21.1702C40.4755 21.1852 40.7654 21.4784 40.7563 21.8044Z" fill="#FFEB61"/>
<path d="M29.2733 48.2045C29.6085 48.2015 29.8772 48.4947 29.8712 48.8477C29.8621 49.1917 29.6115 49.437 29.2673 49.431C28.9291 49.425 28.6362 49.1408 28.6302 48.8118C28.6271 48.4857 28.92 48.2075 29.2733 48.2045Z" fill="#FFEB61"/>
<path d="M22.0294 54.1008C21.0873 55.0701 20.0305 55.4081 18.7804 55.0431C18.5963 54.9893 18.406 54.8995 18.2611 54.7739C18.0558 54.6004 17.9742 54.3611 18.1192 54.1068C18.2581 53.8615 18.4815 53.7717 18.7563 53.8405C18.8952 53.8764 19.0341 53.9243 19.173 53.9632C19.952 54.1786 20.6223 53.9752 21.1296 53.3739C21.6369 52.7756 21.7305 52.0815 21.4014 51.3576C21.2564 51.0375 21.1055 50.7324 21.4436 50.4332C21.652 50.2507 21.8754 50.2118 22.0808 50.4003C22.2408 50.5469 22.3978 50.7264 22.4824 50.9238C22.9685 52.0965 22.7662 53.1704 22.0294 54.1008Z" fill="#FFEB61"/>
<path d="M65.4196 45.6497C65.3622 46.0177 65.3532 46.4275 64.8369 46.4395C64.4926 46.4485 64.3326 46.2421 64.248 45.6916C63.8887 45.5929 63.46 45.5091 63.5053 45.0095C63.5415 44.6236 63.8646 44.498 64.248 44.4741C64.2752 44.3634 64.3024 44.2527 64.3326 44.142C64.4081 43.8728 64.5772 43.7142 64.8701 43.7142C65.16 43.7142 65.3079 43.9087 65.3441 44.154C65.3804 44.3843 65.4559 44.486 65.7035 44.516C65.9933 44.5519 66.2349 44.7134 66.2228 45.0514C66.2107 45.3745 65.9994 45.5331 65.6974 45.5959C65.6068 45.6108 65.5193 45.6288 65.4196 45.6497Z" fill="#FFEB61"/>
<path d="M36.1029 59.3598C36.0455 59.7278 36.0364 60.1376 35.5201 60.1496C35.1759 60.1586 35.0158 59.9522 34.9313 59.4017C34.572 59.303 34.1432 59.2192 34.1885 58.7196C34.2247 58.3337 34.5478 58.2081 34.9313 58.1842C34.9585 58.0735 34.9856 57.9628 35.0158 57.8521C35.0913 57.5829 35.2604 57.4243 35.5533 57.4243C35.8432 57.4243 35.9911 57.6188 36.0274 57.8641C36.0636 58.0944 36.1391 58.1961 36.3867 58.226C36.6766 58.2619 36.9181 58.4235 36.906 58.7615C36.894 59.0846 36.6826 59.2432 36.3806 59.306C36.2901 59.3209 36.2025 59.3389 36.1029 59.3598Z" fill="#FFEB61"/>
<path d="M45.1074 44.1151C46.1491 43.451 47.1335 42.8258 48.1178 42.2005C48.2537 42.1138 48.3775 42.0031 48.5224 41.9373C49.3951 41.5334 49.8299 40.8155 50.1862 39.9509C51.4967 36.7799 52.9641 33.6807 54.6037 30.6623C54.6913 30.5007 54.8845 30.3571 55.0597 30.2883C55.3465 30.1777 55.5247 30.3183 55.6062 30.6234C56.0501 32.2418 56.5151 33.8572 56.9559 35.4756C56.9922 35.6072 56.9378 35.7987 56.8593 35.9184C54.6943 39.2449 52.5203 42.5655 50.3523 45.889C50.153 46.1912 49.9144 46.3737 49.5249 46.4395C48.3443 46.6369 47.1757 46.8942 46.0011 47.1126C45.7324 47.1604 45.6539 47.2771 45.663 47.5404C45.675 47.9921 45.6781 48.4528 45.6146 48.8955C45.5543 49.3023 45.7173 49.4459 46.0736 49.5746C47.5985 50.134 49.1112 50.7323 50.6331 51.3007C50.9562 51.4203 51.1222 51.6118 51.2219 51.9349C51.9556 54.3311 52.7105 56.7213 53.4503 59.1145C53.568 59.5004 53.4835 59.632 53.0819 59.6889C51.9375 59.8474 50.7901 60 49.6427 60.1525C49.2048 60.2094 49.0992 60.1256 49.0146 59.641C48.7429 58.0525 48.4771 56.461 48.1933 54.8725C48.1661 54.72 48.0816 54.5255 47.9608 54.4537C46.8527 53.7717 45.7294 53.1165 44.5397 52.4075C44.1411 53.3529 43.1386 53.996 43.341 55.1896C43.5191 56.2486 43.1598 57.1281 42.4683 57.9358C41.9912 58.4923 41.6078 59.1265 41.1699 59.7188C40.8861 60.1017 40.6204 60.0957 40.3486 59.7098C39.6994 58.7914 39.0502 57.879 38.4191 56.9486C38.3014 56.7722 38.2501 56.5388 38.2138 56.3234C38.1806 56.117 38.1685 55.8926 38.2078 55.6862C38.4524 54.346 37.625 53.4306 36.9245 52.4075C36.1606 52.8712 35.4027 53.3229 34.6568 53.7896C34.2069 54.0708 33.6332 54.2892 33.3675 54.696C33.1078 55.0939 33.1712 55.6982 33.0867 56.2127C32.8844 57.4213 32.6911 58.6329 32.4556 59.8354C32.4284 59.9701 32.1416 60.1675 31.9967 60.1525C30.7798 60.0269 29.5659 59.8564 28.3551 59.6978C28.02 59.653 28.0381 59.4047 28.0924 59.1803C28.2102 58.6867 28.3491 58.1991 28.497 57.7145C29.0798 55.7879 29.6746 53.8644 30.2514 51.9349C30.351 51.6028 30.5141 51.4114 30.8643 51.2857C32.4315 50.7203 33.9805 50.1101 35.5446 49.5387C35.8556 49.425 35.9401 49.2694 35.9099 48.9523C35.8646 48.4617 35.8737 47.9681 35.8797 47.4745C35.8828 47.2621 35.8254 47.1724 35.6019 47.1305C34.4123 46.9062 33.2256 46.6758 32.045 46.4126C31.8094 46.3587 31.5286 46.2151 31.3988 46.0237C29.8528 43.78 28.3219 41.5244 26.8091 39.2569C26.0965 38.1919 25.4383 37.088 24.7408 36.0111C24.5777 35.7598 24.5807 35.5265 24.6532 35.2542C25.0518 33.7615 25.4383 32.2627 25.8369 30.77C25.8912 30.5665 25.8731 30.2973 26.1992 30.2704C26.5283 30.2435 26.791 30.2853 26.9571 30.6354C27.9203 32.6456 28.9228 34.638 29.8709 36.6543C30.5382 38.0782 31.1391 39.5351 31.7732 40.974C31.8185 41.0787 31.8879 41.1924 31.9815 41.2522C33.443 42.2005 34.9075 43.1399 36.4082 44.1031C36.5893 43.6335 36.7161 43.1847 36.9275 42.7809C37.2808 42.1138 37.4378 41.4915 37.3231 40.6868C37.0785 38.9727 38.2319 37.4889 39.941 37.085C40.2218 37.0192 40.2822 36.8966 40.2731 36.6483C40.258 36.3042 40.2701 35.9542 40.2671 35.6072C40.261 35.2692 40.3848 35.0269 40.7593 35.0059C41.0733 34.988 41.2394 35.2034 41.2454 35.6042C41.2515 36.0679 41.2454 36.5346 41.2454 36.9803C41.641 37.1269 42.0184 37.2286 42.3596 37.3991C43.7788 38.1021 44.4853 39.6727 44.123 41.2043C44.0747 41.4108 44.117 41.671 44.1925 41.8774C44.428 42.4997 44.7028 43.1099 44.9594 43.7232C45.0047 43.8309 45.0409 43.9386 45.1074 44.1151ZM44.6152 46.8314C44.3736 45.3625 44.0113 43.9476 43.4436 42.5685C41.3753 44.136 40.403 44.139 38.081 42.6223C38.0598 42.6373 38.0266 42.6463 38.0176 42.6642C37.4982 43.9266 37.16 45.2369 36.9698 46.5861C36.9547 46.6818 37.1026 46.8613 37.2144 46.8972C38.3225 47.2621 39.4367 47.6092 40.5539 47.9502C40.6868 47.9891 40.8468 48.001 40.9767 47.9622C42.1724 47.6032 43.3621 47.2233 44.6152 46.8314ZM43.199 40.4026C43.2051 39.0894 42.103 37.9975 40.7623 37.9915C39.4548 37.9855 38.2893 39.0744 38.2682 40.3278C38.247 41.5633 39.4277 42.6971 40.7623 42.721C42.0667 42.745 43.19 41.68 43.199 40.4026ZM36.849 47.8605C36.8913 48.4169 36.9486 48.8805 36.9547 49.3442C36.9607 49.6823 37.1087 49.8438 37.4257 49.9336C38.4343 50.2148 39.4397 50.5169 40.4483 50.7951C40.6083 50.84 40.8046 50.843 40.9646 50.8011C42.0546 50.5079 43.1386 50.1998 44.2226 49.8827C44.3344 49.8498 44.4853 49.7391 44.5004 49.6464C44.582 49.087 44.6273 48.5216 44.6877 47.9263C44.5276 47.9472 44.4461 47.9472 44.3706 47.9681C43.3289 48.2882 42.2871 48.5964 41.2545 48.9374C40.9042 49.0541 40.5902 49.057 40.2369 48.9374C39.1438 48.5724 38.0387 48.2374 36.849 47.8605ZM55.8508 35.6461C55.114 35.4457 54.4346 35.2482 53.7492 35.0807C53.6586 35.0598 53.4835 35.1795 53.4291 35.2782C53.245 35.6162 53.091 35.9752 52.9339 36.3282C52.2636 37.8239 51.5903 39.3227 50.935 40.8244C50.8807 40.9501 50.8777 41.1864 50.9592 41.2672C51.2007 41.5095 51.4936 41.7009 51.8167 41.9522C53.1634 39.8402 54.492 37.7671 55.8508 35.6461ZM29.729 41.9492C30.0128 41.7309 30.2302 41.5274 30.4809 41.3808C30.7466 41.2223 30.7707 41.0637 30.6469 40.7945C29.8619 39.0864 29.0949 37.3722 28.3189 35.6581C28.0139 34.982 28.0139 34.982 27.2802 35.2064C26.7759 35.3589 26.2717 35.5205 25.7372 35.688C27.0899 37.812 28.4004 39.8671 29.729 41.9492ZM45.6448 46.1613C46.8345 45.922 48.0454 45.6856 49.2532 45.4284C49.377 45.4014 49.4977 45.2698 49.5793 45.1591C49.9809 44.6087 50.3734 44.0493 50.7629 43.4899C50.929 43.2535 51.083 43.0112 51.2521 42.7539C50.9562 42.5356 50.6904 42.3531 50.4459 42.1527C50.2798 42.015 50.159 42.042 49.9869 42.1586C48.6764 43.0202 47.3599 43.8758 46.0344 44.7164C45.2553 45.21 45.2463 45.198 45.5512 46.0835C45.5543 46.0895 45.5724 46.0985 45.6448 46.1613ZM35.9703 46.1912C36.0368 45.916 36.1243 45.6737 36.1394 45.4254C36.1455 45.2878 36.07 45.0813 35.9613 45.0095C34.4666 44.0373 32.9629 43.083 31.4531 42.1317C31.3656 42.0779 31.1814 42.0689 31.0999 42.1257C30.8341 42.2992 30.5956 42.5146 30.3027 42.748C30.7556 43.3881 31.2388 43.9954 31.6313 44.6535C31.9816 45.2399 32.4375 45.5271 33.1169 45.6198C34.068 45.7574 35.0071 45.9937 35.9703 46.1912ZM29.2308 58.7735C29.9826 58.8752 30.6832 58.9799 31.3867 59.0487C31.4622 59.0547 31.6162 58.8692 31.6373 58.7555C31.8608 57.4991 32.0691 56.2397 32.2714 54.9802C32.2986 54.8157 32.3469 54.5854 32.2654 54.4777C31.8759 53.9841 31.4441 53.5264 30.967 52.9879C30.3691 54.9743 29.8105 56.8439 29.2308 58.7735ZM50.5274 53.0447C50.0745 53.5383 49.6578 53.9811 49.2532 54.4388C49.1928 54.5076 49.1686 54.6392 49.1837 54.7349C49.4132 56.114 49.6487 57.4871 49.8963 58.8632C49.9114 58.944 50.0503 59.0696 50.1228 59.0607C50.8233 58.9859 51.5238 58.8871 52.2666 58.7884C51.6869 56.8649 51.1192 54.9862 50.5274 53.0447ZM44.1623 50.9537C43.9177 51.0105 43.8029 51.0314 43.6942 51.0643C42.9484 51.2827 42.1905 51.4802 41.4568 51.7374C40.9767 51.905 40.5358 51.899 40.0557 51.7404C39.2072 51.4622 38.3437 51.2379 37.4861 50.9896C37.4589 51.0165 37.4348 51.0374 37.4106 51.0643C37.8394 51.7973 38.2742 52.5242 38.6939 53.2631C38.8177 53.4815 38.9717 53.5473 39.2133 53.5443C40.0195 53.5323 40.8348 53.4755 41.6319 53.5593C42.4351 53.643 42.9092 53.3618 43.2323 52.6528C43.4798 52.1024 43.809 51.5879 44.1623 50.9537ZM39.1801 54.5584C39.1348 55.5217 39.0472 56.3982 39.7508 57.1401C40.1282 57.541 40.409 58.0316 40.7653 58.5282C41.3088 57.7773 41.8101 57.0892 42.3053 56.3982C42.3475 56.3354 42.3747 56.2516 42.3777 56.1768C42.3868 55.7251 42.3989 55.2704 42.3747 54.8187C42.3687 54.729 42.2086 54.5734 42.118 54.5704C41.1518 54.5524 40.1856 54.5584 39.1801 54.5584ZM36.0337 50.4122C34.5089 50.9866 33.0203 51.546 31.4713 52.1263C31.9393 52.6379 32.356 53.1046 32.7878 53.5563C32.8361 53.6041 32.9961 53.6041 33.0625 53.5623C34.1375 52.9011 35.2094 52.237 36.2662 51.555C36.3629 51.4921 36.4202 51.2588 36.384 51.1362C36.3146 50.8879 36.1636 50.6635 36.0337 50.4122ZM50.1077 52.1622C48.4832 51.54 46.9885 50.9686 45.4637 50.3823C45.3399 50.6725 45.2463 50.9327 45.1164 51.175C44.9987 51.3964 45.0681 51.5011 45.2644 51.6178C46.282 52.237 47.2905 52.8742 48.3111 53.4845C48.4107 53.5443 48.6402 53.5294 48.7278 53.4546C49.1656 53.0717 49.5823 52.6558 50.1077 52.1622ZM53.9394 34.1504C54.5343 34.294 55.0717 34.4226 55.6636 34.5662C55.428 33.7136 55.2106 32.9358 54.9661 32.0533C54.5977 32.8072 54.2776 33.4593 53.9394 34.1504ZM26.6431 32.1341C26.6098 32.1281 26.5736 32.1251 26.5374 32.1191C26.3139 32.9239 26.0875 33.7286 25.8489 34.5931C26.4709 34.4017 26.9903 34.2401 27.5519 34.0696C27.2409 33.4025 26.942 32.7713 26.6431 32.1341Z" fill="#FFEB61"/>
<path d="M21.7697 29.2743C21.9478 26.2589 23.6357 23.6592 26.6794 21.9301C30.6742 19.6626 35.5266 21.1583 37.7429 24.6584C39.4157 27.2969 39.2043 30.5786 37.2175 32.7504C35.7561 34.3479 33.6635 34.8983 31.8428 34.1594C31.1815 33.8902 30.6048 33.5043 30.2666 32.8551C30.1669 32.6637 30.1126 32.4244 30.1217 32.209C30.1337 31.9128 30.4327 31.7094 30.6923 31.832C31.2328 32.0803 31.7643 32.1581 32.3259 31.9278C32.8815 31.7034 33.3072 31.3265 33.6303 30.8359C34.2765 29.8516 34.1889 28.5294 33.3737 27.5572C32.3742 26.3666 31.0456 26.0465 29.5842 26.3815C26.9904 26.9798 25.2723 28.6192 24.2849 31.0333C24.0011 31.7243 23.7777 32.4363 23.5452 33.1453C23.4606 33.3996 23.3187 33.621 23.053 33.5791C22.8718 33.5522 22.6484 33.3756 22.5668 33.2081C22.0354 32.1282 21.7878 30.9765 21.7697 29.2743ZM31.9001 33.0945C32.0119 33.1483 32.1175 33.2081 32.2323 33.256C33.4854 33.7556 34.6358 33.5133 35.6987 32.7534C37.7338 31.2995 38.4404 28.5085 37.4228 26.1542C35.9976 22.8605 31.4895 20.2399 27.0025 22.9263C24.0675 24.6823 22.5276 27.27 22.8356 30.7671C22.8537 30.9824 22.9201 31.1948 22.9624 31.4072C23.0862 31.2936 23.1285 31.1859 23.1677 31.0752C23.9528 28.8794 25.2904 27.1204 27.4252 26.0704C29.243 25.1729 31.1181 24.9426 32.9962 25.9418C35.2307 27.1324 35.7712 30.1119 34.0742 31.9128C33.4944 32.5291 32.7939 32.9509 31.9001 33.0945Z" fill="#FFEB61"/>
<path d="M50.5276 20.8531C52.6714 20.8262 54.5737 21.5202 56.2314 22.8395C58.5504 24.6882 59.7401 27.1054 59.7431 30.0699C59.7431 31.1828 59.411 32.2238 58.9852 33.238C58.8916 33.4593 58.7376 33.6298 58.4991 33.5521C58.3239 33.4952 58.1126 33.3516 58.0461 33.1901C57.6536 32.2717 57.3486 31.3144 56.9169 30.414C56.0442 28.5921 54.6613 27.2699 52.7227 26.5908C51.3368 26.1062 49.9629 26.1002 48.7249 27.0156C47.1004 28.2182 47.0974 30.5486 48.7189 31.6644C49.3198 32.0773 49.972 32.2388 50.7027 31.9277C50.8839 31.8499 51.1858 31.8918 51.3549 31.9965C51.6237 32.161 51.5149 32.4482 51.3881 32.6785C50.7118 33.926 49.5764 34.4256 48.2237 34.4764C46.1432 34.5572 44.2047 33.232 43.32 31.1828C41.8736 27.8293 43.1116 24.1198 46.3304 22.1095C47.6137 21.3078 49.0088 20.889 50.5276 20.8531ZM58.484 31.4909C58.5202 31.4909 58.5534 31.4909 58.5897 31.4939C58.65 30.9883 58.7648 30.4798 58.7648 29.9742C58.7557 27.7306 57.8921 25.828 56.3039 24.2455C53.6769 21.6279 50.0595 21.0954 47.04 22.8694C44.5399 24.3382 43.2354 27.0306 43.8454 29.6392C44.2832 31.5238 45.3974 32.879 47.3359 33.4174C48.1271 33.6388 48.9121 33.5162 49.7123 33.0973C49.5311 33.0495 49.4285 33.0256 49.3258 32.9986C47.0612 32.4123 45.8594 29.9682 46.7954 27.8443C47.5715 26.0763 49.6217 25.0203 51.6659 25.3404C54.622 25.8011 56.633 27.4883 57.9163 30.0999C58.1367 30.5456 58.2968 31.0242 58.484 31.4909Z" fill="#FFEB61"/>
<path d="M40.7865 39.5202C41.2817 39.5261 41.644 39.8791 41.6289 40.3398C41.6169 40.7646 41.2183 41.1326 40.7774 41.1296C40.3124 41.1236 39.9108 40.7437 39.9108 40.3069C39.9108 39.8492 40.2852 39.5142 40.7865 39.5202Z" fill="#FFEB61"/>
</svg>
