<svg width="80" height="80" viewBox="0 0 80 80" fill="none" xmlns="http://www.w3.org/2000/svg">
<rect width="80" height="80" rx="40" fill="#111010"/>
<path d="M52.5007 19.572C52.5007 19.4478 52.5007 19.3237 52.5007 19.1995C52.4976 18.5412 52.3496 18.3391 51.6742 18.1601C51.5724 18.1341 51.4274 18.1948 51.3195 18.2467C50.7705 18.5152 50.2339 18.7982 49.6849 19.0667C49.3457 19.2313 49.0435 19.1822 48.8646 18.8473C48.6919 18.5239 48.7906 18.2612 49.1298 18.0793C49.6294 17.8108 50.1198 17.5307 50.6225 17.2766C50.8199 17.1756 50.9001 17.0745 50.8538 16.8551C50.8168 16.6847 50.789 16.4826 50.8446 16.3267C51.0018 15.8763 50.7705 15.6771 50.3727 15.5125C49.9841 15.3508 49.6048 15.1632 49.2439 14.9524C48.8492 14.7214 48.7505 14.3779 48.9633 14.0747C49.2038 13.7282 49.5246 13.7773 49.8515 13.9448C50.3295 14.1902 50.8075 14.4327 51.2702 14.6983C51.4799 14.8196 51.6526 14.9004 51.8407 14.6839C51.8592 14.6637 51.887 14.6406 51.9116 14.6377C52.5809 14.5193 52.5439 14.0545 52.5223 13.581C52.5069 13.2374 52.5161 12.8909 52.5408 12.5474C52.5624 12.2355 52.7474 12.0248 53.0928 12.0017C53.4259 11.9757 53.7498 12.2615 53.7621 12.5907C53.7806 13.0988 53.7806 13.6099 53.7683 14.118C53.7621 14.3288 53.8762 14.3923 54.0458 14.5078C54.5578 14.86 54.9649 14.7214 55.4182 14.4183C55.7513 14.196 56.1337 14.0401 56.5007 13.8668C56.7814 13.7311 57.0466 13.7398 57.2286 14.0227C57.4136 14.3143 57.463 14.6204 57.1268 14.8283C56.6765 15.1112 56.2016 15.3624 55.7143 15.5934C55.4244 15.732 55.2671 15.8706 55.3966 16.1939C55.4522 16.3296 55.4737 16.5086 55.4244 16.6414C55.2764 17.0312 55.5077 17.1756 55.8222 17.3286C56.254 17.5365 56.6704 17.7703 57.0775 18.0186C57.4352 18.2381 57.5185 18.5672 57.3242 18.8732C57.1021 19.2255 56.7814 19.2197 56.4483 19.0494C55.9703 18.804 55.4953 18.5528 55.0358 18.2814C54.8138 18.1486 54.6595 18.1861 54.4128 18.2554C53.7251 18.4459 53.685 18.8848 53.7251 19.4247C53.7498 19.7654 53.722 20.1148 53.7004 20.4583C53.6788 20.8077 53.4907 21.0473 53.099 21.0358C52.7135 21.0271 52.5161 20.7961 52.5007 20.4439C52.4945 20.1494 52.5038 19.8607 52.5007 19.572C52.5069 19.572 52.5038 19.572 52.5007 19.572ZM54.0736 16.5259C54.0828 16.012 53.6634 15.5991 53.1206 15.5905C52.6179 15.5847 52.1892 15.9918 52.1769 16.4884C52.1676 16.9504 52.5778 17.3228 53.1175 17.3372C53.6726 17.3546 54.0612 17.0225 54.0736 16.5259Z" fill="#FFEB61"/>
<path d="M26.86 26.6601C26.86 26.5504 26.8445 26.4378 26.863 26.3309C26.9525 25.8055 26.7829 25.4532 26.1969 25.2713C25.9471 25.1934 25.7929 25.1674 25.5616 25.3089C25.0959 25.6005 24.6086 25.8574 24.1213 26.1115C23.8036 26.2761 23.4891 26.2732 23.2886 25.9296C23.1005 25.6034 23.1622 25.3031 23.4983 25.101C23.9424 24.8325 24.4235 24.6159 24.8584 24.333C25.0064 24.2377 25.0712 24.0212 25.1545 23.8537C25.1822 23.7988 25.139 23.7122 25.1606 23.6487C25.3889 23.002 25.0434 22.6728 24.4482 22.4476C24.1491 22.335 23.8777 22.1589 23.6032 22.003C23.2824 21.8211 23.1622 21.4458 23.3256 21.1542C23.486 20.8654 23.8345 20.7788 24.2046 20.9694C24.6826 21.2148 25.1575 21.466 25.6171 21.7403C25.833 21.8673 26.0026 21.9019 26.2123 21.7431C26.311 21.6681 26.4436 21.6161 26.5701 21.5872C26.8044 21.5382 26.863 21.4111 26.86 21.2003C26.8445 20.7182 26.8507 20.236 26.8569 19.7538C26.863 19.3323 27.0913 19.0725 27.4398 19.0551C27.8006 19.0378 28.0566 19.3063 28.0782 19.751C28.0967 20.2187 28.0936 20.6893 28.1059 21.157C28.1152 21.5699 28.8677 21.9597 29.2624 21.7547C29.7775 21.4891 30.2833 21.2003 30.8137 20.9636C31.2918 20.7499 31.6773 20.9434 31.7513 21.3765C31.8006 21.6565 31.6773 21.8529 31.412 21.9886C30.9217 22.2369 30.4344 22.4996 29.9409 22.745C29.722 22.8547 29.5863 22.9731 29.7066 23.2301C29.7559 23.3369 29.7744 23.487 29.7343 23.5939C29.54 24.1107 29.8361 24.3272 30.2864 24.5206C30.6996 24.6968 31.0882 24.9278 31.4706 25.1616C31.8315 25.3839 31.9086 25.7159 31.7081 26.0162C31.483 26.354 31.1715 26.3136 30.86 26.1548C30.345 25.8892 29.8392 25.6062 29.3272 25.332C28.9016 25.101 28.1183 25.5081 28.1059 25.9671C28.0936 26.4753 28.0998 26.9892 28.0874 27.4974C28.0812 27.8727 27.8345 28.1268 27.4768 28.1152C27.0789 28.1066 26.897 27.8756 26.8785 27.5262C26.863 27.2375 26.8754 26.9488 26.8754 26.6572C26.8661 26.6601 26.863 26.6601 26.86 26.6601ZM27.4799 24.408C28.0504 24.3994 28.4236 24.0414 28.4082 23.5217C28.3927 23.0395 27.9425 22.6497 27.4182 22.6671C26.9 22.6844 26.533 23.0828 26.5423 23.6169C26.5546 24.0645 26.971 24.4167 27.4799 24.408Z" fill="#FFEB61"/>
<path d="M19.7074 34.5826C18.8284 34.9059 17.9834 34.981 17.1384 34.7385C16.8916 34.6692 16.6172 34.5595 16.4599 34.3833C16.3303 34.2361 16.2563 33.9301 16.3303 33.7655C16.4044 33.6067 16.6943 33.5143 16.9071 33.4421C17.0119 33.4075 17.163 33.4768 17.2926 33.5085C18.4676 33.7857 19.547 33.6442 20.352 32.7376C21.16 31.831 20.9965 30.8176 20.5617 29.8071C20.4907 29.6454 20.3612 29.4549 20.4044 29.3134C20.4599 29.1228 20.6295 28.8832 20.8053 28.8283C20.978 28.7764 21.2864 28.8745 21.4252 29.0045C22.0852 29.6368 22.2672 30.4336 22.2024 31.294C22.1932 31.4326 22.1685 31.5654 22.1531 31.704C22.1531 31.7156 22.1592 31.73 22.1777 31.7877C22.443 31.7271 22.7082 31.6578 22.9765 31.6116C23.7938 31.4672 24.5895 31.4759 25.3081 31.9436C25.5548 32.1024 25.6998 32.3565 25.5209 32.5788C25.3759 32.7578 25.0891 32.8502 24.8485 32.934C24.7468 32.9715 24.5957 32.8647 24.4661 32.856C24.0128 32.83 23.5502 32.7521 23.1091 32.8127C21.4777 33.0437 20.5679 34.4902 21.0706 36.006C21.1415 36.2167 21.2248 36.4275 21.3512 36.6094C21.5763 36.9414 21.5208 37.2128 21.2155 37.4467C20.9657 37.6372 20.574 37.5679 20.315 37.2706C19.7814 36.6614 19.6395 35.9367 19.6642 35.1744C19.6673 35.0041 19.6858 34.828 19.7074 34.5826Z" fill="#FFEB61"/>
<path d="M57.972 49.983C58.5734 50.0436 59.1625 50.061 59.7269 50.1765C60.1031 50.2544 60.4763 50.4334 60.8032 50.6297C61.1671 50.8463 61.2381 51.213 61.0376 51.493C60.8001 51.8279 60.4887 51.7991 60.1463 51.6374C59.218 51.1956 58.262 51.0542 57.309 51.5363C56.208 52.0936 55.7361 53.2513 56.0322 54.5362C56.0753 54.7209 56.1463 54.949 56.0692 55.0934C55.9736 55.2666 55.7361 55.4687 55.5541 55.4745C55.3568 55.4774 55.0699 55.3157 54.9682 55.1425C54.5117 54.3918 54.5271 53.5891 54.7924 52.7807C54.8479 52.6133 54.9188 52.4516 54.9435 52.3938C54.1879 52.2755 53.4539 52.1946 52.7322 52.0329C52.4331 51.9665 52.1617 51.7529 51.9118 51.5652C51.6559 51.3718 51.5849 51.1119 51.7977 50.8347C51.9982 50.572 52.2511 50.5143 52.5718 50.6384C52.9789 50.7943 53.386 50.9791 53.8116 51.0571C55.6528 51.3949 57.09 50.1967 56.9728 48.4384C56.9574 48.1785 56.8895 47.9215 56.8371 47.6646C56.7693 47.3239 56.871 47.0438 57.2226 46.9197C57.602 46.784 57.8518 47.0034 57.9967 47.3008C58.373 48.063 58.3699 48.8512 58.0954 49.6394C58.0584 49.7636 58.006 49.8906 57.972 49.983Z" fill="#FFEB61"/>
<path d="M39.8407 16.1016C41.3334 15.8504 42.5177 16.2084 43.409 17.2853C43.5416 17.4441 43.6526 17.6376 43.702 17.8339C43.7729 18.1053 43.6896 18.3651 43.3905 18.4922C43.1006 18.6163 42.8415 18.5586 42.6349 18.3276C42.53 18.2121 42.4406 18.0879 42.3388 17.9667C41.7775 17.3055 41.0343 17.0688 40.1738 17.2709C39.3195 17.473 38.7767 18.01 38.5948 18.83C38.5146 19.1938 38.4498 19.546 37.9471 19.5951C37.6356 19.624 37.4105 19.52 37.3488 19.2342C37.3025 19.009 37.2779 18.7578 37.3334 18.5413C37.6664 17.242 38.5608 16.448 39.8407 16.1016Z" fill="#FFEB61"/>
<path d="M22.0733 43.9083C22.0086 44.2981 21.9993 44.7283 21.4226 44.7427C21.0371 44.7514 20.8613 44.5319 20.7657 43.9516C20.3648 43.8476 19.8836 43.7581 19.933 43.2298C19.97 42.8198 20.3339 42.6899 20.7657 42.6668C20.7965 42.5484 20.8243 42.4329 20.8582 42.3174C20.9415 42.0316 21.1327 41.8641 21.4565 41.8641C21.7803 41.8641 21.9438 42.0691 21.987 42.329C22.024 42.5715 22.1103 42.6783 22.3879 42.713C22.7086 42.7534 22.9831 42.9209 22.9708 43.2789C22.9585 43.6196 22.7241 43.787 22.3817 43.8534C22.283 43.8679 22.1813 43.8881 22.0733 43.9083Z" fill="#FFEB61"/>
<path d="M13.6447 43.8535C13.3332 43.8246 13.142 43.6629 13.0278 43.3684C12.9754 43.2298 12.8274 43.0884 12.6824 43.0248C12.3894 42.892 12.0965 42.7621 12.1273 42.4156C12.1551 42.0865 12.4203 41.9421 12.7379 41.8411C12.8675 41.8007 13.0186 41.6621 13.0494 41.5466C13.1296 41.2232 13.2838 41.0124 13.6601 41.0096C14.0178 41.0067 14.1628 41.203 14.243 41.5148C14.2769 41.6447 14.4558 41.7978 14.5976 41.8353C14.9431 41.9277 15.2206 42.0721 15.2175 42.433C15.2145 42.8054 14.9184 42.918 14.573 42.996C14.4527 43.0219 14.3201 43.1807 14.2738 43.3049C14.169 43.5878 14.0487 43.839 13.6447 43.8535Z" fill="#FFEB61"/>
<path d="M65.1915 31.2854C65.1669 31.4442 65.1545 31.5684 65.1268 31.6896C65.062 31.9784 64.8831 32.1718 64.5562 32.1718C64.2293 32.1689 63.9672 32.0043 63.9332 31.6925C63.9024 31.4096 63.7605 31.3258 63.5076 31.2132C63.3164 31.1295 63.1345 30.8726 63.0944 30.6676C63.0327 30.3731 63.2794 30.2114 63.5816 30.1276C63.705 30.093 63.8623 29.9862 63.8962 29.8822C63.9949 29.5704 64.109 29.2932 64.5192 29.299C64.9571 29.3019 65.1329 29.5675 65.1792 29.9371C65.1854 29.9775 65.21 30.0122 65.2254 30.0468C65.8669 30.1796 66.0674 30.3442 66.0427 30.7253C66.015 31.2075 65.6264 31.2623 65.1915 31.2854Z" fill="#FFEB61"/>
<path d="M67.2918 37.08C67.2949 37.4409 66.9926 37.7354 66.6071 37.7499C66.1877 37.7643 65.833 37.4467 65.8392 37.0656C65.8454 36.6874 66.163 36.3958 66.5763 36.3958C66.9772 36.3958 67.2887 36.6931 67.2918 37.08Z" fill="#FFEB61"/>
<path d="M26.2612 59.6696C25.8634 59.6725 25.5426 59.4444 25.5334 59.1586C25.5272 58.8814 25.8233 58.6736 26.2211 58.6678C26.622 58.6649 26.9767 58.8901 26.986 59.1586C26.9983 59.43 26.6652 59.6668 26.2612 59.6696Z" fill="#FFEB61"/>
<path d="M21.3049 66.2987C21.3018 66.6856 20.9842 66.9772 20.5709 66.9627C20.1885 66.9512 19.877 66.6567 19.8708 66.2987C19.8616 65.9464 20.2224 65.5913 20.5863 65.5942C20.9564 65.5913 21.308 65.9378 21.3049 66.2987Z" fill="#FFEB61"/>
<path d="M20.7716 55.2031C20.383 55.2147 20.0591 54.9375 20.0345 54.5737C20.0129 54.1897 20.3151 53.8808 20.7284 53.8663C21.1201 53.8548 21.4624 54.1637 21.4686 54.5391C21.4747 54.8971 21.1602 55.1945 20.7716 55.2031Z" fill="#FFEB61"/>
<path d="M63.5723 43.8304C63.1529 43.8246 62.8568 43.5359 62.8692 43.1461C62.8846 42.7823 63.193 42.4994 63.5785 42.5022C63.9764 42.5051 64.2817 42.8083 64.2786 43.201C64.2755 43.5763 63.9856 43.8333 63.5723 43.8304Z" fill="#FFEB61"/>
<path d="M28.6854 33.2689C28.6762 33.6471 28.3338 33.9763 27.9638 33.9647C27.5844 33.9532 27.276 33.65 27.276 33.2891C27.276 32.9022 27.5967 32.5904 27.9884 32.6019C28.3708 32.6135 28.6916 32.9224 28.6854 33.2689Z" fill="#FFEB61"/>
<path d="M38.5608 55.6968C38.934 55.6939 39.2362 56.0058 39.23 56.3782C39.2208 56.742 38.9401 56.999 38.5546 56.9961C38.1753 56.9903 37.8484 56.69 37.8422 56.3407C37.836 55.9913 38.166 55.6968 38.5608 55.6968Z" fill="#FFEB61"/>
<path d="M49.8854 61.171C48.8306 62.1931 47.6494 62.554 46.2523 62.1671C46.0457 62.1093 45.836 62.0141 45.6695 61.8841C45.4412 61.7022 45.3487 61.4482 45.5091 61.1796C45.6664 60.9198 45.9131 60.8274 46.2246 60.8996C46.3819 60.9371 46.533 60.9891 46.6903 61.0295C47.56 61.2576 48.3094 61.044 48.88 60.4059C49.4444 59.7736 49.5523 59.0402 49.1822 58.278C49.0188 57.9402 48.8522 57.6168 49.2285 57.3021C49.4629 57.1087 49.7127 57.0682 49.9409 57.2675C50.1198 57.4234 50.2956 57.6139 50.3881 57.8189C50.934 59.0547 50.7088 60.1893 49.8854 61.171Z" fill="#FFEB61"/>
<path d="M34.243 64.3729C34.1783 64.7627 34.169 65.1928 33.5923 65.2073C33.2068 65.2159 33.031 64.9965 32.9354 64.4162C32.5345 64.3122 32.0533 64.2227 32.1027 63.6944C32.1397 63.2844 32.5036 63.1545 32.9354 63.1314C32.9662 63.013 32.9971 62.8975 33.0279 62.782C33.1112 62.4962 33.3024 62.3287 33.6262 62.3287C33.95 62.3287 34.1135 62.5337 34.1567 62.7936C34.1937 63.0361 34.2801 63.1429 34.5576 63.1776C34.8784 63.218 35.1528 63.3855 35.1405 63.7435C35.1282 64.0842 34.8938 64.2516 34.5514 64.318C34.4528 64.3325 34.3541 64.3527 34.243 64.3729Z" fill="#FFEB61"/>
<path d="M14.1438 58.7544C14.0791 59.1441 14.0698 59.5743 13.4931 59.5888C13.1076 59.5974 12.9318 59.378 12.8362 58.7977C12.4353 58.6937 11.9541 58.6042 12.0035 58.0759C12.0405 57.6659 12.4044 57.536 12.8362 57.5129C12.867 57.3945 12.8948 57.279 12.9287 57.1635C13.012 56.8777 13.2032 56.7102 13.527 56.7102C13.8508 56.7102 14.0143 56.9152 14.0575 57.1751C14.0945 57.4176 14.1808 57.5244 14.4584 57.559C14.7791 57.5995 15.0536 57.7669 15.0413 58.1249C15.029 58.4656 14.7946 58.6331 14.4522 58.6995C14.3535 58.7139 14.2518 58.7313 14.1438 58.7544Z" fill="#FFEB61"/>
<path d="M44.4514 42.5051C45.8979 42.5051 47.3412 42.5109 48.7876 42.5022C49.0313 42.4994 49.1855 42.56 49.3089 42.7736C49.7622 43.5416 50.4592 43.943 51.4091 43.8679C52.3282 43.7928 52.8987 43.2818 53.2781 42.5138C53.9072 41.2434 54.928 40.282 56.1555 39.5082C57.3367 38.7662 58.6073 38.2782 60.0692 38.3677C61.0253 38.4255 61.6575 39.0347 61.6421 39.8922C61.6297 40.5216 61.1918 41.0442 60.4886 41.1077C58.6166 41.2752 57.3213 42.277 56.2326 43.5965C56.0476 43.8217 55.9119 44.096 55.8101 44.3674C55.3845 45.5165 54.6782 46.4548 53.4816 46.989C52.3035 47.5145 51.1007 47.5751 49.9195 46.9659C49.753 46.8793 49.6574 46.8995 49.5217 47.0265C47.4893 48.935 45.4476 50.8405 43.4059 52.7403C43.3134 52.824 43.1901 52.902 43.0667 52.928C40.4206 53.4852 37.7744 54.0309 35.1283 54.5852C31.5199 55.3417 27.9116 56.101 24.3063 56.8662C24.1459 56.9008 23.9763 56.9903 23.8591 57.0971C21.5769 59.2279 19.3039 61.3673 17.0279 63.501C16.9477 63.576 16.8613 63.6771 16.7626 63.6915C16.6578 63.7088 16.5159 63.6627 16.4357 63.5991C16.3833 63.5558 16.374 63.4115 16.408 63.3422C16.4696 63.2238 16.5714 63.117 16.6732 63.0217C18.7796 61.044 20.8891 59.0662 22.9986 57.0913C23.1467 56.9528 23.2454 56.8459 23.1467 56.6178C23.085 56.4764 23.1467 56.2714 23.196 56.1097C24.0842 53.3553 24.9632 50.598 25.8699 47.8465C26.9617 44.5377 28.075 41.2376 29.1853 37.9347C29.2254 37.8134 29.3148 37.6921 29.4104 37.5997C31.0419 36.0291 32.6765 34.4613 34.3172 32.9022C34.4806 32.7463 34.5053 32.6193 34.4282 32.4143C33.7435 30.5982 34.4529 28.762 36.2447 27.7919C37.6942 27.0065 38.86 25.9787 39.6125 24.564C39.85 24.1164 40.0165 23.6631 39.9394 23.1377C39.8531 22.5371 40.3805 21.9048 41.022 21.7316C41.7035 21.5468 42.49 21.8615 42.8539 22.4707C43.1654 22.9933 43.1654 23.5621 43.0636 24.1222C42.6349 26.4666 41.4044 28.3318 39.2178 29.6022C38.4097 30.0699 37.8269 30.6993 37.7097 31.603C37.6634 31.9495 37.7374 32.319 37.8053 32.6713C38.345 35.4748 38.897 38.2782 39.446 41.0817C39.52 41.4657 39.6064 41.8468 39.6526 42.2308C39.6804 42.4676 39.7945 42.5138 40.0165 42.5138C41.4938 42.508 42.9711 42.5109 44.4453 42.5109C44.4514 42.5022 44.4514 42.5022 44.4514 42.5051ZM28.223 53.2052C28.2385 53.2283 28.2539 53.2514 28.2724 53.2773C28.7412 53.1647 29.21 53.0464 29.6787 52.9395C31.5138 52.518 33.3519 52.1022 35.1869 51.6778C35.4089 51.6258 35.5847 51.6201 35.6495 51.8655C35.7173 52.1109 35.5446 52.1946 35.3318 52.2408C35.2085 52.2668 35.0913 52.3015 34.971 52.3274C32.6487 52.8529 30.3295 53.3957 28.0041 53.8981C27.2608 54.0598 26.6286 54.3369 26.1228 54.8884C25.7404 55.3042 25.3024 55.6766 24.8892 56.0693C25.2407 56.0548 25.5615 55.9942 25.8791 55.9278C31.5138 54.7469 37.1514 53.5632 42.786 52.3823C42.8662 52.365 42.9649 52.3534 43.0173 52.3044C43.4645 51.903 43.8994 51.493 44.3497 51.0744C43.5046 50.3035 42.6874 49.5673 41.8793 48.8224C41.4352 48.4124 41.0004 47.9966 40.5655 47.5751C40.4175 47.4336 40.325 47.2575 40.5131 47.09C40.7012 46.9226 40.8554 47.0496 40.9911 47.1795C41.2687 47.4394 41.5432 47.7108 41.8238 47.9677C42.7367 48.805 43.6527 49.6394 44.5717 50.4739C44.6889 50.5807 44.7969 50.6962 44.9819 50.52C46.2895 49.267 47.6095 48.0226 48.9203 46.7724C49.0128 46.6829 49.0776 46.5674 49.1947 46.4144C48.9789 46.4144 48.8462 46.4144 48.7105 46.4144C46.3512 46.4115 43.9888 46.4144 41.6295 46.4086C39.8623 46.4029 38.0952 46.3884 36.3249 46.3682C36.109 46.3653 35.9425 46.3769 35.7729 46.5357C34.4405 47.7656 33.0959 48.984 31.7543 50.2053C31.7019 50.2515 31.6618 50.3122 31.5785 50.4103C31.6926 50.3872 31.742 50.3815 31.7882 50.3699C34.3912 49.7665 36.9911 49.1631 39.5909 48.5625C39.702 48.5365 39.8253 48.4961 39.9271 48.5192C40.032 48.5452 40.1707 48.626 40.1954 48.7098C40.2201 48.7906 40.1492 48.9407 40.069 48.9985C39.9487 49.0822 39.7883 49.1197 39.6372 49.1544C36.9942 49.7636 34.3573 50.3872 31.708 50.9647C30.7427 51.1754 29.8669 51.4699 29.2408 52.235C29.1051 52.4025 28.9139 52.5353 28.7535 52.6855C28.5746 52.8587 28.4019 53.0319 28.223 53.2052ZM30.6225 50.393C30.6564 50.4161 30.6934 50.4392 30.7273 50.4623C30.8198 50.3584 30.9 50.2458 31.0018 50.1505C32.5778 48.6924 34.1537 47.2373 35.7358 45.785C35.8715 45.658 35.9487 45.5425 35.9147 45.3519C35.7574 44.4684 35.6279 43.5821 35.4552 42.7015C35.0049 40.4263 34.5392 38.1512 34.0797 35.8761C33.9748 35.3622 33.87 34.8511 33.7898 34.47C32.5284 35.5845 31.2362 36.7307 29.8699 37.9376C30.0457 38.0646 30.1783 38.1425 30.2925 38.2407C31.6217 39.3898 32.9478 40.5418 34.2771 41.6909C34.4498 41.8411 34.5917 41.997 34.3758 42.2077C34.2 42.3781 34.0365 42.3319 33.8638 42.1789C32.5593 41.0182 31.2547 39.8604 29.947 38.7027C29.8607 38.6247 29.7682 38.5525 29.6109 38.4226C27.6463 44.3818 25.7034 50.2746 23.7573 56.1703C23.7943 56.1876 23.8313 56.205 23.8683 56.2223C23.9393 56.1588 24.0102 56.0953 24.0811 56.0317C24.6548 55.4947 25.2222 54.9519 25.802 54.4207C26.1012 54.1464 26.3418 53.8663 26.4775 53.4708C26.8938 52.2582 27.3718 51.0657 27.819 49.8618C28.2909 48.5856 28.7535 47.3037 29.2223 46.0247C29.3179 45.759 29.577 45.6407 29.7219 45.8081C29.8052 45.9063 29.8113 46.1199 29.7651 46.2527C29.0866 48.1323 28.3927 50.0061 27.7049 51.8828C27.5476 52.313 27.3965 52.7403 27.2145 53.2514C27.341 53.159 27.3996 53.1243 27.4489 53.081C28.0596 52.5238 28.661 51.9579 29.284 51.4122C29.5862 51.1466 29.7928 50.855 29.9409 50.4854C30.5762 48.8801 31.2423 47.2864 31.9085 45.6926C32.331 44.6763 32.7782 43.6716 33.2007 42.6581C33.2933 42.4358 33.4629 42.355 33.6541 42.456C33.7466 42.508 33.762 42.7072 33.7867 42.8458C33.796 42.9036 33.7374 42.9729 33.7127 43.0335C32.9602 44.7947 32.2046 46.5559 31.4582 48.3171C31.1653 49.0129 30.9 49.703 30.6225 50.393ZM36.51 45.0747C36.5716 45.0459 36.6056 45.0401 36.6241 45.0199C37.4105 44.2952 38.2 43.5763 38.968 42.84C39.0666 42.7448 39.1098 42.5398 39.0852 42.3983C38.4807 39.2599 37.8639 36.1244 37.2532 32.986C37.1453 32.423 37.0003 31.8657 37.1453 31.2825C37.4012 30.2547 38.0982 29.5646 39.0266 29.0247C40.9757 27.89 42.0489 26.2039 42.453 24.128C42.5301 23.7324 42.49 23.2907 42.3913 22.8951C42.2741 22.439 41.7066 22.1618 41.2687 22.2542C40.7937 22.3524 40.4853 22.7537 40.547 23.2676C40.5933 23.6718 40.5254 24.05 40.3404 24.4023C40.0844 24.8873 39.8315 25.3868 39.5015 25.8286C38.7829 26.7842 37.9009 27.584 36.7752 28.1297C35.2794 28.8544 34.1136 30.6935 35.1653 32.5413C35.2116 32.6222 35.1869 32.7896 35.1252 32.8647C34.934 33.1044 34.715 33.3295 34.4899 33.5461C34.3141 33.7164 34.2802 33.8926 34.3295 34.1264C34.8538 36.6672 35.3688 39.2079 35.8746 41.7516C36.0967 42.8516 36.3002 43.9516 36.51 45.0747ZM36.6981 45.8254C36.8307 45.8312 36.9325 45.8399 37.0312 45.8399C39.1623 45.8399 41.2964 45.8399 43.4275 45.8399C45.3119 45.8399 47.1932 45.8399 49.0745 45.8543C49.241 45.8543 49.4538 45.912 49.5679 46.016C50.0274 46.4289 50.5579 46.6974 51.1809 46.784C52.9141 47.0294 54.7461 45.8456 55.2334 44.197C55.3166 43.9141 55.4647 43.634 55.6405 43.3915C55.8872 43.0566 56.1709 42.739 56.4701 42.4445C57.5094 41.4224 58.7214 40.6977 60.2666 40.562C60.3961 40.5505 60.5349 40.5101 60.6521 40.4552C60.9451 40.3137 61.0931 40.0337 61.053 39.7536C60.9944 39.3609 60.6983 38.9943 60.2974 38.9567C59.8687 38.9163 59.4154 38.8932 59.0021 38.9827C56.5749 39.5197 54.8232 40.8767 53.7129 42.9498C52.7599 44.7341 50.3328 44.9881 49.0405 43.4031C48.8401 43.1548 48.6396 43.0739 48.3189 43.0768C45.4815 43.0826 42.6411 43.0739 39.8007 43.0768C39.6835 43.0768 39.5447 43.1461 39.4552 43.2241C39.0173 43.6109 38.5855 44.0065 38.163 44.4107C37.6788 44.8698 37.2069 45.3346 36.6981 45.8254Z" fill="#FFEB61" stroke="#FFEB61" stroke-width="0.4" stroke-miterlimit="10"/>
<path d="M53.3489 30.2922C52.7105 29.7205 52.1553 29.2326 51.6156 28.736C51.4645 28.5974 51.1993 28.4357 51.4491 28.2076C51.6989 27.9795 51.8778 28.2105 52.0443 28.3635C52.5193 28.7995 52.9911 29.2383 53.4661 29.6772C53.5308 29.7378 53.6018 29.7927 53.6419 29.8244C54.8508 28.7158 56.0413 27.6215 57.3027 26.4666C56.8462 26.4377 56.47 26.406 56.0968 26.3887C54.7984 26.3309 53.5 26.2789 52.2016 26.2125C52.0351 26.2039 51.8531 26.149 51.7143 26.0682C49.4815 24.7458 47.1345 23.6516 44.5531 23.0539C44.4452 23.0279 44.328 22.9846 44.2539 22.9153C44.1923 22.8576 44.1522 22.7306 44.1768 22.6584C44.2015 22.5862 44.3187 22.5025 44.3989 22.4996C44.5716 22.4938 44.7505 22.5256 44.9201 22.566C47.2085 23.1377 49.3458 24.0298 51.3442 25.2107C51.9025 25.5398 52.4545 25.6986 53.1145 25.7073C54.3605 25.7188 55.6064 25.8054 56.8555 25.8603C56.9758 25.8661 57.096 25.8603 57.2842 25.8603C57.1454 25.7073 57.0559 25.5918 56.9511 25.4936C56.5101 25.0692 56.0567 24.6506 55.6188 24.2233C55.3566 23.9692 55.3998 23.8017 55.7483 23.6891C58.1539 22.9067 60.5564 22.1271 62.9681 21.362C63.1161 21.3158 63.3783 21.3303 63.4646 21.4198C63.551 21.5093 63.5387 21.7489 63.4739 21.8875C62.5271 23.9749 61.5679 26.0537 60.6088 28.1354C60.581 28.199 60.5502 28.2596 60.5163 28.3202C60.359 28.6003 60.1709 28.6436 59.9303 28.4155C59.588 28.0892 59.2672 27.7428 58.9341 27.4078C58.6997 27.1682 58.4561 26.9343 58.1508 26.6312C58.1508 26.8853 58.1508 27.0441 58.1508 27.2057C58.1477 28.5974 58.1539 29.9919 58.1354 31.3836C58.1323 31.7387 58.2156 32.0476 58.3913 32.3594C59.2179 33.8261 59.8871 35.3535 60.4176 36.9357C60.47 37.0916 60.5379 37.2562 60.5379 37.415C60.5379 37.5189 60.4546 37.6806 60.3682 37.7094C60.2819 37.7383 60.1277 37.6517 60.0352 37.5766C59.9642 37.5189 59.9334 37.4092 59.9087 37.3168C59.3937 35.5931 58.5733 33.9878 57.7468 32.3825C57.6388 32.1718 57.5679 31.9235 57.5648 31.6896C57.5432 30.2893 57.5463 28.8861 57.5401 27.4829C57.5401 27.3819 57.5401 27.2779 57.5401 27.1509C56.3867 28.2105 55.2672 29.2326 54.1261 30.2749C54.3759 30.5087 54.601 30.7195 54.8262 30.9274C55.1376 31.2161 55.4461 31.5019 55.7575 31.7906C55.9148 31.935 55.9549 32.0909 55.7946 32.2497C55.6157 32.4258 55.4738 32.2959 55.3443 32.1775C54.8909 31.7647 54.4406 31.3431 53.9904 30.9274C53.9102 30.8523 53.8238 30.783 53.7128 30.6906C53.281 31.0862 52.8585 31.4702 52.4422 31.8599C48.9541 35.1052 45.466 38.3533 41.981 41.6014C41.7034 41.8613 41.5276 41.8699 41.3858 41.6332C41.2624 41.4311 41.4073 41.3011 41.54 41.177C42.129 40.6284 42.7243 40.0827 43.3164 39.5342C46.4313 36.6383 49.5431 33.7424 52.658 30.8494C52.8493 30.6704 53.0682 30.5174 53.3489 30.2922ZM60.1215 27.7601C60.9912 25.8488 61.8455 23.9692 62.7368 22.0174C60.578 22.719 58.4962 23.3975 56.362 24.0904C57.6357 25.3377 58.8632 26.533 60.1215 27.7601Z" fill="#FFEB61" stroke="#FFEB61" stroke-width="0.2" stroke-miterlimit="10"/>
</svg>
