<svg width="48" height="48" viewBox="0 0 48 48" fill="none" xmlns="http://www.w3.org/2000/svg">
<mask id="path-1-outside-1_784_3315" maskUnits="userSpaceOnUse" x="0.0834961" y="10.7683" width="48" height="26" fill="black">
<rect fill="white" x="0.0834961" y="10.7683" width="48" height="26"/>
<path d="M24.45 28.7608C23.1402 29.4791 21.8884 29.2518 20.649 29.0427C18.991 28.7608 17.4118 28.1788 15.762 27.4331C15.3517 29.0381 14.7051 30.4749 13.6937 31.7252C14.0874 32.4891 14.4854 33.1848 14.8128 33.9213C15.1154 34.6033 15.7372 35.1626 15.6004 36.1038C14.7051 36.2993 13.8429 36.1902 12.989 36.1629C12.8398 36.1583 12.6491 35.9583 12.5538 35.7946C11.7787 34.4851 11.0284 33.162 10.2575 31.8525C10.0088 31.4342 10.1414 31.1205 10.3942 30.7841C10.9289 30.0657 11.3393 29.27 11.5134 28.347C11.5673 28.0606 11.5797 27.7605 11.4761 27.3922C9.91757 29.0336 8.35904 30.6749 6.74248 32.38C7.00362 33.212 7.27305 34.0714 7.53833 34.9307C7.6088 35.1626 7.69998 35.3899 7.73314 35.6309C7.77873 35.9492 7.65024 36.1902 7.33937 36.1992C6.61399 36.2265 5.88861 36.2538 5.16738 36.2038C4.98086 36.1902 4.71972 35.9355 4.64511 35.7264C4.17672 34.3533 3.7332 32.9665 3.31869 31.5706C3.26481 31.3888 3.38087 31.1251 3.47621 30.925C3.53424 30.8023 3.69175 30.7386 3.79952 30.6431C4.72386 29.8201 5.01401 28.7653 4.57463 27.5331C4.27205 26.6829 3.87828 25.8736 3.46792 24.9051C3.22751 25.378 3.06586 25.7644 2.84617 26.0964C2.71353 26.2964 2.47726 26.5419 2.29487 26.5374C2.12493 26.5283 1.90525 26.2418 1.8182 26.0236C0.757076 23.4183 0.835832 20.8539 2.11664 18.3623C3.7332 15.2114 6.1912 13.32 9.41602 12.6379C11.3849 12.2196 13.3579 12.4015 15.3227 12.7062C17.6356 13.0699 19.9485 13.4382 22.2656 13.7837C23.6417 13.9883 25.0013 13.7746 26.3111 13.3427C29.2872 12.3606 32.2426 12.4015 35.2022 13.3745C35.7037 13.5382 36.0643 13.5337 36.4705 13.1017C37.3576 12.1651 38.5058 11.8786 39.6871 11.7695C39.9109 11.7513 40.1555 11.9423 40.4829 12.0787C40.2384 12.4788 40.0809 12.7607 39.9026 13.029C39.3886 13.8065 39.0612 14.6658 38.8208 15.5888C38.6633 16.189 38.8208 16.5527 39.198 16.9528C40.313 18.1259 41.544 19.1216 42.8787 19.9582C44.0145 20.6721 45.1875 21.3086 46.3481 21.977C46.9947 22.3498 47.0569 22.4862 46.7004 23.1728C45.6974 25.0915 44.4248 26.6829 42.286 27.0148C41.6021 27.1239 40.885 27.183 40.2093 27.0648C38.6177 26.7875 37.0426 26.3964 35.4633 26.0281C35.1773 25.9599 34.9535 25.9327 34.6923 26.1464C33.2623 27.3012 31.6582 28.0742 29.967 28.6244C29.4986 28.7789 29.1629 29.0063 29.1256 29.5928C29.1131 29.7701 29.0551 29.9566 28.9805 30.1157C28.508 31.1387 28.5536 32.139 28.9598 33.1848C29.2209 33.8577 29.366 34.5806 29.5525 35.2854C29.7515 36.0401 29.6396 36.1992 28.9059 36.2174C28.3753 36.2311 27.8448 36.1947 27.3142 36.2174C26.85 36.2356 26.6178 36.0174 26.4811 35.5309C25.9422 33.6349 25.3785 31.748 24.8189 29.8565C24.7111 29.5155 24.5909 29.1791 24.45 28.7608ZM25.2293 28.2379C25.9008 30.5067 26.5971 32.8574 27.2893 35.1853C27.7494 35.1853 28.1474 35.1853 28.6323 35.1853C28.3629 34.2214 28.1391 33.3393 27.8655 32.4754C27.6748 31.8707 27.6541 31.3069 27.8821 30.7022C28.1018 30.1111 28.28 29.4928 28.4002 28.8653C28.5038 28.3152 28.765 28.0469 29.2375 27.8878C30.6509 27.4104 32.0271 26.8284 33.3079 26.0054C34.3607 25.328 35.2478 24.4686 35.8944 23.3228C35.969 23.191 36.0229 23.0182 36.1307 22.9545C36.2757 22.8636 36.5161 22.7727 36.6239 22.8409C36.7483 22.9227 36.8768 23.2183 36.8312 23.3592C36.7275 23.7002 36.5327 24.0094 36.3545 24.3186C36.197 24.5914 36.0187 24.8414 35.8032 25.1734C37.6229 25.7008 39.3555 26.1236 41.1337 26.2055C41.9917 26.2464 42.8249 26.0282 43.5875 25.4689C43.4881 25.3189 43.4093 25.2279 43.3596 25.1279C43.2021 24.8096 43.0072 24.5004 42.916 24.1549C42.8041 23.7366 43.0445 23.3547 43.3844 23.341C43.7368 23.3274 43.886 23.5684 43.8487 23.9321C43.7989 24.3868 44.0932 24.5596 44.3461 24.7687C45.1626 24.0821 45.5316 23.5502 45.7347 22.7772C45.6932 22.7363 45.6559 22.6863 45.6103 22.659C45.316 22.4908 45.0176 22.3225 44.7191 22.1589C42.4725 20.9085 40.3627 19.4444 38.4975 17.5621C37.8633 16.9255 37.714 16.289 37.9793 15.4569C38.2405 14.6294 38.5057 13.8065 38.7752 12.9608C38.713 12.9562 38.6301 12.9335 38.5555 12.9517C38.4187 12.9835 38.2861 13.0244 38.1576 13.0835C37.1047 13.5518 36.3462 14.3703 35.8322 15.4751C35.7452 15.6661 35.6788 15.8707 35.5835 16.0571C35.4467 16.3299 35.2436 16.4572 34.9618 16.3026C34.7048 16.1617 34.7006 15.9298 34.7918 15.6797C34.9452 15.266 35.1068 14.8522 35.2768 14.4112C35.1276 14.343 35.0322 14.293 34.9286 14.2566C32.2468 13.3518 29.565 13.279 26.8624 14.1566C25.4116 14.6249 23.9194 14.9159 22.4024 14.7476C20.6863 14.5567 18.9744 14.2748 17.2708 13.9838C15.2315 13.6382 13.2004 13.2108 11.1279 13.3427C8.86887 13.4882 6.79637 14.243 5.08448 15.9071C3.41403 17.5303 2.18711 19.4672 1.96328 21.9952C1.87623 22.9591 1.98815 23.8866 2.36949 24.8869C2.83374 24.1776 3.06999 23.5593 2.99538 22.809C2.96637 22.5044 3.00368 22.1543 3.39331 22.1407C3.74564 22.1316 3.88242 22.3998 3.87827 22.7454C3.86998 23.6047 4.18915 24.3504 4.50418 25.1006C4.76117 25.7099 5.0596 26.301 5.30001 26.9193C5.92176 28.5198 5.65649 29.9702 4.52905 31.2024C4.43371 31.3069 4.28864 31.3615 4.16843 31.4388C4.60366 32.8028 4.99329 34.0304 5.37048 35.2126C5.85545 35.2126 6.23679 35.2126 6.69274 35.2126C6.43161 34.326 6.19948 33.5121 5.94663 32.7073C5.78498 32.1936 5.83472 31.8207 6.25751 31.4388C6.99118 30.7795 7.66268 30.0429 8.35075 29.3291C9.20048 28.447 10.0502 27.5604 10.8875 26.6602C11.816 25.6644 12.902 25.4234 14.1248 25.8054C14.5807 25.9463 15.0242 26.1236 15.4719 26.2964C16.5745 26.7238 17.6646 27.1921 18.7755 27.5786C20.1102 28.0424 21.4739 28.3243 22.8873 28.2652C23.8531 28.2242 24.5288 27.7423 24.8562 26.7284C24.9598 26.4101 25.0635 26.0964 25.1381 25.769C25.2168 25.428 25.3495 25.187 25.7101 25.287C26.0997 25.3962 26.0417 25.7553 25.9629 26.0327C25.7515 26.7329 25.5028 27.4149 25.2293 28.2379ZM14.531 35.249C13.9755 34.1714 13.5486 33.2484 13.0429 32.3845C12.732 31.8571 12.7901 31.4888 13.1092 30.9978C13.6398 30.1839 14.1123 29.32 14.5475 28.4379C14.7465 28.0333 14.7921 27.5422 14.9123 27.0648C14.0667 26.7511 13.3538 26.4101 12.5704 26.6329C12.5289 26.7147 12.475 26.7693 12.475 26.8193C12.4792 28.3834 12.1559 29.8383 11.273 31.1069C11.103 31.3524 11.1279 31.6025 11.2813 31.8662C11.8657 32.8665 12.4419 33.8713 13.0097 34.8852C13.159 35.1535 13.3455 35.2672 13.6232 35.2535C13.8719 35.2399 14.1206 35.249 14.531 35.249Z"/>
</mask>
<path d="M24.45 28.7608C23.1402 29.4791 21.8884 29.2518 20.649 29.0427C18.991 28.7608 17.4118 28.1788 15.762 27.4331C15.3517 29.0381 14.7051 30.4749 13.6937 31.7252C14.0874 32.4891 14.4854 33.1848 14.8128 33.9213C15.1154 34.6033 15.7372 35.1626 15.6004 36.1038C14.7051 36.2993 13.8429 36.1902 12.989 36.1629C12.8398 36.1583 12.6491 35.9583 12.5538 35.7946C11.7787 34.4851 11.0284 33.162 10.2575 31.8525C10.0088 31.4342 10.1414 31.1205 10.3942 30.7841C10.9289 30.0657 11.3393 29.27 11.5134 28.347C11.5673 28.0606 11.5797 27.7605 11.4761 27.3922C9.91757 29.0336 8.35904 30.6749 6.74248 32.38C7.00362 33.212 7.27305 34.0714 7.53833 34.9307C7.6088 35.1626 7.69998 35.3899 7.73314 35.6309C7.77873 35.9492 7.65024 36.1902 7.33937 36.1992C6.61399 36.2265 5.88861 36.2538 5.16738 36.2038C4.98086 36.1902 4.71972 35.9355 4.64511 35.7264C4.17672 34.3533 3.7332 32.9665 3.31869 31.5706C3.26481 31.3888 3.38087 31.1251 3.47621 30.925C3.53424 30.8023 3.69175 30.7386 3.79952 30.6431C4.72386 29.8201 5.01401 28.7653 4.57463 27.5331C4.27205 26.6829 3.87828 25.8736 3.46792 24.9051C3.22751 25.378 3.06586 25.7644 2.84617 26.0964C2.71353 26.2964 2.47726 26.5419 2.29487 26.5374C2.12493 26.5283 1.90525 26.2418 1.8182 26.0236C0.757076 23.4183 0.835832 20.8539 2.11664 18.3623C3.7332 15.2114 6.1912 13.32 9.41602 12.6379C11.3849 12.2196 13.3579 12.4015 15.3227 12.7062C17.6356 13.0699 19.9485 13.4382 22.2656 13.7837C23.6417 13.9883 25.0013 13.7746 26.3111 13.3427C29.2872 12.3606 32.2426 12.4015 35.2022 13.3745C35.7037 13.5382 36.0643 13.5337 36.4705 13.1017C37.3576 12.1651 38.5058 11.8786 39.6871 11.7695C39.9109 11.7513 40.1555 11.9423 40.4829 12.0787C40.2384 12.4788 40.0809 12.7607 39.9026 13.029C39.3886 13.8065 39.0612 14.6658 38.8208 15.5888C38.6633 16.189 38.8208 16.5527 39.198 16.9528C40.313 18.1259 41.544 19.1216 42.8787 19.9582C44.0145 20.6721 45.1875 21.3086 46.3481 21.977C46.9947 22.3498 47.0569 22.4862 46.7004 23.1728C45.6974 25.0915 44.4248 26.6829 42.286 27.0148C41.6021 27.1239 40.885 27.183 40.2093 27.0648C38.6177 26.7875 37.0426 26.3964 35.4633 26.0281C35.1773 25.9599 34.9535 25.9327 34.6923 26.1464C33.2623 27.3012 31.6582 28.0742 29.967 28.6244C29.4986 28.7789 29.1629 29.0063 29.1256 29.5928C29.1131 29.7701 29.0551 29.9566 28.9805 30.1157C28.508 31.1387 28.5536 32.139 28.9598 33.1848C29.2209 33.8577 29.366 34.5806 29.5525 35.2854C29.7515 36.0401 29.6396 36.1992 28.9059 36.2174C28.3753 36.2311 27.8448 36.1947 27.3142 36.2174C26.85 36.2356 26.6178 36.0174 26.4811 35.5309C25.9422 33.6349 25.3785 31.748 24.8189 29.8565C24.7111 29.5155 24.5909 29.1791 24.45 28.7608ZM25.2293 28.2379C25.9008 30.5067 26.5971 32.8574 27.2893 35.1853C27.7494 35.1853 28.1474 35.1853 28.6323 35.1853C28.3629 34.2214 28.1391 33.3393 27.8655 32.4754C27.6748 31.8707 27.6541 31.3069 27.8821 30.7022C28.1018 30.1111 28.28 29.4928 28.4002 28.8653C28.5038 28.3152 28.765 28.0469 29.2375 27.8878C30.6509 27.4104 32.0271 26.8284 33.3079 26.0054C34.3607 25.328 35.2478 24.4686 35.8944 23.3228C35.969 23.191 36.0229 23.0182 36.1307 22.9545C36.2757 22.8636 36.5161 22.7727 36.6239 22.8409C36.7483 22.9227 36.8768 23.2183 36.8312 23.3592C36.7275 23.7002 36.5327 24.0094 36.3545 24.3186C36.197 24.5914 36.0187 24.8414 35.8032 25.1734C37.6229 25.7008 39.3555 26.1236 41.1337 26.2055C41.9917 26.2464 42.8249 26.0282 43.5875 25.4689C43.4881 25.3189 43.4093 25.2279 43.3596 25.1279C43.2021 24.8096 43.0072 24.5004 42.916 24.1549C42.8041 23.7366 43.0445 23.3547 43.3844 23.341C43.7368 23.3274 43.886 23.5684 43.8487 23.9321C43.7989 24.3868 44.0932 24.5596 44.3461 24.7687C45.1626 24.0821 45.5316 23.5502 45.7347 22.7772C45.6932 22.7363 45.6559 22.6863 45.6103 22.659C45.316 22.4908 45.0176 22.3225 44.7191 22.1589C42.4725 20.9085 40.3627 19.4444 38.4975 17.5621C37.8633 16.9255 37.714 16.289 37.9793 15.4569C38.2405 14.6294 38.5057 13.8065 38.7752 12.9608C38.713 12.9562 38.6301 12.9335 38.5555 12.9517C38.4187 12.9835 38.2861 13.0244 38.1576 13.0835C37.1047 13.5518 36.3462 14.3703 35.8322 15.4751C35.7452 15.6661 35.6788 15.8707 35.5835 16.0571C35.4467 16.3299 35.2436 16.4572 34.9618 16.3026C34.7048 16.1617 34.7006 15.9298 34.7918 15.6797C34.9452 15.266 35.1068 14.8522 35.2768 14.4112C35.1276 14.343 35.0322 14.293 34.9286 14.2566C32.2468 13.3518 29.565 13.279 26.8624 14.1566C25.4116 14.6249 23.9194 14.9159 22.4024 14.7476C20.6863 14.5567 18.9744 14.2748 17.2708 13.9838C15.2315 13.6382 13.2004 13.2108 11.1279 13.3427C8.86887 13.4882 6.79637 14.243 5.08448 15.9071C3.41403 17.5303 2.18711 19.4672 1.96328 21.9952C1.87623 22.9591 1.98815 23.8866 2.36949 24.8869C2.83374 24.1776 3.06999 23.5593 2.99538 22.809C2.96637 22.5044 3.00368 22.1543 3.39331 22.1407C3.74564 22.1316 3.88242 22.3998 3.87827 22.7454C3.86998 23.6047 4.18915 24.3504 4.50418 25.1006C4.76117 25.7099 5.0596 26.301 5.30001 26.9193C5.92176 28.5198 5.65649 29.9702 4.52905 31.2024C4.43371 31.3069 4.28864 31.3615 4.16843 31.4388C4.60366 32.8028 4.99329 34.0304 5.37048 35.2126C5.85545 35.2126 6.23679 35.2126 6.69274 35.2126C6.43161 34.326 6.19948 33.5121 5.94663 32.7073C5.78498 32.1936 5.83472 31.8207 6.25751 31.4388C6.99118 30.7795 7.66268 30.0429 8.35075 29.3291C9.20048 28.447 10.0502 27.5604 10.8875 26.6602C11.816 25.6644 12.902 25.4234 14.1248 25.8054C14.5807 25.9463 15.0242 26.1236 15.4719 26.2964C16.5745 26.7238 17.6646 27.1921 18.7755 27.5786C20.1102 28.0424 21.4739 28.3243 22.8873 28.2652C23.8531 28.2242 24.5288 27.7423 24.8562 26.7284C24.9598 26.4101 25.0635 26.0964 25.1381 25.769C25.2168 25.428 25.3495 25.187 25.7101 25.287C26.0997 25.3962 26.0417 25.7553 25.9629 26.0327C25.7515 26.7329 25.5028 27.4149 25.2293 28.2379ZM14.531 35.249C13.9755 34.1714 13.5486 33.2484 13.0429 32.3845C12.732 31.8571 12.7901 31.4888 13.1092 30.9978C13.6398 30.1839 14.1123 29.32 14.5475 28.4379C14.7465 28.0333 14.7921 27.5422 14.9123 27.0648C14.0667 26.7511 13.3538 26.4101 12.5704 26.6329C12.5289 26.7147 12.475 26.7693 12.475 26.8193C12.4792 28.3834 12.1559 29.8383 11.273 31.1069C11.103 31.3524 11.1279 31.6025 11.2813 31.8662C11.8657 32.8665 12.4419 33.8713 13.0097 34.8852C13.159 35.1535 13.3455 35.2672 13.6232 35.2535C13.8719 35.2399 14.1206 35.249 14.531 35.249Z" fill="#FFEB61"/>
<path d="M24.45 28.7608C23.1402 29.4791 21.8884 29.2518 20.649 29.0427C18.991 28.7608 17.4118 28.1788 15.762 27.4331C15.3517 29.0381 14.7051 30.4749 13.6937 31.7252C14.0874 32.4891 14.4854 33.1848 14.8128 33.9213C15.1154 34.6033 15.7372 35.1626 15.6004 36.1038C14.7051 36.2993 13.8429 36.1902 12.989 36.1629C12.8398 36.1583 12.6491 35.9583 12.5538 35.7946C11.7787 34.4851 11.0284 33.162 10.2575 31.8525C10.0088 31.4342 10.1414 31.1205 10.3942 30.7841C10.9289 30.0657 11.3393 29.27 11.5134 28.347C11.5673 28.0606 11.5797 27.7605 11.4761 27.3922C9.91757 29.0336 8.35904 30.6749 6.74248 32.38C7.00362 33.212 7.27305 34.0714 7.53833 34.9307C7.6088 35.1626 7.69998 35.3899 7.73314 35.6309C7.77873 35.9492 7.65024 36.1902 7.33937 36.1992C6.61399 36.2265 5.88861 36.2538 5.16738 36.2038C4.98086 36.1902 4.71972 35.9355 4.64511 35.7264C4.17672 34.3533 3.7332 32.9665 3.31869 31.5706C3.26481 31.3888 3.38087 31.1251 3.47621 30.925C3.53424 30.8023 3.69175 30.7386 3.79952 30.6431C4.72386 29.8201 5.01401 28.7653 4.57463 27.5331C4.27205 26.6829 3.87828 25.8736 3.46792 24.9051C3.22751 25.378 3.06586 25.7644 2.84617 26.0964C2.71353 26.2964 2.47726 26.5419 2.29487 26.5374C2.12493 26.5283 1.90525 26.2418 1.8182 26.0236C0.757076 23.4183 0.835832 20.8539 2.11664 18.3623C3.7332 15.2114 6.1912 13.32 9.41602 12.6379C11.3849 12.2196 13.3579 12.4015 15.3227 12.7062C17.6356 13.0699 19.9485 13.4382 22.2656 13.7837C23.6417 13.9883 25.0013 13.7746 26.3111 13.3427C29.2872 12.3606 32.2426 12.4015 35.2022 13.3745C35.7037 13.5382 36.0643 13.5337 36.4705 13.1017C37.3576 12.1651 38.5058 11.8786 39.6871 11.7695C39.9109 11.7513 40.1555 11.9423 40.4829 12.0787C40.2384 12.4788 40.0809 12.7607 39.9026 13.029C39.3886 13.8065 39.0612 14.6658 38.8208 15.5888C38.6633 16.189 38.8208 16.5527 39.198 16.9528C40.313 18.1259 41.544 19.1216 42.8787 19.9582C44.0145 20.6721 45.1875 21.3086 46.3481 21.977C46.9947 22.3498 47.0569 22.4862 46.7004 23.1728C45.6974 25.0915 44.4248 26.6829 42.286 27.0148C41.6021 27.1239 40.885 27.183 40.2093 27.0648C38.6177 26.7875 37.0426 26.3964 35.4633 26.0281C35.1773 25.9599 34.9535 25.9327 34.6923 26.1464C33.2623 27.3012 31.6582 28.0742 29.967 28.6244C29.4986 28.7789 29.1629 29.0063 29.1256 29.5928C29.1131 29.7701 29.0551 29.9566 28.9805 30.1157C28.508 31.1387 28.5536 32.139 28.9598 33.1848C29.2209 33.8577 29.366 34.5806 29.5525 35.2854C29.7515 36.0401 29.6396 36.1992 28.9059 36.2174C28.3753 36.2311 27.8448 36.1947 27.3142 36.2174C26.85 36.2356 26.6178 36.0174 26.4811 35.5309C25.9422 33.6349 25.3785 31.748 24.8189 29.8565C24.7111 29.5155 24.5909 29.1791 24.45 28.7608ZM25.2293 28.2379C25.9008 30.5067 26.5971 32.8574 27.2893 35.1853C27.7494 35.1853 28.1474 35.1853 28.6323 35.1853C28.3629 34.2214 28.1391 33.3393 27.8655 32.4754C27.6748 31.8707 27.6541 31.3069 27.8821 30.7022C28.1018 30.1111 28.28 29.4928 28.4002 28.8653C28.5038 28.3152 28.765 28.0469 29.2375 27.8878C30.6509 27.4104 32.0271 26.8284 33.3079 26.0054C34.3607 25.328 35.2478 24.4686 35.8944 23.3228C35.969 23.191 36.0229 23.0182 36.1307 22.9545C36.2757 22.8636 36.5161 22.7727 36.6239 22.8409C36.7483 22.9227 36.8768 23.2183 36.8312 23.3592C36.7275 23.7002 36.5327 24.0094 36.3545 24.3186C36.197 24.5914 36.0187 24.8414 35.8032 25.1734C37.6229 25.7008 39.3555 26.1236 41.1337 26.2055C41.9917 26.2464 42.8249 26.0282 43.5875 25.4689C43.4881 25.3189 43.4093 25.2279 43.3596 25.1279C43.2021 24.8096 43.0072 24.5004 42.916 24.1549C42.8041 23.7366 43.0445 23.3547 43.3844 23.341C43.7368 23.3274 43.886 23.5684 43.8487 23.9321C43.7989 24.3868 44.0932 24.5596 44.3461 24.7687C45.1626 24.0821 45.5316 23.5502 45.7347 22.7772C45.6932 22.7363 45.6559 22.6863 45.6103 22.659C45.316 22.4908 45.0176 22.3225 44.7191 22.1589C42.4725 20.9085 40.3627 19.4444 38.4975 17.5621C37.8633 16.9255 37.714 16.289 37.9793 15.4569C38.2405 14.6294 38.5057 13.8065 38.7752 12.9608C38.713 12.9562 38.6301 12.9335 38.5555 12.9517C38.4187 12.9835 38.2861 13.0244 38.1576 13.0835C37.1047 13.5518 36.3462 14.3703 35.8322 15.4751C35.7452 15.6661 35.6788 15.8707 35.5835 16.0571C35.4467 16.3299 35.2436 16.4572 34.9618 16.3026C34.7048 16.1617 34.7006 15.9298 34.7918 15.6797C34.9452 15.266 35.1068 14.8522 35.2768 14.4112C35.1276 14.343 35.0322 14.293 34.9286 14.2566C32.2468 13.3518 29.565 13.279 26.8624 14.1566C25.4116 14.6249 23.9194 14.9159 22.4024 14.7476C20.6863 14.5567 18.9744 14.2748 17.2708 13.9838C15.2315 13.6382 13.2004 13.2108 11.1279 13.3427C8.86887 13.4882 6.79637 14.243 5.08448 15.9071C3.41403 17.5303 2.18711 19.4672 1.96328 21.9952C1.87623 22.9591 1.98815 23.8866 2.36949 24.8869C2.83374 24.1776 3.06999 23.5593 2.99538 22.809C2.96637 22.5044 3.00368 22.1543 3.39331 22.1407C3.74564 22.1316 3.88242 22.3998 3.87827 22.7454C3.86998 23.6047 4.18915 24.3504 4.50418 25.1006C4.76117 25.7099 5.0596 26.301 5.30001 26.9193C5.92176 28.5198 5.65649 29.9702 4.52905 31.2024C4.43371 31.3069 4.28864 31.3615 4.16843 31.4388C4.60366 32.8028 4.99329 34.0304 5.37048 35.2126C5.85545 35.2126 6.23679 35.2126 6.69274 35.2126C6.43161 34.326 6.19948 33.5121 5.94663 32.7073C5.78498 32.1936 5.83472 31.8207 6.25751 31.4388C6.99118 30.7795 7.66268 30.0429 8.35075 29.3291C9.20048 28.447 10.0502 27.5604 10.8875 26.6602C11.816 25.6644 12.902 25.4234 14.1248 25.8054C14.5807 25.9463 15.0242 26.1236 15.4719 26.2964C16.5745 26.7238 17.6646 27.1921 18.7755 27.5786C20.1102 28.0424 21.4739 28.3243 22.8873 28.2652C23.8531 28.2242 24.5288 27.7423 24.8562 26.7284C24.9598 26.4101 25.0635 26.0964 25.1381 25.769C25.2168 25.428 25.3495 25.187 25.7101 25.287C26.0997 25.3962 26.0417 25.7553 25.9629 26.0327C25.7515 26.7329 25.5028 27.4149 25.2293 28.2379ZM14.531 35.249C13.9755 34.1714 13.5486 33.2484 13.0429 32.3845C12.732 31.8571 12.7901 31.4888 13.1092 30.9978C13.6398 30.1839 14.1123 29.32 14.5475 28.4379C14.7465 28.0333 14.7921 27.5422 14.9123 27.0648C14.0667 26.7511 13.3538 26.4101 12.5704 26.6329C12.5289 26.7147 12.475 26.7693 12.475 26.8193C12.4792 28.3834 12.1559 29.8383 11.273 31.1069C11.103 31.3524 11.1279 31.6025 11.2813 31.8662C11.8657 32.8665 12.4419 33.8713 13.0097 34.8852C13.159 35.1535 13.3455 35.2672 13.6232 35.2535C13.8719 35.2399 14.1206 35.249 14.531 35.249Z" stroke="#FFEB61" stroke-width="0.4" mask="url(#path-1-outside-1_784_3315)"/>
</svg>
