<svg width="48" height="48" viewBox="0 0 48 48" fill="none" xmlns="http://www.w3.org/2000/svg">
<path d="M19.1982 38.5795C18.9519 38.3197 18.7562 38.0194 18.6516 37.682C18.5403 37.3244 18.5234 36.9195 18.5369 36.5416C18.5538 35.9579 18.3851 35.5091 17.9194 35.1245C17.5807 34.8443 17.2982 34.4882 17.0206 34.1383C16.994 34.1048 16.9675 34.0714 16.941 34.038C16.2763 33.2046 15.8208 32.2532 15.4732 31.2511C15.3686 30.9474 15.264 30.691 14.8591 30.6808C12.8887 30.6302 11.4176 28.6497 11.6572 26.7096C11.6731 26.5749 11.669 26.4388 11.6647 26.2948C11.6627 26.2259 11.6605 26.1552 11.6605 26.082C11.3704 25.9571 11.0937 25.8391 10.8103 25.721C10.719 25.8748 10.6439 26.0045 10.5584 26.152C10.5332 26.1954 10.5072 26.2403 10.4796 26.2878C10.3731 26.1987 10.2708 26.1166 10.1727 26.0378C9.96592 25.8719 9.77729 25.7204 9.60572 25.5489C8.95452 24.9078 8.8533 24.2769 9.2312 23.4468C9.3106 23.2722 9.38792 23.097 9.4652 22.9218C9.58497 22.6505 9.70464 22.3793 9.83178 22.1107C9.89701 21.9733 9.97672 21.8422 10.0653 21.6966C10.1051 21.6312 10.1466 21.563 10.1894 21.4899C10.6888 21.8779 11.1274 22.2187 11.5897 22.5763C11.6913 22.4329 11.7843 22.3014 11.8742 22.1741C11.9874 22.014 12.0958 21.8607 12.2105 21.6991C12.0847 21.5897 11.9654 21.4814 11.8488 21.3757C11.6057 21.1552 11.3749 20.9458 11.1241 20.7611C10.5471 20.3326 9.80479 20.282 9.26494 20.7442C8.82631 21.1154 8.37418 21.1052 7.89844 21.0546C6.88959 20.9466 5.94823 20.6059 5.08446 20.066C4.19708 19.516 3.58975 18.7366 3.26247 17.748C3.15112 17.4072 3.05327 17.0597 3.26584 16.7054C3.81581 15.7742 4.53449 15.0285 5.53996 14.5798C6.01233 14.3672 6.46446 14.3571 6.96045 14.5224C8.19536 14.9374 9.3088 15.565 10.3413 16.3444C10.5589 16.5086 10.7755 16.6728 10.9977 16.8413C11.1682 16.9705 11.342 17.1023 11.5222 17.2385L11.5634 17.1696C11.7723 16.8204 11.9574 16.511 12.1633 16.169C12.0222 16.0646 11.8819 15.961 11.7391 15.8556C11.4618 15.6508 11.1748 15.4389 10.8541 15.2006C11.286 14.4482 11.7044 13.7194 12.1464 12.9535C12.0422 12.8747 11.9372 12.7956 11.8306 12.7153C11.6265 12.5615 11.4165 12.4032 11.1949 12.2348C10.8912 12.7738 10.6105 13.2748 10.3357 13.7653C10.177 14.0487 10.0203 14.3285 9.86215 14.6101C9.75228 14.5468 9.664 14.4969 9.58028 14.4495C9.5123 14.411 9.44734 14.3743 9.37628 14.3335C9.5161 13.9983 9.65336 13.6654 9.78987 13.3343C10.0684 12.6587 10.3439 11.9906 10.6314 11.3272C10.9823 10.5174 11.3839 10.4128 12.1262 10.8953C12.2746 10.9931 12.4129 11.1146 12.5412 11.2394C12.8978 11.5903 13.2522 11.9433 13.6062 12.296C13.872 12.5607 14.1375 12.8252 14.4036 13.0884C14.5281 13.2129 14.6568 13.3317 14.7952 13.4595C14.8707 13.5291 14.9491 13.6015 15.0312 13.6789C16.6002 11.9919 18.4188 10.8278 20.5242 10.1193C20.4988 10.0315 20.4781 9.95577 20.4596 9.88766C20.4289 9.77503 20.4039 9.68331 20.3724 9.5929C20.3325 9.48025 20.2861 9.37086 20.2376 9.2568C20.2165 9.20687 20.1949 9.15605 20.1733 9.10366C18.159 9.60302 16.5631 10.7468 15.0346 12.0222C14.6263 11.6376 14.2754 11.3069 13.8469 10.902C14.3675 10.4892 14.8657 10.0952 15.3602 9.70402C15.7023 9.43345 16.0427 9.16425 16.3876 8.89109C16.3286 8.80313 16.2706 8.71675 16.2115 8.62875C16.0778 8.42983 15.9386 8.22261 15.7701 7.96997C15.2957 8.32214 14.8346 8.66329 14.3797 8.99987C13.8932 9.35983 13.4138 9.71457 12.9326 10.072C12.9133 10.0624 12.8923 10.0538 12.8709 10.045C12.825 10.0261 12.7771 10.0064 12.7402 9.97417C11.5728 8.99906 9.88914 9.52879 9.49438 11.0134C9.31931 11.674 9.0183 12.3006 8.71533 12.9313C8.58035 13.2123 8.44499 13.4941 8.3202 13.7801C8.17751 13.7313 8.04539 13.6874 7.9202 13.6458C7.69903 13.5722 7.49944 13.5058 7.30123 13.4326C6.70064 13.2099 6.10006 13.1694 5.48935 13.382C4.11948 13.8645 3.09714 14.7687 2.35484 16.0003C1.99044 16.6042 1.88922 17.2622 2.16589 17.9269C2.17609 17.9512 2.1863 17.9755 2.19651 17.9999C2.43278 18.5636 2.6729 19.1365 3.00604 19.6443C3.21581 19.9695 3.49308 20.252 3.77576 20.5399C3.89774 20.6642 4.02072 20.7895 4.13972 20.9197C4.13415 21.0055 4.12637 21.0935 4.11845 21.1831C4.10238 21.3648 4.08574 21.5531 4.08574 21.7429C4.08911 22.3435 4.14985 22.9542 4.5851 23.403C5.17556 24.0137 5.81326 24.5771 6.44759 25.1372C6.53797 25.216 6.66656 25.2534 6.79946 25.2921C6.86004 25.3097 6.92153 25.3276 6.98069 25.3498C7.00317 25.2568 7.02459 25.1684 7.04513 25.0836C7.11402 24.7992 7.1732 24.5549 7.23037 24.3106C7.07352 24.1663 6.91889 24.0226 6.76529 23.8799C6.38362 23.5251 6.00828 23.1763 5.62094 22.8395C5.19918 22.4717 5.13508 22.0466 5.28016 21.6012C6.03642 21.7664 6.76722 21.9281 7.50988 22.0925C7.81425 22.1598 8.12062 22.2276 8.43154 22.2963C8.4014 22.3732 8.36935 22.4555 8.33586 22.5415C8.26063 22.7348 8.17819 22.9465 8.09414 23.1567C7.65888 24.2532 7.91194 25.4713 8.7757 26.2709C9.0477 26.5238 9.33844 26.7566 9.62938 26.9896C9.80038 27.1265 9.97145 27.2635 10.1388 27.4046C10.1609 27.4228 10.1839 27.4411 10.2073 27.4596C10.3268 27.5544 10.4541 27.6555 10.4965 27.7825C10.6419 28.1879 10.7655 28.6017 10.8933 29.0299C10.9464 29.2076 11.0002 29.3877 11.0566 29.5708C9.97349 30.0263 8.87017 30.1646 7.73311 29.9824C7.53741 29.952 7.32822 29.8542 7.18314 29.726C6.39023 29.0242 5.60745 28.3156 4.85503 27.5733C4.69982 27.4215 4.60197 27.1077 4.63571 26.8985C4.68632 26.5948 4.97987 26.4768 5.29366 26.4801C5.47614 26.4824 5.66015 26.4816 5.83425 26.4808C5.91768 26.4805 5.99883 26.4801 6.07644 26.4801V25.3194C5.94821 25.3194 5.82627 25.3163 5.70895 25.3133C5.462 25.3069 5.23548 25.301 5.01361 25.3262C4.31855 25.4038 3.79557 25.7513 3.57625 26.4396C3.35357 27.1448 3.42105 27.8264 3.98789 28.3662C4.73356 29.0748 5.49948 29.7665 6.26202 30.4548C6.67365 30.8259 7.15952 31.0452 7.70949 31.1296C7.90361 31.1598 8.09497 31.1983 8.29679 31.2388C8.41069 31.2617 8.52792 31.2853 8.65086 31.3084C8.63061 32.0743 9.01863 32.6176 9.58548 33.0731C9.80479 33.2485 10.014 33.4476 10.1962 33.6635C10.6483 34.1966 11.2286 34.4024 11.9068 34.4024C12.1945 34.4024 12.4821 34.4093 12.7695 34.4162C13.3586 34.4303 13.9468 34.4444 14.5319 34.3991C15.3754 34.335 16.0367 34.507 16.4821 35.2831C16.6069 35.499 16.8127 35.6812 17.0118 35.8398C17.3492 36.1097 17.4403 36.4438 17.4167 36.8588C17.3796 37.5268 17.5179 38.1477 17.8519 38.7044C18.0797 38.7061 18.3066 38.7086 18.5335 38.7111C18.7604 38.7137 18.9873 38.7162 19.2151 38.7179C19.2151 38.7111 19.2142 38.7044 19.2134 38.6976C19.2125 38.6909 19.2117 38.6841 19.2117 38.6774C19.205 38.647 19.2016 38.6133 19.1982 38.5795ZM14.1034 33.2991C13.9596 33.2991 13.8145 33.2929 13.6692 33.2867C13.3474 33.273 13.0247 33.2592 12.7132 33.3126C11.5175 33.518 10.8568 32.7856 10.1967 32.0538C10.1192 31.9679 10.0417 31.882 9.96337 31.7977C9.88457 31.7121 9.86286 31.5739 9.83808 31.4163C9.82573 31.3377 9.81262 31.2543 9.79129 31.1701C10.537 30.9373 11.1713 30.7416 11.8529 30.5324C12.5378 31.0824 13.2835 31.5783 14.1911 31.7572C14.2991 31.7774 14.4171 31.8921 14.4711 31.9934C14.5998 32.2462 14.7182 32.5049 14.8543 32.8021C14.9252 32.9569 15.0008 33.1222 15.0852 33.3025C14.6904 33.2991 14.3969 33.2991 14.1034 33.2991Z" fill="#FFEB61"/>
<path d="M19.1982 38.5795C18.9519 38.3197 18.7562 38.0194 18.6516 37.682C18.5403 37.3244 18.5234 36.9195 18.5369 36.5416C18.5538 35.9579 18.3851 35.5091 17.9194 35.1245C17.5807 34.8443 17.2982 34.4882 17.0206 34.1383C16.994 34.1048 16.9675 34.0714 16.941 34.038C16.2763 33.2046 15.8208 32.2532 15.4732 31.2511C15.3686 30.9474 15.264 30.691 14.8591 30.6808C12.8887 30.6302 11.4176 28.6497 11.6572 26.7096C11.6731 26.5749 11.669 26.4388 11.6647 26.2948C11.6627 26.2259 11.6605 26.1552 11.6605 26.082C11.3704 25.9571 11.0937 25.8391 10.8103 25.721C10.719 25.8748 10.6439 26.0045 10.5584 26.152C10.5332 26.1954 10.5072 26.2403 10.4796 26.2878C10.3731 26.1987 10.2708 26.1166 10.1727 26.0378C9.96592 25.8719 9.77729 25.7204 9.60572 25.5489C8.95452 24.9078 8.8533 24.2769 9.2312 23.4468C9.3106 23.2722 9.38792 23.097 9.4652 22.9218C9.58497 22.6505 9.70464 22.3793 9.83178 22.1107C9.89701 21.9733 9.97672 21.8422 10.0653 21.6966C10.1051 21.6312 10.1466 21.563 10.1894 21.4899C10.6888 21.8779 11.1274 22.2187 11.5897 22.5763C11.6913 22.4329 11.7843 22.3014 11.8742 22.1741C11.9874 22.014 12.0958 21.8607 12.2105 21.6991C12.0847 21.5897 11.9654 21.4814 11.8488 21.3757C11.6057 21.1552 11.3749 20.9458 11.1241 20.7611C10.5471 20.3326 9.80479 20.282 9.26494 20.7442C8.82631 21.1154 8.37418 21.1052 7.89844 21.0546C6.88959 20.9466 5.94823 20.6059 5.08446 20.066C4.19708 19.516 3.58975 18.7366 3.26247 17.748C3.15112 17.4072 3.05327 17.0597 3.26584 16.7054C3.81581 15.7742 4.53449 15.0285 5.53996 14.5798C6.01233 14.3672 6.46446 14.3571 6.96045 14.5224C8.19536 14.9374 9.3088 15.565 10.3413 16.3444C10.5589 16.5086 10.7755 16.6728 10.9977 16.8413C11.1682 16.9705 11.342 17.1023 11.5222 17.2385L11.5634 17.1696C11.7723 16.8204 11.9574 16.511 12.1633 16.169C12.0222 16.0646 11.8819 15.961 11.7391 15.8556C11.4618 15.6508 11.1748 15.4389 10.8541 15.2006C11.286 14.4482 11.7044 13.7194 12.1464 12.9535C12.0422 12.8747 11.9372 12.7956 11.8306 12.7153C11.6265 12.5615 11.4165 12.4032 11.1949 12.2348C10.8912 12.7738 10.6105 13.2748 10.3357 13.7653C10.177 14.0487 10.0203 14.3285 9.86215 14.6101C9.75228 14.5468 9.664 14.4969 9.58028 14.4495C9.5123 14.411 9.44734 14.3743 9.37628 14.3335C9.5161 13.9983 9.65336 13.6654 9.78987 13.3343C10.0684 12.6587 10.3439 11.9906 10.6314 11.3272C10.9823 10.5174 11.3839 10.4128 12.1262 10.8953C12.2746 10.9931 12.4129 11.1146 12.5412 11.2394C12.8978 11.5903 13.2522 11.9433 13.6062 12.296C13.872 12.5607 14.1375 12.8252 14.4036 13.0884C14.5281 13.2129 14.6568 13.3317 14.7952 13.4595C14.8707 13.5291 14.9491 13.6015 15.0312 13.6789C16.6002 11.9919 18.4188 10.8278 20.5242 10.1193C20.4988 10.0315 20.4781 9.95577 20.4596 9.88766C20.4289 9.77503 20.4039 9.68331 20.3724 9.5929C20.3325 9.48025 20.2861 9.37086 20.2376 9.2568C20.2165 9.20687 20.1949 9.15605 20.1733 9.10366C18.159 9.60302 16.5631 10.7468 15.0346 12.0222C14.6263 11.6376 14.2754 11.3069 13.8469 10.902C14.3675 10.4892 14.8657 10.0952 15.3602 9.70402C15.7023 9.43345 16.0427 9.16425 16.3876 8.89109C16.3286 8.80313 16.2706 8.71675 16.2115 8.62875C16.0778 8.42983 15.9386 8.22261 15.7701 7.96997C15.2957 8.32214 14.8346 8.66329 14.3797 8.99987C13.8932 9.35983 13.4138 9.71457 12.9326 10.072C12.9133 10.0624 12.8923 10.0538 12.8709 10.045C12.825 10.0261 12.7771 10.0064 12.7402 9.97417C11.5728 8.99906 9.88914 9.52879 9.49438 11.0134C9.31931 11.674 9.0183 12.3006 8.71533 12.9313C8.58035 13.2123 8.44499 13.4941 8.3202 13.7801C8.17751 13.7313 8.04539 13.6874 7.9202 13.6458C7.69903 13.5722 7.49944 13.5058 7.30123 13.4326C6.70064 13.2099 6.10006 13.1694 5.48935 13.382C4.11948 13.8645 3.09714 14.7687 2.35484 16.0003C1.99044 16.6042 1.88922 17.2622 2.16589 17.9269C2.17609 17.9512 2.1863 17.9755 2.19651 17.9999C2.43278 18.5636 2.6729 19.1365 3.00604 19.6443C3.21581 19.9695 3.49308 20.252 3.77576 20.5399C3.89774 20.6642 4.02072 20.7895 4.13972 20.9197C4.13415 21.0055 4.12637 21.0935 4.11845 21.1831C4.10238 21.3648 4.08574 21.5531 4.08574 21.7429C4.08911 22.3435 4.14985 22.9542 4.5851 23.403C5.17556 24.0137 5.81326 24.5771 6.44759 25.1372C6.53797 25.216 6.66656 25.2534 6.79946 25.2921C6.86004 25.3097 6.92153 25.3276 6.98069 25.3498C7.00317 25.2568 7.02459 25.1684 7.04513 25.0836C7.11402 24.7992 7.1732 24.5549 7.23037 24.3106C7.07352 24.1663 6.91889 24.0226 6.76529 23.8799C6.38362 23.5251 6.00828 23.1763 5.62094 22.8395C5.19918 22.4717 5.13508 22.0466 5.28016 21.6012C6.03642 21.7664 6.76722 21.9281 7.50988 22.0925C7.81425 22.1598 8.12062 22.2276 8.43154 22.2963C8.4014 22.3732 8.36935 22.4555 8.33586 22.5415C8.26063 22.7348 8.17819 22.9465 8.09414 23.1567C7.65888 24.2532 7.91194 25.4713 8.7757 26.2709C9.0477 26.5238 9.33844 26.7566 9.62938 26.9896C9.80038 27.1265 9.97145 27.2635 10.1388 27.4046C10.1609 27.4228 10.1839 27.4411 10.2073 27.4596C10.3268 27.5544 10.4541 27.6555 10.4965 27.7825C10.6419 28.1879 10.7655 28.6017 10.8933 29.0299C10.9464 29.2076 11.0002 29.3877 11.0566 29.5708C9.97349 30.0263 8.87017 30.1646 7.73311 29.9824C7.53741 29.952 7.32822 29.8542 7.18314 29.726C6.39023 29.0242 5.60745 28.3156 4.85503 27.5733C4.69982 27.4215 4.60197 27.1077 4.63571 26.8985C4.68632 26.5948 4.97987 26.4768 5.29366 26.4801C5.47614 26.4824 5.66015 26.4816 5.83425 26.4808C5.91768 26.4805 5.99883 26.4801 6.07644 26.4801V25.3194C5.94821 25.3194 5.82627 25.3163 5.70895 25.3133C5.462 25.3069 5.23548 25.301 5.01361 25.3262C4.31855 25.4038 3.79557 25.7513 3.57625 26.4396C3.35357 27.1448 3.42105 27.8264 3.98789 28.3662C4.73356 29.0748 5.49948 29.7665 6.26202 30.4548C6.67365 30.8259 7.15952 31.0452 7.70949 31.1296C7.90361 31.1598 8.09497 31.1983 8.29679 31.2388C8.41069 31.2617 8.52792 31.2853 8.65086 31.3084C8.63061 32.0743 9.01863 32.6176 9.58548 33.0731C9.80479 33.2485 10.014 33.4476 10.1962 33.6635C10.6483 34.1966 11.2286 34.4024 11.9068 34.4024C12.1945 34.4024 12.4821 34.4093 12.7695 34.4162C13.3586 34.4303 13.9468 34.4444 14.5319 34.3991C15.3754 34.335 16.0367 34.507 16.4821 35.2831C16.6069 35.499 16.8127 35.6812 17.0118 35.8398C17.3492 36.1097 17.4403 36.4438 17.4167 36.8588C17.3796 37.5268 17.5179 38.1477 17.8519 38.7044C18.0797 38.7061 18.3066 38.7086 18.5335 38.7111C18.7604 38.7137 18.9873 38.7162 19.2151 38.7179C19.2151 38.7111 19.2142 38.7044 19.2134 38.6976C19.2125 38.6909 19.2117 38.6841 19.2117 38.6774C19.205 38.647 19.2016 38.6133 19.1982 38.5795ZM14.1034 33.2991C13.9596 33.2991 13.8145 33.2929 13.6692 33.2867C13.3474 33.273 13.0247 33.2592 12.7132 33.3126C11.5175 33.518 10.8568 32.7856 10.1967 32.0538C10.1192 31.9679 10.0417 31.882 9.96337 31.7977C9.88457 31.7121 9.86286 31.5739 9.83808 31.4163C9.82573 31.3377 9.81262 31.2543 9.79129 31.1701C10.537 30.9373 11.1713 30.7416 11.8529 30.5324C12.5378 31.0824 13.2835 31.5783 14.1911 31.7572C14.2991 31.7774 14.4171 31.8921 14.4711 31.9934C14.5998 32.2462 14.7182 32.5049 14.8543 32.8021C14.9252 32.9569 15.0008 33.1222 15.0852 33.3025C14.6904 33.2991 14.3969 33.2991 14.1034 33.2991Z" stroke="#FFEB61"/>
<path d="M45.7927 16.2771C45.0639 14.8229 43.9168 13.8613 42.3782 13.345C41.8046 13.1527 41.2614 13.2506 40.7181 13.4361C40.3875 13.5509 40.0568 13.6656 39.6924 13.7938C39.2408 12.7254 38.8094 11.7109 38.378 10.6965L38.3765 10.693C37.8839 9.53909 36.73 9.1477 35.6469 9.76853C35.5305 9.83476 35.4165 9.90458 35.3105 9.96946C35.2384 10.0136 35.1699 10.0555 35.1071 10.0924C34.1657 9.38051 33.2682 8.70232 32.3167 7.98364C32.0535 8.36491 31.8578 8.64833 31.6453 8.95537C31.8858 9.13764 32.1292 9.30951 32.3703 9.4798C33.0085 9.93055 33.6312 10.3703 34.1454 10.9629C33.7574 11.3273 33.4065 11.658 33.0185 12.0258C31.4462 10.7166 29.83 9.57283 27.782 9.09371C27.7329 9.3022 27.6902 9.48613 27.6492 9.66297C27.6112 9.82669 27.5746 9.98435 27.5356 10.1498C29.7187 10.8145 31.4631 12.0933 33.1265 13.7769C33.1945 13.6843 33.2544 13.5973 33.3107 13.5157C33.4245 13.3503 33.523 13.2072 33.6427 13.0852C34.2905 12.4239 34.9417 11.7626 35.6267 11.1384C35.8629 10.9225 36.18 10.7639 36.4871 10.6627C36.7975 10.5581 37.1011 10.639 37.253 10.9933C37.5019 11.5851 37.7499 12.1778 38.0001 12.7756C38.2177 13.2958 38.437 13.8199 38.66 14.3505C38.5849 14.3852 38.5191 14.4154 38.456 14.4443C38.3659 14.4855 38.2815 14.5242 38.1842 14.5698C37.8709 14.033 37.5686 13.5119 37.2579 12.9765C37.1136 12.7278 36.9675 12.476 36.8177 12.2181C36.4904 12.4712 36.1901 12.704 35.8865 12.9402C36.3251 13.6926 36.7469 14.418 37.1855 15.1772C36.7798 15.4886 36.4176 15.7637 36.0601 16.0353C35.9954 16.0845 35.9308 16.1335 35.8662 16.1826C36.0077 16.4261 36.1351 16.6439 36.2618 16.8605C36.3406 16.9952 36.4191 17.1294 36.5006 17.2691C36.5941 17.1948 36.6772 17.1284 36.7545 17.0667C36.8527 16.9882 36.9415 16.9172 37.0303 16.8473C38.2618 15.8621 39.5676 15.0085 41.0825 14.5091C41.5515 14.3539 41.9834 14.3674 42.4288 14.5665C43.2217 14.9241 43.8526 15.4606 44.3959 16.1388C44.9189 16.79 44.9256 17.4277 44.5848 18.1497C43.7751 19.8739 41.366 21.2539 39.4326 21.0548C39.247 21.0345 39.0581 20.9232 38.9029 20.8085C38.2247 20.3226 37.5803 20.2956 36.9122 20.7882C36.6684 20.9694 36.4408 21.1729 36.206 21.3828C36.0867 21.4896 35.9654 21.598 35.8392 21.706C35.9616 21.878 36.0741 22.0381 36.1874 22.1992C36.2741 22.3225 36.3612 22.4463 36.4533 22.5765C36.7076 22.3793 36.9467 22.1946 37.1922 22.005C37.4256 21.8247 37.6647 21.64 37.9278 21.4361C38.2989 22.3268 38.6296 23.1231 38.9569 23.9228C38.9744 23.9666 38.9734 24.0175 38.9724 24.0691C38.9719 24.097 38.9714 24.125 38.9737 24.1522C39.0581 25.1273 38.4305 25.6503 37.7253 26.1193C37.685 26.1454 37.6314 26.1514 37.5784 26.1574C37.5561 26.16 37.5338 26.1625 37.5128 26.1665C37.4738 26.1055 37.4364 26.047 37.3984 25.9876C37.3375 25.8924 37.275 25.7948 37.2024 25.6806C37.0456 25.7574 36.8962 25.8316 36.7519 25.9034C36.6042 25.9768 36.4616 26.0476 36.3217 26.1159C36.3217 26.2759 36.3239 26.4295 36.3259 26.5787C36.3307 26.9265 36.3352 27.25 36.3116 27.5735C36.2914 27.8772 36.234 28.1943 36.1125 28.4676C35.5626 29.7059 34.6482 30.5089 33.2648 30.6608C32.9072 30.7013 32.6946 30.8261 32.59 31.1669C32.553 31.2862 32.5021 31.4018 32.4512 31.5175C32.4187 31.5915 32.3861 31.6655 32.3572 31.7405C31.8308 33.0766 31.0919 34.271 29.9987 35.2158C29.6343 35.5296 29.4622 35.8872 29.4757 36.3562C29.4825 36.589 29.4859 36.8218 29.4791 37.0513C29.4589 37.6856 29.1181 38.2997 28.6356 38.7518L28.5951 38.9441C28.6221 38.9458 28.6499 38.9467 28.6778 38.9475C28.7056 38.9483 28.7334 38.9492 28.7604 38.9509C29.0656 38.9636 29.3689 38.9821 29.6717 39.0005C29.7706 39.0065 29.8695 39.0125 29.9683 39.0184L30.0088 38.9374C30.0588 38.8247 30.1144 38.7104 30.1706 38.595C30.3682 38.1887 30.572 37.7697 30.5588 37.3651C30.5318 36.4709 30.8456 35.8467 31.5036 35.317C31.6753 35.1802 31.8119 35.0006 31.948 34.8217C31.9697 34.7933 31.9913 34.7649 32.013 34.7367C32.202 34.4903 32.4348 34.3992 32.7452 34.406C33.0588 34.4124 33.3734 34.4071 33.688 34.4018C34.1994 34.3931 34.7108 34.3845 35.2184 34.4262C36.5242 34.5308 37.5499 34.1259 38.4238 33.1238C38.4458 33.0984 38.4679 33.073 38.4899 33.0477C38.9485 32.5202 39.3788 32.0254 39.382 31.2816C39.5006 31.2611 39.6161 31.2455 39.7284 31.2302C39.9678 31.1978 40.1931 31.1672 40.4043 31.096C40.4522 31.0798 40.5006 31.0637 40.5493 31.0476C40.916 30.9258 41.2989 30.7986 41.5819 30.5663C42.4355 29.8611 43.2588 29.1154 44.0349 28.3293C44.5916 27.7658 44.6388 27.0505 44.3419 26.315C44.0551 25.5997 43.4815 25.3264 42.7662 25.2825C42.5785 25.2709 42.3893 25.2737 42.1919 25.2765C42.1018 25.2778 42.01 25.2791 41.9159 25.2791V26.4364C41.9874 26.4404 42.0551 26.4448 42.1203 26.4491C42.2797 26.4597 42.4234 26.4692 42.5671 26.4668C42.8944 26.4634 43.1947 26.5208 43.3533 26.8413C43.5287 27.1956 43.2993 27.425 43.0699 27.641C42.3377 28.3293 41.6055 29.0142 40.8632 29.689C40.7384 29.8038 40.5562 29.8814 40.3875 29.9219C39.1964 30.2053 38.0594 30.0062 36.9561 29.5507C37.0087 29.3783 37.0582 29.2103 37.1066 29.046C37.226 28.6412 37.3389 28.2583 37.4757 27.8839C37.5364 27.7118 37.6983 27.56 37.8434 27.4352C38.0345 27.2711 38.2323 27.1145 38.4303 26.9578C38.6762 26.7631 38.9223 26.5682 39.1559 26.3588C40.1344 25.4816 40.3942 24.2602 39.8915 23.0624C39.8178 22.8889 39.7525 22.7104 39.6897 22.5387C39.6633 22.4666 39.6374 22.3957 39.6114 22.3268C40.1102 22.209 40.5909 22.0947 41.0636 21.9822C41.6335 21.8467 42.1918 21.7139 42.7561 21.5811C42.9012 22.1008 42.7797 22.5461 42.3343 22.9308C41.9627 23.2476 41.6079 23.5847 41.2568 23.9181C41.1106 24.0569 40.9652 24.1951 40.8194 24.331C40.8615 24.5435 40.9023 24.744 40.9463 24.9595C40.9763 25.1068 41.0078 25.2611 41.0421 25.431C41.1275 25.3836 41.2112 25.3409 41.2919 25.2997C41.4757 25.2059 41.6447 25.1197 41.7877 25.0025C41.9837 24.8415 42.1678 24.667 42.3519 24.4924C42.5229 24.3304 42.6938 24.1683 42.8742 24.0172C43.7649 23.2682 44.0888 22.3234 43.8898 21.1864C43.8759 21.1033 43.8794 21.017 43.883 20.9287C43.8847 20.8879 43.8864 20.8467 43.8864 20.8051C44.9357 19.9987 45.6274 18.9831 45.9243 17.6942C46.039 17.1949 46.0188 16.7292 45.7927 16.2771ZM38.1032 31.1365C38.2416 31.511 38.137 31.7708 37.8704 32.0441L37.8431 32.0724C36.6591 33.296 36.6527 33.3026 34.9316 33.2993H32.9544C33.0261 33.1447 33.093 32.9977 33.1574 32.8563C33.3078 32.5256 33.4442 32.2259 33.5955 31.9328C33.6427 31.8383 33.7844 31.7641 33.8991 31.7371C34.7427 31.5347 35.4681 31.1163 36.1598 30.5427C36.3995 30.6159 36.6326 30.6875 36.8612 30.7576C37.2859 30.888 37.6953 31.0137 38.1032 31.1365Z" fill="#FFEB61"/>
<path d="M45.7927 16.2771C45.0639 14.8229 43.9168 13.8613 42.3782 13.345C41.8046 13.1527 41.2614 13.2506 40.7181 13.4361C40.3875 13.5509 40.0568 13.6656 39.6924 13.7938C39.2408 12.7254 38.8094 11.7109 38.378 10.6965L38.3765 10.693C37.8839 9.53909 36.73 9.1477 35.6469 9.76853C35.5305 9.83476 35.4165 9.90458 35.3105 9.96946C35.2384 10.0136 35.1699 10.0555 35.1071 10.0924C34.1657 9.38051 33.2682 8.70232 32.3167 7.98364C32.0535 8.36491 31.8578 8.64833 31.6453 8.95537C31.8858 9.13764 32.1292 9.30951 32.3703 9.4798C33.0085 9.93055 33.6312 10.3703 34.1454 10.9629C33.7574 11.3273 33.4065 11.658 33.0185 12.0258C31.4462 10.7166 29.83 9.57283 27.782 9.09371C27.7329 9.3022 27.6902 9.48613 27.6492 9.66297C27.6112 9.82669 27.5746 9.98435 27.5356 10.1498C29.7187 10.8145 31.4631 12.0933 33.1265 13.7769C33.1945 13.6843 33.2544 13.5973 33.3107 13.5157C33.4245 13.3503 33.523 13.2072 33.6427 13.0852C34.2905 12.4239 34.9417 11.7626 35.6267 11.1384C35.8629 10.9225 36.18 10.7639 36.4871 10.6627C36.7975 10.5581 37.1011 10.639 37.253 10.9933C37.5019 11.5851 37.7499 12.1778 38.0001 12.7756C38.2177 13.2958 38.437 13.8199 38.66 14.3505C38.5849 14.3852 38.5191 14.4154 38.456 14.4443C38.3659 14.4855 38.2815 14.5242 38.1842 14.5698C37.8709 14.033 37.5686 13.5119 37.2579 12.9765C37.1136 12.7278 36.9675 12.476 36.8177 12.2181C36.4904 12.4712 36.1901 12.704 35.8865 12.9402C36.3251 13.6926 36.7469 14.418 37.1855 15.1772C36.7798 15.4886 36.4176 15.7637 36.0601 16.0353C35.9954 16.0845 35.9308 16.1335 35.8662 16.1826C36.0077 16.4261 36.1351 16.6439 36.2618 16.8605C36.3406 16.9952 36.4191 17.1294 36.5006 17.2691C36.5941 17.1948 36.6772 17.1284 36.7545 17.0667C36.8527 16.9882 36.9415 16.9172 37.0303 16.8473C38.2618 15.8621 39.5676 15.0085 41.0825 14.5091C41.5515 14.3539 41.9834 14.3674 42.4288 14.5665C43.2217 14.9241 43.8526 15.4606 44.3959 16.1388C44.9189 16.79 44.9256 17.4277 44.5848 18.1497C43.7751 19.8739 41.366 21.2539 39.4326 21.0548C39.247 21.0345 39.0581 20.9232 38.9029 20.8085C38.2247 20.3226 37.5803 20.2956 36.9122 20.7882C36.6684 20.9694 36.4408 21.1729 36.206 21.3828C36.0867 21.4896 35.9654 21.598 35.8392 21.706C35.9616 21.878 36.0741 22.0381 36.1874 22.1992C36.2741 22.3225 36.3612 22.4463 36.4533 22.5765C36.7076 22.3793 36.9467 22.1946 37.1922 22.005C37.4256 21.8247 37.6647 21.64 37.9278 21.4361C38.2989 22.3268 38.6296 23.1231 38.9569 23.9228C38.9744 23.9666 38.9734 24.0175 38.9724 24.0691C38.9719 24.097 38.9714 24.125 38.9737 24.1522C39.0581 25.1273 38.4305 25.6503 37.7253 26.1193C37.685 26.1454 37.6314 26.1514 37.5784 26.1574C37.5561 26.16 37.5338 26.1625 37.5128 26.1665C37.4738 26.1055 37.4364 26.047 37.3984 25.9876C37.3375 25.8924 37.275 25.7948 37.2024 25.6806C37.0456 25.7574 36.8962 25.8316 36.7519 25.9034C36.6042 25.9768 36.4616 26.0476 36.3217 26.1159C36.3217 26.2759 36.3239 26.4295 36.3259 26.5787C36.3307 26.9265 36.3352 27.25 36.3116 27.5735C36.2914 27.8772 36.234 28.1943 36.1125 28.4676C35.5626 29.7059 34.6482 30.5089 33.2648 30.6608C32.9072 30.7013 32.6946 30.8261 32.59 31.1669C32.553 31.2862 32.5021 31.4018 32.4512 31.5175C32.4187 31.5915 32.3861 31.6655 32.3572 31.7405C31.8308 33.0766 31.0919 34.271 29.9987 35.2158C29.6343 35.5296 29.4622 35.8872 29.4757 36.3562C29.4825 36.589 29.4859 36.8218 29.4791 37.0513C29.4589 37.6856 29.1181 38.2997 28.6356 38.7518L28.5951 38.9441C28.6221 38.9458 28.6499 38.9467 28.6778 38.9475C28.7056 38.9483 28.7334 38.9492 28.7604 38.9509C29.0656 38.9636 29.3689 38.9821 29.6717 39.0005C29.7706 39.0065 29.8695 39.0125 29.9683 39.0184L30.0088 38.9374C30.0588 38.8247 30.1144 38.7104 30.1706 38.595C30.3682 38.1887 30.572 37.7697 30.5588 37.3651C30.5318 36.4709 30.8456 35.8467 31.5036 35.317C31.6753 35.1802 31.8119 35.0006 31.948 34.8217C31.9697 34.7933 31.9913 34.7649 32.013 34.7367C32.202 34.4903 32.4348 34.3992 32.7452 34.406C33.0588 34.4124 33.3734 34.4071 33.688 34.4018C34.1994 34.3931 34.7108 34.3845 35.2184 34.4262C36.5242 34.5308 37.5499 34.1259 38.4238 33.1238C38.4458 33.0984 38.4679 33.073 38.4899 33.0477C38.9485 32.5202 39.3788 32.0254 39.382 31.2816C39.5006 31.2611 39.6161 31.2455 39.7284 31.2302C39.9678 31.1978 40.1931 31.1672 40.4043 31.096C40.4522 31.0798 40.5006 31.0637 40.5493 31.0476C40.916 30.9258 41.2989 30.7986 41.5819 30.5663C42.4355 29.8611 43.2588 29.1154 44.0349 28.3293C44.5916 27.7658 44.6388 27.0505 44.3419 26.315C44.0551 25.5997 43.4815 25.3264 42.7662 25.2825C42.5785 25.2709 42.3893 25.2737 42.1919 25.2765C42.1018 25.2778 42.01 25.2791 41.9159 25.2791V26.4364C41.9874 26.4404 42.0551 26.4448 42.1203 26.4491C42.2797 26.4597 42.4234 26.4692 42.5671 26.4668C42.8944 26.4634 43.1947 26.5208 43.3533 26.8413C43.5287 27.1956 43.2993 27.425 43.0699 27.641C42.3377 28.3293 41.6055 29.0142 40.8632 29.689C40.7384 29.8038 40.5562 29.8814 40.3875 29.9219C39.1964 30.2053 38.0594 30.0062 36.9561 29.5507C37.0087 29.3783 37.0582 29.2103 37.1066 29.046C37.226 28.6412 37.3389 28.2583 37.4757 27.8839C37.5364 27.7118 37.6983 27.56 37.8434 27.4352C38.0345 27.2711 38.2323 27.1145 38.4303 26.9578C38.6762 26.7631 38.9223 26.5682 39.1559 26.3588C40.1344 25.4816 40.3942 24.2602 39.8915 23.0624C39.8178 22.8889 39.7525 22.7104 39.6897 22.5387C39.6633 22.4666 39.6374 22.3957 39.6114 22.3268C40.1102 22.209 40.5909 22.0947 41.0636 21.9822C41.6335 21.8467 42.1918 21.7139 42.7561 21.5811C42.9012 22.1008 42.7797 22.5461 42.3343 22.9308C41.9627 23.2476 41.6079 23.5847 41.2568 23.9181C41.1106 24.0569 40.9652 24.1951 40.8194 24.331C40.8615 24.5435 40.9023 24.744 40.9463 24.9595C40.9763 25.1068 41.0078 25.2611 41.0421 25.431C41.1275 25.3836 41.2112 25.3409 41.2919 25.2997C41.4757 25.2059 41.6447 25.1197 41.7877 25.0025C41.9837 24.8415 42.1678 24.667 42.3519 24.4924C42.5229 24.3304 42.6938 24.1683 42.8742 24.0172C43.7649 23.2682 44.0888 22.3234 43.8898 21.1864C43.8759 21.1033 43.8794 21.017 43.883 20.9287C43.8847 20.8879 43.8864 20.8467 43.8864 20.8051C44.9357 19.9987 45.6274 18.9831 45.9243 17.6942C46.039 17.1949 46.0188 16.7292 45.7927 16.2771ZM38.1032 31.1365C38.2416 31.511 38.137 31.7708 37.8704 32.0441L37.8431 32.0724C36.6591 33.296 36.6527 33.3026 34.9316 33.2993H32.9544C33.0261 33.1447 33.093 32.9977 33.1574 32.8563C33.3078 32.5256 33.4442 32.2259 33.5955 31.9328C33.6427 31.8383 33.7844 31.7641 33.8991 31.7371C34.7427 31.5347 35.4681 31.1163 36.1598 30.5427C36.3995 30.6159 36.6326 30.6875 36.8612 30.7576C37.2859 30.888 37.6953 31.0137 38.1032 31.1365Z" stroke="#FFEB61"/>
<path d="M18.763 20.0594C20.6626 20.9097 21.135 22.0906 20.8752 23.7236H19.8123C19.8083 23.6426 19.8034 23.5634 19.7986 23.4854C19.7872 23.3003 19.7762 23.1223 19.7786 22.9442C19.7921 21.9624 19.0296 21.237 18.0173 21.1627C17.846 21.1501 17.6719 21.1507 17.4979 21.1513C17.2059 21.1522 16.9143 21.1532 16.6373 21.0919C16.3323 21.0244 16.0434 20.8861 15.755 20.7482C15.6255 20.6862 15.496 20.6243 15.3653 20.5689C15.1527 21.6756 15.8276 22.4719 17.3661 22.9105V23.8451C16.8769 24.0374 16.4248 23.862 15.9895 23.6528C14.6669 23.0218 13.7997 21.3854 14.0562 19.9379C14.0876 19.7559 14.1955 19.5873 14.3139 19.4022C14.3732 19.3095 14.4351 19.2126 14.4914 19.1079C14.2181 18.2981 14.1068 17.3905 14.2114 16.3918C15.3754 16.213 16.4585 16.3277 17.3965 17.1071C18.3244 17.8764 18.6955 18.9257 18.763 20.0594ZM17.5112 20.0729C17.5146 18.5444 16.4855 17.4074 15.3889 17.6638C15.3856 19.0101 16.1886 19.9413 17.5112 20.0729Z" fill="#FFEB61"/>
<path d="M18.763 20.0594C20.6626 20.9097 21.135 22.0906 20.8752 23.7236H19.8123C19.8083 23.6426 19.8034 23.5634 19.7986 23.4854C19.7872 23.3003 19.7762 23.1223 19.7786 22.9442C19.7921 21.9624 19.0296 21.237 18.0173 21.1627C17.846 21.1501 17.6719 21.1507 17.4979 21.1513C17.2059 21.1522 16.9143 21.1532 16.6373 21.0919C16.3323 21.0244 16.0434 20.8861 15.755 20.7482C15.6255 20.6862 15.496 20.6243 15.3653 20.5689C15.1527 21.6756 15.8276 22.4719 17.3661 22.9105V23.8451C16.8769 24.0374 16.4248 23.862 15.9895 23.6528C14.6669 23.0218 13.7997 21.3854 14.0562 19.9379C14.0876 19.7559 14.1955 19.5873 14.3139 19.4022C14.3732 19.3095 14.4351 19.2126 14.4914 19.1079C14.2181 18.2981 14.1068 17.3905 14.2114 16.3918C15.3754 16.213 16.4585 16.3277 17.3965 17.1071C18.3244 17.8764 18.6955 18.9257 18.763 20.0594ZM17.5112 20.0729C17.5146 18.5444 16.4855 17.4074 15.3889 17.6638C15.3856 19.0101 16.1886 19.9413 17.5112 20.0729Z" stroke="#FFEB61"/>
<path d="M32.7722 19.2665C33.1906 19.4352 33.2311 19.7759 33.2479 20.1437C33.3121 21.6992 32.7317 22.9104 31.3315 23.6359C31.0701 23.7711 30.7726 23.8355 30.449 23.9057C30.2881 23.9405 30.1207 23.9768 29.9481 24.0239V22.9442C31.5305 22.4313 32.013 21.8814 32.0265 20.5115C31.9433 20.5567 31.8642 20.604 31.7872 20.6502C31.6111 20.7556 31.4457 20.8546 31.2674 20.9063C31.2013 20.9255 31.1348 20.9454 31.068 20.9654C30.644 21.0924 30.2079 21.223 29.7794 21.22C28.1497 21.1998 27.5221 21.7464 27.4715 23.3626C27.4693 23.4289 27.4628 23.4952 27.4547 23.5766C27.4505 23.6195 27.4458 23.6667 27.4412 23.7202H26.4762C26.0578 21.9421 26.8136 20.7747 28.5546 20.0998C28.666 18.8042 29.0877 17.6165 30.2754 16.8675C31.1392 16.3209 32.0873 16.223 33.113 16.412C33.2243 17.3702 33.1332 18.2745 32.7722 19.2665ZM29.7895 20.0189C31.0784 20.0931 32.0771 18.8751 31.8814 17.5288C30.6128 17.6401 29.8503 18.5242 29.7895 20.0189Z" fill="#FFEB61"/>
<path d="M32.7722 19.2665C33.1906 19.4352 33.2311 19.7759 33.2479 20.1437C33.3121 21.6992 32.7317 22.9104 31.3315 23.6359C31.0701 23.7711 30.7726 23.8355 30.449 23.9057C30.2881 23.9405 30.1207 23.9768 29.9481 24.0239V22.9442C31.5305 22.4313 32.013 21.8814 32.0265 20.5115C31.9433 20.5567 31.8642 20.604 31.7872 20.6502C31.6111 20.7556 31.4457 20.8546 31.2674 20.9063C31.2013 20.9255 31.1348 20.9454 31.068 20.9654C30.644 21.0924 30.2079 21.223 29.7794 21.22C28.1497 21.1998 27.5221 21.7464 27.4715 23.3626C27.4693 23.4289 27.4628 23.4952 27.4547 23.5766C27.4505 23.6195 27.4458 23.6667 27.4412 23.7202H26.4762C26.0578 21.9421 26.8136 20.7747 28.5546 20.0998C28.666 18.8042 29.0877 17.6165 30.2754 16.8675C31.1392 16.3209 32.0873 16.223 33.113 16.412C33.2243 17.3702 33.1332 18.2745 32.7722 19.2665ZM29.7895 20.0189C31.0784 20.0931 32.0771 18.8751 31.8814 17.5288C30.6128 17.6401 29.8503 18.5242 29.7895 20.0189Z" stroke="#FFEB61"/>
<path d="M27.6065 34.9524C27.6065 35.0242 27.6078 35.0956 27.6091 35.1669C27.612 35.327 27.6148 35.4864 27.6032 35.6475C27.5829 35.9477 27.4007 36.1131 27.1072 36.1299C26.8069 36.1468 26.6044 35.995 26.5572 35.7048C26.5307 35.5394 26.5288 35.371 26.5268 35.2026C26.5258 35.1134 26.5248 35.0243 26.5201 34.9355C26.5177 34.8942 26.5165 34.8523 26.5152 34.8103C26.511 34.6707 26.5068 34.5303 26.4627 34.4058C26.429 34.3147 26.267 34.2135 26.1692 34.2169C26.0815 34.2236 25.9499 34.3518 25.9262 34.453C25.8954 34.5718 25.8963 34.7005 25.8971 34.8287C25.8975 34.8827 25.8979 34.9365 25.8959 34.9895C25.8621 36.1704 24.914 37.0578 23.6791 37.0679C22.4408 37.0781 21.4725 36.2008 21.4252 35.0233C21.423 34.9714 21.426 34.918 21.429 34.8649C21.435 34.759 21.4409 34.6542 21.405 34.5644C21.3675 34.4684 21.2895 34.387 21.2113 34.3056C21.1769 34.2697 21.1424 34.2338 21.1114 34.1966C21.0784 34.236 21.0383 34.2744 20.9982 34.3129C20.9112 34.3962 20.8239 34.4798 20.8078 34.5745C20.7745 34.7721 20.7777 34.9755 20.7809 35.1789C20.7826 35.2847 20.7842 35.3906 20.7808 35.4956C20.7673 35.833 20.6661 36.1131 20.2646 36.1333C19.917 36.1502 19.7011 35.9208 19.6842 35.4754C19.6707 35.0907 19.6707 34.7027 19.7045 34.3181C19.7686 33.6298 20.2747 33.1237 20.936 33.0326C21.6479 32.9347 22.2789 33.2991 22.4948 33.9942C22.5715 34.2391 22.5883 34.504 22.6052 34.769C22.6113 34.8653 22.6174 34.9616 22.6264 35.057C22.677 35.5935 23.0245 35.9343 23.5745 35.9747C24.084 36.0119 24.58 35.6879 24.6846 35.219C24.7284 35.0199 24.7285 34.8107 24.7285 34.6049C24.7285 33.5791 25.4168 32.9718 26.2232 33.0089C27.1207 33.0494 27.6976 33.8727 27.6099 34.6386C27.6031 34.7062 27.6054 34.7753 27.6077 34.8439C27.6088 34.878 27.6099 34.912 27.6099 34.9456C27.6099 34.9524 27.6099 34.9524 27.6065 34.9524Z" fill="#FFEB61"/>
<path d="M27.6065 34.9524C27.6065 35.0242 27.6078 35.0956 27.6091 35.1669C27.612 35.327 27.6148 35.4864 27.6032 35.6475C27.5829 35.9477 27.4007 36.1131 27.1072 36.1299C26.8069 36.1468 26.6044 35.995 26.5572 35.7048C26.5307 35.5394 26.5288 35.371 26.5268 35.2026C26.5258 35.1134 26.5248 35.0243 26.5201 34.9355C26.5177 34.8942 26.5165 34.8523 26.5152 34.8103C26.511 34.6707 26.5068 34.5303 26.4627 34.4058C26.429 34.3147 26.267 34.2135 26.1692 34.2169C26.0815 34.2236 25.9499 34.3518 25.9262 34.453C25.8954 34.5718 25.8963 34.7005 25.8971 34.8287C25.8975 34.8827 25.8979 34.9365 25.8959 34.9895C25.8621 36.1704 24.914 37.0578 23.6791 37.0679C22.4408 37.0781 21.4725 36.2008 21.4252 35.0233C21.423 34.9714 21.426 34.918 21.429 34.8649C21.435 34.759 21.4409 34.6542 21.405 34.5644C21.3675 34.4684 21.2895 34.387 21.2113 34.3056C21.1769 34.2697 21.1424 34.2338 21.1114 34.1966C21.0784 34.236 21.0383 34.2744 20.9982 34.3129C20.9112 34.3962 20.8239 34.4798 20.8078 34.5745C20.7745 34.7721 20.7777 34.9755 20.7809 35.1789C20.7826 35.2847 20.7842 35.3906 20.7808 35.4956C20.7673 35.833 20.6661 36.1131 20.2646 36.1333C19.917 36.1502 19.7011 35.9208 19.6842 35.4754C19.6707 35.0907 19.6707 34.7027 19.7045 34.3181C19.7686 33.6298 20.2747 33.1237 20.936 33.0326C21.6479 32.9347 22.2789 33.2991 22.4948 33.9942C22.5715 34.2391 22.5883 34.504 22.6052 34.769C22.6113 34.8653 22.6174 34.9616 22.6264 35.057C22.677 35.5935 23.0245 35.9343 23.5745 35.9747C24.084 36.0119 24.58 35.6879 24.6846 35.219C24.7284 35.0199 24.7285 34.8107 24.7285 34.6049C24.7285 33.5791 25.4168 32.9718 26.2232 33.0089C27.1207 33.0494 27.6976 33.8727 27.6099 34.6386C27.6031 34.7062 27.6054 34.7753 27.6077 34.8439C27.6088 34.878 27.6099 34.912 27.6099 34.9456C27.6099 34.9524 27.6099 34.9524 27.6065 34.9524Z" stroke="#FFEB61"/>
<path d="M30.508 5.32477C30.409 5.49879 30.32 5.65413 30.2351 5.80236C30.129 5.98752 30.0293 6.16159 29.9243 6.34711C25.7405 4.55886 21.5971 4.60947 17.3998 6.31675C17.2504 6.02703 17.1064 5.75317 16.9325 5.42263C16.91 5.37977 16.8869 5.33595 16.8633 5.29103C21.4453 3.41167 25.926 3.3948 30.508 5.32477Z" fill="#FFEB61"/>
<path d="M30.508 5.32477C30.409 5.49879 30.32 5.65413 30.2351 5.80236C30.129 5.98752 30.0293 6.16159 29.9243 6.34711C25.7405 4.55886 21.5971 4.60947 17.3998 6.31675C17.2504 6.02703 17.1064 5.75317 16.9325 5.42263C16.91 5.37977 16.8869 5.33595 16.8633 5.29103C21.4453 3.41167 25.926 3.3948 30.508 5.32477Z" stroke="#FFEB61"/>
<path d="M21.108 14.0871C21.0979 12.643 22.1809 11.5667 23.6419 11.5701C25.0894 11.5735 26.2028 12.6565 26.2163 14.0736C26.2298 15.5211 25.1535 16.6244 23.7161 16.6413C22.2585 16.6615 21.1181 15.5447 21.108 14.0871ZM23.679 15.5582C24.4078 15.5312 25.1231 14.8126 25.1164 14.1074C25.1096 13.3685 24.3336 12.6498 23.5845 12.6835C22.8186 12.7173 22.1607 13.4123 22.2046 14.1479C22.2417 14.88 22.984 15.5852 23.679 15.5582Z" fill="#FFEB61"/>
<path d="M21.108 14.0871C21.0979 12.643 22.1809 11.5667 23.6419 11.5701C25.0894 11.5735 26.2028 12.6565 26.2163 14.0736C26.2298 15.5211 25.1535 16.6244 23.7161 16.6413C22.2585 16.6615 21.1181 15.5447 21.108 14.0871ZM23.679 15.5582C24.4078 15.5312 25.1231 14.8126 25.1164 14.1074C25.1096 13.3685 24.3336 12.6498 23.5845 12.6835C22.8186 12.7173 22.1607 13.4123 22.2046 14.1479C22.2417 14.88 22.984 15.5852 23.679 15.5582Z" stroke="#FFEB61"/>
<path d="M18.8642 11.8333L18.4458 10.9729C20.7233 8.86746 25.9126 8.51318 28.8818 10.929C28.8148 11.0631 28.747 11.1995 28.6755 11.3431C28.596 11.503 28.512 11.672 28.4196 11.8569C25.2479 9.88642 22.0797 9.88642 18.8642 11.8333Z" fill="#FFEB61"/>
<path d="M18.8642 11.8333L18.4458 10.9729C20.7233 8.86746 25.9126 8.51318 28.8818 10.929C28.8148 11.0631 28.747 11.1995 28.6755 11.3431C28.596 11.503 28.512 11.672 28.4196 11.8569C25.2479 9.88642 22.0797 9.88642 18.8642 11.8333Z" stroke="#FFEB61"/>
<path d="M41.0282 14.0198C42.1451 14.0231 43.0729 14.9105 43.0864 15.9936C43.0999 17.1543 42.1484 18.0957 40.9742 18.0855C39.8507 18.0788 38.9228 17.1914 38.9093 16.1151C38.8958 14.9713 39.8608 14.0198 41.0282 14.0198ZM41.9224 16.024C41.919 15.5786 41.4804 15.1568 41.0114 15.1467C40.5221 15.1366 40.0565 15.5988 40.0768 16.0746C40.097 16.5301 40.5322 16.9552 40.9844 16.9653C41.4567 16.9755 41.9257 16.5031 41.9224 16.024Z" fill="#FFEB61"/>
<path d="M41.0282 14.0198C42.1451 14.0231 43.0729 14.9105 43.0864 15.9936C43.0999 17.1543 42.1484 18.0957 40.9742 18.0855C39.8507 18.0788 38.9228 17.1914 38.9093 16.1151C38.8958 14.9713 39.8608 14.0198 41.0282 14.0198ZM41.9224 16.024C41.919 15.5786 41.4804 15.1568 41.0114 15.1467C40.5221 15.1366 40.0565 15.5988 40.0768 16.0746C40.097 16.5301 40.5322 16.9552 40.9844 16.9653C41.4567 16.9755 41.9257 16.5031 41.9224 16.024Z" stroke="#FFEB61"/>
<path d="M6.29243 18.0822C5.14187 18.0856 4.22412 17.1746 4.22412 16.0342C4.2275 14.9173 5.10813 14.0266 6.22495 14.0131C7.41262 13.9996 8.41134 14.9376 8.40122 16.0578C8.39785 17.1712 7.44636 18.0788 6.29243 18.0822ZM7.24054 16.0274C7.23717 15.555 6.74793 15.113 6.26543 15.14C5.79981 15.167 5.36793 15.5955 5.36456 16.0308C5.36118 16.5065 5.83018 16.9721 6.30592 16.962C6.79179 16.9586 7.24729 16.5031 7.24054 16.0274Z" fill="#FFEB61"/>
<path d="M6.29243 18.0822C5.14187 18.0856 4.22412 17.1746 4.22412 16.0342C4.2275 14.9173 5.10813 14.0266 6.22495 14.0131C7.41262 13.9996 8.41134 14.9376 8.40122 16.0578C8.39785 17.1712 7.44636 18.0788 6.29243 18.0822ZM7.24054 16.0274C7.23717 15.555 6.74793 15.113 6.26543 15.14C5.79981 15.167 5.36793 15.5955 5.36456 16.0308C5.36118 16.5065 5.83018 16.9721 6.30592 16.962C6.79179 16.9586 7.24729 16.5031 7.24054 16.0274Z" stroke="#FFEB61"/>
<path d="M21.3207 18.1767C21.2941 18.236 21.2715 18.2885 21.2512 18.3358C21.2045 18.4445 21.1697 18.5256 21.125 18.5984C21.0713 18.6894 21.0097 18.7739 20.951 18.8542C20.9249 18.89 20.8993 18.9251 20.8753 18.9595C19.2051 18.7165 17.7982 16.8844 17.3798 14.4045C17.1807 14.3539 16.9648 14.2999 16.6577 14.2256C16.6732 14.0929 16.6882 13.9611 16.7038 13.8237C16.729 13.6015 16.7559 13.3646 16.7893 13.0852C17.0552 13.1217 17.3129 13.1564 17.5728 13.1913C17.9131 13.237 18.2571 13.2832 18.6282 13.3349C18.392 15.5921 19.2962 17.178 21.3207 18.1767Z" fill="#FFEB61"/>
<path d="M21.3207 18.1767C21.2941 18.236 21.2715 18.2885 21.2512 18.3358C21.2045 18.4445 21.1697 18.5256 21.125 18.5984C21.0713 18.6894 21.0097 18.7739 20.951 18.8542C20.9249 18.89 20.8993 18.9251 20.8753 18.9595C19.2051 18.7165 17.7982 16.8844 17.3798 14.4045C17.1807 14.3539 16.9648 14.2999 16.6577 14.2256C16.6732 14.0929 16.6882 13.9611 16.7038 13.8237C16.729 13.6015 16.7559 13.3646 16.7893 13.0852C17.0552 13.1217 17.3129 13.1564 17.5728 13.1913C17.9131 13.237 18.2571 13.2832 18.6282 13.3349C18.392 15.5921 19.2962 17.178 21.3207 18.1767Z" stroke="#FFEB61"/>
<path d="M26.4795 19.1012C26.3493 18.8704 26.2317 18.6575 26.1175 18.4507C26.0747 18.3733 26.0325 18.2969 25.9902 18.2206C28.3048 16.8102 28.7266 15.7609 28.7131 13.3754C28.9432 13.3357 29.1768 13.2959 29.4194 13.2546C29.753 13.1979 30.1035 13.1382 30.4845 13.0718C30.4934 13.1757 30.502 13.2746 30.5102 13.3701C30.5362 13.6711 30.5593 13.938 30.5823 14.2223C30.3428 14.2864 30.1505 14.3371 29.8873 14.4045C29.6815 16.5639 28.649 18.1869 26.4795 19.1012Z" fill="#FFEB61"/>
<path d="M26.4795 19.1012C26.3493 18.8704 26.2317 18.6575 26.1175 18.4507C26.0747 18.3733 26.0325 18.2969 25.9902 18.2206C28.3048 16.8102 28.7266 15.7609 28.7131 13.3754C28.9432 13.3357 29.1768 13.2959 29.4194 13.2546C29.753 13.1979 30.1035 13.1382 30.4845 13.0718C30.4934 13.1757 30.502 13.2746 30.5102 13.3701C30.5362 13.6711 30.5593 13.938 30.5823 14.2223C30.3428 14.2864 30.1505 14.3371 29.8873 14.4045C29.6815 16.5639 28.649 18.1869 26.4795 19.1012Z" stroke="#FFEB61"/>
<path d="M25.8148 25.7041C26.027 25.851 26.2172 25.9847 26.4315 26.1353C26.483 26.1715 26.5359 26.2087 26.5909 26.2473C26.5553 26.3132 26.5204 26.3769 26.4862 26.4391C26.4102 26.5777 26.3378 26.7095 26.2703 26.8445C25.9262 27.5396 25.8958 28.2077 26.3985 28.8622C26.8878 29.4999 27.2353 30.2085 27.1982 31.1161H26.2636C26.1674 30.9351 26.0747 30.7575 25.9834 30.5826C25.7736 30.1806 25.5713 29.7931 25.3526 29.4122C24.6474 28.1705 24.8127 26.6252 25.8148 25.7041Z" fill="#FFEB61"/>
<path d="M25.8148 25.7041C26.027 25.851 26.2172 25.9847 26.4315 26.1353C26.483 26.1715 26.5359 26.2087 26.5909 26.2473C26.5553 26.3132 26.5204 26.3769 26.4862 26.4391C26.4102 26.5777 26.3378 26.7095 26.2703 26.8445C25.9262 27.5396 25.8958 28.2077 26.3985 28.8622C26.8878 29.4999 27.2353 30.2085 27.1982 31.1161H26.2636C26.1674 30.9351 26.0747 30.7575 25.9834 30.5826C25.7736 30.1806 25.5713 29.7931 25.3526 29.4122C24.6474 28.1705 24.8127 26.6252 25.8148 25.7041Z" stroke="#FFEB61"/>
<path d="M20.6862 26.2879C20.8378 26.1751 20.9894 26.0635 21.1403 25.9524C21.2515 25.8706 21.3622 25.7891 21.4724 25.7075C22.2923 26.3857 22.6128 27.5869 22.2518 28.6497C22.1545 28.9417 22.0075 29.219 21.8625 29.4926C21.8517 29.5131 21.8409 29.5335 21.8301 29.554C21.7739 29.6591 21.7067 29.7593 21.6394 29.8596C21.549 29.9942 21.4586 30.129 21.3948 30.276C21.3224 30.4457 21.2804 30.6305 21.2351 30.8294C21.2128 30.9272 21.1898 31.0285 21.162 31.133H20.0992C20.0654 30.3367 20.3218 29.6282 20.774 29.0512C21.4555 28.1807 21.4285 27.3777 20.801 26.5308C20.7805 26.4972 20.7641 26.4596 20.7444 26.4144C20.7285 26.3777 20.7104 26.3362 20.6862 26.2879Z" fill="#FFEB61"/>
<path d="M20.6862 26.2879C20.8378 26.1751 20.9894 26.0635 21.1403 25.9524C21.2515 25.8706 21.3622 25.7891 21.4724 25.7075C22.2923 26.3857 22.6128 27.5869 22.2518 28.6497C22.1545 28.9417 22.0075 29.219 21.8625 29.4926C21.8517 29.5131 21.8409 29.5335 21.8301 29.554C21.7739 29.6591 21.7067 29.7593 21.6394 29.8596C21.549 29.9942 21.4586 30.129 21.3948 30.276C21.3224 30.4457 21.2804 30.6305 21.2351 30.8294C21.2128 30.9272 21.1898 31.0285 21.162 31.133H20.0992C20.0654 30.3367 20.3218 29.6282 20.774 29.0512C21.4555 28.1807 21.4285 27.3777 20.801 26.5308C20.7805 26.4972 20.7641 26.4596 20.7444 26.4144C20.7285 26.3777 20.7104 26.3362 20.6862 26.2879Z" stroke="#FFEB61"/>
<path d="M25.9568 6.80256C25.9368 6.90234 25.9209 6.98865 25.9067 7.06588C25.8801 7.21063 25.8594 7.3235 25.8286 7.43351C25.8077 7.51482 25.7723 7.59293 25.7425 7.65903C25.729 7.68894 25.7166 7.71638 25.7071 7.74055H21.6008C21.5597 7.60155 21.5107 7.43983 21.4543 7.25407C21.4135 7.11969 21.369 6.97272 21.3208 6.81268C22.883 6.46178 24.3777 6.44154 25.9568 6.80256Z" fill="#FFEB61"/>
<path d="M25.9568 6.80256C25.9368 6.90234 25.9209 6.98865 25.9067 7.06588C25.8801 7.21063 25.8594 7.3235 25.8286 7.43351C25.8077 7.51482 25.7723 7.59293 25.7425 7.65903C25.729 7.68894 25.7166 7.71638 25.7071 7.74055H21.6008C21.5597 7.60155 21.5107 7.43983 21.4543 7.25407C21.4135 7.11969 21.369 6.97272 21.3208 6.81268C22.883 6.46178 24.3777 6.44154 25.9568 6.80256Z" stroke="#FFEB61"/>
<path d="M24.7587 22.816C23.4833 21.3247 23.4462 19.5061 24.6507 18.4534L24.6617 18.4646C24.8674 18.6735 25.0765 18.886 25.3019 19.1181C24.7519 20.1438 24.8633 21.0986 25.4335 22.0805C25.3113 22.2121 25.1901 22.3448 25.0653 22.4814C24.9662 22.59 24.8647 22.701 24.7587 22.816Z" fill="#FFEB61"/>
<path d="M24.7587 22.816C23.4833 21.3247 23.4462 19.5061 24.6507 18.4534L24.6617 18.4646C24.8674 18.6735 25.0765 18.886 25.3019 19.1181C24.7519 20.1438 24.8633 21.0986 25.4335 22.0805C25.3113 22.2121 25.1901 22.3448 25.0653 22.4814C24.9662 22.59 24.8647 22.701 24.7587 22.816Z" stroke="#FFEB61"/>
<path d="M22.6632 18.4702C23.7901 19.3239 23.7598 21.7937 22.5147 22.7654C22.4655 22.722 22.4145 22.6782 22.363 22.6338C22.2663 22.5506 22.1674 22.4654 22.0727 22.3774C21.8838 22.2019 21.8366 22.0164 21.9681 21.7633C22.3562 21.021 22.4169 20.2618 22.0964 19.4656C21.944 19.0882 22.1662 18.9068 22.4012 18.715C22.4939 18.6393 22.5887 18.5619 22.6632 18.4702Z" fill="#FFEB61"/>
<path d="M22.6632 18.4702C23.7901 19.3239 23.7598 21.7937 22.5147 22.7654C22.4655 22.722 22.4145 22.6782 22.363 22.6338C22.2663 22.5506 22.1674 22.4654 22.0727 22.3774C21.8838 22.2019 21.8366 22.0164 21.9681 21.7633C22.3562 21.021 22.4169 20.2618 22.0964 19.4656C21.944 19.0882 22.1662 18.9068 22.4012 18.715C22.4939 18.6393 22.5887 18.5619 22.6632 18.4702Z" stroke="#FFEB61"/>
<path d="M28.1832 24.8943C28.2404 24.937 28.2961 24.9786 28.3504 25.0191C28.5363 25.1577 28.7062 25.2844 28.8681 25.4071C28.8457 25.5597 28.8172 25.7093 28.7892 25.8566C28.7285 26.1749 28.6699 26.4826 28.6792 26.7871C28.6885 27.1018 28.7633 27.4132 28.8466 27.76C28.883 27.9115 28.921 28.0698 28.9558 28.238C28.8812 28.2869 28.7962 28.3427 28.705 28.4026C28.5572 28.4996 28.3932 28.6073 28.2304 28.7137C27.2081 27.381 27.316 26.0077 28.1832 24.8943Z" fill="#FFEB61"/>
<path d="M28.1832 24.8943C28.2404 24.937 28.2961 24.9786 28.3504 25.0191C28.5363 25.1577 28.7062 25.2844 28.8681 25.4071C28.8457 25.5597 28.8172 25.7093 28.7892 25.8566C28.7285 26.1749 28.6699 26.4826 28.6792 26.7871C28.6885 27.1018 28.7633 27.4132 28.8466 27.76C28.883 27.9115 28.921 28.0698 28.9558 28.238C28.8812 28.2869 28.7962 28.3427 28.705 28.4026C28.5572 28.4996 28.3932 28.6073 28.2304 28.7137C27.2081 27.381 27.316 26.0077 28.1832 24.8943Z" stroke="#FFEB61"/>
<path d="M19.087 28.7273C18.7969 28.5316 18.5506 28.3662 18.2705 28.1807C18.699 27.2899 18.807 26.4262 18.338 25.4882C18.6045 25.2992 18.8643 25.1136 19.114 24.9348C19.998 25.8222 20.0183 27.4991 19.087 28.7273Z" fill="#FFEB61"/>
<path d="M19.087 28.7273C18.7969 28.5316 18.5506 28.3662 18.2705 28.1807C18.699 27.2899 18.807 26.4262 18.338 25.4882C18.6045 25.2992 18.8643 25.1136 19.114 24.9348C19.998 25.8222 20.0183 27.4991 19.087 28.7273Z" stroke="#FFEB61"/>
<mask id="path-20-inside-1_784_3343" fill="white">
<path d="M18.5166 38.7043C18.5166 41.9198 21.8333 44.3525 24.455 44.1029C26.7932 43.8802 28.767 41.7781 29.3035 38.8832"/>
</mask>
<path d="M24.455 44.1029L24.6446 46.0939L24.455 44.1029ZM16.5166 38.7043C16.5166 41.0275 17.7118 42.9615 19.2108 44.2298C20.6863 45.4784 22.6879 46.2802 24.6446 46.0939L24.2654 42.1119C23.6004 42.1752 22.6328 41.8855 21.7945 41.1763C20.9797 40.4868 20.5166 39.5967 20.5166 38.7043H16.5166ZM24.6446 46.0939C28.1218 45.7627 30.6217 42.7463 31.27 39.2476L27.337 38.5187C26.9124 40.81 25.4646 41.9977 24.2654 42.1119L24.6446 46.0939Z" fill="#FFEB61" mask="url(#path-20-inside-1_784_3343)"/>
</svg>
