<svg width="80" height="80" viewBox="0 0 80 80" fill="none" xmlns="http://www.w3.org/2000/svg">
<rect width="80" height="80" rx="40" fill="#111010"/>
<path d="M60.6993 25.9832C60.6993 25.8611 60.6993 25.7391 60.6993 25.6171C60.6963 24.9712 60.5569 24.7718 59.9266 24.5961C59.8327 24.5694 59.6963 24.6289 59.5964 24.6795C59.0843 24.9444 58.5813 25.2212 58.0692 25.4831C57.754 25.6439 57.4692 25.5962 57.3025 25.2688C57.1419 24.9533 57.2329 24.6944 57.551 24.5158C58.0177 24.2538 58.4752 23.98 58.9449 23.73C59.1297 23.6318 59.2055 23.5306 59.16 23.3163C59.1237 23.1496 59.0994 22.9531 59.1509 22.7954C59.2994 22.3549 59.0812 22.1584 58.7085 21.9977C58.3449 21.8399 57.9904 21.6554 57.654 21.447C57.2844 21.2208 57.1935 20.8845 57.3904 20.5868C57.6147 20.2475 57.9146 20.2951 58.2207 20.4588C58.6661 20.6999 59.1146 20.9381 59.5479 21.197C59.7448 21.3161 59.9054 21.3964 60.0782 21.1851C60.0933 21.1643 60.1206 21.1434 60.1448 21.1375C60.772 21.0214 60.7357 20.566 60.7175 20.1017C60.7024 19.7653 60.7114 19.426 60.7357 19.0897C60.7569 18.7831 60.9296 18.5777 61.2508 18.5539C61.5599 18.5301 61.8659 18.8099 61.878 19.1313C61.8962 19.6314 61.8962 20.1314 61.8841 20.6315C61.878 20.8369 61.9841 20.8994 62.1447 21.0154C62.6235 21.3607 63.0053 21.2238 63.4264 20.9262C63.7385 20.7089 64.0961 20.5571 64.4385 20.3844C64.7021 20.2535 64.9476 20.2594 65.1173 20.5362C65.29 20.822 65.3354 21.1226 65.0233 21.328C64.6021 21.6048 64.1567 21.8518 63.7052 22.078C63.4325 22.215 63.2871 22.3489 63.4083 22.6674C63.4598 22.7984 63.478 22.9769 63.4325 23.1049C63.2931 23.4859 63.5113 23.6288 63.8052 23.7776C64.2082 23.983 64.5991 24.2122 64.9779 24.4562C65.3112 24.6706 65.39 24.995 65.2082 25.2956C64.9991 25.6409 64.7021 25.6349 64.39 25.4682C63.9446 25.2301 63.5022 24.9801 63.0719 24.7152C62.8628 24.5842 62.7204 24.6229 62.4901 24.6884C61.8477 24.873 61.8083 25.3045 61.8477 25.8344C61.872 26.1677 61.8447 26.51 61.8235 26.8464C61.8053 27.1886 61.6265 27.4208 61.2599 27.4149C60.8993 27.4059 60.7175 27.1797 60.7024 26.8345C60.6933 26.5517 60.7024 26.2689 60.6993 25.9832C60.7054 25.9832 60.7024 25.9832 60.6993 25.9832ZM62.1689 22.9978C62.178 22.4948 61.7871 22.09 61.2811 22.081C60.8114 22.0751 60.4084 22.4739 60.3993 22.9621C60.3903 23.4145 60.772 23.7776 61.2781 23.7955C61.7962 23.8104 62.1598 23.4859 62.1689 22.9978Z" fill="#FFEB61"/>
<path d="M18.0593 25.0187C18.0593 24.9086 18.0441 24.8015 18.0623 24.6943C18.1441 24.1794 17.9865 23.8341 17.4411 23.6555C17.2078 23.5781 17.0623 23.5543 16.8472 23.6912C16.4139 23.977 15.9563 24.23 15.4988 24.477C15.2018 24.6377 14.9079 24.6348 14.7201 24.2984C14.5443 23.977 14.6019 23.6823 14.917 23.4859C15.3321 23.2239 15.7806 23.0096 16.1897 22.7328C16.3291 22.6405 16.3866 22.4262 16.4654 22.2625C16.4927 22.206 16.4503 22.1226 16.4715 22.0631C16.6866 21.4291 16.3593 21.1077 15.8048 20.8844C15.5261 20.7743 15.2746 20.6017 15.014 20.4469C14.714 20.2683 14.6019 19.9022 14.7534 19.6135C14.9019 19.3307 15.2291 19.2474 15.5746 19.4319C16.02 19.67 16.4624 19.92 16.8927 20.1879C17.0926 20.3129 17.2532 20.3457 17.4472 20.1909C17.5381 20.1165 17.6623 20.0659 17.7805 20.0391C17.9987 19.9915 18.0562 19.8665 18.0502 19.6611C18.038 19.1878 18.0411 18.7146 18.0471 18.2413C18.0532 17.8276 18.2653 17.5716 18.5926 17.5567C18.9319 17.5418 19.1713 17.8038 19.1895 18.2383C19.2077 18.6967 19.2016 19.1581 19.2137 19.6164C19.2228 20.0212 19.9258 20.4022 20.2925 20.2028C20.7742 19.9439 21.2469 19.6611 21.7409 19.4289C22.1863 19.2206 22.5469 19.4081 22.6166 19.8337C22.662 20.1076 22.5469 20.301 22.3014 20.435C21.8409 20.679 21.3863 20.935 20.9258 21.1791C20.7197 21.2892 20.5955 21.4023 20.7076 21.6553C20.753 21.7595 20.7712 21.9083 20.7349 22.0125C20.5531 22.5215 20.8288 22.7328 21.253 22.9203C21.6409 23.093 22.0045 23.3192 22.359 23.5484C22.6954 23.7656 22.7681 24.0901 22.5802 24.3877C22.3711 24.7181 22.0802 24.6794 21.7893 24.5217C21.3075 24.2627 20.8349 23.9859 20.3561 23.715C19.9561 23.4888 19.2259 23.8877 19.2137 24.3371C19.2016 24.8372 19.2077 25.3372 19.1986 25.8373C19.1925 26.2064 18.9622 26.4534 18.6259 26.4445C18.2562 26.4355 18.0835 26.2093 18.0683 25.87C18.0562 25.5872 18.0653 25.3015 18.0653 25.0187C18.0653 25.0187 18.0623 25.0187 18.0593 25.0187ZM18.641 22.8102C19.1743 22.8013 19.5228 22.45 19.5077 21.9411C19.4955 21.4678 19.0743 21.0838 18.5835 21.1017C18.0986 21.1166 17.7562 21.5095 17.7653 22.0333C17.7744 22.4739 18.1623 22.8161 18.641 22.8102Z" fill="#FFEB61"/>
<path d="M15.1596 45.8868C15.0566 45.0236 15.1839 44.2587 15.6202 43.5682C15.7475 43.3687 15.9202 43.1485 16.1262 43.0532C16.2989 42.9729 16.6141 42.9848 16.7535 43.0919C16.8898 43.1991 16.908 43.4759 16.9262 43.6842C16.9353 43.7884 16.8322 43.9015 16.7716 44.0087C16.2262 44.982 16.105 45.9761 16.7868 46.9167C17.4686 47.8602 18.4867 47.9674 19.5654 47.8334C19.7381 47.8126 19.9563 47.7441 20.0805 47.8156C20.2502 47.9138 20.4442 48.1222 20.4532 48.2918C20.4623 48.4585 20.2957 48.7085 20.1351 48.7978C19.3685 49.2264 18.5534 49.1877 17.7413 48.9169C17.611 48.8722 17.4868 48.8187 17.3565 48.771C17.3443 48.7681 17.3292 48.771 17.2716 48.774C17.2656 49.024 17.2716 49.277 17.2534 49.5271C17.1989 50.289 16.9989 50.9945 16.3747 51.5153C16.1626 51.6939 15.8838 51.7594 15.7111 51.5451C15.5747 51.3725 15.5505 51.0957 15.5293 50.8575C15.5172 50.7563 15.6566 50.6522 15.696 50.5391C15.8293 50.1432 16.0141 49.7533 16.0626 49.3455C16.2293 47.8394 15.0475 46.6726 13.4658 46.7381C13.2476 46.747 13.0203 46.7708 12.8173 46.8363C12.4446 46.9554 12.1931 46.8363 12.0416 46.5059C11.9174 46.2381 12.078 45.9077 12.4264 45.7499C13.1415 45.4285 13.8748 45.482 14.6051 45.6963C14.7627 45.7469 14.9293 45.8094 15.1596 45.8868Z" fill="#FFEB61"/>
<path d="M62.5601 50.4765C63.1237 50.5361 63.6722 50.5539 64.1994 50.667C64.5539 50.7414 64.8994 50.9171 65.2054 51.1135C65.5448 51.3278 65.6114 51.685 65.4266 51.9588C65.2024 52.2862 64.9145 52.2594 64.5933 52.1017C63.7267 51.6701 62.8328 51.5302 61.942 52.0035C60.9117 52.5482 60.4723 53.6852 60.7481 54.9472C60.7875 55.1288 60.8572 55.352 60.7845 55.4949C60.6966 55.6645 60.4723 55.8639 60.3027 55.8669C60.1178 55.8699 59.8512 55.7092 59.7542 55.5425C59.327 54.8073 59.3421 54.0185 59.5906 53.2268C59.6421 53.0631 59.7088 52.9053 59.733 52.8458C59.03 52.7297 58.3391 52.6494 57.6664 52.4916C57.3877 52.4261 57.1331 52.2148 56.8998 52.0332C56.6574 51.8457 56.5938 51.5868 56.7907 51.3159C56.9786 51.057 57.2119 51.0034 57.5149 51.1224C57.8967 51.2742 58.2755 51.4558 58.6724 51.5332C60.3936 51.8636 61.7359 50.6908 61.6268 48.9645C61.6117 48.7085 61.548 48.4585 61.4996 48.2055C61.4359 47.8721 61.5299 47.5953 61.8602 47.4733C62.2147 47.3423 62.448 47.5566 62.5844 47.8483C62.9359 48.5984 62.9328 49.3693 62.6783 50.1432C62.6389 50.2622 62.5934 50.3843 62.5601 50.4765Z" fill="#FFEB61"/>
<path d="M56.4303 61.6234C55.0818 62.0609 53.9395 61.8704 52.9608 60.9358C52.8153 60.7989 52.688 60.6263 52.6123 60.4417C52.5093 60.1858 52.5487 59.9268 52.8093 59.7631C53.0577 59.6053 53.3092 59.6292 53.5304 59.8226C53.6425 59.9209 53.7456 60.031 53.8546 60.1352C54.4698 60.7037 55.1879 60.8376 55.9545 60.5281C56.7151 60.2185 57.1423 59.6292 57.1939 58.8106C57.2151 58.4475 57.2272 58.0963 57.6847 57.9832C57.9696 57.9147 58.1938 57.9861 58.2908 58.257C58.3665 58.4683 58.4241 58.7094 58.4029 58.9267C58.2817 60.2364 57.5666 61.1233 56.4303 61.6234Z" fill="#FFEB61"/>
<path d="M15.7991 37.5378C15.7385 37.9188 15.7294 38.3415 15.1901 38.3534C14.8295 38.3623 14.6659 38.148 14.575 37.5765C14.1992 37.4753 13.7508 37.386 13.7962 36.8711C13.8326 36.4693 14.1689 36.3413 14.575 36.3175C14.6053 36.2014 14.6325 36.0883 14.6628 35.9752C14.7416 35.6954 14.9204 35.5317 15.2234 35.5317C15.5264 35.5317 15.6809 35.7311 15.7173 35.9871C15.7537 36.2252 15.8325 36.3294 16.0931 36.3621C16.393 36.4008 16.6506 36.5675 16.6354 36.9157C16.6233 37.2491 16.4052 37.4158 16.084 37.4783C15.9931 37.4961 15.8991 37.517 15.7991 37.5378Z" fill="#FFEB61"/>
<path d="M17.0176 31.9421C16.7267 31.9153 16.5479 31.7575 16.4418 31.4658C16.3934 31.3289 16.254 31.192 16.1176 31.1265C15.8449 30.9956 15.5722 30.8676 15.5995 30.5282C15.6237 30.2068 15.8722 30.0639 16.1722 29.9657C16.2934 29.927 16.4358 29.7901 16.4631 29.677C16.5388 29.3615 16.6843 29.1531 17.0357 29.1501C17.3691 29.1472 17.5054 29.3406 17.5812 29.6442C17.6115 29.7722 17.7781 29.9211 17.9145 29.9568C18.2387 30.0461 18.4963 30.1889 18.4932 30.5431C18.4902 30.9063 18.2145 31.0194 17.8902 31.0938C17.7781 31.1206 17.6539 31.2753 17.6115 31.3974C17.5054 31.6801 17.3933 31.9242 17.0176 31.9421Z" fill="#FFEB61"/>
<path d="M64.8359 33.338C64.8117 33.4957 64.7996 33.6178 64.7753 33.7338C64.7177 34.0166 64.5481 34.2071 64.245 34.2071C63.939 34.2041 63.6936 34.0434 63.6633 33.7368C63.633 33.46 63.5027 33.3767 63.2633 33.2665C63.0845 33.1832 62.9148 32.9332 62.8754 32.7308C62.8178 32.442 63.0481 32.2843 63.333 32.201C63.4481 32.1682 63.5966 32.0611 63.6269 31.9599C63.7178 31.6533 63.8269 31.3824 64.2087 31.3884C64.6177 31.3913 64.7814 31.6503 64.8268 32.0134C64.8329 32.0521 64.8541 32.0878 64.8692 32.1236C65.4692 32.2545 65.6571 32.4153 65.6328 32.7873C65.6025 33.2636 65.242 33.3171 64.8359 33.338Z" fill="#FFEB61"/>
<path d="M64.0419 39.154C64.0449 39.5082 63.7631 39.797 63.4025 39.8118C63.0116 39.8237 62.6783 39.5142 62.6844 39.1421C62.6904 38.7701 62.9874 38.4843 63.3722 38.4843C63.748 38.4814 64.0389 38.7731 64.0419 39.154Z" fill="#FFEB61"/>
<path d="M23.902 61.8109C23.5323 61.8139 23.2293 61.5163 23.2232 61.1442C23.2172 60.7841 23.4929 60.5102 23.8656 60.5043C24.2413 60.4983 24.5716 60.796 24.5807 61.1442C24.5868 61.5044 24.2777 61.808 23.902 61.8109Z" fill="#FFEB61"/>
<path d="M46.1216 60.3435C46.1186 60.7245 45.8216 61.0073 45.4337 60.9954C45.0762 60.9835 44.7853 60.6948 44.7792 60.3435C44.7701 59.9983 45.1065 59.653 45.4489 59.653C45.7943 59.65 46.1216 59.9893 46.1216 60.3435Z" fill="#FFEB61"/>
<path d="M35.4314 18.3068C35.0677 18.3187 34.7647 18.0479 34.7435 17.6907C34.7223 17.3127 35.0071 17.0091 35.392 16.9972C35.7586 16.9853 36.0798 17.2889 36.0828 17.658C36.0919 18.0032 35.798 18.2949 35.4314 18.3068Z" fill="#FFEB61"/>
<path d="M52.0212 18.0984C51.6273 18.0925 51.3515 17.8097 51.3637 17.4287C51.3758 17.0716 51.6667 16.7947 52.0273 16.7977C52.3969 16.8007 52.6848 17.0983 52.6818 17.4823C52.6787 17.8514 52.406 18.1044 52.0212 18.0984Z" fill="#FFEB61"/>
<path d="M28.6407 17.3216C28.6316 17.6907 28.3134 18.0151 27.968 18.0032C27.6135 17.9913 27.3256 17.6937 27.3256 17.3424C27.3256 16.9615 27.6256 16.6579 27.9922 16.6668C28.3467 16.6787 28.6498 16.9793 28.6407 17.3216Z" fill="#FFEB61"/>
<path d="M29.959 62.7694C30.3074 62.7664 30.5923 63.073 30.5832 63.4361C30.5741 63.7933 30.3105 64.0463 29.9499 64.0403C29.5954 64.0344 29.2893 63.7397 29.2833 63.3974C29.2802 63.0581 29.5893 62.7694 29.959 62.7694Z" fill="#FFEB61"/>
<path d="M21.5138 55.596C20.529 56.5991 19.423 56.9503 18.1171 56.5723C17.9231 56.5158 17.7262 56.4205 17.5747 56.2926C17.3626 56.114 17.2747 55.8669 17.4262 55.602C17.5716 55.346 17.805 55.2538 18.0928 55.3282C18.2383 55.3639 18.3807 55.4145 18.5292 55.4562C19.3412 55.6794 20.0442 55.471 20.5745 54.846C21.1017 54.2239 21.2017 53.5066 20.8593 52.7595C20.7078 52.4261 20.5503 52.1106 20.9048 51.804C21.123 51.6135 21.3563 51.5748 21.5684 51.7683C21.735 51.9201 21.8987 52.1076 21.9865 52.31C22.4956 53.5185 22.2835 54.6317 21.5138 55.596Z" fill="#FFEB61"/>
<path d="M66.0115 46.375C65.9509 46.756 65.9418 47.1786 65.4024 47.1905C65.0418 47.1995 64.8782 46.9852 64.7873 46.4137C64.4115 46.3125 63.9631 46.2232 64.0085 45.7082C64.0449 45.3064 64.3812 45.1784 64.7873 45.1546C64.8176 45.0385 64.8449 44.9254 64.8752 44.8123C64.9539 44.5325 65.1327 44.3688 65.4357 44.3688C65.7387 44.3688 65.8933 44.5683 65.9296 44.8242C65.966 45.0624 66.0448 45.1665 66.3054 45.1993C66.6054 45.238 66.8629 45.4047 66.8478 45.7529C66.8356 46.0863 66.6175 46.2529 66.2963 46.3154C66.2084 46.3333 66.1145 46.3541 66.0115 46.375Z" fill="#FFEB61"/>
<path d="M40.3583 63.4717C40.2977 63.8527 40.2886 64.2754 39.7492 64.2873C39.3886 64.2962 39.225 64.0819 39.1341 63.5104C38.7584 63.4092 38.3099 63.3199 38.3554 62.805C38.3917 62.4032 38.7281 62.2752 39.1341 62.2514C39.1644 62.1353 39.1917 62.0222 39.222 61.9091C39.3008 61.6293 39.4795 61.4656 39.7826 61.4656C40.0856 61.4656 40.2401 61.665 40.2765 61.921C40.3128 62.1591 40.3916 62.2633 40.6522 62.296C40.9522 62.3347 41.2097 62.5014 41.1946 62.8496C41.1825 63.183 40.9643 63.3497 40.6431 63.4122C40.5552 63.43 40.4613 63.4509 40.3583 63.4717Z" fill="#FFEB61"/>
<path d="M43.4551 40.2732C44.2278 40.5321 44.9793 40.7315 45.6884 41.0292C49.8942 42.7912 52.294 45.9523 53.0728 50.3426C53.4485 52.4618 53.2576 54.6019 53.2879 56.733C53.294 57.1289 53.2788 57.5248 53.2667 57.9177C53.2516 58.4773 52.9031 58.8106 52.3243 58.8106C51.0638 58.8136 49.8033 58.8136 48.5427 58.8047C47.6943 58.7987 47.4185 58.5159 47.4155 57.6796C47.4095 56.4026 47.4852 55.1198 47.3852 53.8488C47.1519 50.8724 44.9793 48.3483 42.0522 47.5268C40.8886 47.2024 40.8614 47.2143 40.8765 48.4168C40.8886 49.5746 40.822 50.7474 40.9826 51.8873C41.2916 54.0631 42.4916 55.7657 44.2066 57.1408C44.4884 57.367 44.7793 57.5784 45.0308 57.8314C45.1429 57.9445 45.2732 58.2004 45.2187 58.2868C45.1005 58.4802 44.8763 58.6112 44.6824 58.7511C44.6278 58.7898 44.5248 58.766 44.446 58.766C41.1735 58.766 37.9009 58.769 34.6284 58.766C34.4951 58.766 34.3435 58.7957 34.2314 58.7451C34.0648 58.6707 33.8496 58.5695 33.7921 58.4237C33.7315 58.2748 33.786 58.0338 33.8799 57.8879C33.989 57.7183 34.1951 57.6111 34.3648 57.4801C36.3162 55.9711 37.6858 54.087 37.9706 51.6254C38.1251 50.3128 38.0343 48.9704 38.0343 47.6399C38.0343 47.3185 37.7524 47.25 37.507 47.3214C36.8919 47.503 36.2556 47.6518 35.692 47.9405C33.0042 49.3127 31.5255 51.4587 31.4952 54.4858C31.4861 55.4859 31.4983 56.489 31.4861 57.4891C31.4831 57.748 31.4801 58.0308 31.3831 58.2659C31.2407 58.6171 30.9468 58.8166 30.5316 58.8166C29.2166 58.8136 27.9015 58.8255 26.5894 58.8166C25.8743 58.8106 25.5925 58.5159 25.5986 57.8224C25.6137 55.8341 25.5622 53.8399 25.6713 51.8576C25.8562 48.5091 27.0652 45.5743 29.6166 43.2586C31.168 41.8507 33.0012 40.9578 35.0344 40.4428C35.1374 40.416 35.2435 40.3922 35.3465 40.3624C35.3829 40.3505 35.4162 40.3267 35.492 40.2851C35.3708 40.1214 35.2677 39.9577 35.1374 39.8148C34.2102 38.7879 33.583 37.6092 33.28 36.2728C33.2133 35.9811 33.0588 35.8442 32.7891 35.7281C30.5953 34.7994 29.762 32.198 31.0559 30.3556C31.4316 29.8198 31.9558 29.4656 32.5558 29.2007C32.6952 29.1382 32.8648 28.9566 32.8679 28.8256C32.8951 27.8791 32.883 26.9296 32.88 25.9801C32.88 25.9325 32.8558 25.8849 32.8436 25.8373C30.3559 26.1915 27.1682 29.7573 27.1652 32.2426C27.5167 32.2426 27.8712 32.2397 28.2257 32.2426C29.0378 32.2516 29.3438 32.5492 29.3438 33.3439C29.3438 34.8709 29.3378 36.4008 29.3347 37.9277C29.3317 38.4843 29.1166 38.6897 28.5621 38.6897C27.4621 38.6837 26.3622 38.6986 25.2622 38.6748C24.8805 38.6659 24.7593 38.7641 24.7653 39.157C24.7956 41.4608 24.7986 43.7675 24.8108 46.0743C24.8108 46.2321 24.8138 46.3898 24.8017 46.5476C24.7774 46.866 24.632 47.0833 24.2775 47.0655C23.9381 47.0446 23.732 46.866 23.732 46.5089C23.729 45.6129 23.726 44.717 23.7229 43.8211C23.7139 42.2406 23.6957 40.6601 23.7017 39.0796C23.7017 38.7611 23.5926 38.6807 23.2836 38.6867C22.2654 38.7046 21.2443 38.6956 20.2262 38.6956C19.6565 38.6956 19.4535 38.5022 19.4505 37.9396C19.4383 36.3859 19.4323 34.8292 19.4262 33.2755C19.4262 33.1564 19.4323 33.0374 19.4414 32.9213C19.4868 32.4778 19.6868 32.2813 20.1383 32.2694C20.6868 32.2575 21.2382 32.2635 21.7867 32.2724C22.017 32.2784 22.1109 32.2039 22.1352 31.9628C22.6654 26.6945 26.7379 21.8994 33.1951 20.6314C33.4436 20.5838 33.7042 20.5957 33.9557 20.563C35.295 20.3993 36.6343 20.2385 37.9676 20.054C38.1161 20.0332 38.2857 19.8843 38.3676 19.7504C38.6221 19.3188 38.8281 18.8604 39.0766 18.4229C39.3311 17.9764 39.5675 17.9734 39.822 18.414C40.0917 18.8842 40.319 19.3783 40.5977 19.8427C40.6765 19.9706 40.8704 20.0927 41.022 20.1076C41.8098 20.179 42.6097 20.1552 43.3885 20.2772C45.6338 20.6285 47.8761 20.9678 49.9184 22.078C53.797 24.1853 56.0726 27.3731 56.7907 31.6563C56.9029 32.329 56.7907 32.2397 57.5028 32.2426C57.8786 32.2456 58.2543 32.2337 58.63 32.2367C59.1482 32.2426 59.43 32.4718 59.4361 32.9689C59.4512 34.6685 59.4512 36.368 59.4391 38.0676C59.4361 38.5141 59.2088 38.6956 58.7543 38.6986C57.721 38.7046 56.6877 38.7194 55.6575 38.6986C55.2787 38.6897 55.1878 38.8177 55.1908 39.1719C55.203 41.5709 55.1969 43.967 55.1787 46.366C55.1757 46.5714 55.103 46.8184 54.9696 46.9643C54.8787 47.0625 54.5818 47.0952 54.4606 47.0208C54.306 46.9315 54.1515 46.7083 54.1424 46.5356C54.106 45.9314 54.1303 45.3242 54.1333 44.717C54.1364 42.8865 54.1273 41.053 54.1485 39.2225C54.1515 38.8266 54.0242 38.6837 53.6182 38.6956C52.5334 38.7254 51.4456 38.7224 50.3608 38.7343C49.9851 38.7373 49.6609 38.4694 49.6578 38.0676C49.6427 36.4067 49.6366 34.7488 49.6548 33.088C49.6608 32.5403 49.9608 32.2903 50.5305 32.2635C50.9426 32.2456 51.3577 32.2605 51.7638 32.2605C52.2001 30.174 48.7397 26.2897 46.1156 25.8968C46.1004 25.9653 46.0671 26.0367 46.0671 26.1081C46.0702 27.016 46.0671 27.9268 46.0914 28.8346C46.0944 28.9566 46.2035 29.1322 46.3126 29.1798C47.6579 29.8049 48.5124 30.7633 48.5124 32.2932C48.5124 33.9541 47.6246 35.0614 46.1611 35.7668C45.8914 35.8977 45.7641 36.0466 45.6944 36.3293C45.3641 37.6985 44.7278 38.9189 43.7642 39.9696C43.646 40.0559 43.5521 40.1601 43.4551 40.2732ZM44.8611 28.7721C44.9005 28.7334 44.9399 28.6947 44.9763 28.659C44.9763 28.528 44.9763 28.4 44.9763 28.272C44.9702 27.3374 45.0096 26.3998 44.949 25.4682C44.9126 24.8997 45.4429 24.5246 45.952 24.7151C46.5035 24.9205 47.0731 25.0842 47.6064 25.3253C50.3426 26.5754 52.1062 28.6203 52.7789 31.5342C52.9394 32.2278 52.9273 32.2278 53.6455 32.2278C54.3515 32.2248 55.0575 32.2278 55.7757 32.2278C55.7757 32.1147 55.7847 32.0492 55.7757 31.9867C55.2787 28.5607 53.6061 25.8224 50.7487 23.8043C48.6821 22.3459 46.3368 21.6226 43.8127 21.4202C43.4218 21.3875 43.134 21.444 42.7643 21.6911C41.7159 22.3965 41.5765 23.2477 41.9734 24.3342C42.0401 24.5187 41.9431 24.8461 41.7977 24.992C41.6886 25.1021 41.3583 25.0991 41.1765 25.0277C40.6947 24.8372 40.2311 24.5931 39.7735 24.3431C39.5463 24.2181 39.3645 24.2181 39.1372 24.3401C38.6797 24.5872 38.2161 24.8312 37.7343 25.0247C37.5555 25.0932 37.2525 25.0813 37.1191 24.9711C36.9858 24.861 36.9313 24.5782 36.9525 24.3818C37.0101 23.8996 37.1494 23.4263 37.2161 22.9441C37.2373 22.7953 37.1797 22.581 37.0737 22.4798C36.6919 22.1107 36.2828 21.7714 35.8707 21.4381C35.7889 21.3726 35.6465 21.3488 35.5374 21.3577C33.9921 21.5214 32.4527 21.7059 30.9922 22.3012C27.6227 23.6793 25.1774 25.9623 23.8078 29.3078C23.4321 30.2246 23.2351 31.189 23.1503 32.1831C23.229 32.2099 23.2775 32.2367 23.326 32.2367C24.1441 32.2426 24.9623 32.2575 25.7774 32.2397C25.8713 32.2367 26.0258 32.067 26.041 31.9569C26.1986 30.8854 26.5713 29.8912 27.1197 28.9596C28.459 26.6826 30.5529 25.3997 33.0436 24.6497C33.48 24.5187 33.9133 24.855 33.9163 25.3104C33.9254 26.2718 33.9193 27.2332 33.9224 28.1946C33.9224 28.3435 33.9466 28.4923 33.9618 28.6709C34.7011 28.534 35.3344 28.2661 35.8616 27.8345C36.9192 26.9683 37.9464 26.0605 38.9736 25.1557C39.4493 24.739 39.4826 24.7449 39.9523 25.1616C40.9644 26.0635 41.9613 26.9802 43.0309 27.8107C43.5733 28.2244 44.249 28.4566 44.8611 28.7721ZM34.0102 31.7843C33.9254 33.7338 34.0163 35.606 34.8102 37.3741C35.6223 39.1867 36.9313 40.4637 38.9524 40.9072C39.2675 40.9756 39.6281 40.9816 39.9402 40.9072C41.9643 40.4339 43.3339 39.1957 44.1612 37.3413C44.9278 35.6269 44.949 33.8083 44.9248 31.9867C44.9248 31.9033 44.7278 31.7545 44.6187 31.7485C43.8006 31.7128 42.9824 31.695 42.1673 31.7039C41.9674 31.7069 41.7674 31.8259 41.534 31.9003C41.9855 32.448 42.6097 32.5165 43.1218 32.1295C43.3158 31.9837 43.5036 31.8319 43.7157 32.0402C43.8915 32.2129 44.143 32.448 44.1278 32.6415C44.1127 32.8647 43.8794 33.1921 43.6733 33.2546C43.24 33.3826 42.7582 33.3975 42.2976 33.3916C42.0067 33.3886 41.7158 33.2636 41.3886 33.1832C41.3886 34.1684 41.4007 35.1149 41.3795 36.0615C41.3734 36.2698 41.3098 36.5168 41.1856 36.6806C40.3402 37.7699 38.6766 37.8027 37.7979 36.7401C37.6525 36.5645 37.5737 36.2877 37.5646 36.0525C37.5373 35.2489 37.5525 34.4452 37.5494 33.6416C37.5494 33.5047 37.5373 33.3677 37.5343 33.2904C36.9373 33.3439 36.3828 33.4332 35.8283 33.4332C35.3617 33.4332 34.9738 33.2159 34.792 32.7546C34.6587 32.4212 34.8738 32.2218 35.1132 32.07C35.3283 31.9331 35.5707 31.8587 35.8041 32.0968C36.1434 32.4391 36.6889 32.5105 37.0889 32.2694C37.1798 32.2158 37.304 32.07 37.2828 32.0164C37.2434 31.9182 37.107 31.7962 37.0101 31.7932C36.0253 31.7783 35.0375 31.7843 34.0102 31.7843ZM33.9405 30.6859C34.8102 30.6859 35.6132 30.6859 36.4162 30.6859C37.7524 30.6859 38.5191 31.4122 38.5433 32.7219C38.5585 33.6565 38.5554 34.5941 38.5615 35.5287C38.5645 36.0287 38.9918 36.4603 39.4887 36.4722C39.9675 36.4841 40.3796 36.0376 40.3796 35.5108C40.3765 34.5881 40.3584 33.6654 40.3796 32.7427C40.4099 31.3943 41.1856 30.6592 42.5552 30.6502C42.9703 30.6472 43.3855 30.6711 43.8036 30.677C44.1854 30.683 44.5702 30.677 45.0066 30.677C45.0066 30.4181 45.0308 30.2067 44.9975 30.0043C44.9823 29.9031 44.8793 29.7573 44.7884 29.7335C42.7612 29.1799 41.2068 27.9327 39.7857 26.4802C39.6948 26.3879 39.5948 26.3105 39.5099 26.2391C39.4493 26.2629 39.419 26.2659 39.4008 26.2837C39.216 26.4564 39.0402 26.6379 38.8524 26.8046C37.4464 28.0488 36.0677 29.3376 34.1254 29.7543C34.0527 29.7692 33.9587 29.8912 33.9527 29.9716C33.9254 30.2008 33.9405 30.4359 33.9405 30.6859ZM42.4582 43.5205C42.6825 43.5979 42.8673 43.6663 43.0552 43.7288C47.6337 45.2558 50.6729 49.2829 50.8305 54.0274C50.8638 55.0007 50.8638 54.9918 51.8607 54.9829C52.1122 54.9799 52.2274 54.9293 52.2183 54.6584C52.1789 53.5155 52.2213 52.3636 52.1062 51.2266C51.8062 48.2828 50.5881 45.7707 48.2943 43.7943C46.9004 42.5948 45.2884 41.8328 43.4976 41.428C43.3733 41.4012 43.1249 41.4727 43.0946 41.556C42.8612 42.193 42.6703 42.8508 42.4582 43.5205ZM36.4828 43.5473C36.4889 43.5056 36.4919 43.4907 36.4889 43.4788C36.2889 42.9073 36.0677 42.3418 35.895 41.7614C35.798 41.434 35.6374 41.3506 35.3102 41.437C31.6952 42.3805 29.0893 44.4878 27.647 47.8989C26.8197 49.8544 26.6228 51.9201 26.6743 54.0215C26.7016 55.0365 26.6834 55.0245 27.7045 55.0007C28.0015 54.9948 28.0591 54.8757 28.0621 54.6197C28.0682 54.0929 28.0681 53.5631 28.1348 53.0422C28.653 48.9793 31.4134 44.976 36.1616 43.6544C36.2768 43.6247 36.3859 43.58 36.4828 43.5473ZM37.9736 44.3777C38.0342 44.5831 38.0676 44.7498 38.1342 44.9045C38.91 46.6755 39.2766 48.4882 39.1887 50.4497C39.0645 53.2387 38.0494 55.5544 36.0071 57.4623C35.9253 57.5397 35.8525 57.623 35.7162 57.7689C38.2676 57.7689 40.725 57.7689 43.3006 57.7689C43.0612 57.5546 42.8825 57.4325 42.7491 57.2718C42.1673 56.5693 41.5401 55.8937 41.0432 55.1347C40.3553 54.087 39.8644 52.9142 39.822 51.6611C39.7614 49.8633 39.4433 48.0328 40.2887 46.3005C40.525 45.8153 40.6705 45.2885 40.8523 44.7795C40.8947 44.6605 40.9189 44.5325 40.9614 44.3747C39.9523 44.3777 38.9948 44.3777 37.9736 44.3777ZM41.4856 46.2261C41.6765 46.2797 41.8159 46.3184 41.9552 46.3571C45.6853 47.3214 48.3337 50.4467 48.4882 54.0751C48.5276 55.0097 48.5276 54.9978 49.4821 54.9829C49.7608 54.9769 49.8305 54.8727 49.8093 54.6287C49.7669 54.1167 49.776 53.5988 49.6972 53.0958C49.1427 49.655 47.4034 47.0089 44.2278 45.3599C43.5612 45.0147 42.834 44.7825 42.1007 44.4849C41.8764 45.1129 41.6856 45.6546 41.4856 46.2261ZM37.4585 46.2261C37.301 45.7915 37.1161 45.3986 37.0192 44.9849C36.9222 44.5623 36.7192 44.5474 36.3616 44.6635C35.2677 45.0117 34.2466 45.4998 33.3285 46.1755C30.6347 48.1519 29.356 50.8605 29.1317 54.0989C29.0711 54.9829 29.0742 54.968 29.9529 54.9888C30.3104 54.9978 30.4044 54.8906 30.3983 54.5394C30.3529 51.4379 31.8013 49.1282 34.3678 47.4345C35.292 46.8244 36.3192 46.4523 37.4585 46.2261ZM20.5019 34.9185C20.5595 34.9423 20.5716 34.9512 20.5837 34.9512C23.0624 34.9512 25.5441 34.9572 28.0227 34.9423C28.1106 34.9423 28.2651 34.7637 28.2742 34.6566C28.3075 34.3321 28.2681 33.9988 28.2894 33.6713C28.3106 33.3618 28.1984 33.2636 27.8803 33.2665C26.3531 33.2844 24.8229 33.2785 23.2957 33.2785C22.4776 33.2785 21.6594 33.2665 20.8443 33.2844C20.7292 33.2874 20.5231 33.4154 20.5171 33.4957C20.4868 33.966 20.5019 34.4363 20.5019 34.9185ZM28.2651 37.633C28.2651 37.1985 28.2439 36.7907 28.2712 36.3889C28.2924 36.0704 28.1803 35.9811 27.8651 35.9841C26.5379 35.9989 25.2107 35.99 23.8866 35.996C22.8806 35.9989 21.8776 36.0019 20.8716 36.0317C20.7443 36.0347 20.5171 36.1746 20.511 36.2639C20.4746 36.7163 20.4928 37.1746 20.4928 37.636C23.0896 37.633 25.644 37.633 28.2651 37.633ZM58.3452 33.2814C58.1543 33.2814 58.0089 33.2814 57.8665 33.2814C56.8211 33.2814 55.7757 33.2814 54.7303 33.2814C53.5121 33.2814 52.291 33.2755 51.0699 33.2933C50.9365 33.2963 50.6941 33.4124 50.6881 33.4898C50.6517 33.969 50.6699 34.4542 50.6699 34.9721C50.8578 34.9721 50.9881 34.9721 51.1214 34.9721C52.3668 34.9691 53.6152 34.9691 54.8605 34.9661C55.8938 34.9631 56.9241 34.9661 57.9574 34.9453C58.0876 34.9423 58.321 34.8173 58.327 34.7369C58.3634 34.2666 58.3452 33.7934 58.3452 33.2814ZM54.5242 35.987C54.5242 35.993 54.5242 36.0019 54.5242 36.0079C53.3728 36.0079 52.2213 36.0138 51.0668 36.0019C50.7578 35.9989 50.6305 36.0972 50.6547 36.4097C50.679 36.7103 50.6729 37.0169 50.6608 37.3175C50.6487 37.5735 50.7517 37.6687 51.0123 37.6598C51.5335 37.6449 52.0577 37.6509 52.5789 37.6509C54.3606 37.6509 56.1423 37.6449 57.924 37.6598C58.2392 37.6628 58.3604 37.5705 58.3361 37.258C58.3149 36.9693 58.3088 36.6776 58.3361 36.3889C58.3664 36.0466 58.2149 35.9722 57.8967 35.9781C56.7756 35.996 55.6514 35.987 54.5242 35.987ZM37.1888 21.2118C37.5979 21.5988 38.0858 21.8637 38.2403 22.2566C38.3918 22.6435 38.21 23.1585 38.1767 23.6049C38.5918 23.4293 39.0402 23.09 39.4857 23.0959C39.9281 23.1019 40.3674 23.4591 40.8492 23.6793C40.8008 23.4918 40.7856 23.3341 40.725 23.1942C40.4553 22.5721 40.6371 22.1048 41.2007 21.7446C41.3916 21.6226 41.5553 21.4648 41.834 21.2416C41.3492 21.197 40.9947 21.1315 40.6402 21.1374C40.1978 21.1434 39.9432 20.9588 39.8038 20.56C39.7311 20.3546 39.6039 20.1701 39.4645 19.8992C39.3311 20.1492 39.2281 20.3129 39.1584 20.4915C38.9857 20.9231 38.6766 21.1255 38.2009 21.1255C37.8858 21.1225 37.5828 21.1731 37.1888 21.2118ZM36.8737 41.181C36.9161 41.4042 36.9222 41.5024 36.9555 41.5977C37.1161 42.0709 37.2979 42.5412 37.4373 43.0204C37.5191 43.2972 37.6797 43.3419 37.9403 43.3359C39.01 43.3151 40.0826 43.3181 41.1553 43.3032C41.2462 43.3032 41.3947 43.2526 41.4128 43.1931C41.6219 42.5918 41.8068 41.9846 42.0007 41.3774C41.9795 41.3477 41.9583 41.3149 41.9401 41.2852C40.2584 42.3061 38.5888 42.2585 36.8737 41.181ZM46.0277 30.2246C46.0277 31.7069 46.0277 33.1415 46.0277 34.5851C46.7156 34.3976 47.364 33.4064 47.4337 32.4778C47.5064 31.5045 46.9943 30.6562 46.0277 30.2246ZM32.8951 34.6566C32.8951 33.1713 32.8951 31.7307 32.8951 30.2722C32.18 30.4865 31.5255 31.3467 31.5225 32.3141C31.5195 33.3558 32.0528 34.0732 32.8951 34.6566ZM28.0651 56.9712C28.0288 55.8044 28.2742 56.0157 27.047 55.9859C26.7773 55.98 26.6561 56.0604 26.6743 56.3431C26.6955 56.6557 26.6773 56.9712 26.6804 57.2867C26.6804 57.8254 26.6834 57.8254 27.2167 57.8254C28.0682 57.8254 28.0681 57.8254 28.0651 56.9712ZM52.2153 56.8968C52.2153 55.977 52.2153 55.977 51.2911 55.983C51.2365 55.983 51.182 55.9889 51.1305 55.983C50.9214 55.9621 50.8426 56.0633 50.8456 56.2598C50.8517 56.614 50.8668 56.9712 50.8365 57.3254C50.8062 57.6825 50.9214 57.8046 51.3032 57.7956C52.2152 57.7748 52.2153 57.7927 52.2153 56.8968ZM48.4458 55.977C48.4458 56.2895 48.4397 56.5396 48.4458 56.7866C48.473 57.9772 48.1943 57.757 49.5215 57.7867C49.5336 57.7867 49.5518 57.7927 49.5609 57.7837C49.6457 57.7093 49.7972 57.6349 49.8002 57.5575C49.8215 57.1111 49.8215 56.6646 49.7972 56.2211C49.7912 56.1348 49.6548 55.9949 49.57 55.9889C49.2185 55.9621 48.8609 55.977 48.4458 55.977ZM29.0954 56.9176C29.1257 57.9772 28.8742 57.8016 30.062 57.8165C30.0741 57.8165 30.0892 57.8135 30.1014 57.8165C30.3286 57.8373 30.4074 57.7272 30.4044 57.5159C30.3983 57.1111 30.3953 56.7033 30.4104 56.2985C30.4195 56.0544 30.3104 55.9919 30.0771 55.983C29.0984 55.9502 29.0984 55.9443 29.0954 56.9176Z" fill="#FFEB61" stroke="#FFEB61" stroke-width="0.25" stroke-miterlimit="10"/>
<path d="M52.2913 42.4192C52.2913 41.815 52.2852 41.2108 52.2943 40.6066C52.3003 40.1869 52.4609 40.0113 52.8155 40.0023C53.1639 39.9934 53.3639 40.166 53.3669 40.5798C53.3791 41.8388 53.373 43.1008 53.3548 44.3629C53.3488 44.6784 53.2064 44.9284 52.8215 44.9254C52.4973 44.9225 52.3003 44.7081 52.2913 44.3123C52.2822 43.6783 52.2913 43.0502 52.2913 42.4192Z" fill="#FFEB61" stroke="#FFEB61" stroke-width="0.25" stroke-miterlimit="10"/>
<path d="M55.9484 42.3895C55.9484 41.7733 55.9514 41.1542 55.9484 40.5381C55.9453 40.1988 56.0938 39.9756 56.4544 39.9577C56.8453 39.9398 56.9665 40.2137 56.9725 40.5232C56.9877 41.8091 56.9877 43.0979 56.9847 44.3837C56.9816 44.7082 56.7877 44.9046 56.4544 44.9046C56.1271 44.9076 55.9635 44.6843 55.9544 44.3956C55.9332 43.7259 55.9484 43.0562 55.9484 42.3865C55.9453 42.3895 55.9484 42.3895 55.9484 42.3895Z" fill="#FFEB61" stroke="#FFEB61" stroke-width="0.25" stroke-miterlimit="10"/>
<path d="M22.9622 42.4312C22.9622 43.0235 22.9682 43.6128 22.9591 44.2052C22.9531 44.6576 22.7319 44.9195 22.3864 44.9106C22.0652 44.9017 21.8834 44.6754 21.8804 44.2379C21.8774 43.0295 21.8804 41.821 21.8895 40.6126C21.8925 40.1899 22.0592 40.0113 22.4046 40.0083C22.7713 40.0054 22.95 40.1988 22.9531 40.6215C22.9591 41.2257 22.9531 41.8299 22.9531 42.4342C22.9591 42.4312 22.9622 42.4312 22.9622 42.4312Z" fill="#FFEB61" stroke="#FFEB61" stroke-width="0.25" stroke-miterlimit="10"/>
<path d="M26.5228 42.4312C26.5228 43.0354 26.5289 43.6396 26.5198 44.2468C26.5138 44.7261 26.3592 44.9314 26.038 44.9255C25.6956 44.9195 25.4805 44.6695 25.4774 44.2468C25.4744 43.0384 25.4744 41.827 25.4835 40.6185C25.4865 40.1869 25.6411 40.0143 25.9895 40.0054C26.341 39.9935 26.5198 40.1542 26.5289 40.5382C26.5441 41.1692 26.5319 41.8002 26.5319 42.4312C26.5319 42.4312 26.5259 42.4312 26.5228 42.4312Z" fill="#FFEB61" stroke="#FFEB61" stroke-width="0.25" stroke-miterlimit="10"/>
<path d="M39.2858 39.6571C39.0373 39.5886 38.5707 39.4934 38.1253 39.3327C37.8465 39.2315 37.5919 39.0112 37.6435 38.6838C37.6677 38.526 37.8435 38.3415 37.998 38.2671C38.2707 38.1361 38.5616 38.1629 38.8131 38.3891C39.1676 38.7076 39.7191 38.6749 40.0857 38.3921C40.2373 38.276 40.4827 38.1718 40.6494 38.2076C40.8675 38.2552 41.1493 38.41 41.2251 38.5915C41.2887 38.7403 41.1524 39.0469 41.0069 39.1957C40.61 39.6005 40.0554 39.6154 39.2858 39.6571Z" fill="#FFEB61" stroke="#FFEB61" stroke-width="0.25" stroke-miterlimit="10"/>
</svg>
