<svg width="80" height="80" viewBox="0 0 80 80" fill="none" xmlns="http://www.w3.org/2000/svg">
<rect width="80" height="80" rx="40" fill="#111010"/>
<path d="M63.2674 28.5839C63.2674 28.4593 63.2674 28.3315 63.2674 28.2036C63.2643 27.5316 63.1312 27.3251 62.5215 27.1415C62.4287 27.1153 62.2987 27.1743 62.2027 27.23C61.7075 27.5021 61.2247 27.7938 60.7295 28.0659C60.4262 28.2331 60.1508 28.184 59.9898 27.843C59.8351 27.5152 59.9217 27.2464 60.2281 27.0595C60.6769 26.7874 61.1195 26.5022 61.5713 26.2432C61.7509 26.1416 61.822 26.0367 61.7787 25.8138C61.7447 25.6401 61.7199 25.4368 61.7725 25.2729C61.9149 24.8139 61.7044 24.6107 61.3485 24.4435C60.9988 24.2796 60.6552 24.0862 60.3303 23.8731C59.9743 23.6371 59.8877 23.2863 60.0765 22.9781C60.2931 22.6241 60.581 22.6733 60.875 22.8437C61.3052 23.0929 61.7354 23.342 62.1532 23.6108C62.342 23.7321 62.4967 23.8174 62.667 23.5977C62.6824 23.5748 62.7072 23.5551 62.7289 23.5485C63.3324 23.4273 63.2983 22.9552 63.2798 22.47C63.2643 22.1192 63.2736 21.7685 63.2983 21.4177C63.32 21.0997 63.4871 20.8866 63.7966 20.8604C64.0937 20.8342 64.3878 21.1259 64.4001 21.4603C64.4187 21.9783 64.4187 22.4995 64.4063 23.0208C64.4001 23.2338 64.5023 23.2994 64.657 23.4207C65.1182 23.7813 65.4865 23.6371 65.8919 23.3289C66.1921 23.1027 66.5388 22.9421 66.8668 22.7651C67.1206 22.6274 67.3589 22.6339 67.5199 22.9224C67.687 23.2174 67.7303 23.5322 67.4301 23.7452C67.0247 24.0337 66.5945 24.2894 66.1581 24.5255C65.895 24.6664 65.7557 24.8074 65.8733 25.1385C65.9229 25.2762 65.9414 25.4598 65.8981 25.5942C65.765 25.9908 65.9724 26.1383 66.2571 26.2924C66.644 26.5055 67.0216 26.7415 67.3868 26.9972C67.7087 27.2202 67.7829 27.5578 67.6096 27.8692C67.4085 28.2299 67.1206 28.2233 66.8204 28.0463C66.3902 27.7971 65.9631 27.5414 65.5484 27.2628C65.3472 27.1284 65.211 27.1677 64.9851 27.2365C64.3661 27.43 64.3289 27.8758 64.3661 28.4265C64.3878 28.774 64.363 29.1281 64.3444 29.4789C64.3259 29.8362 64.1556 30.0755 63.8028 30.0689C63.4562 30.0624 63.2798 29.8263 63.2643 29.4657C63.2612 29.174 63.2705 28.8789 63.2674 28.5839C63.2736 28.5839 63.2705 28.5839 63.2674 28.5839ZM64.6849 25.4794C64.6942 24.9549 64.3166 24.5353 63.8276 24.5255C63.3726 24.5189 62.9888 24.9352 62.9795 25.4401C62.9703 25.9089 63.3386 26.2891 63.8276 26.3055C64.3228 26.3252 64.6756 25.9875 64.6849 25.4794Z" fill="#FFEB61"/>
<path d="M15.3138 26.6956C15.3138 26.5842 15.2983 26.4694 15.3169 26.358C15.3973 25.8204 15.2457 25.463 14.7165 25.2762C14.4905 25.1975 14.3512 25.1713 14.1439 25.3155C13.7261 25.6106 13.2835 25.8761 12.844 26.1318C12.5562 26.299 12.2745 26.2957 12.095 25.9482C11.9248 25.6171 11.9805 25.309 12.2838 25.1024C12.6862 24.8303 13.1164 24.6074 13.5094 24.3189C13.6425 24.2206 13.7013 24.0009 13.7756 23.8305C13.8003 23.7747 13.7601 23.6862 13.7818 23.6207C13.9891 22.9617 13.6765 22.6274 13.138 22.3946C12.8688 22.2799 12.6243 22.0996 12.3767 21.9389C12.0857 21.7521 11.9805 21.3718 12.126 21.0735C12.2714 20.7785 12.584 20.6932 12.9152 20.8834C13.3454 21.1325 13.7725 21.3915 14.1872 21.6669C14.3791 21.798 14.5339 21.8308 14.7226 21.6701C14.8124 21.5947 14.93 21.539 15.0445 21.5128C15.255 21.4603 15.3107 21.3325 15.3045 21.1194C15.2921 20.6277 15.2952 20.1359 15.3014 19.6442C15.3076 19.2147 15.5119 18.9492 15.8275 18.9295C16.1525 18.9131 16.3846 19.1852 16.4032 19.6376C16.4218 20.1163 16.4156 20.5949 16.428 21.0702C16.4342 21.4898 17.112 21.8865 17.4679 21.68C17.9321 21.4079 18.3871 21.1161 18.8637 20.8735C19.2939 20.6572 19.6405 20.8506 19.7086 21.2964C19.752 21.5816 19.6405 21.7816 19.4053 21.9193C18.9627 22.1717 18.5233 22.4405 18.0807 22.6929C17.8826 22.8044 17.7619 22.9257 17.8702 23.1879C17.9136 23.2961 17.9321 23.4502 17.895 23.5584C17.7217 24.0862 17.9878 24.3058 18.3933 24.5025C18.7678 24.6828 19.1175 24.9188 19.461 25.1582C19.7829 25.3844 19.8572 25.722 19.6746 26.0302C19.4734 26.3711 19.1918 26.3318 18.9101 26.1711C18.4459 25.899 17.9909 25.6138 17.5298 25.3352C17.146 25.1024 16.4403 25.5122 16.428 25.981C16.4156 26.499 16.4218 27.0202 16.4125 27.5414C16.4063 27.925 16.1866 28.1807 15.8616 28.1708C15.5057 28.161 15.3385 27.9283 15.3231 27.5742C15.3107 27.2792 15.32 26.9841 15.32 26.6891C15.32 26.6956 15.3169 26.6956 15.3138 26.6956ZM15.874 24.3976C16.3877 24.3878 16.7251 24.0239 16.7096 23.4928C16.6972 23.0011 16.2918 22.6044 15.8183 22.6208C15.3509 22.6372 15.0198 23.0437 15.029 23.5912C15.0383 24.0501 15.4128 24.4074 15.874 24.3976Z" fill="#FFEB61"/>
<path d="M16.1957 45.4831C16.0967 44.5849 16.2205 43.7915 16.6414 43.0736C16.7652 42.8671 16.9292 42.6376 17.1304 42.5393C17.2975 42.4573 17.5977 42.4671 17.7339 42.5786C17.8639 42.6901 17.8825 42.9785 17.901 43.1949C17.9103 43.3031 17.8082 43.4211 17.7525 43.5326C17.2263 44.5455 17.1087 45.5782 17.768 46.5551C18.4241 47.5353 19.4083 47.65 20.4482 47.5091C20.6153 47.4861 20.8227 47.4173 20.9434 47.4927C21.1074 47.5943 21.2931 47.8106 21.3024 47.9877C21.3117 48.1614 21.1508 48.4204 20.996 48.5155C20.2563 48.9613 19.4702 48.922 18.6872 48.6368C18.5603 48.5909 18.4396 48.5351 18.3158 48.486C18.3065 48.4827 18.2879 48.486 18.2322 48.4892C18.226 48.7482 18.2322 49.0105 18.2136 49.2727C18.161 50.0661 17.966 50.7971 17.3687 51.338C17.1644 51.5216 16.8952 51.5937 16.728 51.3675C16.595 51.1872 16.5733 50.8987 16.5547 50.6529C16.5454 50.548 16.6754 50.4398 16.7126 50.3218C16.8395 49.912 17.0221 49.5022 17.0654 49.0826C17.2263 47.5156 16.0874 46.3027 14.5616 46.3715C14.3511 46.3813 14.1345 46.4043 13.9333 46.4731C13.5743 46.5944 13.3329 46.4731 13.1843 46.1322C13.0636 45.8535 13.2183 45.5093 13.5526 45.3487C14.2428 45.0143 14.9484 45.0733 15.651 45.293C15.8119 45.3389 15.9698 45.4012 16.1957 45.4831Z" fill="#FFEB61"/>
<path d="M61.3884 51.1414C61.93 51.2036 62.4593 51.22 62.9699 51.338C63.3104 51.4167 63.6446 51.6003 63.9386 51.8003C64.2667 52.0232 64.3317 52.3969 64.1522 52.6788C63.9386 53.0198 63.657 52.9903 63.3506 52.8264C62.515 52.3772 61.6546 52.233 60.7942 52.7247C59.8007 53.2919 59.3767 54.472 59.6428 55.7833C59.68 55.9702 59.7481 56.2062 59.6769 56.3504C59.5902 56.5275 59.3767 56.734 59.2126 56.7373C59.0331 56.7406 58.7762 56.5734 58.6834 56.3996C58.2718 55.6358 58.2841 54.8162 58.5255 53.9934C58.5751 53.8229 58.6401 53.659 58.6617 53.5967C57.9808 53.4787 57.3185 53.3935 56.6717 53.2296C56.4024 53.1607 56.1579 52.9444 55.932 52.7542C55.6998 52.5575 55.6379 52.292 55.8267 52.0101C56.0062 51.7413 56.2322 51.6855 56.5231 51.8101C56.8914 51.9675 57.2566 52.1576 57.6404 52.2363C59.3024 52.5772 60.593 51.361 60.4878 49.5678C60.4723 49.3023 60.4135 49.04 60.364 48.7778C60.3021 48.4303 60.3918 48.1451 60.7106 48.0172C61.0541 47.8795 61.277 48.1024 61.407 48.4073C61.7443 49.1875 61.7443 49.9874 61.4967 50.7939C61.4658 50.9184 61.4193 51.0463 61.3884 51.1414Z" fill="#FFEB61"/>
<path d="M55.4772 62.7298C54.1774 63.1855 53.0755 62.9855 52.1347 62.0152C51.9954 61.8709 51.8716 61.6906 51.7973 61.5005C51.6983 61.235 51.7354 60.9629 51.9861 60.7924C52.2275 60.6285 52.4658 60.6514 52.6825 60.8547C52.7908 60.9563 52.8898 61.0711 52.9951 61.1792C53.5862 61.7726 54.2826 61.9103 55.0192 61.589C55.7527 61.2677 56.1643 60.6547 56.2138 59.8024C56.2355 59.4254 56.2448 59.0582 56.6874 58.9435C56.9597 58.8746 57.1764 58.9468 57.2723 59.2287C57.3435 59.4483 57.3992 59.6975 57.3806 59.9269C57.263 61.2874 56.576 62.2086 55.4772 62.7298Z" fill="#FFEB61"/>
<path d="M16.3072 37.6907C16.2484 38.0874 16.2391 38.5267 15.7192 38.5398C15.3725 38.5463 15.2116 38.3267 15.128 37.7333C14.7659 37.6284 14.3326 37.5366 14.3791 36.999C14.4131 36.5827 14.7381 36.4483 15.128 36.4253C15.1559 36.304 15.1807 36.186 15.2116 36.068C15.2859 35.7762 15.4592 35.6091 15.7501 35.6058C16.0411 35.6058 16.1896 35.8156 16.2268 36.0778C16.2608 36.3237 16.3382 36.4352 16.5889 36.4679C16.8798 36.5073 17.1243 36.681 17.1119 37.0449C17.0995 37.3924 16.8891 37.5629 16.5827 37.6317C16.496 37.6481 16.4063 37.6711 16.3072 37.6907Z" fill="#FFEB61"/>
<path d="M19.1022 33.1865C18.8237 33.157 18.6504 32.9931 18.5482 32.6915C18.4987 32.5505 18.3687 32.4062 18.2356 32.3407C17.9726 32.2063 17.7095 32.0719 17.7373 31.7178C17.7621 31.3834 18.0004 31.2359 18.2882 31.131C18.4028 31.0917 18.542 30.9507 18.5668 30.8294C18.638 30.5016 18.7803 30.2852 19.1177 30.282C19.4396 30.2787 19.5727 30.4787 19.6438 30.7966C19.6748 30.931 19.8357 31.0851 19.9657 31.1245C20.2783 31.2195 20.5259 31.3671 20.5259 31.7342C20.5228 32.1112 20.2566 32.2292 19.9441 32.3079C19.8357 32.3341 19.7181 32.498 19.6748 32.6226C19.5727 32.9144 19.4643 33.1701 19.1022 33.1865Z" fill="#FFEB61"/>
<path d="M61.7288 34.8354C61.7071 34.9993 61.6947 35.1239 61.67 35.2485C61.6112 35.5435 61.4502 35.7402 61.1562 35.7402C60.8622 35.7369 60.627 35.5697 60.5929 35.2518C60.5651 34.9633 60.4382 34.878 60.2091 34.7633C60.0358 34.6781 59.8749 34.4158 59.8347 34.206C59.782 33.9044 60.0018 33.7405 60.2741 33.6553C60.3856 33.6192 60.5279 33.511 60.5589 33.4061C60.6486 33.0881 60.7508 32.8062 61.1222 32.8095C61.5183 32.8128 61.6762 33.0816 61.7164 33.4586C61.7226 33.4979 61.7442 33.534 61.7566 33.57C62.3354 33.7044 62.5149 33.8716 62.4932 34.2617C62.4685 34.7567 62.1187 34.8125 61.7288 34.8354Z" fill="#FFEB61"/>
<path d="M63.1467 40.91C63.1498 41.2772 62.8775 41.5788 62.5277 41.5919C62.1502 41.605 61.8283 41.2837 61.8345 40.8936C61.8407 40.5068 62.1254 40.2117 62.4968 40.2117C62.862 40.2117 63.1436 40.5133 63.1467 40.91Z" fill="#FFEB61"/>
<path d="M23.6298 59.9073C23.2739 59.9106 22.9829 59.6025 22.9767 59.2156C22.9705 58.8419 23.2367 58.5567 23.5957 58.5502C23.9578 58.5436 24.2766 58.8517 24.2859 59.2156C24.289 59.5828 23.9919 59.9008 23.6298 59.9073Z" fill="#FFEB61"/>
<path d="M45.539 61.3989C45.5359 61.7955 45.2481 62.0906 44.8767 62.0775C44.5332 62.0643 44.2515 61.766 44.2453 61.3989C44.2391 61.0383 44.561 60.6777 44.8922 60.6809C45.2233 60.6777 45.5421 61.0317 45.539 61.3989Z" fill="#FFEB61"/>
<path d="M37.616 16.861C37.2662 16.8741 36.9722 16.5889 36.9536 16.2217C36.932 15.8316 37.2074 15.5136 37.5788 15.5005C37.9317 15.4874 38.2412 15.8021 38.2443 16.1857C38.2504 16.5463 37.9688 16.8479 37.616 16.861Z" fill="#FFEB61"/>
<path d="M51.2276 17.4838C50.85 17.4773 50.5807 17.1822 50.5931 16.7856C50.6055 16.4151 50.884 16.1266 51.2338 16.1299C51.5897 16.1332 51.8682 16.4413 51.8651 16.8446C51.862 17.2248 51.599 17.4904 51.2276 17.4838Z" fill="#FFEB61"/>
<path d="M28.6903 16.6741C28.6841 17.0609 28.3746 17.3953 28.0403 17.3822C27.6999 17.3691 27.4213 17.0609 27.4213 16.6938C27.4213 16.2971 27.7123 15.9791 28.062 15.9922C28.4055 16.0053 28.6965 16.32 28.6903 16.6741Z" fill="#FFEB61"/>
<path d="M31.4202 60.8744C31.7575 60.8711 32.0299 61.1891 32.0206 61.5661C32.0144 61.9365 31.7575 62.1988 31.4109 62.1955C31.0704 62.1889 30.7733 61.884 30.7702 61.5267C30.7671 61.176 31.0642 60.8744 31.4202 60.8744Z" fill="#FFEB61"/>
<path d="M20.5937 57.3634C19.6466 58.4059 18.5789 58.773 17.3223 58.3797C17.1366 58.3207 16.9447 58.2223 16.7993 58.0912C16.595 57.9043 16.5084 57.6453 16.6569 57.3732C16.7962 57.1077 17.0221 57.0126 17.3007 57.088C17.443 57.1274 17.5792 57.1766 17.7216 57.2224C18.5046 57.4552 19.1824 57.2356 19.6931 56.5865C20.2038 55.9407 20.2997 55.1965 19.9654 54.4163C19.82 54.0721 19.6683 53.7443 20.0088 53.423C20.2192 53.2263 20.4421 53.1837 20.6494 53.3869C20.8104 53.5476 20.9682 53.741 21.0518 53.9508C21.5377 55.2063 21.3365 56.3636 20.5937 57.3634Z" fill="#FFEB61"/>
<path d="M64.632 47.2337C64.5732 47.6304 64.5639 48.0696 64.0439 48.0828C63.6973 48.0893 63.5364 47.8697 63.4528 47.2763C63.0907 47.1714 62.6574 47.0796 62.7038 46.542C62.7378 46.1257 63.0628 45.9912 63.4528 45.9683C63.4806 45.847 63.5054 45.729 63.5363 45.611C63.6106 45.3192 63.7839 45.152 64.0749 45.1487C64.3658 45.1487 64.5144 45.3585 64.5515 45.6208C64.5855 45.8667 64.6629 45.9781 64.9136 46.0109C65.2045 46.0503 65.449 46.224 65.4367 46.5879C65.4243 46.9354 65.2138 47.1058 64.9074 47.1747C64.8208 47.1911 64.731 47.2107 64.632 47.2337Z" fill="#FFEB61"/>
<path d="M39.3928 62.5332C39.3339 62.9299 39.3247 63.3691 38.8047 63.3823C38.4581 63.3888 38.2971 63.1692 38.2136 62.5758C37.8515 62.4709 37.4182 62.3791 37.4646 61.8415C37.4986 61.4252 37.8236 61.2907 38.2136 61.2678C38.2414 61.1465 38.2662 61.0285 38.2971 60.9105C38.3714 60.6187 38.5447 60.4515 38.8357 60.4482C39.1266 60.4482 39.2751 60.658 39.3123 60.9203C39.3463 61.1662 39.4237 61.2776 39.6744 61.3104C39.9653 61.3498 40.2098 61.5235 40.1974 61.8874C40.1851 62.2349 39.9746 62.4053 39.6682 62.4742C39.5815 62.4906 39.4918 62.5102 39.3928 62.5332Z" fill="#FFEB61"/>
<path d="M29.1145 37.2351C27.8703 36.3205 27.109 35.1928 26.8428 33.6914C25.5553 35.9304 24.2863 38.1399 23.0545 40.2839C23.5343 40.5101 24.0449 40.674 24.4659 40.9723C25.4067 41.6345 25.7874 42.9425 25.4624 44.1194C25.1282 45.3258 24.1842 46.1093 23.005 46.165C21.8816 46.2175 20.8602 45.5454 20.4517 44.4308C20.0896 43.4408 20.2196 42.4934 20.7581 41.5952C22.4201 38.8284 24.0697 36.0583 25.7193 33.2849C26.0257 32.7669 26.3166 32.2424 26.6014 31.7113C26.7128 31.5048 26.8428 31.4065 27.0842 31.4065C29.3992 31.4163 31.7174 31.4097 34.0324 31.413C34.4657 31.413 34.6669 31.5737 34.7102 31.9277C34.7597 32.344 34.5523 32.5997 34.1345 32.603C33.4289 32.6096 32.7201 32.6063 31.9711 32.6063C31.965 32.7636 31.9526 32.9013 31.9526 33.0325C31.9619 34.6355 31.9742 36.2353 31.9835 37.8383C31.9835 37.8777 31.9866 37.9137 31.9866 37.9531C31.9712 38.3924 31.7359 38.7103 31.4233 38.7136C31.0829 38.7202 30.7858 38.376 30.7858 37.9367C30.7858 36.3861 30.7951 34.8355 30.7982 33.2849C30.7982 33.1439 30.826 32.9964 30.7858 32.8685C30.7548 32.7702 30.6465 32.6227 30.5691 32.6227C29.6933 32.6063 28.8174 32.6161 27.9415 32.6194C27.9075 32.6194 27.8765 32.6456 27.8177 32.6686C27.9167 33.7766 28.2758 34.7699 29.0185 35.5698C29.3435 35.9206 29.7552 36.1796 30.0956 36.5172C30.2658 36.6877 30.4082 36.9172 30.4949 37.1499C30.597 37.4253 30.4887 37.6679 30.2349 37.8285C30.0708 37.9334 29.9192 38.058 29.7675 38.1825C28.7802 38.9824 28.2572 40.0052 28.2696 41.3559C28.2912 44.103 28.2696 46.8469 28.2665 49.594C28.2634 51.8068 28.2696 54.0164 28.2541 56.2292C28.251 56.5701 28.3469 56.6586 28.6595 56.6586C29.6778 56.652 29.684 56.6652 29.684 55.5899C29.6902 51.243 29.6933 46.8961 29.6871 42.5459C29.6871 41.7329 29.9378 41.0707 30.6186 40.6543C31.6493 40.0216 32.977 40.7232 33.1689 42.005C33.2215 42.3524 33.2153 42.713 33.2153 43.0704C33.2122 47.4173 33.2091 51.7642 33.206 56.1144C33.206 56.2751 33.2184 56.439 33.2277 56.6193C33.63 56.6193 34.0014 56.6193 34.3728 56.6193C34.6266 56.6193 34.5709 56.4127 34.5709 56.2619C34.5771 54.7867 34.5802 53.3115 34.5802 51.8396C34.5802 48.2795 34.5678 44.7193 34.5771 41.1625C34.5833 39.8741 34.0355 38.93 33.0699 38.2153C32.9523 38.1268 32.8377 38.0285 32.7078 37.9695C32.129 37.7105 32.1878 36.9008 32.7108 36.5697C33.1875 36.2681 33.63 35.8681 34.0014 35.4321C34.7535 34.5404 35.1033 33.4849 34.9299 32.2654C34.8464 31.6654 35.0568 31.413 35.6387 31.3999C36.5146 31.377 37.3873 31.3704 38.2632 31.354C38.2725 31.354 38.2849 31.3409 38.3096 31.3245C38.3065 31.2852 38.3127 31.236 38.2973 31.1934C37.2604 28.7216 36.1958 26.2597 35.1899 23.7748C34.5585 22.2143 33.3732 21.562 31.9031 21.3685C30.2101 21.1456 28.6688 21.6177 27.2977 22.7028C27.2513 22.7388 27.208 22.7815 27.1678 22.8208C27.5237 23.0699 27.8579 23.3256 28.217 23.5387C28.2881 23.5781 28.4738 23.4666 28.5667 23.3781C30.0027 22.0439 32.1073 21.9685 33.6053 23.2011C35.3199 24.614 35.5861 27.1939 34.2026 29.0101C32.8625 30.7672 30.402 30.977 28.7338 29.469C28.4986 29.2559 28.2758 29.0134 28.0963 28.7478C27.9384 28.5184 27.7898 28.4987 27.5484 28.5642C26.2609 28.915 24.9672 29.2527 23.6704 29.5805C22.9772 29.7575 22.7017 29.469 22.8596 28.7445C23.1134 27.5939 23.3764 26.4465 23.6488 25.3024C23.7138 25.0303 23.6766 24.9123 23.4012 24.8107C22.0487 24.3058 21.3183 22.9191 21.5937 21.4505C21.8537 20.0704 23.0329 19.1033 24.3916 19.1525C25.4655 19.1918 26.5085 19.9884 26.8737 21.0538C26.9047 21.1489 26.9387 21.2407 26.9882 21.3784C27.1709 21.28 27.3349 21.1882 27.502 21.0965C29.3497 20.0704 31.2686 19.7786 33.2772 20.4769C34.6576 20.9555 35.6851 21.8209 36.2453 23.3027C36.8952 25.0238 37.6287 26.712 38.3251 28.4134C38.3777 28.538 38.4334 28.6626 38.5294 28.8822C38.5572 28.7019 38.5789 28.6265 38.5789 28.5511C38.5882 27.089 38.6006 25.627 38.5944 24.1649C38.5944 24.0337 38.4984 23.8895 38.418 23.7748C37.1583 22.0242 37.9413 19.5918 39.9159 19.1328C41.0239 18.8738 42.231 19.4049 42.8221 20.4146C43.4225 21.4374 43.3544 22.847 42.6302 23.7715C42.4476 24.0042 42.4445 24.2042 42.4538 24.4861C42.4909 25.7319 42.4817 26.9776 42.4909 28.22C42.4909 28.4167 42.4909 28.6101 42.5559 28.8199C42.6983 28.4659 42.8345 28.1053 42.9799 27.7512C43.5742 26.3056 44.221 24.8861 44.7565 23.4142C45.4126 21.6111 46.7125 20.7096 48.3899 20.2966C50.1726 19.8573 51.8687 20.1589 53.475 21.067C53.6514 21.1686 53.8278 21.2735 54.0383 21.3981C54.3292 20.4539 54.8182 19.7327 55.6848 19.3656C56.2388 19.1295 56.7959 19.0705 57.3777 19.2213C58.5012 19.5098 59.3771 20.5752 59.4668 21.7554C59.5814 23.2929 58.9376 24.2698 57.3158 24.9779C57.4056 25.3745 57.5015 25.7745 57.5882 26.1777C57.7708 27.0202 57.9565 27.8594 58.1329 28.7052C58.3 29.5117 58.0462 29.787 57.2725 29.5936C55.9881 29.2756 54.7099 28.9281 53.4317 28.5839C53.2552 28.5347 53.1376 28.5151 53.0107 28.715C51.7047 30.7541 49.0492 31.0819 47.2758 29.433C45.6788 27.9447 45.4807 25.604 46.8053 23.8567C48.099 22.152 50.5162 21.8341 52.1813 23.1519C52.3732 23.3027 52.5527 23.4666 52.6951 23.5879C53.0974 23.3224 53.4688 23.0765 53.8588 22.8208C53.8309 22.7847 53.8061 22.7257 53.7597 22.6929C51.8687 21.2931 49.8508 20.8768 47.6688 21.8308C46.9229 22.1553 46.3566 22.6962 46.0192 23.4994C44.9422 26.0662 43.8527 28.6265 42.7695 31.1868C42.7447 31.2425 42.7385 31.3016 42.7045 31.4261C42.8685 31.4261 42.9923 31.4261 43.1192 31.4261C43.9115 31.4261 44.7038 31.4196 45.4962 31.4294C45.8954 31.4327 46.1894 31.7736 46.1275 32.1703C45.9078 33.5406 46.3689 34.6716 47.251 35.6255C47.5822 35.9829 47.9907 36.2713 48.3838 36.5565C48.9749 36.986 48.9563 37.5171 48.3868 37.9563C47.8886 38.3399 47.4243 38.789 47.0189 39.2808C46.5856 39.802 46.4494 40.4707 46.4494 41.1657C46.4494 46.1617 46.4432 51.1577 46.4432 56.1538C46.4432 56.6521 46.4432 56.652 46.9106 56.6586C47.8452 56.6717 47.8421 56.6717 47.8421 55.7014C47.8421 51.302 47.8514 46.9059 47.836 42.5065C47.8329 41.4149 48.4828 40.7035 49.1606 40.5199C50.2933 40.2118 51.3518 41.0936 51.3797 42.3885C51.3952 43.2277 51.3766 44.067 51.3766 44.9062C51.3735 48.6696 51.3735 52.433 51.358 56.1931C51.3549 56.5799 51.4509 56.6914 51.8192 56.6848C52.7941 56.6619 52.7941 56.6783 52.7941 55.6489C52.791 50.9184 52.7693 46.1912 52.7941 41.464C52.8003 39.9102 52.1844 38.789 50.9804 37.976C50.3707 37.563 50.3491 37.0811 50.9526 36.6319C51.8347 35.973 52.5682 35.1895 52.9396 34.0913C53.0912 33.6422 53.1871 33.1701 53.3264 32.6555C53.1407 32.6391 53.0138 32.6161 52.89 32.6161C52.1472 32.6128 51.4014 32.6292 50.6586 32.6096C50.3614 32.603 50.2655 32.6915 50.2686 33.0128C50.2934 34.6027 50.2964 36.1894 50.3088 37.7793C50.3088 37.9072 50.3181 38.035 50.2965 38.1596C50.2377 38.494 49.9374 38.7726 49.6806 38.7464C49.3803 38.7169 49.1235 38.412 49.1173 38.0613C49.1142 37.7302 49.142 37.4023 49.142 37.0712C49.142 35.7108 49.1358 34.3503 49.1265 32.9898C49.1265 32.8915 49.1142 32.7931 49.1049 32.6555C48.9656 32.6489 48.8387 32.6358 48.7118 32.6358C48.1114 32.6358 47.511 32.6424 46.9106 32.6391C46.4866 32.6358 46.3566 32.5047 46.3473 32.0883C46.338 31.6687 46.5299 31.4425 46.9198 31.4392C49.2968 31.4294 51.6706 31.4196 54.0476 31.4261C54.1775 31.4261 54.357 31.5474 54.4282 31.672C56.0655 34.5109 57.6903 37.363 59.3276 40.2052C59.5906 40.6576 59.9187 41.0674 60.2034 41.5067C60.9555 42.6639 60.9555 44.0538 60.2096 45.0996C59.5473 46.0306 58.4455 46.4404 57.4304 46.1421C56.3595 45.8274 55.561 44.7947 55.4403 43.6408C55.2763 42.0771 56.2852 40.5232 58.0617 40.4183C56.7897 38.2022 55.5269 35.996 54.2301 33.734C53.9361 35.2289 53.1933 36.3762 52.0358 37.2646C52.7724 37.8318 53.3109 38.5169 53.5926 39.3725C53.7628 39.8905 53.9052 40.4544 53.9083 40.9985C53.933 46.0437 53.9237 51.0922 53.9237 56.1374C53.9237 56.3013 53.9237 56.4619 53.9237 56.6488C54.0475 56.6619 54.1373 56.6717 54.2301 56.6783C54.5954 56.7078 54.7842 56.911 54.7842 57.2815C54.7842 57.6552 54.5984 57.8814 54.2301 57.8847C53.0788 57.8978 51.9244 57.8978 50.7731 57.8912C50.3553 57.8879 50.2284 57.7339 50.2253 57.229C50.2129 55.1703 50.2067 53.1116 50.2067 51.0496C50.2067 48.368 50.2129 45.6864 50.216 43.0015C50.216 42.7852 50.216 42.5688 50.1881 42.3557C50.1417 41.9656 49.9281 41.7722 49.5908 41.782C49.2782 41.7919 49.0368 42.0279 48.9966 42.382C48.9873 42.4705 48.9904 42.559 48.9904 42.6475C48.9935 47.4402 48.9966 52.233 48.9997 57.0258C48.9997 57.7634 48.8728 57.9011 48.1919 57.9011C47.4491 57.9011 46.7032 57.9043 45.9604 57.8978C45.4621 57.8945 45.3012 57.7371 45.3012 57.2257C45.3012 51.9249 45.3043 46.624 45.2981 41.3231C45.295 39.6348 45.8923 38.2874 47.2232 37.3335C47.2386 37.3204 47.2448 37.2941 47.2293 37.3204C46.7744 36.8286 46.2297 36.4189 45.9202 35.8616C45.5735 35.2321 45.1557 35.1174 44.5522 35.16C43.9208 35.2059 43.2833 35.1699 42.6024 35.1699C42.59 35.3272 42.5745 35.4616 42.5745 35.596C42.5652 41.9525 42.5559 48.309 42.5467 54.6654C42.5467 55.5178 42.5498 56.3701 42.5374 57.2192C42.5312 57.747 42.3795 57.8978 41.8874 57.8978C41.0239 57.8978 40.1604 57.8978 39.2938 57.8945C38.6346 57.8912 38.5201 57.7666 38.5201 57.0651C38.5201 50.3546 38.5201 43.6408 38.5201 36.9303C38.5201 36.3631 38.5201 35.7927 38.5201 35.1863C37.8206 35.1863 37.1614 35.2289 36.5115 35.1731C35.8832 35.1207 35.4685 35.2715 35.1249 35.9009C34.8278 36.4418 34.3079 36.8483 33.8715 37.3335C33.8869 37.3466 33.9365 37.4089 33.9984 37.4548C35.1373 38.3301 35.7161 39.5102 35.7192 41.0018C35.7253 44.3456 35.7284 47.6894 35.7284 51.0299C35.7284 53.0526 35.7222 55.0719 35.713 57.0946C35.7099 57.7634 35.5799 57.8978 34.9516 57.9011C34.2429 57.9043 33.5341 57.9011 32.8285 57.8978C32.1971 57.8945 32.064 57.7666 32.0609 57.0946C32.0516 55.1605 32.0516 53.2296 32.0485 51.2987C32.0454 48.4893 32.0485 45.6798 32.0485 42.8704C32.0485 42.7065 32.0454 42.5393 32.0392 42.3754C32.0269 42.0148 31.8381 41.8115 31.5131 41.7558C31.2438 41.7099 30.956 41.9459 30.8879 42.2738C30.8477 42.4705 30.8508 42.677 30.8508 42.8802C30.8415 47.532 30.8353 52.1871 30.826 56.8389C30.8229 57.8683 30.7827 57.9076 29.8109 57.9043C28.8638 57.9011 27.9137 57.9043 26.9666 57.9076C26.7004 57.9076 26.4559 57.8125 26.4126 57.5306C26.3754 57.3044 26.4033 57.0159 26.5178 56.8356C26.6076 56.6914 26.8675 56.6684 27.1275 56.5635C27.1275 56.4849 27.1275 56.3373 27.1275 56.1931C27.1306 51.2987 27.1554 46.4076 27.1213 41.5132C27.1121 39.8118 27.6506 38.4415 28.8917 37.3761C28.9381 37.3007 29.0031 37.2876 29.1145 37.2351ZM39.724 24.7615C39.724 25.05 39.724 25.3516 39.724 25.6532C39.7179 34.8191 39.7086 43.9817 39.7024 53.1476C39.7024 54.177 39.6931 55.2064 39.7055 56.2357C39.7055 56.357 39.8014 56.5767 39.8602 56.5799C40.3554 56.6094 40.8537 56.5963 41.3241 56.5963C41.3241 45.9421 41.3241 35.3502 41.3241 24.7615C40.7763 24.7615 40.2904 24.7615 39.724 24.7615ZM49.792 29.2068C51.2528 29.2166 52.5434 27.8693 52.5496 26.3285C52.5558 24.8041 51.3518 23.5682 49.8539 23.5617C48.3714 23.5551 47.1055 24.8402 47.0839 26.3744C47.0653 27.8627 48.3373 29.1969 49.792 29.2068ZM31.2438 29.2035C32.6799 29.1871 33.9426 27.8922 33.9365 26.4432C33.9303 24.8435 32.6954 23.5387 31.2098 23.565C29.6994 23.5879 28.48 24.85 28.4986 26.3678C28.5172 27.9086 29.7892 29.2199 31.2438 29.2035ZM53.5678 27.3021C54.6851 27.6168 55.7405 27.9152 56.8237 28.2233C56.8237 28.1217 56.833 28.0692 56.8237 28.0233C56.6195 27.0956 56.4214 26.1679 56.1986 25.2467C56.1676 25.1123 56.0252 24.991 55.9076 24.9025C55.4867 24.5779 55.0534 24.2665 54.6201 23.9583C54.552 23.9092 54.4375 23.8502 54.3818 23.8797C54.0228 24.0698 53.6731 24.2829 53.3048 24.4992C53.7164 25.404 53.8062 26.3219 53.5678 27.3021ZM27.4432 27.3218C27.2018 26.3088 27.3256 25.3713 27.7341 24.4829C27.3008 24.2567 26.9171 24.0567 26.6571 23.919C26.0505 24.3026 25.5212 24.6304 24.9982 24.9779C24.9146 25.0336 24.8465 25.1614 24.8187 25.2696C24.6794 25.8073 24.5525 26.3514 24.4256 26.8924C24.3328 27.2923 24.2461 27.6955 24.1316 28.1938C25.2829 27.8922 26.3445 27.6136 27.4432 27.3218ZM24.2956 20.3752C23.3702 20.3818 22.6584 21.1292 22.6739 22.0832C22.6893 22.9716 23.4569 23.7715 24.308 23.778C25.1498 23.7846 25.97 22.8962 25.9514 21.9947C25.9329 21.1325 25.1529 20.3687 24.2956 20.3752ZM55.1246 21.998C55.1091 22.9421 55.8364 23.7453 56.7185 23.7616C57.5696 23.778 58.3372 22.988 58.3557 22.0799C58.3743 21.1653 57.6377 20.3752 56.7588 20.372C55.886 20.3654 55.1401 21.1096 55.1246 21.998ZM40.5071 23.5748C41.3675 23.5813 42.1041 22.8274 42.1165 21.9324C42.1288 21.0473 41.386 20.2703 40.5287 20.2671C39.6498 20.2638 38.9472 20.9686 38.9348 21.8668C38.9193 22.8077 39.6188 23.5682 40.5071 23.5748ZM58.1577 41.6017C57.2632 41.605 56.5761 42.3492 56.5823 43.3097C56.5885 44.2112 57.2756 44.9717 58.0896 44.975C58.919 44.9783 59.6154 44.2112 59.6185 43.2933C59.6185 42.3524 58.9716 41.5985 58.1577 41.6017ZM22.875 41.6345C22.0332 41.6444 21.374 42.4049 21.3895 43.349C21.4049 44.2407 22.1168 44.9881 22.9338 44.9717C23.7509 44.9554 24.4628 44.1751 24.4504 43.3097C24.4318 42.3623 23.7385 41.6247 22.875 41.6345ZM44.9112 32.5506C44.1653 32.5506 43.4721 32.544 42.7788 32.5604C42.7014 32.5637 42.5652 32.7112 42.559 32.803C42.5312 33.1177 42.5374 33.4357 42.5559 33.7537C42.5621 33.8323 42.6674 33.97 42.7293 33.97C43.4659 33.9864 44.2056 33.9799 44.9762 33.9799C44.9545 33.4947 44.9329 33.0456 44.9112 32.5506ZM36.1091 33.9897C36.5888 33.9897 37.0655 33.9995 37.5421 33.9864C38.7553 33.9504 38.5077 34.252 38.5418 32.8587C38.548 32.626 38.4582 32.5506 38.2447 32.5538C37.7526 32.5637 37.2604 32.5538 36.7683 32.5538C36.5579 32.5538 36.3505 32.5538 36.1091 32.5538C36.1091 33.0554 36.1091 33.4849 36.1091 33.9897Z" fill="#FFEB61"/>
</svg>
