<svg width="80" height="80" viewBox="0 0 80 80" fill="none" xmlns="http://www.w3.org/2000/svg">
<rect width="80" height="80" rx="40" fill="#111010"/>
<path d="M50.6281 44.8925C51.325 44.7334 51.9752 44.5841 52.6223 44.4412C53.2476 44.3049 53.3659 44.3796 53.5401 45.0288C53.593 45.2203 53.6427 45.4151 53.6925 45.6099C53.7423 45.8046 53.789 45.9962 53.8263 46.1455C53.9974 46.2786 54.1778 46.3662 54.2867 46.5123C55.4752 48.0867 56.6543 49.6676 57.824 51.255C57.8987 51.3588 57.9236 51.5406 57.9018 51.677C57.7432 52.6898 57.5627 53.6961 57.3947 54.7057C57.3605 54.9167 57.292 55.1341 57.0587 55.1114C56.9094 55.0984 56.7227 54.9848 56.6418 54.855C55.6152 53.2319 54.6041 51.5958 53.593 49.963C53.3316 49.541 53.3721 49.3625 53.7734 49.1093C54.1312 48.8853 54.4921 48.6678 54.8965 48.4211C54.545 47.9926 54.209 47.5706 53.8574 47.168C53.8045 47.1064 53.6707 47.0836 53.5836 47.1031C52.6316 47.3109 51.6828 47.5251 50.7339 47.7426C50.6841 47.7556 50.6374 47.7946 50.5503 47.8432C50.7992 48.0023 51.0139 48.1451 51.2348 48.2815C51.5179 48.4535 51.7948 48.6386 52.0934 48.7814C52.5943 49.0281 52.7841 49.3819 52.8027 49.9955C52.8743 52.3522 53.0205 54.7057 53.1387 57.0591C53.1699 57.6856 53.1512 57.7019 52.5601 57.796C52.3019 57.8382 52.0468 57.8837 51.7916 57.9291C51.577 57.9681 51.4525 57.8837 51.3903 57.6597C50.8365 55.6535 50.2797 53.6539 49.7259 51.651C49.6948 51.5374 49.645 51.4108 49.6668 51.3069C49.7663 50.8719 49.4677 50.7421 49.1939 50.583C48.749 50.3233 48.3072 50.0636 47.8686 49.7942C47.6975 49.6903 47.5668 49.7033 47.4112 49.8299C45.2428 51.5991 42.7788 52.3814 40.0349 52.1834C37.882 52.0276 35.9438 51.242 34.2513 49.8364C34.0398 49.6579 33.8905 49.6351 33.6602 49.7845C33.1531 50.1123 32.6274 50.4142 32.1078 50.7258C31.9585 50.8135 31.8558 50.8947 31.9087 51.1121C31.9398 51.2387 31.9025 51.3913 31.8651 51.5244C31.3145 53.5662 30.7545 55.6048 30.2069 57.6467C30.1385 57.9031 30.0296 57.9973 29.7745 57.9356C29.5007 57.8707 29.2176 57.835 28.9376 57.7928C28.4554 57.7181 28.3838 57.624 28.4149 57.1305C28.4803 56.082 28.5394 55.0368 28.5985 53.9883C28.6794 52.5307 28.7665 51.0699 28.8318 49.6092C28.8443 49.3008 28.9625 49.106 29.2083 48.9599C29.6376 48.7002 30.0607 48.4276 30.4838 48.1581C30.6549 48.0478 30.8229 47.9341 31.0563 47.7751C30.3563 47.616 29.7247 47.4732 29.0932 47.3336C28.7945 47.2654 28.4927 47.2135 28.2003 47.1258C27.939 47.0447 27.7554 47.0966 27.5843 47.3271C27.3136 47.6907 27.0181 48.0283 26.7039 48.4146C27.0585 48.6385 27.3945 48.8463 27.7212 49.0638C28.2345 49.4046 28.2656 49.5183 27.939 50.0474C26.9652 51.638 25.9883 53.2222 24.9959 54.7998C24.9025 54.9459 24.6723 55.1277 24.5603 55.0919C24.411 55.0497 24.2492 54.8225 24.215 54.6505C24.0097 53.6474 23.8354 52.6378 23.6643 51.6315C23.6425 51.5114 23.6861 51.3426 23.7577 51.242C24.887 49.6968 25.9821 48.1192 27.1954 46.6422C27.603 46.1455 27.8985 45.6748 28.023 45.058C28.0447 44.9444 28.0914 44.834 28.1256 44.7204C28.2252 44.4153 28.3932 44.3114 28.7198 44.3958C29.4292 44.5776 30.1509 44.7107 30.9069 44.873C30.8914 44.7626 30.8914 44.6847 30.8665 44.6133C30.5087 43.4999 30.2847 42.3605 30.2349 41.1886C30.2256 40.9808 30.1354 40.9451 29.9705 40.9159C28.5332 40.6692 27.099 40.4063 25.6616 40.1595C25.1296 40.0654 25.0768 40.0167 24.9679 39.4714C24.6879 38.0755 24.4203 36.6764 24.1123 35.2903C23.8385 34.0535 23.8354 32.8557 24.2492 31.6383C24.6474 30.46 24.9554 29.2524 25.3194 28.0611C25.3692 27.8955 25.4781 27.7137 25.6088 27.6131C26.7599 26.7204 27.9327 25.8569 29.0838 24.9642C29.7185 24.4675 30.462 24.4838 31.1869 24.4124C32.3691 24.2955 33.5514 24.2176 34.7367 24.1267C34.9451 24.1105 35.1753 24.052 35.3029 24.3182C35.4304 24.5876 35.2687 24.7564 35.11 24.935C34.1113 26.0614 33.1189 27.1911 32.1234 28.3175C31.8247 28.6551 31.5976 28.6713 31.386 28.2623C31.1714 27.8436 30.8478 27.7527 30.4589 27.6942C29.846 27.6001 29.2394 27.4832 28.5892 27.3664C28.4492 28.0643 28.3092 28.7395 28.1754 29.418C27.8394 31.1157 27.5034 32.8102 27.1767 34.508C27.1581 34.6086 27.2016 34.7741 27.2732 34.8326C28.3652 35.7318 29.4634 36.6147 30.5647 37.5009C30.5803 37.5139 30.6083 37.5139 30.6456 37.5237C30.6674 37.4944 30.7047 37.462 30.7172 37.423C31.7158 34.1996 33.9465 32.3752 36.9922 31.5832C40.3242 30.7197 43.6095 30.8917 46.7548 32.4434C48.7334 33.4205 50.0463 35.0403 50.7619 37.1958C50.8023 37.3159 50.8459 37.4328 50.9019 37.5886C51.0045 37.5301 51.0854 37.4977 51.1508 37.4425C52.1588 36.6082 53.1636 35.7642 54.1778 34.9365C54.4174 34.7417 54.4703 34.5404 54.4081 34.2385C53.957 32.0733 53.5152 29.9081 53.089 27.7364C53.0361 27.4638 52.949 27.3794 52.6908 27.4313C52.0343 27.5579 51.3779 27.6683 50.7214 27.7819C50.5254 27.8176 50.3917 27.8923 50.2921 28.1097C50.0308 28.6778 49.7912 28.707 49.393 28.2526C48.4099 27.1294 47.4268 26.0062 46.4592 24.8668C46.3597 24.75 46.285 24.4838 46.3441 24.3766C46.4157 24.2436 46.649 24.117 46.8015 24.1267C48.3788 24.2436 49.9561 24.3734 51.5303 24.5422C51.8383 24.5747 52.1588 24.7532 52.4201 24.9415C53.6054 25.805 54.7752 26.6912 55.9418 27.5871C56.0912 27.7007 56.2063 27.902 56.2623 28.0903C56.6076 29.2102 56.8876 30.3561 57.2765 31.463C57.7214 32.7323 57.74 33.9886 57.46 35.287C57.152 36.7251 56.8752 38.1696 56.5983 39.6109C56.5361 39.942 56.3681 40.0946 56.0632 40.1466C54.6258 40.3868 53.1885 40.6432 51.7512 40.8737C51.4556 40.9224 51.3343 41.0263 51.3219 41.3509C51.2721 42.5422 51.0108 43.7011 50.6281 44.8925ZM40.7224 31.885C39.5651 31.885 38.4233 32.0116 37.2971 32.3103C35.4522 32.8005 33.8407 33.6932 32.6398 35.2741C31.6567 36.5628 31.19 38.0625 31.0656 39.6824C30.8167 42.8993 31.5851 45.8209 33.6945 48.2166C35.8318 50.6414 38.5726 51.6445 41.7055 51.3881C43.9268 51.2063 45.9179 50.3363 47.4859 48.671C50.093 45.8988 51.0014 42.5163 50.3761 38.7215C49.9405 36.0856 48.5063 34.1671 46.1606 33.0277C44.4339 32.1869 42.6046 31.898 40.7224 31.885ZM24.6412 33.5958C24.6536 33.7743 24.6505 33.9399 24.6816 34.0957C24.999 35.735 25.3288 37.3678 25.6368 39.0104C25.6834 39.2571 25.7861 39.3448 25.9976 39.3837C26.7536 39.5168 27.5096 39.6629 28.2656 39.796C28.9158 39.9128 29.5692 40.0167 30.2287 40.1238C30.294 39.6661 30.3376 39.2474 30.4185 38.8319C30.4745 38.5494 30.406 38.3774 30.182 38.2086C29.6158 37.7801 29.0621 37.3321 28.5176 36.8744C27.2358 35.7999 25.9634 34.7125 24.6412 33.5958ZM51.3654 40.1628C52.809 39.8836 54.2494 39.6109 55.6898 39.322C55.7707 39.3058 55.8796 39.1824 55.8952 39.0915C56.2249 37.4912 56.5423 35.8876 56.8565 34.284C56.8969 34.0762 56.8969 33.8652 56.9156 33.6542C56.3027 34.1119 55.7863 34.6053 55.2449 35.0631C53.9787 36.131 52.7001 37.1796 51.4308 38.2411C51.3063 38.3449 51.129 38.504 51.1383 38.6241C51.1756 39.124 51.2752 39.6174 51.3654 40.1628ZM25.7332 29.4374C25.6803 29.5738 25.6368 29.6679 25.6056 29.7653C25.391 30.473 25.1825 31.1806 24.971 31.885C24.7439 32.6382 24.747 32.6382 25.3256 33.1381C25.6959 33.4562 26.063 33.7776 26.4363 34.1022C26.4767 34.0405 26.4954 34.021 26.4985 34.0016C26.7443 32.781 26.9901 31.5604 27.2203 30.3366C27.2358 30.249 27.1518 30.0834 27.0741 30.0445C26.651 29.8335 26.2092 29.6517 25.7332 29.4374ZM55.1672 34.1184C55.7303 33.6282 56.2343 33.1965 56.7227 32.7453C56.7849 32.6869 56.788 32.5083 56.7569 32.4077C56.5205 31.5961 56.2716 30.7911 56.0258 29.986C55.9729 29.8107 55.9201 29.6354 55.8547 29.418C55.3072 29.6679 54.797 29.8984 54.293 30.1289C54.5854 31.4598 54.8685 32.7518 55.1672 34.1184ZM29.5723 50.7064C29.5505 50.8589 29.5381 50.9368 29.5318 51.0148C29.4665 52.1671 29.4012 53.3195 29.3389 54.4719C29.2985 55.2121 29.2581 55.9554 29.2363 56.6956C29.2332 56.8189 29.3265 56.9488 29.3732 57.0721C29.4634 56.965 29.5598 56.8676 29.6345 56.754C29.6812 56.6793 29.6905 56.5755 29.7154 56.4846C30.0327 55.3549 30.3532 54.2252 30.6705 53.0956C30.8136 52.5924 30.9567 52.086 31.1029 51.5763C30.5927 51.2874 30.1105 51.0115 29.5723 50.7064ZM50.4259 51.6153C50.4321 51.664 50.4352 51.7094 50.4477 51.7516C50.7743 52.8294 51.1041 53.9071 51.4276 54.9848C51.6205 55.6243 51.801 56.2703 51.997 56.9098C52.0219 56.9942 52.1214 57.0526 52.1868 57.1208C52.2428 57.0299 52.3112 56.9455 52.3454 56.8481C52.3672 56.7897 52.3423 56.7085 52.3392 56.6371C52.2396 54.7771 52.1432 52.9203 52.0436 51.0602C52.0405 50.9726 52.0156 50.8849 51.9939 50.7713C51.4525 51.0634 50.9454 51.3394 50.4259 51.6153ZM27.2638 49.6708C26.9154 49.4598 26.5981 49.2683 26.2527 49.0638C25.7923 49.7033 25.3754 50.346 24.8901 50.9336C24.4981 51.4075 24.355 51.8717 24.5634 52.4723C24.6816 52.8131 24.7128 53.1864 24.803 53.6442C25.6554 52.2678 26.4487 50.9888 27.2638 49.6708ZM54.3303 49.6676C55.1454 50.9888 55.9418 52.284 56.7849 53.6571C56.9187 52.9527 57.0338 52.3554 57.1365 51.7549C57.152 51.6705 57.1303 51.5569 57.0805 51.4919C56.5112 50.6901 55.9325 49.8981 55.3476 49.0898C54.9992 49.2878 54.6756 49.4696 54.3303 49.6676ZM48.1983 49.0411C48.4908 49.2294 48.7552 49.3787 49.001 49.5605C49.4677 49.9046 49.9188 50.2681 50.3823 50.6122C50.4445 50.6577 50.5752 50.6479 50.653 50.6122C51.0232 50.4402 51.3903 50.2584 51.7512 50.0669C51.8414 50.0182 51.9783 49.9111 51.969 49.8461C51.9534 49.726 51.8725 49.5832 51.7761 49.5183C50.9921 48.9891 50.1957 48.4698 49.4023 47.9601C49.3339 47.9147 49.1814 47.8952 49.1441 47.9374C48.8299 48.2782 48.5343 48.6451 48.1983 49.0411ZM32.3567 47.827C31.5043 48.3853 30.6612 48.934 29.8243 49.4858C29.7496 49.5345 29.6625 49.6027 29.6376 49.6806C29.6158 49.7585 29.6407 49.9078 29.6936 49.9403C30.1509 50.2097 30.6207 50.4597 31.0376 50.6901C31.2305 50.5084 31.3736 50.3428 31.5447 50.2227C31.946 49.9403 32.366 49.6806 32.7767 49.4144C32.9727 49.2845 33.1718 49.1612 33.3865 49.0216C33.0194 48.5996 32.6896 48.2165 32.3567 47.827ZM50.877 25.2466C49.7228 25.1395 48.6432 25.0421 47.4703 24.9317C48.2699 25.8179 48.9979 26.623 49.7663 27.4735C50.1428 26.7204 50.4912 26.0192 50.877 25.2466ZM31.806 27.4638C32.5745 26.6165 33.2994 25.8212 34.0211 25.0226C34.0056 24.9967 33.9869 24.9707 33.9713 24.9415C32.9011 25.0389 31.8309 25.1395 30.7016 25.2434C31.0811 26.0127 31.4296 26.7106 31.806 27.4638ZM49.6668 47.1064C49.6854 47.1323 49.7072 47.1615 49.7259 47.1875C50.8614 46.9181 51.9939 46.6454 53.1667 46.3662C53.0827 46.0546 52.9987 45.7787 52.9365 45.4963C52.8836 45.256 52.7623 45.2138 52.5445 45.2723C51.8663 45.4443 51.185 45.5969 50.5037 45.7592C50.4197 45.7787 50.3014 45.8046 50.2672 45.8663C50.0619 46.2721 49.8659 46.6908 49.6668 47.1064ZM28.4243 46.3792C29.5909 46.6422 30.7296 46.8986 31.9554 47.1713C31.7158 46.6746 31.5291 46.2753 31.33 45.8826C31.2989 45.8209 31.2149 45.7689 31.1496 45.7527C30.4123 45.5872 29.6718 45.4281 28.9314 45.2625C28.7665 45.2268 28.6794 45.2723 28.6452 45.4541C28.5861 45.7462 28.5083 46.0254 28.4243 46.3792ZM27.9016 27.0223C27.8798 27.0028 27.855 26.9866 27.8332 26.9671C27.2421 27.4086 26.6416 27.8338 26.0661 28.2948C25.9354 28.4019 25.8016 28.6421 26.0785 28.772C26.5047 28.9765 26.9465 29.1518 27.4194 29.3563C27.5874 28.561 27.743 27.7916 27.9016 27.0223ZM54.1187 29.2459C54.1872 29.2459 54.2245 29.2556 54.2525 29.2459C54.6227 29.0966 54.9867 28.9505 55.3538 28.7979C55.7054 28.6486 55.7427 28.4766 55.4472 28.2299C55.0583 27.9085 54.6507 27.6163 54.2494 27.3112C54.0814 27.1846 53.9103 27.0677 53.6614 26.8892C53.8232 27.7429 53.9694 28.4928 54.1187 29.2459ZM50.8365 26.9963C51.6485 26.8275 52.3796 26.6749 53.1076 26.5224C53.1076 26.4769 53.1107 26.4347 53.1107 26.3893C52.6347 26.0517 52.1588 25.7173 51.661 25.3602C51.3716 25.9316 51.1228 26.4217 50.8365 26.9963ZM29.902 25.3602C29.3887 25.74 28.9221 26.0841 28.4554 26.4282C28.4678 26.4639 28.4803 26.4996 28.4958 26.5353C29.2145 26.6847 29.9332 26.8308 30.7327 26.9931C30.4434 26.4282 30.1945 25.9348 29.902 25.3602Z" fill="#FFEB61" stroke="#FFEB61" stroke-width="0.1" stroke-miterlimit="10"/>
<path d="M40.7633 43.2467C41.1553 42.5228 41.6189 41.9677 42.2629 41.6008C42.4931 41.4677 42.7326 41.3898 42.9224 41.6723C43.0593 41.8735 43.0842 42.0456 42.8197 42.1819C42.2473 42.4741 41.7993 42.9123 41.4789 43.4901C41.4042 43.6232 41.3389 43.7595 41.286 43.9024C41.0433 44.5646 41.0589 44.5906 41.6531 44.9184C42.3966 45.3307 42.826 45.9767 42.8851 46.8564C42.9193 47.3596 42.9162 47.8724 42.8882 48.3756C42.882 48.5087 42.7233 48.6353 42.6362 48.7652C42.4993 48.6613 42.2909 48.5834 42.2442 48.4438C42.1664 48.2198 42.1975 47.9569 42.1851 47.7134C42.1633 47.3628 42.1944 46.9992 42.1166 46.6616C41.9455 45.9053 41.314 45.4313 40.6607 45.506C39.9918 45.5839 39.4318 46.2169 39.3882 46.9862C39.3633 47.3855 39.3851 47.7881 39.3696 48.1873C39.3633 48.3237 39.3509 48.4925 39.2762 48.5834C39.1953 48.6808 39.0304 48.7684 38.9153 48.7522C38.8189 48.7392 38.6602 48.5736 38.6633 48.4795C38.6851 47.7296 38.6509 46.9635 38.8033 46.2396C38.9558 45.5157 39.5096 45.045 40.1847 44.8016C40.4304 44.7139 40.4553 44.6003 40.4024 44.3633C40.2002 43.4641 39.7211 42.7857 38.9807 42.2955C38.7598 42.1462 38.458 42.0261 38.6353 41.6495C38.7442 41.4158 39.0304 41.4191 39.3851 41.6366C39.9856 42.0066 40.4242 42.5357 40.7633 43.2467Z" fill="#FFEB61" stroke="#FFEB61" stroke-width="0.1" stroke-miterlimit="10"/>
<path d="M42.4938 37.991C42.4938 39.0461 41.7347 39.8641 40.7641 39.8641C39.7996 39.8641 38.997 39.0363 39.0063 38.0495C39.0156 37.0139 39.7872 36.2056 40.7703 36.2024C41.7347 36.1992 42.4938 36.988 42.4938 37.991ZM39.7592 38.043C39.7592 38.6273 40.1823 39.0818 40.7361 39.085C41.2805 39.0883 41.8032 38.5624 41.7938 38.0105C41.7845 37.4424 41.3427 36.9847 40.7952 36.9815C40.1979 36.9782 39.7592 37.4262 39.7592 38.043Z" fill="#FFEB61" stroke="#FFEB61" stroke-width="0.1" stroke-miterlimit="10"/>
<path d="M37.4719 43.4447C37.4719 43.9381 37.4719 44.4348 37.4719 44.9282C37.4719 45.1847 37.391 45.3794 37.1204 45.3924C36.8155 45.4054 36.7408 45.1814 36.7377 44.925C36.7346 43.9349 36.7346 42.9448 36.7439 41.9547C36.747 41.6139 36.9306 41.4061 37.1733 41.4418C37.4844 41.4873 37.5124 41.7243 37.5093 41.9969C37.4999 42.4806 37.5061 42.9643 37.5061 43.4447C37.4968 43.4447 37.4844 43.4447 37.4719 43.4447Z" fill="#FFEB61" stroke="#FFEB61" stroke-width="0.1" stroke-miterlimit="10"/>
<path d="M44.8136 43.5032C44.8136 43.9966 44.8354 44.4933 44.8011 44.9834C44.7918 45.1295 44.6238 45.3827 44.5367 45.3795C44.3842 45.373 44.2225 45.2237 44.098 45.0971C44.042 45.0419 44.0607 44.8958 44.0607 44.7919C44.0607 43.8733 44.0638 42.9578 44.0669 42.0392C44.0669 41.9905 44.0669 41.9418 44.0731 41.8963C44.1074 41.6691 44.1385 41.4126 44.4216 41.4224C44.6922 41.4321 44.8042 41.6464 44.8074 41.9126C44.8136 42.4417 44.8074 42.9708 44.8074 43.4999C44.8105 43.5032 44.8105 43.5032 44.8136 43.5032Z" fill="#FFEB61" stroke="#FFEB61" stroke-width="0.1" stroke-miterlimit="10"/>
<path d="M37.6612 34.5437C37.655 34.8001 37.4217 35.0209 37.1666 35.0144C36.8959 35.0079 36.6719 34.7677 36.6781 34.4885C36.6844 34.232 36.9395 33.9918 37.2008 33.9918C37.4497 33.9983 37.6706 34.2613 37.6612 34.5437Z" fill="#FFEB61" stroke="#FFEB61" stroke-width="0.1" stroke-miterlimit="10"/>
<path d="M43.9363 34.4722C43.9612 34.1865 44.1727 33.9885 44.4341 34.008C44.7079 34.0274 44.8976 34.2709 44.8696 34.5696C44.8416 34.852 44.6301 35.0338 44.3563 35.011C44.0981 34.9916 43.9114 34.7513 43.9363 34.4722Z" fill="#FFEB61" stroke="#FFEB61" stroke-width="0.1" stroke-miterlimit="10"/>
<path d="M40.7566 34.2158C40.4921 34.219 40.2744 34.0048 40.265 33.7386C40.2588 33.4919 40.4704 33.2776 40.7224 33.2776C41.0117 33.2776 41.2077 33.4692 41.2046 33.7483C41.2077 34.0113 41.0148 34.2125 40.7566 34.2158Z" fill="#FFEB61" stroke="#FFEB61" stroke-width="0.1" stroke-miterlimit="10"/>
<path d="M62.7518 23.5388C62.7518 23.4057 62.7518 23.2759 62.7518 23.1428C62.7487 22.4449 62.6087 22.2306 61.9647 22.0391C61.8682 22.0099 61.7313 22.0748 61.6287 22.13C61.106 22.4156 60.5989 22.7143 60.0762 22.9967C59.7558 23.172 59.4665 23.1201 59.2985 22.763C59.1336 22.4221 59.2269 22.143 59.5505 21.9514C60.0234 21.669 60.49 21.3704 60.9691 21.1009C61.1558 20.9938 61.2336 20.8867 61.1869 20.6562C61.1496 20.4744 61.1247 20.2634 61.1776 20.0946C61.3269 19.6174 61.106 19.4064 60.7296 19.2311C60.3594 19.0591 59.9985 18.8611 59.6562 18.6371C59.2798 18.3936 59.1865 18.0301 59.3887 17.7087C59.6158 17.3419 59.9207 17.3938 60.2318 17.5691C60.686 17.8288 61.1402 18.0852 61.582 18.3677C61.7811 18.4943 61.946 18.5819 62.1233 18.3547C62.1389 18.3319 62.1669 18.3092 62.1918 18.3027C62.8264 18.1761 62.7922 17.686 62.7735 17.1828C62.758 16.8192 62.7673 16.4524 62.7922 16.0888C62.814 15.7577 62.9913 15.537 63.3149 15.511C63.6291 15.4851 63.9402 15.787 63.9495 16.1343C63.9682 16.6732 63.9682 17.2153 63.9558 17.7541C63.9495 17.9749 64.0584 18.043 64.2202 18.1696C64.7086 18.5429 65.0944 18.3936 65.5269 18.0723C65.8442 17.8353 66.2082 17.673 66.5566 17.4879C66.8242 17.3451 67.0762 17.3548 67.2473 17.6535C67.4246 17.9619 67.4713 18.2865 67.1508 18.5072C66.7215 18.8059 66.2704 19.0753 65.81 19.3188C65.5331 19.4649 65.3838 19.6109 65.5082 19.9583C65.5611 20.1011 65.5798 20.2926 65.5331 20.4322C65.3931 20.8445 65.6109 21.0003 65.9126 21.1594C66.3202 21.3801 66.7215 21.6268 67.1042 21.8898C67.4433 22.1235 67.5242 22.4708 67.3406 22.7954C67.1291 23.1687 66.8242 23.1623 66.51 22.9805C66.0557 22.7208 65.6046 22.4546 65.1691 22.1657C64.9575 22.0261 64.8113 22.065 64.5749 22.1365C63.9184 22.3377 63.8842 22.8019 63.9184 23.3733C63.9433 23.7368 63.9153 24.1037 63.8935 24.4672C63.8749 24.8373 63.6944 25.0905 63.3211 25.0807C62.9571 25.071 62.7673 24.8275 62.7549 24.4542C62.7424 24.1523 62.7518 23.844 62.7518 23.5388C62.758 23.5388 62.758 23.5388 62.7518 23.5388ZM64.2482 20.3121C64.2575 19.7668 63.8593 19.3285 63.3429 19.322C62.8638 19.3155 62.4562 19.7473 62.4469 20.2732C62.4376 20.7633 62.8264 21.1561 63.3429 21.1723C63.8655 21.1918 64.2358 20.8412 64.2482 20.3121Z" fill="#FFEB61"/>
<path d="M62.7518 23.5388C62.7518 23.4057 62.7518 23.2759 62.7518 23.1428C62.7487 22.4449 62.6087 22.2306 61.9647 22.0391C61.8682 22.0099 61.7313 22.0748 61.6287 22.13C61.106 22.4156 60.5989 22.7143 60.0762 22.9967C59.7558 23.172 59.4665 23.1201 59.2985 22.763C59.1336 22.4221 59.2269 22.143 59.5505 21.9514C60.0234 21.669 60.49 21.3704 60.9691 21.1009C61.1558 20.9938 61.2336 20.8867 61.1869 20.6562C61.1496 20.4744 61.1247 20.2634 61.1776 20.0946C61.3269 19.6174 61.106 19.4064 60.7296 19.2311C60.3594 19.0591 59.9985 18.8611 59.6562 18.6371C59.2798 18.3936 59.1865 18.0301 59.3887 17.7087C59.6158 17.3419 59.9207 17.3938 60.2318 17.5691C60.686 17.8288 61.1402 18.0852 61.582 18.3677C61.7811 18.4943 61.946 18.5819 62.1233 18.3547C62.1389 18.3319 62.1669 18.3092 62.1918 18.3027C62.8264 18.1761 62.7922 17.686 62.7735 17.1828C62.758 16.8192 62.7673 16.4524 62.7922 16.0888C62.814 15.7577 62.9913 15.537 63.3149 15.511C63.6291 15.4851 63.9402 15.787 63.9495 16.1343C63.9682 16.6732 63.9682 17.2153 63.9558 17.7541C63.9495 17.9749 64.0584 18.043 64.2202 18.1696C64.7086 18.5429 65.0944 18.3936 65.5269 18.0723C65.8442 17.8353 66.2082 17.673 66.5566 17.4879C66.8242 17.3451 67.0762 17.3548 67.2473 17.6535C67.4246 17.9619 67.4713 18.2865 67.1508 18.5072C66.7215 18.8059 66.2704 19.0753 65.81 19.3188C65.5331 19.4649 65.3838 19.6109 65.5082 19.9583C65.5611 20.1011 65.5798 20.2926 65.5331 20.4322C65.3931 20.8445 65.6109 21.0003 65.9126 21.1594C66.3202 21.3801 66.7215 21.6268 67.1042 21.8898C67.4433 22.1235 67.5242 22.4708 67.3406 22.7954C67.1291 23.1687 66.8242 23.1623 66.51 22.9805C66.0557 22.7208 65.6046 22.4546 65.1691 22.1657C64.9575 22.0261 64.8113 22.065 64.5749 22.1365C63.9184 22.3377 63.8842 22.8019 63.9184 23.3733C63.9433 23.7368 63.9153 24.1037 63.8935 24.4672C63.8749 24.8373 63.6944 25.0905 63.3211 25.0807C62.9571 25.071 62.7673 24.8275 62.7549 24.4542C62.7424 24.1523 62.7518 23.844 62.7518 23.5388ZM62.7518 23.5388C62.758 23.5388 62.758 23.5388 62.7518 23.5388ZM64.2482 20.3121C64.2575 19.7668 63.8593 19.3285 63.3429 19.322C62.8638 19.3155 62.4562 19.7473 62.4469 20.2732C62.4376 20.7633 62.8264 21.1561 63.3429 21.1723C63.8655 21.1918 64.2358 20.8412 64.2482 20.3121Z" stroke="#FFEB61" stroke-width="0.25" stroke-miterlimit="10"/>
<path d="M15.495 23.5673C15.495 23.4505 15.4794 23.3304 15.4981 23.2168C15.5821 22.6584 15.4203 22.2884 14.8634 22.0936C14.627 22.0124 14.4777 21.9832 14.2599 22.1325C13.8181 22.4409 13.3546 22.7136 12.891 22.983C12.5892 23.1583 12.2906 23.1551 12.1008 22.7915C11.9204 22.4442 11.9795 22.1293 12.2999 21.9118C12.723 21.6294 13.1804 21.3957 13.5941 21.097C13.7341 20.9964 13.7963 20.7659 13.8741 20.5874C13.9021 20.5289 13.8586 20.438 13.8803 20.3699C14.0981 19.6849 13.7683 19.3376 13.2021 19.0974C12.919 18.9773 12.6608 18.7922 12.3995 18.6267C12.0946 18.4319 11.9795 18.0391 12.135 17.7275C12.2875 17.4223 12.6204 17.3314 12.9688 17.5327C13.423 17.7924 13.8741 18.0618 14.3097 18.3475C14.515 18.4806 14.6768 18.5195 14.8728 18.3507C14.9661 18.2696 15.0906 18.2144 15.2119 18.1852C15.4359 18.1333 15.4919 17.9969 15.4857 17.7762C15.4732 17.2633 15.4763 16.7536 15.4826 16.2407C15.4888 15.796 15.7066 15.5168 16.0363 15.5006C16.3785 15.4844 16.6243 15.7668 16.643 16.2375C16.6617 16.7342 16.6554 17.2308 16.6679 17.7275C16.6772 18.1657 17.3896 18.578 17.7661 18.3605C18.2576 18.0781 18.7367 17.7729 19.2407 17.523C19.695 17.299 20.0621 17.5003 20.1305 17.9612C20.1772 18.2566 20.059 18.4676 19.8101 18.6104C19.3434 18.8734 18.8799 19.1526 18.4132 19.4122C18.2048 19.5291 18.0772 19.6525 18.1892 19.9284C18.2359 20.042 18.2545 20.2011 18.2172 20.3147C18.0336 20.8633 18.3136 21.0905 18.743 21.2983C19.135 21.4866 19.5083 21.73 19.8692 21.9767C20.2114 22.2137 20.2861 22.5643 20.0963 22.8824C19.8847 23.2395 19.5861 23.1973 19.2905 23.0285C18.799 22.7461 18.3199 22.4474 17.8345 22.1585C17.4301 21.915 16.6865 22.3435 16.6741 22.8305C16.6617 23.3693 16.6679 23.9114 16.6585 24.4536C16.6523 24.8528 16.419 25.119 16.0768 25.1093C15.7003 25.0995 15.5261 24.8561 15.5106 24.486C15.4981 24.1809 15.5074 23.8725 15.5074 23.5641C15.5012 23.5674 15.4981 23.5673 15.495 23.5673ZM16.083 21.1814C16.6274 21.1717 16.9821 20.7951 16.9665 20.24C16.9541 19.7271 16.5248 19.3149 16.0239 19.3343C15.5292 19.3506 15.1808 19.7758 15.1932 20.3406C15.2026 20.8178 15.5977 21.1911 16.083 21.1814Z" fill="#FFEB61" stroke="#FFEB61" stroke-width="0.25" stroke-miterlimit="10"/>
<path d="M18.2295 55.5129C18.1456 54.578 18.2949 53.7535 18.7553 53.0198C18.8891 52.8056 19.0695 52.5751 19.2811 52.4777C19.4584 52.3966 19.7758 52.4161 19.9158 52.5362C20.0526 52.6563 20.0651 52.9549 20.0775 53.1822C20.0838 53.2925 19.9749 53.4159 19.9126 53.5295C19.334 54.5683 19.1847 55.6363 19.8566 56.6718C20.5255 57.7073 21.5584 57.8502 22.6597 57.7333C22.8371 57.7138 23.058 57.6456 23.1824 57.7268C23.3535 57.8372 23.5433 58.0676 23.5495 58.2494C23.5557 58.4312 23.3784 58.6942 23.2135 58.7883C22.4233 59.2298 21.5957 59.1713 20.7744 58.8565C20.6438 58.8045 20.5162 58.7461 20.3855 58.6909C20.3731 58.6844 20.3575 58.6909 20.2984 58.6909C20.286 58.9603 20.286 59.233 20.2611 59.5025C20.1864 60.3237 19.9655 61.0801 19.3184 61.6255C19.0975 61.8137 18.8113 61.8787 18.6433 61.6417C18.5064 61.4534 18.494 61.1515 18.4753 60.8951C18.466 60.7847 18.6091 60.6743 18.6495 60.5542C18.7958 60.1322 18.9949 59.7102 19.0509 59.2752C19.2562 57.6521 18.0864 56.3602 16.4749 56.3926C16.2509 56.3991 16.0238 56.4153 15.8122 56.4803C15.4296 56.5971 15.1776 56.464 15.0314 56.1037C14.9131 55.8116 15.0811 55.4577 15.442 55.2987C16.1762 54.9708 16.9198 55.0487 17.6571 55.2954C17.8282 55.3538 17.9931 55.422 18.2295 55.5129Z" fill="#FFEB61" stroke="#FFEB61" stroke-width="0.25" stroke-miterlimit="10"/>
<path d="M64.7025 48.8518C65.2345 48.618 65.7323 48.3519 66.2581 48.1896C66.6096 48.0792 67.0047 48.0694 67.378 48.0922C67.7887 48.1181 68.0283 48.4233 67.9971 48.7804C67.9629 49.2056 67.6923 49.329 67.3283 49.3419C66.342 49.3776 65.4741 49.7055 64.9203 50.6112C64.2763 51.6565 64.4567 52.9582 65.3309 54.0067C65.4585 54.156 65.6296 54.3346 65.6358 54.5066C65.6421 54.7111 65.5425 55.0163 65.3932 55.1071C65.2283 55.2045 64.9109 55.1916 64.7429 55.0812C63.9932 54.604 63.6136 53.8541 63.4363 52.9744C63.399 52.7926 63.3803 52.6076 63.371 52.5427C62.6865 52.7959 62.0332 53.0718 61.355 53.2698C61.075 53.351 60.7421 53.2828 60.4434 53.2309C60.1354 53.1757 59.9488 52.9679 59.9892 52.6076C60.0265 52.2667 60.207 52.0947 60.5368 52.0525C60.9536 52.0006 61.383 51.9778 61.775 51.8447C63.4736 51.2734 64.0803 49.475 63.119 47.8974C62.979 47.6637 62.7954 47.4592 62.6243 47.2449C62.4003 46.9625 62.3443 46.6541 62.5776 46.3685C62.8265 46.0633 63.1407 46.1445 63.4083 46.3522C64.0958 46.8813 64.4816 47.6117 64.6403 48.472C64.6652 48.6051 64.687 48.7479 64.7025 48.8518Z" fill="#FFEB61" stroke="#FFEB61" stroke-width="0.25" stroke-miterlimit="10"/>
<path d="M39.9104 23.7913C38.4699 23.7427 37.4433 23.1291 36.8428 21.8307C36.7526 21.6391 36.6935 21.4151 36.6842 21.2009C36.6748 20.9055 36.8055 20.6555 37.1135 20.5809C37.4091 20.5095 37.6362 20.6263 37.7793 20.9055C37.8508 21.0483 37.9099 21.1944 37.9784 21.3405C38.3611 22.1423 39.0019 22.5416 39.845 22.5059C40.6819 22.4702 41.301 22.0287 41.6401 21.2139C41.7895 20.8536 41.9264 20.4997 42.4055 20.5549C42.701 20.5906 42.8908 20.7432 42.8846 21.0548C42.8815 21.2983 42.8503 21.5612 42.7539 21.7755C42.1752 23.0577 41.1766 23.7005 39.9104 23.7913Z" fill="#FFEB61" stroke="#FFEB61" stroke-width="0.25" stroke-miterlimit="10"/>
<path d="M21.9971 44.4337C21.9349 44.8459 21.9256 45.3004 21.378 45.3166C21.0109 45.3264 20.8429 45.0959 20.7527 44.4791C20.37 44.3688 19.9127 44.2746 19.9625 43.7163C19.9998 43.2845 20.342 43.1417 20.7527 43.119C20.7838 42.9956 20.8087 42.8723 20.8429 42.7489C20.9207 42.447 21.1042 42.2717 21.4122 42.2685C21.7202 42.2685 21.8758 42.486 21.9131 42.7587C21.9505 43.0151 22.0313 43.1287 22.2958 43.1644C22.6007 43.2066 22.862 43.3852 22.8496 43.765C22.8371 44.1253 22.6131 44.3038 22.2896 44.372C22.1962 44.3882 22.0998 44.411 21.9971 44.4337Z" fill="#FFEB61" stroke="#FFEB61" stroke-width="0.25" stroke-miterlimit="10"/>
<path d="M27.2954 18.9318C26.9998 18.9026 26.8163 18.7305 26.7105 18.4157C26.6607 18.2696 26.5207 18.1203 26.3839 18.0521C26.107 17.9125 25.827 17.7729 25.855 17.4061C25.8799 17.0588 26.1319 16.9062 26.4367 16.7991C26.5581 16.7569 26.7043 16.6108 26.7323 16.4874C26.8101 16.1466 26.9563 15.9193 27.3141 15.9193C27.6532 15.9161 27.7932 16.1239 27.8678 16.455C27.8989 16.5946 28.0701 16.7536 28.2069 16.7926C28.5367 16.89 28.7981 17.0425 28.7949 17.4256C28.7918 17.8184 28.5118 17.9417 28.1821 18.0229C28.0669 18.0521 27.9425 18.2176 27.8989 18.3507C27.7932 18.6494 27.6781 18.9156 27.2954 18.9318Z" fill="#FFEB61" stroke="#FFEB61" stroke-width="0.25" stroke-miterlimit="10"/>
<path d="M58.3137 44.9402C58.2888 45.109 58.2764 45.242 58.2515 45.3686C58.1924 45.6738 58.0212 45.8815 57.7101 45.8783C57.399 45.8751 57.1501 45.703 57.1159 45.3719C57.0848 45.0732 56.951 44.9856 56.7115 44.8655C56.5279 44.7778 56.3568 44.5019 56.3195 44.2877C56.2635 43.976 56.4968 43.804 56.783 43.7163C56.9013 43.6806 57.0506 43.567 57.0817 43.4567C57.175 43.1255 57.2839 42.8334 57.6759 42.8366C58.0928 42.8399 58.2577 43.119 58.3044 43.5118C58.3106 43.554 58.3324 43.593 58.3479 43.6287C58.9577 43.7715 59.1475 43.9436 59.1257 44.3461C59.0946 44.859 58.7275 44.9142 58.3137 44.9402Z" fill="#FFEB61" stroke="#FFEB61" stroke-width="0.25" stroke-miterlimit="10"/>
<path d="M54.5417 22.0579C54.5448 22.441 54.2586 22.7526 53.8915 22.7656C53.4933 22.7786 53.1542 22.4442 53.1604 22.0417C53.1666 21.6392 53.4684 21.334 53.8604 21.334C54.2431 21.3308 54.5386 21.6456 54.5417 22.0579Z" fill="#FFEB61" stroke="#FFEB61" stroke-width="0.25" stroke-miterlimit="10"/>
<path d="M14.913 44.3428C14.5366 44.3461 14.2286 44.0247 14.2224 43.6222C14.2161 43.2327 14.4961 42.9373 14.8788 42.9308C15.2615 42.9243 15.5975 43.2456 15.6068 43.6222C15.6099 44.0085 15.2957 44.3396 14.913 44.3428Z" fill="#FFEB61" stroke="#FFEB61" stroke-width="0.25" stroke-miterlimit="10"/>
<path d="M57.6156 61.275C57.6124 61.684 57.3107 61.9924 56.9156 61.9794C56.5516 61.9664 56.2591 61.6548 56.2498 61.275C56.2405 60.9016 56.5827 60.5283 56.9311 60.5283C57.2827 60.5251 57.6156 60.8919 57.6156 61.275Z" fill="#FFEB61" stroke="#FFEB61" stroke-width="0.25" stroke-miterlimit="10"/>
<path d="M13.377 32.8931C13.0068 32.9059 12.6988 32.6147 12.6771 32.2372C12.6553 31.8341 12.9446 31.5109 13.3366 31.4981C13.7099 31.4853 14.0366 31.8085 14.0397 32.202C14.049 32.5731 13.7504 32.8803 13.377 32.8931Z" fill="#FFEB61" stroke="#FFEB61" stroke-width="0.25" stroke-miterlimit="10"/>
<path d="M65.6262 33.0627C65.2248 33.0563 64.9448 32.7556 64.9573 32.3492C64.9697 31.9685 65.2653 31.6741 65.6324 31.6741C66.0088 31.6773 66.3013 31.9941 66.2982 32.4036C66.295 32.7972 66.0182 33.0691 65.6262 33.0627Z" fill="#FFEB61" stroke="#FFEB61" stroke-width="0.25" stroke-miterlimit="10"/>
<path d="M26.2002 23.905C26.1908 24.3042 25.8673 24.6548 25.5157 24.6418C25.1548 24.6288 24.8624 24.3075 24.8624 23.9277C24.8624 23.5187 25.1673 23.1876 25.5406 23.1973C25.9015 23.2103 26.2095 23.5381 26.2002 23.905Z" fill="#FFEB61" stroke="#FFEB61" stroke-width="0.25" stroke-miterlimit="10"/>
<path d="M29.8184 61.9798C30.1731 61.9766 30.4624 62.3029 30.4531 62.6901C30.4437 63.0708 30.1762 63.3395 29.8091 63.3331C29.4482 63.3267 29.1371 63.0132 29.1309 62.6485C29.1309 62.2869 29.4451 61.9798 29.8184 61.9798Z" fill="#FFEB61" stroke="#FFEB61" stroke-width="0.25" stroke-miterlimit="10"/>
<path d="M65.2423 41.9244C64.9467 41.8952 64.7632 41.7231 64.6574 41.4083C64.6076 41.2622 64.4676 41.1129 64.3307 41.0447C64.0538 40.9051 63.7738 40.7655 63.8018 40.3987C63.8267 40.0514 64.0787 39.8988 64.3836 39.7917C64.5049 39.7495 64.6512 39.6034 64.6792 39.48C64.7569 39.1392 64.9032 38.912 65.2609 38.912C65.6 38.9087 65.74 39.1165 65.8147 39.4476C65.8458 39.5872 66.0169 39.7462 66.1538 39.7852C66.4836 39.8826 66.7449 40.0351 66.7418 40.4182C66.7387 40.811 66.4587 40.9343 66.1289 41.0155C66.0138 41.0447 65.8894 41.2103 65.8458 41.3433C65.74 41.642 65.6249 41.9049 65.2423 41.9244Z" fill="#FFEB61" stroke="#FFEB61" stroke-width="0.25" stroke-miterlimit="10"/>
<path d="M47.9061 59.022C47.5297 59.0253 47.2217 58.7039 47.2154 58.3014C47.2092 57.9119 47.4892 57.6165 47.8719 57.61C48.2545 57.6035 48.5905 57.9248 48.5999 58.3014C48.6061 58.6877 48.2888 59.0188 47.9061 59.022Z" fill="#FFEB61" stroke="#FFEB61" stroke-width="0.25" stroke-miterlimit="10"/>
<path d="M37.5338 55.4578C36.0933 55.4967 35.0667 56.0161 34.4662 57.1133C34.376 57.2756 34.3169 57.4639 34.3076 57.6457C34.2982 57.8956 34.4289 58.1066 34.7369 58.1683C35.0324 58.2267 35.2596 58.1294 35.4027 57.8956C35.4742 57.7755 35.5333 57.6489 35.6018 57.5288C35.9844 56.8504 36.6253 56.516 37.4684 56.5452C38.3053 56.5744 38.9244 56.9478 39.2635 57.6359C39.4129 57.9411 39.5497 58.2397 40.0288 58.191C40.3244 58.1618 40.5142 58.032 40.508 57.7723C40.5048 57.5678 40.4737 57.3438 40.3773 57.162C39.7955 56.0778 38.7969 55.5357 37.5338 55.4578Z" fill="#FFEB61" stroke="#FFEB61" stroke-width="0.25" stroke-miterlimit="10"/>
</svg>
