<svg width="80" height="80" viewBox="0 0 80 80" fill="none" xmlns="http://www.w3.org/2000/svg">
<rect width="80" height="80" rx="40" fill="#111010"/>
<path d="M57.1217 20.11C57.1217 19.9774 57.1217 19.8447 57.1217 19.712C57.1184 19.0067 56.9696 18.7899 56.2901 18.599C56.1866 18.5698 56.0442 18.6346 55.9342 18.6896C55.3841 18.9775 54.847 19.2817 54.297 19.5664C53.9572 19.7444 53.6531 19.6894 53.4751 19.3302C53.3004 18.9872 53.4007 18.7025 53.7437 18.5084C54.242 18.2236 54.7338 17.9227 55.2385 17.6509C55.4359 17.5442 55.5168 17.4341 55.4715 17.2012C55.4327 17.0167 55.4068 16.8032 55.4618 16.6349C55.6203 16.1528 55.3874 15.9393 54.9894 15.7613C54.5979 15.5866 54.2193 15.386 53.8569 15.1595C53.4622 14.9136 53.3619 14.5447 53.5754 14.2212C53.8149 13.8491 54.1384 13.9009 54.4652 14.082C54.9441 14.3441 55.423 14.603 55.8889 14.891C56.0992 15.0204 56.2739 15.1077 56.4584 14.878C56.4746 14.8553 56.5037 14.8327 56.5296 14.8262C57.1993 14.7 57.1637 14.2018 57.1411 13.6938C57.1249 13.3249 57.1346 12.956 57.1605 12.5872C57.1832 12.2539 57.3676 12.0307 57.7138 12.0015C58.0471 11.9757 58.3739 12.2798 58.3836 12.6325C58.403 13.1793 58.403 13.7229 58.39 14.2697C58.3836 14.493 58.4968 14.5609 58.6683 14.6871C59.1828 15.0657 59.5905 14.9136 60.0434 14.59C60.3767 14.3506 60.7618 14.1856 61.1306 13.9979C61.4121 13.8523 61.6774 13.862 61.8586 14.1629C62.0431 14.4736 62.0948 14.8003 61.7583 15.0268C61.3053 15.3278 60.8297 15.5996 60.3444 15.8455C60.0532 15.9943 59.8946 16.1431 60.0273 16.4894C60.0823 16.635 60.1017 16.8259 60.0532 16.9682C59.9043 17.3856 60.1373 17.5409 60.4511 17.7027C60.8815 17.926 61.3021 18.1751 61.7066 18.4437C62.0657 18.6799 62.1466 19.0326 61.9557 19.3594C61.7324 19.7379 61.4121 19.7314 61.0788 19.547C60.6 19.2849 60.1243 19.0164 59.6649 18.7252C59.4416 18.5828 59.2896 18.6249 59.0404 18.6961C58.3512 18.8999 58.3124 19.3691 58.3512 19.945C58.3771 20.3106 58.348 20.6827 58.3253 21.0516C58.3059 21.4269 58.115 21.6793 57.7203 21.6728C57.3352 21.6631 57.1379 21.4172 57.1217 21.0386C57.1087 20.7313 57.1184 20.4174 57.1184 20.11C57.1249 20.11 57.1249 20.11 57.1217 20.11ZM58.6974 16.8453C58.7071 16.2952 58.2865 15.8519 57.7429 15.8422C57.2382 15.8358 56.8078 16.2726 56.7981 16.8032C56.7884 17.2983 57.1993 17.6962 57.7429 17.7124C58.2962 17.7351 58.6845 17.3791 58.6974 16.8453Z" fill="#FFEB61"/>
<path d="M26.7618 17.2356C26.7618 17.1823 26.7546 17.1289 26.7633 17.0784C26.8022 16.8275 26.7272 16.6603 26.4662 16.5723C26.3552 16.5348 26.2845 16.5233 26.1822 16.5896C25.9745 16.728 25.7568 16.852 25.539 16.9717C25.3963 17.051 25.2564 17.0496 25.167 16.8852C25.0834 16.7295 25.1108 16.5867 25.2607 16.4901C25.4597 16.3632 25.6731 16.258 25.8678 16.1238C25.9341 16.0777 25.963 15.9753 26.0005 15.8946C26.0135 15.8672 25.9933 15.8268 26.0034 15.7965C26.1057 15.4879 25.95 15.3308 25.6847 15.2226C25.552 15.1678 25.4309 15.0856 25.3069 15.0106C25.1627 14.9227 25.1108 14.7453 25.1829 14.6054C25.255 14.4684 25.4107 14.4266 25.5751 14.5175C25.7885 14.6343 26.0005 14.7554 26.2052 14.8852C26.3018 14.9457 26.3768 14.963 26.4706 14.8866C26.5138 14.8506 26.5744 14.8246 26.6306 14.8131C26.7359 14.79 26.7618 14.7294 26.7604 14.6285C26.7546 14.3978 26.7561 14.1685 26.759 13.9378C26.7618 13.7374 26.8642 13.6119 27.02 13.6033C27.1815 13.596 27.2968 13.7229 27.304 13.9349C27.3127 14.1584 27.3098 14.3819 27.3156 14.6069C27.3199 14.803 27.6559 14.989 27.8318 14.8924C28.0625 14.7655 28.2875 14.6285 28.5239 14.516C28.7374 14.4151 28.909 14.5059 28.9421 14.7136C28.9637 14.8462 28.909 14.9414 28.7907 15.0063C28.5715 15.126 28.3538 15.25 28.1332 15.3668C28.0351 15.4202 27.9745 15.475 28.0279 15.599C28.0495 15.6494 28.0582 15.7215 28.0409 15.7734C27.9544 16.0215 28.087 16.1238 28.2889 16.2161C28.4735 16.2998 28.648 16.4108 28.8181 16.5218C28.9782 16.6285 29.0142 16.7857 28.9248 16.9299C28.8253 17.09 28.6854 17.0712 28.5456 16.9948C28.3149 16.8679 28.0885 16.7338 27.8606 16.6026C27.6703 16.493 27.3213 16.6862 27.3156 16.9054C27.3098 17.1491 27.3127 17.3928 27.3084 17.635C27.3055 17.8138 27.1959 17.935 27.0358 17.9306C26.8585 17.9263 26.7777 17.8167 26.7691 17.6509C26.7633 17.5139 26.7676 17.374 26.7676 17.2356C26.7647 17.2356 26.7633 17.2356 26.7618 17.2356ZM27.0387 16.1599C27.2939 16.1556 27.4598 15.9854 27.454 15.736C27.4482 15.5052 27.2463 15.3192 27.0113 15.3279C26.7791 15.3351 26.6162 15.5254 26.6205 15.7807C26.6249 15.997 26.8094 16.1642 27.0387 16.1599Z" fill="#FFEB61"/>
<path d="M19.4352 63.6439C18.7105 63.0324 18.2381 62.3302 18.0601 61.4599C18.0083 61.2075 17.9792 60.9066 18.0698 60.6801C18.1442 60.4892 18.3966 60.2691 18.5875 60.253C18.7752 60.2368 18.9952 60.4471 19.1667 60.5959C19.2508 60.6704 19.254 60.8386 19.2864 60.968C19.5873 62.1426 20.2344 63.0227 21.4704 63.2718C22.7097 63.5209 23.5865 62.8576 24.3307 61.9614C24.4505 61.8158 24.5669 61.6022 24.719 61.5699C24.9229 61.5213 25.2302 61.5472 25.3661 61.6766C25.4988 61.8028 25.5538 62.1231 25.4956 62.314C25.2141 63.22 24.5508 63.7863 23.7127 64.1681C23.5801 64.2296 23.4409 64.2781 23.305 64.3331C23.2921 64.3395 23.2824 64.3525 23.2403 64.3978C23.4215 64.5984 23.6157 64.799 23.7872 65.0126C24.3146 65.6597 24.6867 66.3683 24.5864 67.2387C24.554 67.5364 24.3857 67.7952 24.0881 67.7499C23.8519 67.7143 23.6254 67.5105 23.4345 67.339C23.3503 67.2678 23.3795 67.0801 23.3245 66.9636C23.1336 66.5527 22.9847 66.103 22.7162 65.7471C21.7196 64.4269 19.9238 64.3654 18.7363 65.5788C18.5713 65.7471 18.4128 65.9315 18.3028 66.1353C18.0989 66.5042 17.8142 66.5948 17.4486 66.4427C17.1509 66.3198 17.0279 65.9412 17.1832 65.5594C17.5003 64.7796 18.1151 64.2845 18.8431 63.9157C19.0211 63.8251 19.1958 63.7507 19.4352 63.6439Z" fill="#FFEB61"/>
<path d="M61.3075 50.7505C61.7313 50.3169 62.1099 49.8639 62.5564 49.495C62.8541 49.2491 63.2359 49.0744 63.6047 48.945C64.0124 48.8026 64.3651 48.987 64.4784 49.33C64.611 49.7409 64.3975 49.9674 64.048 50.1292C63.1032 50.5692 62.3914 51.2293 62.207 52.3003C61.9934 53.5363 62.6794 54.6753 63.9445 55.29C64.1257 55.3774 64.3651 55.4712 64.4363 55.6298C64.5237 55.8174 64.5463 56.141 64.4395 56.2866C64.3198 56.4451 64.006 56.5616 63.7989 56.5293C62.8832 56.3966 62.2167 55.8498 61.7022 55.1088C61.5954 54.9535 61.5048 54.7917 61.4692 54.7335C60.903 55.2512 60.3788 55.7786 59.7997 56.2381C59.5602 56.429 59.2108 56.5034 58.9001 56.5746C58.5798 56.649 58.3145 56.5325 58.2142 56.1831C58.1171 55.8498 58.2239 55.6168 58.5281 55.4421C58.9131 55.2221 59.3208 55.0247 59.6476 54.74C61.0713 53.5072 60.9515 51.5885 59.3984 50.5175C59.1687 50.3589 58.9099 50.2424 58.6607 50.113C58.3339 49.9415 58.156 49.6762 58.2692 49.3171C58.3922 48.9288 58.7287 48.877 59.0684 48.9579C59.9453 49.165 60.6053 49.6859 61.1004 50.4269C61.1748 50.5369 61.2492 50.6599 61.3075 50.7505Z" fill="#FFEB61"/>
<path d="M44.3462 16.6626C45.8476 16.9085 46.8377 17.6656 47.2939 19.0505C47.3618 19.2543 47.3974 19.4873 47.3748 19.7008C47.3457 19.9985 47.1742 20.2315 46.8441 20.2606C46.527 20.2897 46.3005 20.1441 46.1905 19.8432C46.1355 19.6911 46.0935 19.5358 46.0385 19.3805C45.744 18.5231 45.126 18.0377 44.2427 17.9568C43.3626 17.8759 42.6572 18.2351 42.1945 19.0052C41.9907 19.3449 41.7998 19.6814 41.308 19.5617C41.0038 19.4873 40.8259 19.3061 40.8712 18.9955C40.9068 18.7528 40.9715 18.4939 41.1041 18.2901C41.8839 17.0864 43.0131 16.5817 44.3462 16.6626Z" fill="#FFEB61"/>
<path d="M19.1732 23.8666C19.1085 24.284 19.0988 24.7435 18.5196 24.7596C18.1346 24.7693 17.9566 24.5364 17.8595 23.9119C17.4583 23.8019 16.9762 23.7048 17.0248 23.1386C17.0636 22.7018 17.426 22.5594 17.8595 22.5335C17.8919 22.4073 17.921 22.2844 17.9534 22.1582C18.0375 21.854 18.2284 21.6729 18.5552 21.6729C18.882 21.6729 19.0438 21.8929 19.0858 22.1679C19.1247 22.4267 19.2088 22.5432 19.4871 22.5788C19.8106 22.6209 20.0824 22.8021 20.0695 23.1839C20.0565 23.5463 19.8203 23.7307 19.4806 23.7987C19.3835 23.8245 19.2832 23.8439 19.1732 23.8666Z" fill="#FFEB61"/>
<path d="M32.6528 20.9821C32.3422 20.953 32.1481 20.7782 32.0348 20.4611C31.9831 20.3123 31.8342 20.1602 31.6886 20.0923C31.3974 19.9499 31.103 19.8108 31.1321 19.4387C31.158 19.0892 31.4233 18.9307 31.7436 18.8239C31.8731 18.7819 32.0251 18.633 32.0542 18.5068C32.1351 18.1639 32.2904 17.9341 32.6658 17.9309C33.0249 17.9276 33.1705 18.138 33.2514 18.4712C33.2838 18.6104 33.465 18.7721 33.6073 18.8142C33.9568 18.9113 34.2318 19.0698 34.2286 19.4516C34.2254 19.8496 33.9309 19.9726 33.5815 20.0535C33.4585 20.0826 33.3291 20.2508 33.2838 20.3835C33.177 20.6974 33.0573 20.9627 32.6528 20.9821Z" fill="#FFEB61"/>
<path d="M60.7298 37.0474C60.7039 37.2189 60.6909 37.3516 60.6651 37.481C60.6036 37.7884 60.4224 37.9987 60.0956 37.9955C59.7688 37.9922 59.5067 37.8175 59.4711 37.4842C59.4388 37.1833 59.2964 37.0927 59.044 36.973C58.8531 36.8824 58.6719 36.6074 58.6298 36.3873C58.5684 36.0703 58.8143 35.8988 59.1184 35.8082C59.2414 35.7693 59.3999 35.6561 59.4355 35.5461C59.5326 35.2096 59.6491 34.9151 60.06 34.9216C60.5 34.9248 60.6748 35.2063 60.7233 35.6043C60.7298 35.6464 60.7524 35.6852 60.7686 35.724C61.4125 35.8664 61.6131 36.0411 61.5872 36.4488C61.5516 36.9665 61.1633 37.0248 60.7298 37.0474Z" fill="#FFEB61"/>
<path d="M17.6092 46.3948C17.5833 46.5663 17.5704 46.699 17.5445 46.8284C17.483 47.1358 17.3018 47.3461 16.975 47.3429C16.6482 47.3396 16.3861 47.1649 16.3505 46.8316C16.3182 46.5307 16.1758 46.4401 15.9234 46.3204C15.7325 46.2298 15.5513 45.9548 15.5093 45.7348C15.4478 45.4177 15.6937 45.2462 15.9979 45.1556C16.1208 45.1168 16.2793 45.0035 16.3149 44.8935C16.412 44.557 16.5285 44.2626 16.9394 44.269C17.3795 44.2723 17.5542 44.5538 17.6027 44.9517C17.6092 44.9938 17.6318 45.0326 17.648 45.0715C18.2919 45.2138 18.4925 45.3885 18.4666 45.7962C18.431 46.3139 18.0428 46.3722 17.6092 46.3948Z" fill="#FFEB61"/>
<path d="M38.7715 12.7313C38.7747 13.1163 38.4705 13.4334 38.0855 13.4463C37.6649 13.4593 37.309 13.1196 37.3154 12.7151C37.3219 12.3074 37.6422 12 38.0531 12C38.4544 11.9968 38.7682 12.3139 38.7715 12.7313Z" fill="#FFEB61"/>
<path d="M17.7495 52.7463C17.3515 52.7496 17.0279 52.426 17.0215 52.0183C17.015 51.6236 17.3127 51.3259 17.7107 51.3194C18.1119 51.313 18.4678 51.6365 18.4775 52.0183C18.4872 52.4066 18.1539 52.7399 17.7495 52.7463Z" fill="#FFEB61"/>
<path d="M47.9375 62.0908C47.9342 62.5049 47.6139 62.8155 47.1998 62.8026C46.8147 62.7897 46.5073 62.4758 46.4976 62.0908C46.4879 61.7122 46.8471 61.3336 47.2159 61.3369C47.588 61.3336 47.9375 61.7025 47.9375 62.0908Z" fill="#FFEB61"/>
<path d="M18.4887 37.1736C18.0972 37.1865 17.7736 36.8888 17.7509 36.5006C17.7283 36.0896 18.0324 35.7564 18.4466 35.7434C18.8413 35.7305 19.1843 36.0605 19.1876 36.465C19.194 36.8435 18.8802 37.1606 18.4887 37.1736Z" fill="#FFEB61"/>
<path d="M61.3473 46.5161C60.9267 46.5096 60.629 46.199 60.642 45.7849C60.6549 45.3933 60.9688 45.0924 61.3538 45.0957C61.7518 45.0989 62.0592 45.4225 62.0559 45.8463C62.0527 46.2443 61.7615 46.5226 61.3473 46.5161Z" fill="#FFEB61"/>
<path d="M25.1203 21.6583C25.1106 22.0628 24.7709 22.4154 24.3988 22.4025C24.0202 22.3896 23.7096 22.066 23.7096 21.681C23.7096 21.2668 24.0331 20.9303 24.4246 20.9432C24.8064 20.9562 25.13 21.2862 25.1203 21.6583Z" fill="#FFEB61"/>
<path d="M30.2683 61.2269C30.6436 61.2237 30.9477 61.5569 30.938 61.9549C30.9283 62.3464 30.6468 62.6214 30.2586 62.615C29.88 62.6085 29.55 62.2882 29.5435 61.9128C29.5402 61.544 29.8735 61.2301 30.2683 61.2269Z" fill="#FFEB61"/>
<path d="M59.023 64.8927C57.6058 65.446 56.3698 65.2972 55.2697 64.3362C55.1079 64.1938 54.9591 64.0127 54.8685 63.8153C54.7423 63.5435 54.7714 63.2555 55.04 63.0646C55.2988 62.8769 55.5674 62.8899 55.8165 63.0905C55.9427 63.1908 56.0592 63.3073 56.1822 63.4141C56.8714 64.0029 57.6511 64.1065 58.4536 63.7279C59.2528 63.3493 59.6766 62.6828 59.6831 61.7865C59.6864 61.3886 59.6766 61.0068 60.162 60.8579C60.4629 60.7673 60.7056 60.832 60.8253 61.1232C60.9191 61.3497 60.9935 61.6086 60.9838 61.848C60.9288 63.2749 60.2138 64.2844 59.023 64.8927Z" fill="#FFEB61"/>
<path d="M40.9228 66.0706C40.8581 66.488 40.8484 66.9474 40.2692 66.9636C39.8841 66.9733 39.7062 66.7404 39.6091 66.1159C39.2079 66.0059 38.7258 65.9088 38.7743 65.3426C38.8132 64.9058 39.1755 64.7634 39.6091 64.7375C39.6415 64.6113 39.6706 64.4884 39.703 64.3622C39.7871 64.058 39.978 63.8768 40.3048 63.8768C40.6316 63.8768 40.7934 64.0969 40.8354 64.3719C40.8742 64.6307 40.9584 64.7472 41.2366 64.7828C41.5602 64.8249 41.832 65.0061 41.8191 65.3879C41.8061 65.7503 41.5699 65.9347 41.2302 66.0026C41.1331 66.0253 41.0328 66.0479 40.9228 66.0706Z" fill="#FFEB61"/>
<path d="M56.5383 59.8615C52.7818 59.4635 49.0285 59.0655 45.2719 58.6805C45.1166 58.6643 44.8933 58.7614 44.7865 58.8811C41.8162 62.2332 36.8949 62.217 33.9472 58.839C33.8437 58.7193 33.6204 58.6255 33.4651 58.6416C30.3298 58.962 27.1977 59.3082 24.0624 59.6285C23.1952 59.7191 22.3216 59.7773 21.448 59.7935C20.7653 59.8065 20.3511 59.3211 20.5129 58.729C20.5808 58.4831 20.7847 58.2469 20.982 58.0722C22.1404 57.0465 22.849 55.7781 23.1208 54.2606C23.3343 53.0602 23.0981 51.918 22.6807 50.792C21.9301 48.7665 20.8914 46.8834 19.8107 45.0197C19.4548 44.4049 19.0957 43.7966 18.7915 43.1592C18.6847 42.9359 18.6492 42.5929 18.743 42.3761C20.3317 38.7878 22.3669 35.5004 25.3178 32.8505C27.4533 30.9317 29.893 29.5728 32.6853 28.8804C33.0024 28.8027 33.3777 28.8124 33.6981 28.8933C35.5553 29.3592 37.1246 30.3784 38.6097 31.5368C39.3507 32.116 39.3442 32.1192 40.0884 31.5271C41.5897 30.3299 43.2011 29.3398 45.0907 28.8739C45.3722 28.8027 45.7022 28.7897 45.9805 28.8642C49.7435 29.8381 52.8497 31.8571 55.3541 34.8145C57.2631 37.0665 58.7289 39.5935 59.9519 42.2726C60.1008 42.5994 60.0716 42.8647 59.9034 43.1689C58.9359 44.9323 57.9264 46.6795 57.0399 48.4818C56.506 49.5722 56.0724 50.7305 55.7618 51.9018C55.147 54.238 55.943 56.2182 57.5834 57.8975C58.1691 58.496 58.3568 58.8326 58.1303 59.2758C57.8326 59.8615 57.2922 59.8323 56.7519 59.7838C56.6807 59.7773 56.6128 59.7709 56.5448 59.7612C56.5448 59.7968 56.5416 59.8291 56.5383 59.8615ZM31.4719 46.7248C31.8893 46.9287 32.1805 47.0905 32.4879 47.2134C32.7306 47.3105 32.7468 47.4367 32.6788 47.6632C32.4297 48.4721 32.1838 49.2842 31.967 50.0996C31.5269 51.753 31.5917 53.3449 32.6076 54.8074C33.5363 56.1437 35.2156 56.7261 36.7654 56.2473C38.6033 55.6746 39.4057 53.5326 38.3865 51.9633C38.2247 51.7174 38.0823 51.423 38.05 51.135C37.8979 49.7922 36.5778 49.1904 35.6491 49.1904C34.8305 49.1904 34.5458 48.8895 34.507 48.0676C34.4196 46.1812 34.2999 44.2981 34.2028 42.4117C34.1899 42.1852 34.1057 42.0914 33.876 42.0946C33.5557 42.0979 33.2354 42.0882 32.9183 42.0623C31.2681 41.9361 29.893 40.8327 29.5759 39.2829C29.4529 38.6811 29.5176 38.0404 29.5306 37.4192C29.5338 37.335 29.7441 37.1894 29.8638 37.1862C30.6404 37.1571 31.4202 37.1474 32.1967 37.1603C33.7854 37.1894 35.277 38.4546 35.4388 40.0335C35.6168 41.7581 35.6588 43.4989 35.7656 45.23C35.8109 45.9709 35.8627 46.7151 35.9145 47.4626C38.2635 47.4626 40.5511 47.4626 42.8516 47.4626C42.8743 47.2005 42.9034 46.9675 42.9164 46.7313C43.0361 44.6637 43.1558 42.5994 43.2658 40.5318C43.3758 38.5354 44.8157 37.1668 46.825 37.1571C47.2294 37.1538 47.6307 37.1571 48.0351 37.1603C49.2647 37.1668 49.2744 37.1668 49.2517 38.4255C49.2226 39.998 48.4784 41.111 47.045 41.7614C46.3946 42.0558 45.7022 42.1108 45.0066 42.0785C44.6701 42.0623 44.5439 42.1626 44.5277 42.5056C44.4403 44.4469 44.34 46.3883 44.2365 48.3329C44.23 48.4527 44.1944 48.5724 44.1491 48.6856C43.955 49.1807 43.5279 49.2098 43.0781 49.2227C41.6383 49.2713 40.8779 49.9313 40.6061 51.3227C40.564 51.533 40.467 51.7433 40.3505 51.9245C39.4801 53.277 39.959 55.2863 41.3665 56.0176C42.5248 56.6194 43.7026 56.5935 44.8286 55.9334C46.4755 54.9724 47.3071 53.0117 46.8865 50.9538C46.6697 49.899 46.2976 48.8733 46.0193 47.8282C45.9773 47.6599 45.9967 47.3687 46.1067 47.2911C46.4205 47.0549 46.7959 46.8996 47.223 46.6698C47.5433 47.8929 47.8474 49.048 48.1516 50.2128C48.2066 50.1837 48.2487 50.174 48.2778 50.1481C48.3393 50.0931 48.3975 50.0349 48.4557 49.9734C50.19 48.0741 51.3872 45.8674 52.1605 43.4277C52.2738 43.0653 52.2705 42.6221 52.1897 42.2467C51.837 40.6645 51.2319 39.1761 50.4165 37.7718C48.802 34.9957 46.5403 32.8213 44.0262 30.88C43.8353 30.7344 43.6864 30.7441 43.5085 30.8735C42.3113 31.7503 41.1044 32.6143 39.9169 33.5008C39.5287 33.792 39.1889 33.7726 38.8103 33.4879C37.6455 32.6143 36.458 31.773 35.2803 30.9156C35.0117 30.7214 34.7917 30.7441 34.5458 30.9706C33.3162 32.116 32.0285 33.1999 30.8539 34.3971C28.6246 36.6685 27.1233 39.3573 26.502 42.5023C26.4405 42.8097 26.4761 43.1689 26.5667 43.473C27.2818 45.8642 28.5016 47.9803 30.1324 49.8634C30.2521 49.9993 30.3912 50.119 30.5239 50.2484C30.841 49.0577 31.1451 47.922 31.4719 46.7248ZM56.0692 58.3666C55.9883 58.2146 55.9656 58.1531 55.9268 58.1045C54.0598 55.6454 53.7784 52.989 54.859 50.1222C55.7941 47.6405 57.0593 45.3303 58.4344 43.0783C58.5994 42.8097 58.6156 42.5897 58.4797 42.3082C57.2372 39.765 55.8168 37.335 53.9045 35.2287C51.7496 32.8537 49.1546 31.155 46.0452 30.2814C45.8899 30.2393 45.7249 30.2361 45.5663 30.2167C45.5469 30.2587 45.5307 30.3008 45.5113 30.3428C45.589 30.3978 45.6796 30.4399 45.7475 30.5046C47.0094 31.7342 48.336 32.9055 49.5106 34.2094C51.5393 36.4549 52.8594 39.0985 53.5422 42.0526C53.6198 42.3826 53.6845 42.7547 53.6101 43.075C52.8012 46.4951 51.0442 49.3716 48.5334 51.8048C48.336 51.9957 48.2487 52.1704 48.2422 52.4422C48.1969 54.3512 47.3718 55.8525 45.8252 56.9624C45.7184 57.04 45.6084 57.1144 45.4984 57.1889C45.5049 57.2309 45.5113 57.273 45.5178 57.315C48.9929 57.8295 52.4809 58.1757 56.0692 58.3666ZM33.3033 57.2568C33.1415 57.1177 33.0639 57.0432 32.9797 56.9818C31.3263 55.8364 30.4462 54.2671 30.3654 52.248C30.3589 52.096 30.2456 51.918 30.1292 51.808C27.7574 49.5366 26.1299 46.8187 25.2078 43.6704C25.046 43.1139 25.0298 42.5606 25.1528 41.9879C25.5734 40.0691 26.3208 38.2863 27.3562 36.6232C28.7993 34.3097 30.6857 32.4007 32.7727 30.6761C32.9247 30.5499 33.093 30.4399 33.2515 30.3234C33.2127 30.2717 33.1739 30.2167 33.1318 30.1649C32.9765 30.1972 32.818 30.2199 32.6691 30.262C30.2748 30.9447 28.1716 32.158 26.3241 33.8082C23.6191 36.2155 21.7295 39.2085 20.2217 42.4603C20.1505 42.6156 20.1764 42.868 20.2508 43.033C20.4223 43.4116 20.6488 43.761 20.8591 44.1234C22.0336 46.1392 23.1531 48.1809 23.9718 50.3779C24.9942 53.1184 24.7062 55.6616 22.8943 57.9945C22.8296 58.0754 22.7875 58.1725 22.684 58.3504C26.2691 58.1304 29.7474 57.8133 33.3033 57.2568ZM43.8159 57.7292C42.9649 57.8295 42.1592 57.7518 41.3697 57.4833C40.5641 57.2083 39.8943 56.7326 39.3054 56.0855C38.1535 57.5092 36.6295 57.8554 34.8208 57.6807C36.0504 59.3244 37.6164 60.0265 39.5222 60.0039C41.3341 59.978 42.7643 59.2014 43.8159 57.7292ZM34.1349 40.7098C34.1413 40.603 34.151 40.5351 34.1478 40.4671C34.0993 39.4285 33.0639 38.3187 31.734 38.4772C31.4428 38.5128 31.1549 38.5678 30.8636 38.6163C30.9639 38.9658 31.0416 39.3249 31.1743 39.6647C31.2357 39.82 31.3975 39.9429 31.5269 40.0659C32.2679 40.7421 33.1577 40.8036 34.1349 40.7098ZM44.6183 40.7422C45.1392 40.7098 45.6407 40.7227 46.1229 40.6386C47.058 40.4736 47.7924 39.6809 47.8895 38.8299C47.9186 38.6002 47.8539 38.4804 47.6112 38.4934C47.155 38.516 46.6923 38.4966 46.2458 38.5678C45.2622 38.7199 44.5439 39.6647 44.6183 40.7422ZM40.7388 48.8409C40.7161 48.7989 40.6967 48.7568 40.6741 48.7147C39.7519 48.7147 38.8265 48.7147 37.7846 48.7147C38.6324 49.1645 39.0045 49.8699 39.3636 50.6788C39.7066 49.9216 39.9881 49.2066 40.7388 48.8409Z" fill="#FFEB61"/>
<path d="M57.5441 33.3552C58.2948 32.3004 58.8545 31.2521 58.7413 29.9966C58.5407 27.7446 57.0458 26.2304 54.8035 26.0168C53.3896 25.8842 52.1891 26.4536 51.1764 27.3952C50.9014 27.6508 50.7266 27.6346 50.4257 27.502C49.0668 26.9034 47.6981 26.3307 46.3327 25.745C45.7697 25.5024 45.2034 25.4991 44.6242 25.6674C42.3723 26.3177 40.6833 27.6573 39.6284 29.7669C39.567 29.8899 39.5087 30.016 39.444 30.139C39.4311 30.1617 39.4084 30.1811 39.3664 30.2264C39.1399 29.8413 38.9328 29.4531 38.6966 29.0842C37.5447 27.2787 35.9204 26.1107 33.8464 25.6059C33.4387 25.5088 32.9372 25.5218 32.5521 25.6706C31.1058 26.2368 29.6854 26.8678 28.2714 27.5052C27.9672 27.6411 27.7958 27.6735 27.5304 27.4049C25.5858 25.4344 22.5508 25.5638 20.8489 27.6605C19.587 29.2169 19.7099 31.8021 21.1174 33.2193C21.1336 33.2355 21.166 33.242 21.2371 33.2679C21.4119 32.8213 21.5736 32.3684 21.771 31.9316C22.0558 31.3006 22.3146 30.647 22.6835 30.0678C23.2853 29.123 24.1977 28.7509 25.1393 28.9839C25.8091 29.1489 26.2685 29.5695 26.4918 30.2199C26.5306 30.3331 26.4594 30.524 26.3785 30.6341C26.2103 30.8638 26 31.0612 25.7638 31.32C25.6441 31.1323 25.5761 31.0191 25.5049 30.9058C25.0002 30.0775 24.1686 30.0646 23.7221 30.935C23.2626 31.8345 22.897 32.7857 22.5023 33.7176C22.2272 34.3647 21.9716 35.0216 21.6901 35.7172C20.6871 34.9989 19.9267 34.1285 19.3831 33.0867C18.3801 31.1615 18.3024 29.2039 19.4478 27.3305C20.603 25.4409 22.3825 24.5931 24.5763 24.6514C25.7638 24.6805 26.8154 25.1561 27.7666 25.8421C28.0352 26.0362 28.2229 26.0136 28.5108 25.8842C29.6918 25.3665 30.889 24.8876 32.0797 24.399C32.9663 24.0366 33.8431 24.1563 34.7232 24.4411C36.4737 25.0008 37.9394 25.9909 39.1528 27.3628C39.2046 27.4243 39.2628 27.4826 39.3211 27.544C39.7967 27.0911 40.2367 26.6316 40.7221 26.2239C42.0034 25.1432 43.4659 24.4184 45.1419 24.2502C45.6467 24.1984 46.2032 24.3052 46.6853 24.4767C47.8987 24.9102 49.0862 25.4118 50.2737 25.9198C50.5552 26.0395 50.7299 26.033 50.9758 25.8486C53.4607 24.0043 56.6349 24.2922 58.6992 26.5345C60.1941 28.1588 60.5274 30.5791 59.5502 32.7243C59.0098 33.9085 58.2203 34.8889 57.1623 35.7431C56.8517 35.0313 56.5605 34.3615 56.266 33.695C55.9133 32.8958 55.5607 32.0933 55.2015 31.2974C55.1206 31.1226 55.0138 30.9576 54.9038 30.7958C54.4703 30.1584 53.7908 30.152 53.3346 30.7764C53.231 30.9188 53.1534 31.0806 53.0401 31.2747C52.7813 31.0288 52.4998 30.8185 52.2992 30.5467C52.215 30.4334 52.2506 30.1714 52.3218 30.0193C52.7457 29.081 53.9914 28.6506 54.9524 29.0971C55.6124 29.4045 56.0589 29.9352 56.3599 30.5791C56.7158 31.3459 57.0264 32.1354 57.3564 32.9152C57.3953 33.0317 57.4535 33.1546 57.5441 33.3552Z" fill="#FFEB61"/>
</svg>
