<svg width="80" height="80" viewBox="0 0 80 80" fill="none" xmlns="http://www.w3.org/2000/svg">
<rect width="80" height="80" rx="40" fill="#111010"/>
<path d="M62.8868 24.2136C62.8868 24.0905 62.8868 23.9674 62.8868 23.8444C62.8838 23.187 62.7458 22.9889 62.1154 22.8088C62.0194 22.7818 61.8873 22.8418 61.7852 22.8928C61.275 23.16 60.7737 23.4421 60.2634 23.7093C59.9482 23.8744 59.6661 23.8233 59.501 23.4902C59.3389 23.169 59.4319 22.9078 59.7501 22.7277C60.2154 22.4606 60.6716 22.1814 61.1399 21.9293C61.323 21.8302 61.398 21.7282 61.356 21.5091C61.32 21.338 61.296 21.1398 61.347 20.9838C61.4941 20.5365 61.2779 20.3384 60.9057 20.1733C60.5425 20.0112 60.1913 19.8251 59.8552 19.615C59.489 19.3869 59.3959 19.0447 59.594 18.7415C59.8161 18.3963 60.1163 18.4444 60.4195 18.6125C60.8637 18.8556 61.311 19.0987 61.7432 19.3629C61.9383 19.4829 62.1004 19.564 62.2745 19.3509C62.2895 19.3298 62.3165 19.3088 62.3405 19.3028C62.9649 19.1858 62.9289 18.7235 62.9109 18.2523C62.8959 17.9101 62.9049 17.5679 62.9289 17.2257C62.9499 16.9165 63.124 16.7064 63.4421 16.6824C63.7513 16.6584 64.0545 16.9405 64.0665 17.2677C64.0845 17.775 64.0845 18.2823 64.0725 18.7896C64.0665 18.9967 64.1716 19.0627 64.3306 19.1768C64.8079 19.528 65.1861 19.3869 65.6094 19.0867C65.9185 18.8646 66.2757 18.7115 66.6179 18.5374C66.8791 18.4023 67.1252 18.4114 67.2933 18.6905C67.4644 18.9787 67.5124 19.2848 67.2002 19.4919C66.78 19.7741 66.3358 20.0232 65.8855 20.2544C65.6154 20.3924 65.4683 20.5305 65.5913 20.8547C65.6424 20.9898 65.6604 21.1669 65.6153 21.299C65.4773 21.6862 65.6934 21.8302 65.9846 21.9803C66.3838 22.1874 66.777 22.4216 67.1522 22.6677C67.4854 22.8868 67.5634 23.214 67.3833 23.5172C67.1762 23.8684 66.8791 23.8624 66.5669 23.6913C66.1226 23.4481 65.6814 23.196 65.2522 22.9258C65.045 22.7938 64.904 22.8328 64.6728 22.8988C64.0305 23.0879 63.9945 23.5232 64.0305 24.0605C64.0545 24.3997 64.0275 24.7449 64.0065 25.087C63.9854 25.4352 63.8114 25.6724 63.4452 25.6634C63.088 25.6544 62.9049 25.4262 62.8899 25.075C62.8808 24.7869 62.8898 24.4987 62.8868 24.2136C62.8928 24.2136 62.8898 24.2136 62.8868 24.2136ZM64.3517 21.1819C64.3607 20.6686 63.9704 20.2604 63.4662 20.2514C62.9979 20.2454 62.5987 20.6506 62.5897 21.1429C62.5807 21.6021 62.9619 21.9713 63.4662 21.9893C63.9794 22.0073 64.3427 21.6772 64.3517 21.1819Z" fill="#FFEB61"/>
<path d="M16.5894 24.2406C16.5894 24.1295 16.5744 24.0185 16.5924 23.9134C16.6734 23.3911 16.5173 23.0399 15.971 22.8568C15.7369 22.7788 15.5928 22.7548 15.3797 22.8929C14.9475 23.181 14.4912 23.4391 14.038 23.6913C13.7408 23.8564 13.4496 23.8534 13.2635 23.5112C13.0894 23.187 13.1465 22.8869 13.4586 22.6857C13.8729 22.4186 14.3201 22.2025 14.7253 21.9203C14.8634 21.8243 14.9235 21.6111 15.0015 21.443C15.0285 21.386 14.9865 21.302 15.0075 21.2389C15.2206 20.5966 14.8964 20.2694 14.3441 20.0443C14.068 19.9302 13.8128 19.7561 13.5577 19.603C13.2575 19.4199 13.1465 19.0507 13.2996 18.7566C13.4496 18.4684 13.7738 18.3844 14.116 18.5735C14.5603 18.8166 15.0015 19.0687 15.4307 19.3389C15.6318 19.465 15.7909 19.501 15.983 19.3419C16.0731 19.2668 16.1992 19.2128 16.3162 19.1888C16.5353 19.1408 16.5894 19.0147 16.5864 18.8046C16.5744 18.3243 16.5774 17.8441 16.5834 17.3638C16.5894 16.9436 16.8025 16.6854 17.1267 16.6674C17.4629 16.6524 17.703 16.9166 17.721 17.3608C17.739 17.8261 17.733 18.2943 17.745 18.7596C17.754 19.1708 18.4534 19.558 18.8226 19.3539C19.3029 19.0897 19.7741 18.8016 20.2664 18.5675C20.7106 18.3573 21.0708 18.5464 21.1399 18.9787C21.1849 19.2548 21.0709 19.453 20.8247 19.588C20.3655 19.8372 19.9152 20.0953 19.456 20.3414C19.2518 20.4525 19.1258 20.5696 19.2368 20.8247C19.2819 20.9328 19.2999 21.0799 19.2639 21.1879C19.0838 21.7042 19.3599 21.9173 19.7801 22.1094C20.1674 22.2835 20.5276 22.5146 20.8817 22.7488C21.2179 22.9709 21.29 23.3011 21.1039 23.6012C20.8968 23.9374 20.6056 23.8954 20.3144 23.7363C19.8342 23.4722 19.3629 23.19 18.8856 22.9199C18.4894 22.6917 17.76 23.094 17.748 23.5532C17.736 24.0605 17.742 24.5678 17.733 25.075C17.727 25.4503 17.4989 25.6994 17.1627 25.6904C16.7935 25.6814 16.6224 25.4533 16.6074 25.1051C16.5954 24.8169 16.6044 24.5288 16.6044 24.2406C16.5954 24.2406 16.5924 24.2406 16.5894 24.2406ZM17.1657 21.9983C17.697 21.9893 18.0452 21.6351 18.0302 21.1159C18.0182 20.6356 17.5979 20.2484 17.1087 20.2634C16.6254 20.2784 16.2832 20.6776 16.2922 21.2089C16.3042 21.6592 16.6914 22.0074 17.1657 21.9983Z" fill="#FFEB61"/>
<path d="M26.4798 48.5631C25.8074 47.9958 25.3662 47.3414 25.2041 46.534C25.1561 46.2998 25.129 46.0207 25.2131 45.8076C25.2821 45.6305 25.5193 45.4234 25.6964 45.4083C25.8705 45.3933 26.0776 45.5884 26.2337 45.7295C26.3117 45.7985 26.3147 45.9546 26.3447 46.0747C26.6239 47.1673 27.2272 47.9838 28.3768 48.2149C29.5265 48.446 30.3429 47.8307 31.0333 46.9962C31.1444 46.8611 31.2524 46.663 31.3935 46.633C31.5826 46.588 31.8708 46.612 31.9938 46.7321C32.1169 46.8491 32.1679 47.1493 32.1139 47.3234C31.8528 48.1639 31.2374 48.6922 30.457 49.0464C30.3339 49.1034 30.2049 49.1484 30.0758 49.1994C30.0638 49.2054 30.0548 49.2174 30.0157 49.2595C30.1868 49.4456 30.3639 49.6317 30.526 49.8298C31.0153 50.4301 31.3605 51.0875 31.2704 51.8979C31.2404 52.1741 31.0843 52.4142 30.8082 52.3722C30.5891 52.3392 30.3789 52.1471 30.1988 51.988C30.1208 51.9219 30.1478 51.7478 30.0968 51.6398C29.9197 51.2556 29.7816 50.8383 29.5325 50.5082C28.608 49.2805 26.939 49.2234 25.8344 50.3521C25.6814 50.5082 25.5343 50.6792 25.4292 50.8683C25.2401 51.2105 24.976 51.2946 24.6368 51.1535C24.3606 51.0394 24.2466 50.6853 24.3906 50.3341C24.6848 49.6077 25.2581 49.1484 25.9335 48.8092C26.0956 48.7312 26.2577 48.6651 26.4798 48.5631Z" fill="#FFEB61"/>
<path d="M54.9749 47.5305C55.3681 47.1282 55.7193 46.708 56.1365 46.3628C56.4127 46.1347 56.7669 45.9726 57.112 45.8525C57.4903 45.7205 57.8204 45.8916 57.9225 46.2097C58.0455 46.5909 57.8474 46.8011 57.5233 46.9511C56.6468 47.3594 55.9834 47.9747 55.8123 48.9683C55.6142 50.1179 56.2536 51.1745 57.4272 51.7478C57.5953 51.8288 57.8174 51.9159 57.8865 52.063C57.9675 52.2371 57.9885 52.5372 57.8895 52.6723C57.7784 52.8194 57.4872 52.9274 57.2951 52.9004C56.4457 52.7774 55.8243 52.2701 55.3441 51.5797C55.245 51.4356 55.161 51.2855 55.1279 51.2315C54.6026 51.7118 54.1134 52.2011 53.5761 52.6303C53.354 52.8074 53.0298 52.8764 52.7386 52.9425C52.4385 53.0115 52.1953 52.9034 52.0993 52.5792C52.0092 52.2701 52.1083 52.054 52.3904 51.8919C52.7476 51.6878 53.1258 51.5047 53.432 51.2405C54.7557 50.0969 54.6417 48.3109 53.1979 47.3143C52.9847 47.1673 52.7446 47.0592 52.5135 46.9391C52.2073 46.78 52.0452 46.5339 52.1503 46.2007C52.2644 45.8405 52.5765 45.7925 52.8947 45.8675C53.7081 46.0626 54.3235 46.5459 54.7828 47.2303C54.8518 47.3323 54.9208 47.4494 54.9749 47.5305Z" fill="#FFEB61"/>
<path d="M45.4145 17.88C46.8102 18.1081 47.7288 18.8105 48.155 20.0982C48.218 20.2873 48.251 20.5035 48.23 20.7046C48.203 20.9837 48.0439 21.1998 47.7378 21.2269C47.4436 21.2539 47.2335 21.1158 47.1314 20.8396C47.0774 20.6986 47.0414 20.5515 46.9903 20.4104C46.7172 19.615 46.1439 19.1617 45.3214 19.0867C44.505 19.0116 43.8476 19.3448 43.4184 20.0592C43.2293 20.3744 43.0522 20.6866 42.5959 20.5755C42.3138 20.5065 42.1487 20.3384 42.1907 20.0502C42.2237 19.8251 42.2867 19.5819 42.4068 19.3958C43.1272 18.2762 44.1748 17.805 45.4145 17.88Z" fill="#FFEB61"/>
<path d="M17.3847 32.3601C17.3247 32.7473 17.3157 33.1765 16.7784 33.1885C16.4182 33.1975 16.2561 32.9814 16.166 32.4021C15.7908 32.3 15.3436 32.21 15.3916 31.6847C15.4276 31.2765 15.7638 31.1474 16.166 31.1234C16.196 31.0063 16.2231 30.8893 16.2531 30.7752C16.3311 30.493 16.5082 30.325 16.8114 30.325C17.1146 30.325 17.2646 30.5291 17.3037 30.7872C17.3397 31.0273 17.4177 31.1354 17.6789 31.1684C17.979 31.2074 18.2342 31.3755 18.2192 31.7297C18.2072 32.0689 17.988 32.237 17.6729 32.3C17.5798 32.318 17.4868 32.3391 17.3847 32.3601Z" fill="#FFEB61"/>
<path d="M34.5483 21.8933C34.2602 21.8663 34.0801 21.7042 33.975 21.41C33.927 21.2719 33.7889 21.1309 33.6538 21.0678C33.3807 20.9358 33.1075 20.8067 33.1376 20.4615C33.1616 20.1343 33.4107 19.9902 33.7079 19.8912C33.8279 19.8522 33.969 19.7141 33.996 19.597C34.0711 19.2758 34.2152 19.0657 34.5664 19.0627C34.8995 19.0597 35.0346 19.2548 35.1097 19.564C35.1397 19.6931 35.3048 19.8461 35.4398 19.8822C35.764 19.9722 36.0192 20.1193 36.0192 20.4765C36.0162 20.8457 35.743 20.9598 35.4188 21.0348C35.3048 21.0618 35.1847 21.2179 35.1427 21.341C35.0346 21.6261 34.9205 21.8753 34.5483 21.8933Z" fill="#FFEB61"/>
<path d="M65.4591 33.8369C65.4351 33.996 65.4231 34.1191 65.3991 34.2392C65.339 34.5273 65.1709 34.7194 64.8678 34.7194C64.5616 34.7164 64.3215 34.5543 64.2885 34.2452C64.2584 33.963 64.1264 33.882 63.8922 33.7709C63.7121 33.6868 63.5471 33.4317 63.505 33.2276C63.448 32.9334 63.6761 32.7743 63.9583 32.6903C64.0723 32.6543 64.2194 32.5492 64.2524 32.4472C64.3425 32.135 64.4505 31.8618 64.8318 31.8678C65.24 31.8708 65.4021 32.135 65.4471 32.5012C65.4531 32.5402 65.4741 32.5762 65.4891 32.6123C66.0865 32.7443 66.2726 32.9064 66.2515 33.2876C66.2275 33.7589 65.8643 33.8129 65.4591 33.8369Z" fill="#FFEB61"/>
<path d="M54.8455 22.8208C54.8485 23.181 54.5664 23.4752 54.2062 23.4872C53.8159 23.4992 53.4858 23.184 53.4918 22.8058C53.4978 22.4276 53.7949 22.1395 54.1761 22.1395C54.5513 22.1395 54.8425 22.4336 54.8455 22.8208Z" fill="#FFEB61"/>
<path d="M21.4671 57.3219C21.0979 57.3249 20.7977 57.0217 20.7917 56.6465C20.7857 56.2803 21.0619 56.0041 21.4341 55.9951C21.8093 55.9891 22.1395 56.2893 22.1455 56.6435C22.1515 57.0067 21.8393 57.3189 21.4671 57.3219Z" fill="#FFEB61"/>
<path d="M47.9326 57.4569C47.9296 57.8441 47.6324 58.1323 47.2482 58.1173C46.891 58.1053 46.6028 57.8111 46.5938 57.4569C46.5848 57.1057 46.921 56.7545 47.2602 56.7575C47.6054 56.7545 47.9326 57.0997 47.9326 57.4569Z" fill="#FFEB61"/>
<path d="M15.2808 41.8453C14.9176 41.8573 14.6174 41.5811 14.5964 41.2209C14.5754 40.8397 14.8575 40.5305 15.2418 40.5155C15.608 40.5035 15.9261 40.8097 15.9321 41.1849C15.9381 41.5391 15.644 41.8333 15.2808 41.8453Z" fill="#FFEB61"/>
<path d="M65.7806 42.2146C65.3874 42.2085 65.1142 41.9204 65.1263 41.5332C65.1383 41.17 65.4294 40.8908 65.7866 40.8908C66.1558 40.8938 66.441 41.197 66.438 41.5872C66.438 41.9624 66.1648 42.2176 65.7806 42.2146Z" fill="#FFEB61"/>
<path d="M27.5514 22.5207C27.5424 22.8959 27.2242 23.2261 26.879 23.2141C26.5248 23.2021 26.2396 22.9019 26.2396 22.5417C26.2396 22.1545 26.5398 21.8453 26.903 21.8573C27.2572 21.8693 27.5574 22.1755 27.5514 22.5207Z" fill="#FFEB61"/>
<path d="M35.9409 56.4965C36.2891 56.4935 36.5713 56.8027 36.5623 57.1719C36.5533 57.5351 36.2921 57.7902 35.9319 57.7842C35.5777 57.7782 35.2746 57.478 35.2686 57.1329C35.2656 56.7907 35.5717 56.4995 35.9409 56.4965Z" fill="#FFEB61"/>
<path d="M59.0177 61.188C58.0362 62.2056 56.9346 62.5628 55.6349 62.1786C55.4428 62.1215 55.2477 62.0255 55.0946 61.8964C54.8814 61.7163 54.7944 61.4642 54.9475 61.194C55.0916 60.9359 55.3257 60.8428 55.6109 60.9149C55.7579 60.9509 55.899 61.0019 56.0431 61.0439C56.8535 61.2721 57.5529 61.0589 58.0812 60.4226C58.6065 59.7922 58.7056 59.0658 58.3634 58.3034C58.2103 57.9672 58.0542 57.6461 58.4084 57.3339C58.6275 57.1418 58.8586 57.1028 59.0718 57.2979C59.2369 57.4539 59.402 57.643 59.489 57.8472C59.9963 59.0808 59.7862 60.2095 59.0177 61.188Z" fill="#FFEB61"/>
<path d="M33.2064 61.8184C33.1463 62.2056 33.1373 62.6349 32.6 62.6469C32.2398 62.6559 32.0777 62.4397 31.9877 61.8604C31.6125 61.7584 31.1652 61.6683 31.2132 61.143C31.2493 60.7348 31.5855 60.6057 31.9877 60.5817C32.0177 60.4647 32.0447 60.3476 32.0747 60.2335C32.1528 59.9514 32.3299 59.7833 32.633 59.7833C32.9362 59.7833 33.0863 59.9874 33.1253 60.2455C33.1613 60.4857 33.2394 60.5937 33.5005 60.6267C33.8007 60.6658 34.0558 60.8338 34.0408 61.188C34.0288 61.5272 33.8097 61.6953 33.4945 61.7584C33.4015 61.7764 33.3084 61.7974 33.2064 61.8184Z" fill="#FFEB61"/>
<path d="M49.9076 30.3549C50.8141 31.4475 51.4655 32.6302 51.8257 33.9539C52.7202 37.2317 51.9577 40.2094 50.1628 42.9979C49.7455 43.6463 49.4063 44.3547 48.9501 44.973C48.1396 46.0746 47.2631 47.1222 46.4257 48.2028C46.3296 48.3289 46.2336 48.521 46.2576 48.6651C46.7409 51.9429 48.1156 54.7254 50.8051 56.7605C51.1653 57.0337 51.5855 57.2318 51.9788 57.4599C52.1469 57.556 52.3239 57.64 52.486 57.7421C52.7142 57.8862 52.8042 58.0993 52.6751 58.3484C52.5431 58.6036 52.3149 58.6246 52.0688 58.5135C51.0753 58.0693 50.1808 57.4779 49.3733 56.7485C48.4518 55.9141 47.7254 54.9265 47.0741 53.8729C46.993 53.7469 46.915 53.6178 46.8159 53.4647C45.201 54.9745 43.325 55.791 41.1188 55.788C38.9065 55.785 37.0365 54.9385 35.4636 53.4917C34.9113 54.2572 34.407 55.0376 33.8217 55.746C32.8582 56.9106 31.6665 57.8051 30.3068 58.4745C30.1717 58.5435 30.0156 58.6366 29.8835 58.6185C29.7395 58.6005 29.5594 58.4925 29.4963 58.3724C29.4363 58.2553 29.4693 58.0543 29.5263 57.9192C29.5684 57.8201 29.7064 57.7511 29.8145 57.697C33.1884 56.0311 34.9684 53.1976 35.8028 49.6286C35.9979 48.7881 35.8839 48.2058 35.2595 47.5785C34.1729 46.4859 33.3415 45.1891 32.6211 43.8234C32.2278 43.082 31.6875 42.4156 31.3183 41.6652C30.0937 39.1948 29.6254 36.6194 30.3938 33.9059C30.739 32.6782 31.3243 31.5736 32.0988 30.562C32.1408 30.508 32.1738 30.448 32.1558 30.475C31.8196 29.9347 31.5194 29.4394 31.1953 28.9561C31.1262 28.8541 30.9852 28.7821 30.8621 28.734C29.9046 28.3588 28.953 28.3949 27.9865 28.746C25.1709 29.7726 23.5861 32.4471 24.0423 35.4097C24.2374 36.6794 24.4265 37.9521 24.5826 39.2278C24.9158 41.9774 23.7872 44.0965 21.695 45.7775C21.0046 46.3328 20.2902 46.8551 19.5969 47.4044C19.3267 47.6205 19.0686 47.8546 18.8404 48.1098C18.2731 48.7641 18.048 49.4875 18.4412 50.328C18.8614 51.2285 19.2727 52.135 19.6719 53.0475C19.81 53.3656 19.9811 53.4227 20.2722 53.2336C20.4553 53.1135 20.6684 53.0385 20.8756 52.9574C21.1007 52.8704 21.3108 52.8734 21.4429 53.1285C21.5719 53.3777 21.4699 53.5638 21.2658 53.6958C20.5274 54.1761 19.7499 54.4883 18.8404 54.3022C16.6072 53.8459 15.4215 52.3571 14.8782 50.2559C14.35 48.2058 15.1814 46.5939 16.6132 45.2342C17.3846 44.5048 18.2581 43.8834 19.0866 43.217C19.2697 43.07 19.4558 42.9259 19.6389 42.7788C20.9206 41.7432 21.3918 40.4465 21.0767 38.8016C20.8245 37.4869 20.6354 36.1511 20.5514 34.8154C20.1972 29.4634 23.8742 25.9185 28.1006 24.8919C30.0937 24.4086 31.8436 24.8499 33.3805 26.2126C33.7377 26.5308 34.1609 26.7709 34.5391 27.0651C34.8093 27.2752 35.0524 27.5214 35.2805 27.7255C36.139 27.3923 36.9795 26.9931 37.862 26.7409C40.8846 25.8735 43.8022 26.2036 46.5938 27.6414C46.8789 27.7885 47.02 27.7765 47.2331 27.5154C47.4342 27.2692 47.7434 27.1131 48.0076 26.921C48.1186 26.84 48.2477 26.777 48.3377 26.6809C50.0397 24.8649 52.0958 24.3366 54.4611 25.048C57.5559 25.9755 59.8881 27.7855 61.0888 30.8802C61.7762 32.6542 61.7732 34.4732 61.497 36.3162C61.3439 37.3428 61.2029 38.3694 61.0678 39.3959C60.9177 40.5216 61.1849 41.5361 62.0433 42.3045C62.8358 43.0129 63.6852 43.6583 64.5257 44.3096C65.5102 45.0721 66.3867 45.9365 66.9601 47.0472C67.9626 48.9832 67.4823 50.7812 66.3177 52.4622C65.5883 53.5127 64.5377 54.1041 63.286 54.3292C62.4366 54.4823 61.6741 54.2031 60.9687 53.7499C60.7586 53.6148 60.5815 53.3807 60.7616 53.1645C60.8757 53.0295 61.1609 53.0265 61.371 52.9904C61.44 52.9784 61.521 53.0505 61.5961 53.0865C62.2955 53.4167 62.3045 53.4227 62.6377 52.7413C63.0159 51.9699 63.3671 51.1894 63.7393 50.418C64.1655 49.5385 63.9734 48.7521 63.322 48.1007C62.7968 47.5755 62.1844 47.1372 61.6201 46.6509C60.7976 45.9365 59.9121 45.2762 59.1797 44.4777C57.877 43.058 57.3877 41.317 57.6039 39.4079C57.76 38.0212 57.9941 36.6434 58.1862 35.2596C58.6424 31.9818 56.4272 28.9622 53.1764 28.5299C52.5341 28.4459 51.8497 28.674 51.1893 28.7941C51.0873 28.8121 50.9672 28.9892 50.9342 29.1152C50.7751 29.6495 50.4929 30.0848 49.9076 30.3549ZM34.4311 38.1052C35.5867 37.6099 36.7603 37.5169 37.94 37.8531C38.5583 38.0272 39.1467 38.3183 39.729 38.6005C39.9721 38.7205 40.1162 38.9787 39.9421 39.2639C39.768 39.549 39.5159 39.525 39.2577 39.3749C39.1737 39.3269 39.0896 39.2789 39.0086 39.2278C38.3242 38.8106 37.5858 38.5735 36.7814 38.5104C34.9594 38.3724 33.4465 39.477 33.1734 41.2359C33.0833 41.8183 32.9723 42.5267 33.2094 43.0129C34.2029 45.0691 35.5657 46.8791 37.2676 48.4189C38.0931 49.1633 38.9966 49.7907 40.0322 50.2229C40.7946 50.5411 41.551 50.5591 42.2714 50.1689C42.9738 49.7877 43.6942 49.4095 44.3155 48.9172C46.1736 47.4494 47.5333 45.5553 48.77 43.5532C49.1422 42.9499 49.2893 42.3646 49.1722 41.6772C49.0041 40.6896 48.782 39.7411 47.8365 39.1708C46.4317 38.3213 45.0059 38.3694 43.5651 39.0687C43.316 39.1888 43.0818 39.3419 42.8297 39.45C42.5686 39.561 42.3284 39.444 42.2504 39.2068C42.2024 39.0567 42.2924 38.8226 42.3915 38.6755C42.4755 38.5495 42.6556 38.4834 42.8057 38.4084C44.4326 37.5979 46.0895 37.3068 47.8425 38.1262C47.5363 37.682 47.2151 37.2587 46.8489 36.8775C45.9815 35.971 44.8708 35.4307 43.7872 34.8454C42.6826 34.2481 41.7341 33.4887 41.1758 32.327C41.1638 32.3 41.1097 32.291 41.0437 32.255C40.4464 33.7078 39.2097 34.4552 37.913 35.1516C37.3427 35.4577 36.7874 35.7999 36.2531 36.1691C35.5147 36.6824 34.8843 37.3098 34.4311 38.1052ZM50.0487 41.2269C51.7236 38.3694 51.8827 34.6713 49.6525 31.4806C47.4432 28.3168 43.5621 27.0771 41.521 27.2332C41.521 28.1847 41.494 29.1393 41.527 30.0908C41.575 31.5286 42.1573 32.7202 43.358 33.5427C43.9823 33.9719 44.6667 34.3171 45.3301 34.6833C47.9205 36.1211 49.4844 38.2943 50.0487 41.2269ZM32.1618 41.2269C32.1888 41.1369 32.2098 41.0769 32.2218 41.0168C32.7381 38.3544 34.1759 36.3312 36.4782 34.9205C37.1506 34.5092 37.8439 34.137 38.5223 33.7348C39.2547 33.3056 39.819 32.7232 40.1942 31.9458C40.9327 30.418 40.5995 28.8061 40.6655 27.2272C38.0451 26.819 33.8577 29.2083 32.1858 31.9998C30.2828 35.1846 30.724 38.7656 32.1618 41.2269ZM32.6901 26.7679C31.9457 26.0776 31.1292 25.7534 30.2227 25.6123C28.977 25.4202 27.8334 25.7924 26.7288 26.2877C23.448 27.7645 21.5389 30.2619 21.4219 33.8939C21.3738 35.3677 21.614 36.8775 21.9171 38.3333C22.3854 40.5846 21.731 42.3316 19.927 43.6943C19.7289 43.8444 19.5338 43.9975 19.3387 44.1536C18.6904 44.6698 18.012 45.1561 17.3996 45.7114C15.6407 47.3083 15.2294 48.7851 15.9438 50.7452C16.4421 52.108 17.3936 52.9784 18.8554 53.4377C18.7534 53.2186 18.6874 53.0715 18.6213 52.9274C18.2491 52.0629 17.8619 51.2105 17.5167 50.334C17.1745 49.4665 17.3336 48.635 17.8829 47.9026C18.1951 47.4854 18.5583 47.0922 18.9575 46.759C19.7319 46.1107 20.5664 45.5373 21.3438 44.892C23.1568 43.3881 24.0333 41.4911 23.6881 39.1048C23.535 38.0512 23.394 36.9946 23.2139 35.947C22.8507 33.8279 23.1448 31.8468 24.5226 30.1478C25.9304 28.4099 27.7163 27.3893 30.0426 27.6294C30.4599 27.6714 30.8681 27.8185 31.3123 27.9236C31.5375 27.2992 31.9997 26.939 32.6901 26.7679ZM63.328 53.4197C63.4541 53.3957 63.5081 53.3927 63.5562 53.3777C66.0505 52.5852 67.6804 49.0853 65.7324 46.72C64.9549 45.7775 63.9944 45.0661 63.0579 44.3126C62.4035 43.7844 61.7462 43.2471 61.1728 42.6317C60.3504 41.7492 60.0232 40.6596 60.1763 39.45C60.3294 38.2163 60.4915 36.9796 60.6656 35.7519C60.9027 34.089 60.8126 32.4621 60.1433 30.9072C58.9486 28.1337 56.7514 26.5518 53.9028 25.7804C52.471 25.3932 51.1353 25.6273 49.9016 26.4438C49.7845 26.5218 49.6795 26.6209 49.6525 26.6419C50.0427 27.0021 50.4299 27.3052 50.7421 27.6714C50.9012 27.8576 51.0062 27.8726 51.2193 27.8395C51.8287 27.7435 52.45 27.5814 53.0564 27.6204C56.1811 27.8185 59.54 30.8832 59.0807 35.0705C58.9696 36.0881 58.7925 37.0967 58.6485 38.1082C58.4894 39.2188 58.3093 40.3234 58.5704 41.4461C58.9366 43.0249 59.9061 44.1806 61.1308 45.1621C61.9833 45.8465 62.8748 46.4858 63.6792 47.2183C64.9219 48.3499 65.105 49.3224 64.4837 50.8713C64.3636 51.1654 64.2375 51.4566 64.1025 51.7448C63.8623 52.2821 63.6102 52.8163 63.328 53.4197ZM36.7694 49.1123C36.6313 49.7036 36.5292 50.2439 36.3821 50.7752C36.2321 51.3215 36.0249 51.8498 35.8749 52.3961C35.8418 52.5162 35.8899 52.7353 35.9799 52.8013C36.5322 53.2126 37.0845 53.6418 37.6849 53.978C40.4854 55.5449 43.9103 55.0796 46.1856 52.8344C46.2936 52.7293 46.3657 52.4892 46.3266 52.3511C46.0355 51.3065 45.7113 50.2709 45.4201 49.3074C44.7117 49.7607 43.9433 50.2889 43.1389 50.7632C41.9202 51.4776 40.6625 51.5437 39.3718 50.9223C38.4173 50.4601 37.5498 49.8837 36.7694 49.1123ZM34.5541 28.1877C34.1279 27.9596 33.7767 27.7105 33.3865 27.5754C32.9242 27.4133 32.3659 27.7135 32.1678 28.1367C31.9667 28.5749 32.1078 29.1513 32.528 29.4274C32.6511 29.5085 32.9122 29.5445 33.0113 29.4694C33.5066 29.1002 33.9658 28.686 34.5541 28.1877ZM50.1027 28.635C50.0967 28.0827 49.7605 27.6895 49.2412 27.5724C48.749 27.4613 48.0286 27.7315 47.8725 28.1187C47.8365 28.2117 47.9085 28.4039 47.9956 28.4849C48.3648 28.8331 48.755 29.1633 49.1482 29.4874C49.2232 29.5505 49.3883 29.6015 49.4544 29.5625C49.8206 29.3464 50.1237 29.0732 50.1027 28.635Z" fill="#FFEB61" stroke="#FFEB61" stroke-width="0.2" stroke-miterlimit="10"/>
<path d="M41.5331 41.8993C41.5331 42.5627 41.5361 43.226 41.5301 43.8864C41.5301 44.1055 41.5601 44.2496 41.7912 44.3787C42.1484 44.5768 42.0944 45.036 41.7132 45.1921C41.314 45.3572 40.8998 45.3572 40.5125 45.1501C40.1463 44.958 40.0863 44.6998 40.4015 44.4387C40.6776 44.2076 40.7016 43.9494 40.6986 43.6403C40.6896 42.4246 40.6926 41.2089 40.6896 39.9962C40.6896 39.8732 40.6476 39.7171 40.7076 39.63C40.8187 39.468 40.9718 39.2698 41.1369 39.2428C41.2419 39.2248 41.4851 39.4709 41.5091 39.624C41.5661 40.0022 41.5331 40.3955 41.5361 40.7797C41.5301 41.1519 41.5301 41.5271 41.5331 41.8993C41.5301 41.8993 41.5301 41.8993 41.5331 41.8993Z" fill="#FFEB61"/>
<path d="M41.5331 41.8993C41.5331 42.5627 41.5361 43.226 41.5301 43.8864C41.5301 44.1055 41.5601 44.2496 41.7912 44.3787C42.1484 44.5768 42.0944 45.036 41.7132 45.1921C41.314 45.3572 40.8998 45.3572 40.5125 45.1501C40.1463 44.958 40.0863 44.6998 40.4015 44.4387C40.6776 44.2076 40.7016 43.9494 40.6986 43.6403C40.6896 42.4246 40.6926 41.2089 40.6896 39.9962C40.6896 39.8732 40.6476 39.7171 40.7076 39.63C40.8187 39.468 40.9718 39.2698 41.1369 39.2428C41.2419 39.2248 41.4851 39.4709 41.5091 39.624C41.5661 40.0022 41.5331 40.3955 41.5361 40.7797C41.5301 41.1519 41.5301 41.5271 41.5331 41.8993ZM41.5331 41.8993C41.5301 41.8993 41.5301 41.8993 41.5331 41.8993Z" stroke="#FFEB61" stroke-width="0.2" stroke-miterlimit="10"/>
<path d="M36.9555 41.4101C36.3612 41.383 35.8059 41.209 35.3586 40.7707C35.1395 40.5546 34.9774 40.2964 35.2326 40.0113C35.4967 39.7171 35.7458 39.8672 35.986 40.0743C36.7244 40.7167 37.1656 40.7197 37.9311 40.0863C38.1712 39.8882 38.4353 39.8102 38.6695 40.0503C38.9036 40.2934 38.7535 40.5486 38.5704 40.7467C38.1472 41.2089 37.5979 41.3981 36.9555 41.4101Z" fill="#FFEB61" stroke="#FFEB61" stroke-width="0.2" stroke-miterlimit="10"/>
<path d="M41.1491 48.2628C40.5367 48.0376 39.9784 47.8516 39.4381 47.6174C39.3331 47.5724 39.219 47.3233 39.258 47.2182C39.3121 47.0591 39.4772 46.882 39.6302 46.834C39.7923 46.783 40.0385 46.819 40.1765 46.918C40.7979 47.3593 41.3832 47.3323 42.0226 46.93C42.2027 46.819 42.5328 46.843 42.749 46.924C43.0101 47.0201 43.0611 47.4163 42.83 47.5334C42.2837 47.8155 41.7044 48.0256 41.1491 48.2628Z" fill="#FFEB61" stroke="#FFEB61" stroke-width="0.2" stroke-miterlimit="10"/>
<path d="M45.2251 41.536C44.6308 41.509 44.0755 41.3349 43.6282 40.8967C43.4091 40.6806 43.247 40.4224 43.5022 40.1373C43.7663 39.8431 44.0154 39.9932 44.2556 40.2003C44.994 40.8427 45.4352 40.8456 46.2006 40.2123C46.4408 40.0142 46.7049 39.9361 46.9391 40.1763C47.1732 40.4194 47.0231 40.6746 46.84 40.8727C46.4168 41.3319 45.8675 41.524 45.2251 41.536Z" fill="#FFEB61" stroke="#FFEB61" stroke-width="0.2" stroke-miterlimit="10"/>
</svg>
