<svg width="80" height="80" viewBox="0 0 80 80" fill="none" xmlns="http://www.w3.org/2000/svg">
<rect width="80" height="80" rx="40" fill="#111010"/>
<path d="M58.9958 24.6198C58.9958 24.508 58.9958 24.3999 58.9958 24.2881C58.9958 23.7004 58.8696 23.5201 58.3035 23.3578C58.217 23.3326 58.098 23.3867 58.0079 23.4335C57.55 23.6751 57.0992 23.9275 56.6413 24.1655C56.3601 24.3133 56.1041 24.2701 55.9562 23.9708C55.812 23.6823 55.8949 23.448 56.1798 23.2857C56.598 23.0477 57.0055 22.7953 57.4273 22.5682C57.5932 22.478 57.6617 22.3879 57.6185 22.1932C57.586 22.0381 57.5644 21.8615 57.6112 21.7208C57.7446 21.317 57.5499 21.1403 57.2146 20.9925C56.8901 20.8483 56.5728 20.6788 56.2699 20.4913C55.9382 20.2858 55.8553 19.9793 56.0355 19.7089C56.2375 19.3988 56.5043 19.442 56.7783 19.5935C57.1786 19.8134 57.5788 20.0298 57.9646 20.2677C58.1413 20.3759 58.2855 20.448 58.4405 20.2569C58.455 20.2389 58.4802 20.2173 58.4982 20.2137C59.0571 20.1055 59.0283 19.6944 59.0102 19.269C58.9958 18.9625 59.0066 18.6524 59.0283 18.3459C59.0463 18.0683 59.2014 17.8808 59.4898 17.8591C59.7675 17.8375 60.0415 18.0935 60.0487 18.3856C60.0667 18.8399 60.0667 19.2978 60.0559 19.7521C60.0523 19.9396 60.146 19.9973 60.2903 20.1019C60.7193 20.4156 61.0583 20.293 61.4369 20.0189C61.7145 19.8206 62.0354 19.68 62.3455 19.525C62.5799 19.406 62.8034 19.4132 62.9513 19.662C63.1063 19.9216 63.146 20.1956 62.8684 20.3831C62.4898 20.6355 62.0931 20.8591 61.6857 21.0682C61.4405 21.1908 61.3107 21.317 61.4189 21.6055C61.4657 21.7244 61.4838 21.8867 61.4405 22.0057C61.3179 22.3554 61.509 22.4816 61.7722 22.6187C62.1328 22.8062 62.4825 23.0153 62.8215 23.2352C63.1208 23.4299 63.1893 23.7256 63.0306 23.9996C62.8431 24.3133 62.5763 24.3097 62.2986 24.1547C61.8984 23.9347 61.5018 23.7112 61.116 23.466C60.9285 23.347 60.8023 23.3831 60.5932 23.4408C60.0162 23.6102 59.9838 24.0032 60.0163 24.4864C60.0379 24.7929 60.0126 25.103 59.9946 25.4095C59.9766 25.7232 59.8179 25.9323 59.4898 25.9287C59.1689 25.9215 59.003 25.716 58.9922 25.3987C58.9922 25.139 58.9994 24.8794 58.9958 24.6198C59.003 24.6198 58.9994 24.6198 58.9958 24.6198ZM60.3119 21.8975C60.3191 21.436 59.9694 21.0682 59.5151 21.061C59.0932 21.0538 58.7362 21.418 58.7254 21.8615C58.7182 22.2761 59.0607 22.6042 59.5114 22.6223C59.9766 22.6367 60.3011 22.341 60.3119 21.8975Z" fill="#FFEB61"/>
<path d="M58.9958 24.6198C58.9958 24.508 58.9958 24.3999 58.9958 24.2881C58.9958 23.7004 58.8696 23.5201 58.3035 23.3578C58.217 23.3326 58.098 23.3867 58.0079 23.4335C57.55 23.6751 57.0992 23.9275 56.6413 24.1655C56.3601 24.3133 56.1041 24.2701 55.9562 23.9708C55.812 23.6823 55.8949 23.448 56.1798 23.2857C56.598 23.0477 57.0055 22.7953 57.4273 22.5682C57.5932 22.478 57.6617 22.3879 57.6185 22.1932C57.586 22.0381 57.5644 21.8615 57.6112 21.7208C57.7446 21.317 57.5499 21.1403 57.2146 20.9925C56.8901 20.8483 56.5728 20.6788 56.2699 20.4913C55.9382 20.2858 55.8553 19.9793 56.0355 19.7089C56.2375 19.3988 56.5043 19.442 56.7783 19.5935C57.1786 19.8134 57.5788 20.0298 57.9646 20.2677C58.1413 20.3759 58.2855 20.448 58.4405 20.2569C58.455 20.2389 58.4802 20.2173 58.4982 20.2137C59.0571 20.1055 59.0283 19.6944 59.0102 19.269C58.9958 18.9625 59.0066 18.6524 59.0283 18.3459C59.0463 18.0683 59.2014 17.8808 59.4898 17.8591C59.7675 17.8375 60.0415 18.0935 60.0487 18.3856C60.0667 18.8399 60.0667 19.2978 60.0559 19.7521C60.0523 19.9396 60.146 19.9973 60.2903 20.1019C60.7193 20.4156 61.0583 20.293 61.4369 20.0189C61.7145 19.8206 62.0354 19.68 62.3455 19.525C62.5799 19.406 62.8034 19.4132 62.9513 19.662C63.1063 19.9216 63.146 20.1956 62.8684 20.3831C62.4898 20.6355 62.0931 20.8591 61.6857 21.0682C61.4405 21.1908 61.3107 21.317 61.4189 21.6055C61.4657 21.7244 61.4838 21.8867 61.4405 22.0057C61.3179 22.3554 61.509 22.4816 61.7722 22.6187C62.1328 22.8062 62.4825 23.0153 62.8215 23.2352C63.1208 23.4299 63.1893 23.7256 63.0306 23.9996C62.8431 24.3133 62.5763 24.3097 62.2986 24.1547C61.8984 23.9347 61.5018 23.7112 61.116 23.466C60.9285 23.347 60.8023 23.3831 60.5932 23.4408C60.0162 23.6102 59.9838 24.0032 60.0163 24.4864C60.0379 24.7929 60.0126 25.103 59.9946 25.4095C59.9766 25.7232 59.8179 25.9323 59.4898 25.9287C59.1689 25.9215 59.003 25.716 58.9922 25.3987C58.9922 25.139 58.9994 24.8794 58.9958 24.6198ZM58.9958 24.6198C58.9994 24.6198 59.003 24.6198 58.9958 24.6198ZM60.3119 21.8975C60.3191 21.436 59.9694 21.0682 59.5151 21.061C59.0932 21.0538 58.7362 21.418 58.7254 21.8615C58.7182 22.2761 59.0607 22.6042 59.5114 22.6223C59.9766 22.6367 60.3011 22.341 60.3119 21.8975Z" stroke="#FFEB61" stroke-width="0.1" stroke-miterlimit="10"/>
<path d="M17.4078 24.645C17.4078 24.5477 17.3934 24.4467 17.4078 24.3494C17.4799 23.8806 17.3393 23.5669 16.8525 23.4011C16.6434 23.3326 16.5136 23.3073 16.3225 23.4335C15.933 23.6931 15.5256 23.9239 15.1182 24.1511C14.8513 24.2989 14.5881 24.2953 14.4223 23.9888C14.2636 23.6967 14.3141 23.4299 14.5989 23.246C14.9703 23.0081 15.3742 22.8097 15.7383 22.5573C15.8609 22.4708 15.915 22.2797 15.9871 22.1283C16.0124 22.0778 15.9727 22.0021 15.9943 21.9444C16.1854 21.3675 15.897 21.0718 15.3958 20.8699C15.147 20.7689 14.9198 20.6103 14.6891 20.4732C14.4187 20.311 14.3213 19.9757 14.4547 19.7124C14.5881 19.4528 14.8802 19.3771 15.1903 19.5466C15.5905 19.7665 15.9871 19.9901 16.3729 20.2353C16.5532 20.347 16.6975 20.3795 16.8705 20.2353C16.9535 20.1668 17.0652 20.1199 17.1698 20.0983C17.3645 20.055 17.415 19.9396 17.4114 19.7521C17.4006 19.3194 17.4042 18.8903 17.4078 18.4577C17.415 18.0827 17.6025 17.8483 17.8945 17.8339C18.1974 17.8194 18.4138 18.0574 18.4282 18.4577C18.4462 18.8759 18.439 19.2978 18.4498 19.716C18.457 20.0838 19.088 20.4336 19.4162 20.2497C19.8488 20.0117 20.2707 19.7557 20.7142 19.543C21.1144 19.3519 21.4354 19.5249 21.4967 19.9144C21.5363 20.1632 21.4354 20.3398 21.2154 20.4624C20.8044 20.686 20.3969 20.9204 19.9859 21.1403C19.802 21.2377 19.6902 21.3422 19.7912 21.5766C19.8308 21.6739 19.8488 21.8074 19.8164 21.9011C19.6541 22.3626 19.9029 22.5573 20.2779 22.7304C20.6241 22.8891 20.9486 23.0946 21.2695 23.3037C21.5688 23.502 21.6373 23.7977 21.4678 24.0681C21.2803 24.3674 21.0207 24.335 20.7575 24.1907C20.3248 23.9528 19.9029 23.7003 19.4738 23.4552C19.1169 23.2496 18.4643 23.6102 18.4534 24.0213C18.4426 24.4756 18.4462 24.9335 18.439 25.3878C18.4318 25.7231 18.2299 25.9503 17.927 25.9395C17.5953 25.9323 17.4402 25.7268 17.4294 25.4167C17.4186 25.1571 17.4258 24.8974 17.4258 24.6414C17.4114 24.645 17.4078 24.645 17.4078 24.645ZM17.9234 22.6331C18.3994 22.6259 18.713 22.3049 18.6986 21.8398C18.6878 21.4071 18.3092 21.061 17.8693 21.0754C17.433 21.0898 17.1265 21.4468 17.1374 21.9263C17.1518 22.3266 17.4979 22.6367 17.9234 22.6331Z" fill="#FFEB61" stroke="#FFEB61" stroke-width="0.1" stroke-miterlimit="10"/>
<path d="M24.0679 56.8332C24.4538 56.1445 24.9586 55.6469 25.6436 55.3657C25.8419 55.2827 26.0835 55.2142 26.2854 55.2539C26.4549 55.2863 26.6749 55.4594 26.7181 55.6108C26.7578 55.7623 26.6244 55.975 26.527 56.1409C26.4765 56.2238 26.3395 56.2527 26.2422 56.2995C25.3263 56.7286 24.7062 57.3993 24.6953 58.4521C24.6845 59.505 25.366 60.1216 26.2169 60.5903C26.354 60.666 26.5487 60.7273 26.5991 60.8499C26.6713 61.0122 26.6965 61.2682 26.6136 61.398C26.5306 61.5278 26.2746 61.6216 26.1124 61.6035C25.3263 61.517 24.7566 61.0591 24.3131 60.4317C24.241 60.3307 24.1797 60.2261 24.1112 60.1216C24.104 60.1144 24.0932 60.1072 24.0463 60.0783C23.9093 60.2586 23.7759 60.4497 23.628 60.6228C23.1809 61.1564 22.6581 61.5711 21.9298 61.6252C21.681 61.6432 21.443 61.5458 21.4322 61.297C21.425 61.0987 21.5584 60.8824 21.6665 60.6949C21.7134 60.6156 21.8685 60.6083 21.9586 60.547C22.2651 60.3271 22.6112 60.136 22.8636 59.8584C23.7903 58.8343 23.5595 57.3524 22.3769 56.57C22.2146 56.4618 22.0379 56.3608 21.854 56.2995C21.5223 56.1914 21.4033 55.9714 21.4682 55.6469C21.5223 55.3837 21.8144 55.225 22.1497 55.2899C22.8384 55.427 23.3396 55.856 23.7578 56.3933C23.8552 56.5231 23.9417 56.6529 24.0679 56.8332Z" fill="#FFEB61" stroke="#FFEB61" stroke-width="0.1" stroke-miterlimit="10"/>
<path d="M53.5513 56.7791C53.9047 56.4185 54.222 56.0399 54.5934 55.7298C54.8421 55.5243 55.1594 55.38 55.4695 55.2719C55.8085 55.1529 56.1041 55.3079 56.1979 55.5928C56.3097 55.9353 56.1294 56.1228 55.8409 56.2598C55.0513 56.6276 54.4599 57.1793 54.3049 58.0699C54.1282 59.1011 54.7015 60.053 55.7544 60.565C55.9058 60.6372 56.1041 60.7165 56.1654 60.8463C56.2376 61.0049 56.2556 61.2754 56.1654 61.3944C56.0645 61.5278 55.8049 61.6251 55.6318 61.5963C54.8674 61.4845 54.3121 61.0302 53.8794 60.41C53.7929 60.2802 53.7136 60.1432 53.6847 60.0963C53.2124 60.529 52.7725 60.9689 52.2893 61.3511C52.0874 61.5097 51.7953 61.571 51.5393 61.6323C51.2725 61.6972 51.0526 61.5963 50.966 61.3042C50.8831 61.0266 50.9732 60.8319 51.2256 60.6876C51.5465 60.5037 51.8855 60.3379 52.1595 60.1035C53.3458 59.0759 53.2484 57.4714 51.9504 56.5771C51.7593 56.4437 51.5429 56.3464 51.3374 56.2382C51.0634 56.094 50.9191 55.874 51.0129 55.5748C51.1139 55.2502 51.3951 55.207 51.6799 55.2755C52.4119 55.4485 52.9636 55.8848 53.3782 56.5014C53.4395 56.6024 53.5008 56.7069 53.5513 56.7791Z" fill="#FFEB61" stroke="#FFEB61" stroke-width="0.1" stroke-miterlimit="10"/>
<path d="M64.4263 34.3444C64.6102 35.5992 64.2605 36.5799 63.2725 37.2939C63.1283 37.3984 62.9516 37.485 62.7749 37.5246C62.5297 37.5751 62.3026 37.4994 62.1944 37.247C62.0898 37.0018 62.1512 36.7855 62.3603 36.6196C62.4685 36.5367 62.5802 36.4646 62.692 36.3816C63.2978 35.9309 63.5285 35.3143 63.3699 34.5932C63.2112 33.8721 62.7461 33.4033 62.0177 33.2302C61.6968 33.1545 61.3831 33.0896 61.3507 32.6678C61.3326 32.4081 61.4336 32.2206 61.6896 32.1774C61.8915 32.1449 62.1151 32.1305 62.3098 32.181C63.4672 32.4911 64.1559 33.2627 64.4263 34.3444Z" fill="#FFEB61" stroke="#FFEB61" stroke-width="0.1" stroke-miterlimit="10"/>
<path d="M18.1218 31.9394C18.0677 32.2891 18.0605 32.6713 17.5774 32.6821C17.2528 32.6893 17.1086 32.4946 17.0257 31.9754C16.6903 31.8817 16.2865 31.8023 16.3298 31.33C16.3622 30.9658 16.6651 30.8468 17.0257 30.8252C17.0509 30.7206 17.0761 30.6161 17.105 30.5115C17.1735 30.2555 17.3358 30.1077 17.6062 30.1077C17.8766 30.1077 18.0136 30.2916 18.0497 30.5223C18.0821 30.7387 18.1543 30.836 18.385 30.8649C18.6555 30.9009 18.8826 31.0524 18.8718 31.3697C18.861 31.6725 18.6627 31.824 18.3778 31.8817C18.2985 31.8997 18.2119 31.9177 18.1218 31.9394Z" fill="#FFEB61" stroke="#FFEB61" stroke-width="0.1" stroke-miterlimit="10"/>
<path d="M27.7919 20.7365C27.5323 20.7112 27.3737 20.567 27.2763 20.3002C27.2331 20.1776 27.1069 20.0514 26.9879 19.9937C26.7427 19.8747 26.4975 19.7593 26.5227 19.4492C26.5444 19.1572 26.7679 19.0274 27.0347 18.9372C27.1429 18.9012 27.2691 18.7786 27.2944 18.674C27.3629 18.3856 27.4927 18.1981 27.8064 18.1945C28.1056 18.1908 28.2282 18.3675 28.2931 18.6452C28.322 18.7605 28.4698 18.8976 28.5924 18.93C28.8845 19.0129 29.1116 19.1428 29.1116 19.4637C29.1116 19.7954 28.8628 19.9 28.5708 19.9649C28.4698 19.9901 28.3617 20.1307 28.322 20.2389C28.2282 20.4949 28.1273 20.7184 27.7919 20.7365Z" fill="#FFEB61" stroke="#FFEB61" stroke-width="0.1" stroke-miterlimit="10"/>
<path d="M65.2807 46.1711C65.2591 46.3153 65.2482 46.4235 65.2266 46.5317C65.1725 46.7913 65.0247 46.9643 64.7506 46.9607C64.4766 46.9571 64.2567 46.8129 64.2278 46.5317C64.2026 46.2793 64.0836 46.2035 63.8709 46.1026C63.7086 46.0269 63.5608 45.7961 63.5247 45.6158C63.4742 45.3526 63.6798 45.2084 63.9322 45.1326C64.0367 45.1038 64.1665 45.0065 64.1954 44.9127C64.2783 44.6315 64.3721 44.3863 64.7182 44.3899C65.086 44.3935 65.2302 44.6279 65.2699 44.9596C65.2735 44.9956 65.2951 45.0281 65.3096 45.0569C65.8468 45.1759 66.0127 45.3237 65.9946 45.6627C65.9658 46.1026 65.6449 46.1495 65.2807 46.1711Z" fill="#FFEB61" stroke="#FFEB61" stroke-width="0.1" stroke-miterlimit="10"/>
<path d="M51.7702 23.3686C51.7738 23.6932 51.5214 23.9564 51.1969 23.9672C50.8472 23.978 50.5479 23.6968 50.5551 23.3542C50.5587 23.0153 50.8255 22.7557 51.1717 22.7557C51.507 22.7557 51.7666 23.0225 51.7702 23.3686Z" fill="#FFEB61" stroke="#FFEB61" stroke-width="0.1" stroke-miterlimit="10"/>
<path d="M15.7818 53.1806C15.45 53.1842 15.1796 52.9138 15.176 52.5748C15.1688 52.2467 15.4176 51.9979 15.7529 51.9907C16.0882 51.9871 16.3839 52.2575 16.3911 52.5712C16.3947 52.8993 16.1171 53.177 15.7818 53.1806Z" fill="#FFEB61" stroke="#FFEB61" stroke-width="0.1" stroke-miterlimit="10"/>
<path d="M42.907 59.7971C42.907 60.1432 42.6365 60.4028 42.294 60.392C41.9731 60.3812 41.7135 60.118 41.7063 59.7971C41.699 59.4834 41.9983 59.1661 42.3048 59.1661C42.6149 59.1661 42.907 59.4726 42.907 59.7971Z" fill="#FFEB61" stroke="#FFEB61" stroke-width="0.1" stroke-miterlimit="10"/>
<path d="M15.2083 39.7637C14.8838 39.7746 14.6098 39.5258 14.5917 39.2013C14.5737 38.8587 14.8261 38.5811 15.1723 38.5703C15.5004 38.5594 15.7852 38.8371 15.7924 39.1724C15.7996 39.4897 15.5364 39.7529 15.2083 39.7637Z" fill="#FFEB61" stroke="#FFEB61" stroke-width="0.1" stroke-miterlimit="10"/>
<path d="M63.5426 54.6049C63.1892 54.5977 62.944 54.3416 62.9548 53.9919C62.9657 53.6674 63.2253 53.415 63.5498 53.415C63.8815 53.415 64.1375 53.689 64.1339 54.0388C64.1267 54.3741 63.8851 54.6085 63.5426 54.6049Z" fill="#FFEB61" stroke="#FFEB61" stroke-width="0.1" stroke-miterlimit="10"/>
<path d="M26.8298 24.9263C26.8226 25.2652 26.5378 25.5573 26.2277 25.5501C25.9104 25.5393 25.6508 25.2688 25.6508 24.9479C25.6508 24.6018 25.9212 24.3241 26.2457 24.335C26.5666 24.3422 26.8371 24.6198 26.8298 24.9263Z" fill="#FFEB61" stroke="#FFEB61" stroke-width="0.1" stroke-miterlimit="10"/>
<path d="M33.3165 59.5158C33.6302 59.5158 33.8826 59.7898 33.8754 60.1216C33.8682 60.4461 33.6302 60.6768 33.3093 60.6732C32.992 60.6696 32.718 60.3992 32.7143 60.0891C32.7107 59.7826 32.9884 59.5194 33.3165 59.5158Z" fill="#FFEB61" stroke="#FFEB61" stroke-width="0.1" stroke-miterlimit="10"/>
<path d="M39.597 25.7267C41.0682 26.0837 42.002 26.913 42.1643 28.4346C42.3266 29.9598 41.5009 30.9298 40.2244 31.6329C40.2461 31.6617 40.2677 31.6906 40.2893 31.7194C40.3975 31.7194 40.5057 31.7194 40.6139 31.7194C43.1487 31.7158 45.6871 31.7086 48.2255 31.7086C48.3986 31.7086 48.5789 31.7122 48.7483 31.741C49.0188 31.7879 49.163 31.9682 49.1558 32.2386C49.1485 32.5055 49.0188 32.6929 48.7447 32.7398C48.6041 32.7651 48.4563 32.7651 48.312 32.7651C45.8457 32.7687 43.383 32.7687 40.9167 32.7687C40.7977 32.7687 40.6751 32.7687 40.5417 32.7687C40.6391 33.3276 40.7473 33.8432 40.8158 34.3624C41.2088 37.4308 40.978 40.4308 39.7954 43.319C39.6872 43.5822 39.698 43.7877 39.8242 44.0437C40.567 45.5581 41.3278 47.0689 42.0057 48.6157C42.4996 49.7407 42.7773 50.9414 42.9612 52.1602C42.9756 52.2683 43.0405 52.3945 43.1198 52.4666C44.0249 53.2743 44.7712 54.1902 45.2219 55.3296C45.2544 55.4161 45.4167 55.5026 45.5212 55.5026C46.0441 55.5207 46.5741 55.5098 47.1005 55.5135C47.5584 55.5171 47.7712 55.6937 47.7748 56.0507C47.7748 56.4077 47.5548 56.5916 47.1041 56.5916C43.4948 56.5916 39.8855 56.5916 36.2762 56.5916C34.6572 56.5916 33.0383 56.5952 31.4193 56.5988C31.2967 56.5988 31.1705 56.5988 31.0479 56.5807C30.7414 56.5375 30.5539 56.3428 30.5539 56.0795C30.5503 55.7839 30.7487 55.5495 31.0696 55.5351C31.6248 55.5135 32.1837 55.5062 32.739 55.5243C32.9914 55.5315 33.096 55.4413 33.1825 55.2142C33.5719 54.2046 34.1849 53.3464 34.9998 52.6361C35.2269 52.4414 35.3603 52.2359 35.4108 51.9222C35.8002 49.4487 36.7377 47.1699 37.942 44.992C38.1223 44.6675 38.281 44.3322 38.4757 44.0149C38.6091 43.7949 38.5947 43.6038 38.5009 43.3766C37.1452 40.0882 37.019 36.6917 37.6536 33.2338C37.6788 33.0932 37.7185 32.9562 37.7654 32.7579C37.6247 32.7579 37.5057 32.7579 37.3904 32.7579C34.9962 32.7579 32.6056 32.7579 30.215 32.7542C30.0311 32.7542 29.84 32.7543 29.6597 32.7218C29.3893 32.6713 29.2559 32.4694 29.2559 32.2098C29.2559 31.943 29.4037 31.7591 29.6814 31.7266C29.8761 31.705 30.0708 31.705 30.2691 31.7086C32.7751 31.7122 35.281 31.7194 37.787 31.723C37.8735 31.723 37.9601 31.7014 38.0646 31.6112C37.9384 31.5355 37.8122 31.4598 37.686 31.3805C36.3735 30.58 35.8111 29.2567 36.2365 27.8361C36.5647 26.7399 37.3363 26.0765 38.4432 25.7988C38.5334 25.7772 38.6235 25.7628 38.7137 25.7375C38.7317 25.7339 38.7461 25.7159 38.7894 25.6835C38.7173 25.2039 38.6415 24.7063 38.5658 24.2087C38.537 24.0068 38.4829 23.8013 38.4757 23.5994C38.4685 23.365 38.3531 23.2785 38.1367 23.2496C37.4733 23.1595 36.8134 23.0513 36.15 22.9576C35.8687 22.9179 35.6308 22.8205 35.638 22.4924C35.6452 22.1679 35.8976 22.0814 36.168 22.0417C36.7882 21.948 37.412 21.8542 38.0322 21.7605C38.3098 21.7172 38.4793 21.6234 38.4937 21.2773C38.5081 20.8807 38.6199 20.484 38.6992 20.091C38.7497 19.8494 38.8723 19.6619 39.1499 19.6691C39.4384 19.6764 39.5898 19.8278 39.6331 20.1235C39.6944 20.5706 39.7918 21.0177 39.8567 21.4648C39.8783 21.6234 39.936 21.6956 40.1018 21.7172C40.7761 21.8073 41.4468 21.9119 42.1174 22.0165C42.2689 22.0417 42.4564 22.0489 42.5501 22.1427C42.6547 22.2508 42.7448 22.4708 42.7016 22.597C42.6547 22.7376 42.4672 22.8963 42.3194 22.9215C41.7424 23.0333 41.1583 23.0874 40.5742 23.1739C39.9071 23.2712 39.9071 23.2785 39.8278 23.9383C39.7413 24.5441 39.6692 25.1318 39.597 25.7267ZM34.1272 55.5207C37.5021 55.5207 40.841 55.5207 44.1943 55.5207C43.3542 53.5664 41.4576 52.189 39.2148 52.1637C36.9865 52.1349 34.9349 53.4906 34.1272 55.5207ZM41.8722 51.7491C41.8542 50.5556 39.8783 45.7023 39.1103 44.9523C37.9492 47.1013 36.8784 49.2756 36.4168 51.7419C38.2665 50.9991 40.0694 50.9775 41.8722 51.7491ZM41.1908 28.7195C41.2052 27.6486 40.2821 26.7291 39.1788 26.7183C38.061 26.7039 37.0875 27.6053 37.0731 28.6726C37.055 29.7831 38.0322 30.7927 39.1355 30.8036C40.2389 30.8108 41.1763 29.8625 41.1908 28.7195ZM39.031 42.2336C39.0778 42.2336 39.1247 42.23 39.1716 42.23C39.2148 42.1074 39.2653 41.9885 39.305 41.8623C40.2425 38.6748 40.2136 35.4802 39.3951 32.2783C39.3555 32.1269 39.2329 32.0007 39.1499 31.86C39.0634 31.9971 38.9372 32.1196 38.8975 32.2711C38.2016 34.8131 38.0718 37.3912 38.5262 39.9873C38.6487 40.7409 38.8579 41.4837 39.031 42.2336Z" fill="#FFEB61"/>
<path d="M22.7838 34.5427C20.7574 33.1257 20.7862 30.7459 21.9905 29.4803C23.2958 28.1029 25.571 28.1534 26.869 29.5849C28.0589 30.9009 27.958 33.3348 25.9532 34.5607C26.0686 34.7843 26.1876 35.0078 26.3065 35.2314C28.2356 38.9417 30.1647 42.6519 32.1009 46.3586C32.3137 46.766 32.4074 47.1518 32.2668 47.6242C31.3942 50.5448 29.6238 52.6145 26.6635 53.5123C23.3571 54.5147 19.8451 53.2383 17.8548 50.397C17.2454 49.528 16.8272 48.5689 16.5062 47.5629C16.3909 47.1915 16.4053 46.8634 16.582 46.5245C17.2058 45.3165 17.8115 44.1014 18.4389 42.8899C19.8632 40.146 21.2946 37.4092 22.7261 34.6689C22.7477 34.6364 22.7621 34.5968 22.7838 34.5427ZM31.1923 47.653C26.6491 47.653 22.1311 47.653 17.6024 47.653C18.749 51.0316 21.5614 52.9714 24.7381 52.8308C27.9724 52.6866 30.4062 50.3285 31.1923 47.653ZM23.8655 34.9574C23.8186 34.9393 23.7717 34.9249 23.7249 34.9069C21.7093 38.7902 19.6901 42.67 17.6529 46.5894C19.7802 46.5894 21.8247 46.5894 23.8691 46.5894C23.8655 42.6952 23.8655 38.8263 23.8655 34.9574ZM31.1129 46.6146C31.0697 46.5245 31.0517 46.4776 31.03 46.4307C29.905 44.2745 28.7837 42.1183 27.6587 39.9657C26.8222 38.3575 25.9856 36.7494 25.1419 35.1449C25.1022 35.0655 25.0229 35.0078 24.958 34.9429C24.9328 34.9574 24.9075 34.9718 24.8823 34.9898C24.8823 38.8587 24.8823 42.7276 24.8823 46.6146C26.952 46.6146 29.0072 46.6146 31.1129 46.6146ZM24.3991 29.4514C23.1516 29.4587 22.1131 30.4791 22.1167 31.6978C22.1203 32.9021 23.2165 33.9802 24.4316 33.9766C25.6034 33.973 26.6924 32.8516 26.6779 31.6653C26.6563 30.4394 25.6323 29.4442 24.3991 29.4514Z" fill="#FFEB61"/>
<path d="M52.2998 34.5572C51.7698 34.211 51.3227 33.7892 51.0198 33.2339C50.3924 32.0873 50.4248 30.9479 51.1604 29.877C51.9032 28.7989 52.9777 28.341 54.2685 28.4996C55.6567 28.6727 56.6447 29.5849 56.9764 30.9046C57.3009 32.1918 56.8214 33.5115 55.7108 34.3084C55.4728 34.4779 55.462 34.5932 55.5918 34.8456C57.5461 38.5415 59.4788 42.2518 61.4547 45.9404C61.8513 46.6832 61.9018 47.343 61.6025 48.129C60.7624 50.3141 59.4319 52.0448 57.2901 53.0797C53.1976 55.0592 48.3047 53.1662 46.5054 48.9007C46.3432 48.5113 46.217 48.1074 46.0727 47.7108C45.9033 47.2565 45.9754 46.8346 46.2026 46.4091C46.7614 45.3418 47.2879 44.2565 47.8432 43.1892C49.3035 40.3624 50.771 37.5355 52.2349 34.7086C52.2529 34.6654 52.271 34.6185 52.2998 34.5572ZM47.1148 47.6423C47.9477 50.5593 50.7998 53.022 54.218 52.8381C57.4127 52.665 59.9439 50.26 60.6794 47.6423C56.1651 47.6423 51.6544 47.6423 47.1148 47.6423ZM53.3923 34.943C53.0534 35.1233 48.0451 44.6604 47.2482 46.6002C49.3035 46.6002 51.3443 46.6002 53.3923 46.6002C53.3923 42.7097 53.3923 38.8335 53.3923 34.943ZM60.6758 46.6038C58.6098 42.6808 56.5762 38.8119 54.5389 34.9394C54.5065 34.9538 54.4704 34.9646 54.4344 34.9791C54.4344 38.848 54.4344 42.7169 54.4344 46.6038C56.5004 46.6038 58.5665 46.6038 60.6758 46.6038ZM56.093 31.7231C56.0894 30.4683 55.0726 29.4371 53.8466 29.4443C52.6135 29.4515 51.5715 30.4827 51.5859 31.6834C51.5967 32.895 52.6748 33.9731 53.8611 33.9695C55.0365 33.9622 56.0966 32.9022 56.093 31.7231Z" fill="#FFEB61"/>
</svg>
